<svg width="521" height="531" viewBox="0 0 521 531" fill="none" xmlns="http://www.w3.org/2000/svg">
<ellipse cx="260.5" cy="471" rx="143.5" ry="9" fill="#1E1E1E" fill-opacity="0.08"/>
<g clip-path="url(#clip0_132_417)">
<path d="M183.618 379.854C181.192 377.331 177.879 373.39 175.371 370.561C160.228 353.437 147.422 334.522 134.928 315.436C131.189 305.896 123.293 294.685 118.562 284.914C97.6497 241.739 82.6936 190.003 84.0892 141.85C84.4773 128.541 86.8058 113.791 92.5599 101.654C93.9555 98.7128 96.0899 93.1443 100.016 94.4133C143.153 119.367 226.352 103.154 253.369 60.562C255.466 57.2627 257.824 47.4395 263.13 52.3511C264.347 53.4782 265.66 57.621 266.81 59.405C293.192 100.564 364.592 116.008 408.819 99.9967C411.856 98.8994 421.088 93.8982 423.111 94.2192C425.544 94.5999 429.298 103.893 430.275 106.439C446.314 148.172 430.604 215.479 414.715 256.205C391.258 316.317 334.747 403.994 271.146 426.201C264.116 428.657 262.28 430.082 254.675 428C230.643 421.409 200.761 397.731 183.618 379.862V379.854ZM165.721 273.919C165.55 275.605 162.131 281.816 162.863 282.503H170.02C208.731 366.888 335.531 349.974 356.905 261.035C370.488 241.299 368.652 211.068 351.89 193.75C351.248 193.086 350.934 191.921 349.74 191.6C301.984 96.3242 155.071 139.857 160.676 245.673C161.072 253.085 166.206 269.164 165.721 273.919Z" fill="#5E130E"/>
<path d="M349.741 191.608C350.174 192.474 350.95 193.273 351.174 193.758C360.525 214.106 362.093 239.433 356.906 261.042C335.531 349.981 208.732 366.896 170.021 282.518C169.133 280.577 168.401 278.099 167.543 276.016C167.088 274.919 167.618 273.508 165.73 273.933C166.215 269.179 161.08 253.1 160.684 245.688C155.08 139.872 301.984 96.3392 349.749 191.615L349.741 191.608ZM321.098 179.433C321.075 178.015 320.224 177.426 319.299 176.582C292.521 152.196 254.258 148.546 222.315 165.154C221.643 166.109 226.726 173.514 227.719 175.082C242.869 198.99 259.041 222.339 274.557 246.001C282.573 258.221 290.931 270.433 298.902 282.503C302.604 288.116 305.873 296.006 310.477 301.343C311.067 302.022 311.612 303.411 312.769 303.209C321.418 296.446 327.852 288.429 333.27 278.92C338.688 269.41 342.591 259.355 344.009 248.144C345.853 233.543 344.435 218.928 338.994 205.201C336.994 200.147 333.382 193.735 330.27 189.227C328.404 186.532 323.874 180.367 321.09 179.433H321.098ZM201.523 181.583C186.88 195.504 178.193 217.644 177.141 237.738C177.006 240.373 176.708 244.352 177.894 246.718C177.663 255.944 180.805 264.879 184.335 273.202C200.336 310.897 241.309 329.775 281.005 319.377C283.282 318.78 291.663 316.16 293.141 315.048C293.917 314.465 294.208 314.152 293.536 313.279L247.339 243.135L206.546 179.777C203.963 177 202.986 180.187 201.515 181.576L201.523 181.583Z" fill="#DB0F15"/>
<path d="M356.899 261.035C362.093 239.425 360.526 214.098 351.167 193.75H351.883C368.638 211.068 370.482 241.299 356.899 261.035Z" fill="#FBF5F3"/>
<path d="M165.722 273.919C167.611 273.501 167.088 274.912 167.536 276.002C168.394 278.084 169.126 280.562 170.014 282.503H162.857C162.133 281.809 165.543 275.606 165.715 273.912L165.722 273.919Z" fill="#FBF5F3"/>
<path d="M351.891 193.75H351.174C350.95 193.273 350.174 192.466 349.741 191.601C350.935 191.922 351.249 193.086 351.891 193.75Z" fill="#F6F2F1"/>
<path d="M184.335 273.202L189.104 262.43L235.458 262.415L243.413 282.502H261.676L247.354 243.135L293.551 313.278C294.223 314.152 293.931 314.465 293.155 315.047C291.678 316.16 283.296 318.78 281.02 319.377C241.316 329.775 200.351 310.897 184.35 273.202H184.335Z" fill="#5E130E"/>
<path d="M247.347 243.143L261.668 282.51H243.406L235.45 262.423L189.097 262.438L184.328 273.209C180.798 264.886 177.656 255.951 177.887 246.725C177.924 245.076 177.723 243.434 178.38 241.844L201.523 181.591C202.986 180.195 203.971 177.007 206.553 179.792L247.347 243.15V243.143ZM195.075 246.718H229.443L212.606 200.901L195.067 246.718H195.075Z" fill="#FEFDFC"/>
<path d="M339.001 205.209C344.434 218.943 345.86 233.551 344.016 248.152C339.501 254.922 335.098 260.252 327.202 263.2C325.038 264.006 318.373 266.051 316.448 266.051H292.461V195.191H317.164C319.037 195.191 325.247 197.117 327.321 197.923C331.844 199.692 335.016 202.738 339.009 205.209H339.001Z" fill="#5E130E"/>
<path d="M321.098 179.433C319.814 179 318.553 178.799 317.195 178.694C303.477 177.627 288.409 179.545 274.55 178.717V246.001C259.034 222.339 242.862 198.99 227.711 175.082C226.719 173.514 221.636 166.109 222.308 165.154C254.25 148.545 292.514 152.196 319.292 176.582C320.217 177.425 321.068 178.023 321.09 179.433H321.098Z" fill="#5E130E"/>
<path d="M321.098 179.433C323.882 180.366 328.412 186.532 330.278 189.227C333.39 193.728 337.002 200.147 339.002 205.201C335.009 202.73 331.837 199.684 327.315 197.915C325.247 197.109 319.038 195.183 317.157 195.183H292.454V266.043H316.441C318.366 266.043 325.031 264.006 327.195 263.192C335.084 260.251 339.495 254.914 344.01 248.144C342.592 259.363 338.823 269.178 333.27 278.92C322.24 282.809 310.47 282.689 298.902 282.495C290.932 270.425 282.573 258.213 274.558 245.994V178.709C288.409 179.538 303.485 177.62 317.195 178.687C318.553 178.791 319.814 179 321.098 179.426V179.433Z" fill="#FDFBFB"/>
<path d="M298.902 282.51C310.47 282.704 322.24 282.816 333.27 278.935C327.852 288.437 321.419 296.454 312.769 303.224C311.612 303.425 311.067 302.037 310.478 301.358C305.873 296.013 302.604 288.131 298.902 282.518V282.51Z" fill="#5E130E"/>
<path d="M177.894 246.718C176.707 244.352 177.006 240.366 177.14 237.738C178.185 217.644 186.88 195.504 201.522 181.583L178.379 241.836C177.722 243.426 177.931 245.068 177.887 246.718H177.894Z" fill="#621B13"/>
<path d="M195.074 246.719L212.613 200.909L229.45 246.719H195.074Z" fill="#621B13"/>
</g>
<defs>
<clipPath id="clip0_132_417">
<rect width="353" height="378" fill="white" transform="translate(84 51)"/>
</clipPath>
</defs>
</svg>
