<svg width="521" height="531" viewBox="0 0 521 531" fill="none" xmlns="http://www.w3.org/2000/svg">
<ellipse cx="260.5" cy="496" rx="143.5" ry="9" fill="#1E1E1E" fill-opacity="0.08"/>
<g clip-path="url(#clip0_132_417)">
<path d="M183.618 404.854C181.192 402.331 177.879 398.39 175.371 395.561C160.228 378.437 147.422 359.522 134.928 340.436C131.189 330.896 123.293 319.685 118.562 309.914C97.6497 266.739 82.6936 215.003 84.0892 166.85C84.4773 153.541 86.8058 138.791 92.5599 126.654C93.9555 123.713 96.0899 118.144 100.016 119.413C143.153 144.367 226.352 128.154 253.369 85.562C255.466 82.2627 257.824 72.4395 263.13 77.3511C264.347 78.4782 265.66 82.621 266.81 84.405C293.192 125.564 364.592 141.008 408.819 124.997C411.856 123.899 421.088 118.898 423.111 119.219C425.544 119.6 429.298 128.893 430.275 131.439C446.314 173.172 430.604 240.479 414.715 281.205C391.258 341.317 334.747 428.994 271.146 451.201C264.116 453.657 262.28 455.082 254.675 453C230.643 446.409 200.761 422.731 183.618 404.862V404.854ZM165.721 298.919C165.55 300.605 162.131 306.816 162.863 307.503H170.02C208.731 391.888 335.531 374.974 356.905 286.035C370.488 266.299 368.652 236.068 351.89 218.75C351.248 218.086 350.934 216.921 349.74 216.6C301.984 121.324 155.071 164.857 160.676 270.673C161.072 278.085 166.206 294.164 165.721 298.919Z" fill="#5E130E"/>
<path d="M349.741 216.608C350.174 217.474 350.95 218.273 351.174 218.758C360.525 239.106 362.093 264.433 356.906 286.042C335.531 374.981 208.732 391.896 170.021 307.518C169.133 305.577 168.401 303.099 167.543 301.016C167.088 299.919 167.618 298.508 165.73 298.933C166.215 294.179 161.08 278.1 160.684 270.688C155.08 164.872 301.984 121.339 349.749 216.615L349.741 216.608ZM321.098 204.433C321.075 203.015 320.224 202.426 319.299 201.582C292.521 177.196 254.258 173.546 222.315 190.154C221.643 191.109 226.726 198.514 227.719 200.082C242.869 223.99 259.041 247.339 274.557 271.001C282.573 283.221 290.931 295.433 298.902 307.503C302.604 313.116 305.873 321.006 310.477 326.343C311.067 327.022 311.612 328.411 312.769 328.209C321.418 321.446 327.852 313.429 333.27 303.92C338.688 294.41 342.591 284.355 344.009 273.144C345.853 258.543 344.435 243.928 338.994 230.201C336.994 225.147 333.382 218.735 330.27 214.227C328.404 211.532 323.874 205.367 321.09 204.433H321.098ZM201.523 206.583C186.88 220.504 178.193 242.644 177.141 262.738C177.006 265.373 176.708 269.352 177.894 271.718C177.663 280.944 180.805 289.879 184.335 298.202C200.336 335.897 241.309 354.775 281.005 344.377C283.282 343.78 291.663 341.16 293.141 340.048C293.917 339.465 294.208 339.152 293.536 338.279L247.339 268.135L206.546 204.777C203.963 202 202.986 205.187 201.515 206.576L201.523 206.583Z" fill="#DB0F15"/>
<path d="M356.899 286.035C362.093 264.425 360.526 239.098 351.167 218.75H351.883C368.638 236.068 370.482 266.299 356.899 286.035Z" fill="#FBF5F3"/>
<path d="M165.722 298.919C167.611 298.501 167.088 299.912 167.536 301.002C168.394 303.084 169.126 305.562 170.014 307.503H162.857C162.133 306.809 165.543 300.606 165.715 298.912L165.722 298.919Z" fill="#FBF5F3"/>
<path d="M351.891 218.75H351.174C350.95 218.273 350.174 217.466 349.741 216.601C350.935 216.922 351.249 218.086 351.891 218.75Z" fill="#F6F2F1"/>
<path d="M184.335 298.202L189.104 287.43L235.458 287.415L243.413 307.502H261.676L247.354 268.135L293.551 338.278C294.223 339.152 293.931 339.465 293.155 340.047C291.678 341.16 283.296 343.78 281.02 344.377C241.316 354.775 200.351 335.897 184.35 298.202H184.335Z" fill="#5E130E"/>
<path d="M247.347 268.142L261.668 307.51H243.406L235.45 287.423L189.097 287.438L184.328 298.209C180.798 289.886 177.656 280.951 177.887 271.725C177.924 270.076 177.723 268.434 178.38 266.844L201.523 206.591C202.986 205.195 203.971 202.007 206.553 204.792L247.347 268.15V268.142ZM195.075 271.718H229.443L212.606 225.901L195.067 271.718H195.075Z" fill="#FEFDFC"/>
<path d="M339.001 230.209C344.434 243.943 345.86 258.551 344.016 273.152C339.501 279.922 335.098 285.252 327.202 288.2C325.038 289.006 318.373 291.051 316.448 291.051H292.461V220.191H317.164C319.037 220.191 325.247 222.117 327.321 222.923C331.844 224.692 335.016 227.738 339.009 230.209H339.001Z" fill="#5E130E"/>
<path d="M321.098 204.433C319.814 204 318.553 203.799 317.195 203.694C303.477 202.627 288.409 204.545 274.55 203.717V271.001C259.034 247.339 242.862 223.99 227.711 200.082C226.719 198.514 221.636 191.109 222.308 190.154C254.25 173.545 292.514 177.196 319.292 201.582C320.217 202.425 321.068 203.023 321.09 204.433H321.098Z" fill="#5E130E"/>
<path d="M321.098 204.433C323.882 205.366 328.412 211.532 330.278 214.227C333.39 218.728 337.002 225.147 339.002 230.201C335.009 227.73 331.837 224.684 327.315 222.915C325.247 222.109 319.038 220.183 317.157 220.183H292.454V291.043H316.441C318.366 291.043 325.031 289.006 327.195 288.192C335.084 285.251 339.495 279.914 344.01 273.144C342.592 284.363 338.823 294.179 333.27 303.92C322.24 307.809 310.47 307.689 298.902 307.495C290.932 295.425 282.573 283.213 274.558 270.994V203.709C288.409 204.538 303.485 202.62 317.195 203.687C318.553 203.791 319.814 204 321.098 204.426V204.433Z" fill="#FDFBFB"/>
<path d="M298.902 307.51C310.47 307.704 322.24 307.816 333.27 303.935C327.852 313.437 321.419 321.454 312.769 328.224C311.612 328.425 311.067 327.037 310.478 326.358C305.873 321.013 302.604 313.131 298.902 307.518V307.51Z" fill="#5E130E"/>
<path d="M177.894 271.718C176.707 269.352 177.006 265.366 177.14 262.738C178.185 242.644 186.88 220.504 201.522 206.583L178.379 266.836C177.722 268.426 177.931 270.068 177.887 271.718H177.894Z" fill="#621B13"/>
<path d="M195.074 271.719L212.613 225.909L229.45 271.719H195.074Z" fill="#621B13"/>
</g>
<defs>
<clipPath id="clip0_132_417">
<rect width="353" height="378" fill="white" transform="translate(84 76)"/>
</clipPath>
</defs>
</svg>
