<svg width="160" height="160" viewBox="0 0 160 160" fill="none" xmlns="http://www.w3.org/2000/svg">
<path d="M136.702 40.8801C136.164 40.8769 135.647 40.6775 135.247 40.3193C134.846 39.9613 134.59 39.469 134.525 38.9352C134.462 38.4014 134.596 37.8628 134.901 37.4206C135.208 36.9785 135.665 36.6633 136.187 36.5342L142.213 35.0866C142.498 35.0083 142.797 34.9881 143.09 35.0272C143.384 35.0664 143.665 35.1642 143.919 35.3147C144.174 35.4652 144.394 35.6654 144.57 35.9034C144.746 36.1413 144.872 36.4121 144.94 36.6997C145.009 36.9872 145.019 37.2856 144.969 37.577C144.92 37.8685 144.813 38.147 144.653 38.396C144.493 38.645 144.285 38.8594 144.043 39.0264C143.798 39.1934 143.523 39.3096 143.234 39.3681L137.21 40.8156C137.04 40.8585 136.866 40.8803 136.692 40.8801" fill="white"/>
<path d="M130.361 33.2225C129.953 33.219 129.557 33.1013 129.213 32.8827C128.966 32.7319 128.75 32.534 128.58 32.3003C128.41 32.0665 128.287 31.8014 128.22 31.5203C128.152 31.2391 128.139 30.9474 128.186 30.6617C128.23 30.376 128.332 30.1019 128.481 29.8552L130.881 25.9407C131.018 25.6693 131.21 25.4294 131.447 25.2362C131.681 25.0429 131.954 24.9005 132.247 24.8179C132.541 24.7353 132.846 24.7144 133.149 24.7564C133.45 24.7984 133.739 24.9025 133.998 25.062C134.257 25.2216 134.481 25.4331 134.655 25.6833C134.827 25.9335 134.946 26.2169 135.005 26.5156C135.064 26.8144 135.059 27.1219 134.993 27.4189C134.926 27.7159 134.799 27.9959 134.619 28.2411L132.239 32.1556C132.043 32.4779 131.768 32.7441 131.439 32.9286C131.109 33.1131 130.737 33.2097 130.361 33.2089" fill="white"/>
<path d="M138.432 52.9839C138.026 52.9794 137.628 52.8618 137.284 52.644L133.374 50.2654C133.101 50.1287 132.859 49.9369 132.664 49.7018C132.468 49.4669 132.325 49.1939 132.242 48.9004C132.157 48.6069 132.137 48.299 132.177 47.9967C132.22 47.6943 132.323 47.4038 132.483 47.1436C132.642 46.8837 132.855 46.6597 133.107 46.486C133.358 46.3121 133.641 46.1927 133.942 46.1346C134.241 46.0768 134.549 46.0819 134.848 46.1494C135.145 46.2171 135.426 46.3459 135.671 46.5276L139.584 48.9063C139.993 49.1574 140.308 49.5348 140.482 49.9814C140.658 50.4279 140.68 50.9192 140.551 51.3805C140.419 51.8419 140.142 52.248 139.76 52.5375C139.378 52.8268 138.913 52.9835 138.432 52.9839Z" fill="white"/>
<path d="M28.6036 139.915C28.2216 139.595 27.9628 139.15 27.8759 138.659L18.1236 116.124C14.1208 108.608 12.9847 99.8955 14.9234 91.6045L19.941 70.1465C20.0421 69.7133 20.2908 69.3288 20.6446 69.0587C20.9984 68.7884 21.433 68.6493 21.8778 68.6649C22.3225 68.6806 22.747 68.85 23.0806 69.1444C23.4142 69.4387 23.6365 69.8398 23.7053 70.2789L27.1319 91.2715L31.3692 88.774L67.5864 68.3863C68.2414 68.0539 68.7609 67.5045 69.054 66.8319C69.3472 66.1593 69.3997 65.4054 69.1976 64.6995L61.8753 47.2782C61.4993 45.9557 61.5761 44.545 62.0957 43.272L66.8909 31.5015C67.6127 29.7251 68.9024 28.2368 70.5581 27.2677L84.1049 19.3301C84.2606 19.239 84.4425 19.2054 84.6204 19.2352C84.7983 19.265 84.9601 19.3563 85.0773 19.4932L85.4432 19.9519C85.5099 20.0307 85.5544 20.1257 85.5706 20.2273C85.5888 20.3289 85.5787 20.4332 85.5423 20.5296L81.863 30.105C87.0585 32.4801 92.3955 34.1145 99.6309 34.1145C105.817 34.1145 111.447 33.5267 117.075 31.1685C117.377 31.0358 117.714 31.0054 118.036 31.0821C118.355 31.1588 118.642 31.3383 118.852 31.5933L122.54 36.1363C122.756 36.4025 122.877 36.7331 122.887 37.0762C122.896 37.4194 122.79 37.7557 122.586 38.0324C119.58 42.5347 115.11 47.9068 109.895 51.5222C109.777 51.6053 109.69 51.7252 109.648 51.863C109.606 52.0007 109.61 52.1489 109.66 52.2839C109.711 52.4192 109.804 52.5338 109.927 52.6098C110.048 52.686 110.194 52.7194 110.337 52.7046L120.439 52.0796C120.631 52.0792 120.821 52.1166 120.999 52.1901C121.177 52.2635 121.339 52.3713 121.476 52.5075C121.612 52.6436 121.719 52.8051 121.794 52.983C121.867 53.1609 121.905 53.3516 121.903 53.544V55.9667C121.903 56.1907 121.84 56.4101 121.719 56.5991C121.598 56.7881 121.428 56.9389 121.224 57.0337C117.421 58.7432 113.914 61.0462 110.833 63.8569C104.744 69.2697 100.716 74.6656 99.1983 86.2832C95.99 110.701 96.6268 121.884 97.3505 126.535C97.4839 127.397 97.8438 128.208 98.3896 128.887C98.9355 129.567 99.6511 130.092 100.462 130.409L106.919 132.941C107.339 133.106 107.685 133.422 107.885 133.827C108.087 134.231 108.134 134.696 108.012 135.132L106.549 140.409H88.1987C87.7357 140.407 87.287 140.253 86.919 139.971C86.5511 139.69 86.2842 139.296 86.1609 138.849L79.6574 115.166C79.6068 114.987 79.5199 114.822 79.3966 114.683C79.2753 114.543 79.1257 114.433 78.9559 114.359C78.784 114.286 78.6001 114.252 78.4161 114.259C78.2301 114.266 78.0502 114.315 77.8865 114.401L52.4485 128.955L65.3444 133.012C65.7972 133.155 66.1753 133.467 66.3997 133.884C66.6261 134.3 66.6807 134.788 66.5553 135.244L65.12 140.409H29.9682C29.4689 140.41 28.9857 140.235 28.6036 139.915Z" fill="white"/>
</svg>
