<svg width="820" height="464" viewBox="0 0 820 464" fill="none" xmlns="http://www.w3.org/2000/svg">
<path d="M118.727 196.738C135.776 196.357 152.733 197.146 169.846 197.222L169.842 197.228L169.846 197.227H170.683C213.517 197.408 256.4 196.734 299.237 197.213L506.055 197.209C553.605 196.588 601.293 197.071 648.843 197.222H649.677L649.677 197.222C667.601 197.284 685.558 196.996 703.481 197.439C722.034 210.867 745.489 220.803 763.56 234.44H763.564L763.016 236.223C734.66 236.795 706.292 237.368 677.907 237.94L675.632 236.214C674.882 237.613 674.21 237.815 673.952 237.148C673.869 237.309 673.75 237.431 673.588 237.491C672.499 237.895 671.409 238.011 670.287 238.024C624.971 238.613 532.868 237.733 532.71 237.731L271.003 238.876H155.385L154.355 237.101C153.86 239.878 146.169 238.813 145.562 236.214C145.897 238.565 145.528 238.751 143.886 237.101C143.576 237.931 142.512 238.498 141.649 238.876H54.4623L53.4485 237.101C53.8549 235.274 58.6515 232.767 60.4235 231.632C79.4962 219.428 99.7251 209.101 118.727 196.738Z" fill="#402F48"/>
<path fill-rule="evenodd" clip-rule="evenodd" d="M256.462 35.8868C255.579 37.2352 256.119 61.0736 256.098 65.1849L256.104 65.183L256.102 65.1862V66.9606C255.93 108.61 255.926 150.321 256.467 191.966L308.021 192.795L495.59 191.903C503.478 190.555 561.132 194.006 563.055 191.074C564.718 188.541 563.528 137.071 563.461 129.388C563.285 108.721 562.795 87.7341 562.586 66.9561L562.586 66.0734L562.586 66.0711V66.0689C562.469 55.3975 562.996 44.6995 561.266 34.1567L258.188 35.0572C257.526 35.1105 256.865 35.2702 256.462 35.8868ZM548.347 47.4646C548.548 49.1414 550.308 49.7047 551.698 50.1217C550.629 51.2901 550.93 52.4011 552.525 51.8996L552.528 51.8916L552.532 51.8975L552.536 51.8961L552.539 51.9084L552.532 51.8975L552.525 51.8996L551.376 55.3916C551.481 95.9317 551.585 136.414 551.694 176.839C551.108 177.624 550.965 178.653 551.275 179.922C527.134 179.705 502.431 179.86 477.167 180.383C476.279 178.219 475.83 177.988 475.491 180.383L321.418 181.275C318.469 176.869 277.741 181.632 271.049 181.687C270.282 180.383 268.979 179.94 267.14 180.361L266.985 53.3999L265.315 52.7806L265.313 52.7803L265.302 52.7965L265.306 52.7788L265.313 52.7803L265.31 52.7788H265.314L265.313 52.7803L265.315 52.7806C266.562 53.0275 267.439 52.1575 267.949 50.1705C272.599 50.8315 276.465 50.2193 279.54 48.3473L289.778 49.2789C377.367 49.1059 463.557 48.4982 548.347 47.4646Z" fill="#3F2953"/>
<path d="M82.7507 257.484C88.0413 257.444 93.3739 257.529 98.6646 257.484V257.48L100.353 258.27C100.6 272.575 100.843 286.89 101.09 301.222C101.09 339.758 99.8944 383.667 101.09 426.924C96.7837 430.584 85.7634 431.462 83.6102 425.38C83.983 394.205 82.9316 363.069 82.7515 331.915V331.028C82.7525 331.025 82.7533 331.022 82.7544 331.019C82.62 307.667 81.691 282.397 82.7548 259.254C82.7799 258.664 82.7088 258.07 82.7507 257.484Z" fill="#352A3A"/>
<path d="M737.595 330.132L737.605 330.145V258.367L719.181 258.367V299.932C719.181 330.145 720.322 385.356 719.181 425.39C722.683 430.118 734.965 432.119 737.587 425.39C737.621 393.939 737.604 362.47 737.604 331.033V330.145H737.6L737.595 330.132Z" fill="#352A3A"/>
<path d="M763.564 234.435C764.214 234.923 765.588 235.127 766.069 235.739C767.267 237.256 767.305 251.566 766.953 254.415C766.798 255.652 766.76 256.713 765.738 257.56C763.857 259.126 742.032 258.323 737.605 258.358V258.367C723.102 259.911 702.994 259.024 689.032 258.367L689.031 258.367L689.032 258.368C642.525 257.046 595.143 260.119 548.724 258.403L132.445 257.418C132.445 257.418 92.2306 258.491 79.9021 257.418C75.6877 257.051 55.9617 258.371 54.2274 257.094C53.2557 256.373 52.9665 239.249 53.444 237.101C83.6738 237.101 116.333 237.097 146.06 237.097C147.899 237.097 152.13 237.097 154.354 237.097C280.319 237.097 406.278 236.654 532.243 236.211L532.437 236.21C559.934 236.179 587.452 236.232 614.957 236.258C633.167 236.276 651.825 236.312 670.244 236.25C671.56 236.25 672.833 236.112 673.956 235.327H673.96L675.634 236.213L675.636 236.21L763.564 234.435Z" fill="#302037"/>
<path d="M279.544 48.3476C294.043 49.5409 308.746 49.7449 323.651 48.9686L325.603 50.122L327.295 50.6809C328.665 91.8421 330.577 140.087 331.947 181.275H321.414C318.582 180.126 315.654 181.027 320.576 181.275L265.302 182.167V52.7836C265.926 51.8698 265.494 49.2348 267.538 48.494C271.531 48.148 275.552 48.423 279.544 48.352V48.3476Z" fill="#92C2D0"/>
<path d="M551.699 50.122C551.372 89.9302 551.338 130.182 551.594 170.877L550.861 176.839C551.347 177.265 551.288 179.931 551.133 179.94C533.158 180.135 515.199 179.989 497.266 179.496L495.599 178.858C496.152 136.011 496.701 93.1595 497.254 50.295L498.942 49.2348L503.906 48.148L548.347 47.4648C549.005 47.6689 549.994 47.2519 550.873 47.8951C551.82 48.5916 551.493 49.8203 551.699 50.122Z" fill="#92C3D0"/>
<path d="M548.352 47.4602L533.732 49.27C522.136 49.27 510.528 49.1458 498.946 49.2346C441.288 52.5172 383.282 53.0362 325.603 50.1217C312.701 50.0996 298.768 51.0577 285.798 50.1528C283.767 50.0109 281.17 49.7624 279.548 48.3474C364.745 46.848 450.168 48.4183 535.336 46.5331C539.802 46.4355 544.196 46.1604 548.356 47.4602H548.352Z" fill="#A3D5DA"/>
<path d="M552.537 51.8915C552.348 64.7336 552.775 77.6245 552.57 90.4754C552.122 118.409 553.27 149.354 551.699 176.839C551.46 177.611 551.179 177.602 550.861 176.839C553.479 137.093 547.79 94.2814 549.977 54.0607C550.065 52.4061 549.789 50.7382 551.699 50.1216C552.164 50.8003 552.302 51.5455 552.537 51.896V51.8915Z" fill="#A5D4DB"/>
<path d="M551.699 176.839C551.631 178.014 551.757 179.212 551.703 180.388H477.171L478.214 178.414C484.024 177.952 489.843 177.73 495.666 177.753L497.27 179.496C515.107 179.075 533.028 179.811 550.869 179.496C550.358 178.405 550.815 177.606 550.865 176.839H551.703H551.699Z" fill="#9FCFDE"/>
<path d="M498.946 49.2344L497.27 179.5C492.729 179.607 480.522 179.611 477.171 180.388C476.681 180.503 476.031 180.312 475.495 180.388C457.515 169.727 421.054 173.525 428.603 140.508C428.741 139.803 428.968 138.761 429.483 138.676C434.872 137.8 449.889 136.566 455.405 137.008C455.527 137.017 455.644 137.028 455.757 137.04L457.08 138.734L455.405 137.918V137.008V87.0686L456.258 86.5287L457.08 86.0084C456.761 86.2387 456.488 86.4115 456.258 86.5287C455.701 86.8127 455.403 86.7699 455.348 86.4257C455.296 86.1022 455.459 85.5124 455.824 84.6776C455.82 85.3095 455.698 86.2528 455.348 86.4257C455.319 86.4397 455.289 86.4486 455.258 86.452C448.086 87.1928 432.047 87.3081 424.984 86.452L423.999 84.6776C422.948 92.2054 422.805 100.301 423.568 108.964L421.905 110.375C422.445 116.599 422.592 123.017 422.361 129.281C422.244 132.519 413.895 122.876 413.246 121.86C410.012 120.059 408.433 118.005 408.508 115.694C408.307 114.966 408.248 114.097 408.768 113.658C414.666 108.712 420.899 101.131 408.81 102.998C406.074 100.798 402.878 100.239 399.221 101.321C396.385 95.3948 393.847 94.9779 391.61 100.07C387.404 98.948 384.865 100.452 383.998 104.586L382.666 105.775C377.903 106.254 374.212 107.78 378.963 112.442C380.333 115.618 379.621 115.68 376.68 115.694C375.444 117.619 373.601 119.198 371.15 120.436C368.943 123.195 366.597 124.863 364.121 125.444L362.471 125.998C354.369 123.448 353.456 129.503 354.583 136.418C349.711 139.71 349.522 141.999 352.89 147.025C349.007 153.319 348.668 158.088 356.937 160.018L358.261 161.779C360.682 162.369 359.727 166.224 357.423 166.21C347.855 167.772 338.291 171.125 329.788 175.956L325.598 50.1216C383.437 50.2325 441.183 49.6735 498.941 49.2344H498.946Z" fill="#98D6DE"/>
<path d="M428.603 140.508C428.741 139.803 428.968 138.761 429.483 138.676C434.872 137.8 449.889 136.566 455.405 137.008V87.0686L456.258 86.5287C455.701 86.8127 455.403 86.7699 455.348 86.4257C455.319 86.4397 455.289 86.4486 455.258 86.452C448.086 87.1928 432.047 87.3081 424.984 86.452L423.999 84.6776C422.948 92.2054 422.805 100.301 423.568 108.964L421.905 110.375C422.445 116.599 422.592 123.017 422.361 129.281C422.244 132.519 413.895 122.876 413.246 121.86C410.012 120.059 408.433 118.005 408.508 115.694C408.307 114.966 408.248 114.097 408.768 113.658C414.666 108.712 420.899 101.131 408.81 102.998C406.074 100.798 402.878 100.239 399.221 101.321C396.385 95.3948 393.847 94.9779 391.61 100.07C387.404 98.948 384.865 100.452 383.998 104.586L382.666 105.775C377.903 106.254 374.212 107.78 378.963 112.442C380.333 115.618 379.621 115.68 376.68 115.694C375.444 117.619 373.601 119.198 371.15 120.436C368.943 123.195 366.597 124.863 364.121 125.444L362.471 125.998C354.369 123.448 353.456 129.503 354.583 136.418C349.711 139.71 349.522 141.999 352.89 147.025C349.007 153.319 348.668 158.088 356.937 160.018L358.261 161.779C360.682 162.369 359.727 166.224 357.423 166.21C347.855 167.772 338.291 171.125 329.788 175.956L330.173 181.208L475.495 180.388C457.515 169.727 421.054 173.525 428.603 140.508Z" fill="#98D6DE"/>
<path d="M314.51 53.8789C317.019 56.4828 315.294 61.2203 310.958 61.6418C302.643 62.4491 292.681 61.4865 284.119 61.5974C281.153 61.6373 279.737 63.8331 277.479 60.728C274.911 57.1969 276.922 53.4929 280.855 52.8364C286.821 51.8427 303.749 52.1621 310.149 52.7432C311.469 52.863 313.555 52.8852 314.514 53.8789H314.51Z" fill="#C2E1E7"/>
<path d="M275.967 67.9854C283.549 66.7567 284.303 82.8458 276.616 82.8458C269.859 82.8458 269.059 69.1033 275.967 67.9854Z" fill="#44285D"/>
<path d="M275.133 91.0431C282.104 89.4861 284.492 100.851 279.18 104.231C270.986 109.452 267.681 92.7066 275.133 91.0431Z" fill="#616262"/>
<path d="M266.148 87.3394C267.622 87.1398 266.943 89.34 266.985 90.4312C267.66 107.638 266.751 125.457 266.952 142.758C267.09 154.792 269.252 167.736 267.337 179.807C267.186 180.756 268.699 181.905 266.152 181.266V87.3349L266.148 87.3394Z" fill="#A5D6DC"/>
<path d="M313.878 92.6535C314.883 93.758 313.178 96.1978 311.783 96.1978H283.729C283.39 95.1687 284.098 92.6535 284.986 92.6535C288.831 92.6535 312.877 91.5534 313.878 92.6535Z" fill="#65696A"/>
<path d="M275.141 159.255C282.812 157.707 283.306 170.66 277.404 171.547C269.951 172.665 268.971 160.501 275.141 159.255Z" fill="#616262"/>
<path d="M312.621 144.94C315.193 145.743 313.643 148.485 310.945 148.485H282.891L282.883 145.828C284.688 146.679 287.42 144.94 288.333 144.94C293.247 144.94 309.295 143.902 312.617 144.94H312.621Z" fill="#646768"/>
<path d="M274.287 118.515C282.363 116.027 283.842 133.584 274.282 130.581C269.867 129.193 269.922 119.86 274.287 118.515Z" fill="#616262"/>
<path d="M274.283 139.803C281.949 137.399 283.025 149.385 278.124 150.977C270.659 153.404 268.762 141.533 274.283 139.803Z" fill="#616363"/>
<path d="M314.716 75.8193L312.617 78.472C304.348 77.3985 295.496 80.0823 287.457 79.408C282.179 78.9689 283.298 75.8193 285.828 75.8193H314.72H314.716Z" fill="#626566"/>
<path d="M306.337 166.21C306.337 167.16 306.568 168.047 305.969 168.916C304.867 170.513 292.036 169.626 289.137 169.71C286.67 169.786 279.159 171.693 284.99 167.098L306.333 166.21H306.337Z" fill="#636768"/>
<path d="M284.152 162.662C283.93 162.604 282.514 161.358 283.306 160.887C283.955 159.92 298.039 158.421 299.668 159.53C301.298 160.639 299.802 162.657 299.224 162.657C295.575 162.657 286.98 163.403 284.152 162.657V162.662Z" fill="#666A6C"/>
<path d="M321.413 181.27C305.094 181.27 288.724 181.785 272.41 181.27C271.685 181.248 269.394 181.634 270.751 180.379C286.36 180.791 302.048 179.842 317.643 180.379C318.804 180.419 321.083 179.749 321.409 181.266L321.413 181.27Z" fill="#9ACFD9"/>
<path d="M313.878 138.734V141.387C311.285 140.269 299.417 144.066 298.81 140.935C298.642 140.065 299.752 138.734 300.062 138.734H313.878Z" fill="#646A6C"/>
<path d="M295.45 128.984C291.856 128.895 283.076 132.577 282.058 127.223C282.56 126.664 296.238 124.353 295.45 128.984Z" fill="#676D6F"/>
<path d="M296.292 139.622H282.058V142.279H296.292V139.622Z" fill="#616465"/>
<path d="M296.292 100.629V103.287H282.895C282.544 102.528 283.608 100.629 284.152 100.629H296.296H296.292Z" fill="#626567"/>
<path d="M294.612 72.2701C292.635 71.2321 282.971 74.8385 283.733 70.9571C284.068 69.2537 295.035 67.9362 294.612 72.2701Z" fill="#636869"/>
<path d="M282.891 121.895V119.243C295.927 118.156 295.927 122.982 282.891 121.895Z" fill="#616465"/>
<path d="M503.131 54.5533L546.68 53.6616L544.98 88.6435C545.042 89.5751 543.354 91.7664 542.91 91.7664H504.388C504.3 91.7664 503.131 90.5332 503.131 90.4356V54.5444V54.5533Z" fill="#606160"/>
<path d="M539.982 145.827V148.48C529.002 148.64 517.868 150.263 506.863 149.411C505.946 149.34 503.181 149.345 503.147 148.041C503.118 146.87 512.12 145.938 513.607 145.836C522.208 145.242 531.327 146.253 539.982 145.832V145.827Z" fill="#626565"/>
<path d="M503.964 144.048V141.396C512.694 139.821 521.558 140.85 530.38 140.544C532.63 140.464 534.779 139.351 537.049 139.541C540.564 139.839 541.117 142.549 537.879 143.161L503.964 144.048Z" fill="#636666"/>
<path d="M538.298 100.625C528.324 99.1433 516.427 102.688 506.859 101.556C502.829 101.082 502.951 98.3803 506.859 97.9278C513.98 97.1072 522.941 98.2561 530.381 98.0077C533.723 97.8968 538.7 94.7739 538.298 100.625Z" fill="#636767"/>
<path d="M538.302 151.142C537.527 155.733 528.256 153.537 524.449 153.763C521.613 153.932 505.832 155.733 504.81 154.682C504.308 154.162 505.179 151.142 506.063 151.142H538.302Z" fill="#626666"/>
<path d="M503.969 118.355H536.208C537.213 118.355 538.135 120.6 535.374 121.021C526.104 119.544 514.835 122.942 506.017 121.944C502.833 121.585 503.173 121.15 503.964 118.355H503.969Z" fill="#636767"/>
<path d="M504.807 136.077V133.424C511.354 133.225 517.964 133.668 524.52 133.456C526.611 133.389 536.891 130.847 537.46 133.877C537.624 134.746 536.522 136.077 536.208 136.077H504.807Z" fill="#626465"/>
<path d="M503.968 128.988V126.331H519.459C519.933 126.331 521.139 124.969 522.739 125.471C524.792 126.118 523.828 128.988 522.806 128.988H503.964H503.968Z" fill="#606364"/>
<path d="M517.365 107.718V110.375H503.968C503.616 109.617 504.68 107.718 505.225 107.718H517.369H517.365Z" fill="#626668"/>
<path d="M421.905 110.38C421.93 104.653 420.87 90.6307 421.876 86.177C421.997 85.6447 423.715 84.6821 424 84.6821H455.82C455.908 84.6821 457.076 85.9153 457.076 86.0129V138.739L423.748 139.732C422.453 136.53 423.225 131.943 422.781 129.396C421.78 123.674 424.138 115.969 421.905 110.384V110.38Z" fill="#472860"/>
<path d="M488.896 64.2988V79.8069C488.896 81.1732 493.714 80.2815 492.252 83.7904L456.188 82.5217C454.215 81.0578 457.302 69.6575 456.238 66.5168C456.209 65.7893 457.022 64.2988 457.495 64.2988H488.896Z" fill="#46A7DE"/>
<path d="M487.212 141.4C487.539 141.764 487.765 149.842 488.23 151.399C488.729 153.067 491.305 153.918 490.563 156.451C486.446 154.282 463.934 156.97 462.463 154.739C461.868 153.834 461.341 142.145 462.643 141.316C467.381 138.299 481.389 142.376 487.208 141.4H487.212Z" fill="#46A7DD"/>
<path d="M421.071 60.7502C422.278 57.6184 423.346 55.5247 422.738 51.8872C428.155 52.7433 451.421 49.026 454.617 51.3948C455.853 52.3086 456.154 58.9936 454.026 59.7477L421.071 60.7546V60.7502Z" fill="#43275D"/>
<path d="M452.891 117.464C452.598 117.77 449.82 117.149 449.531 117.464C449.343 117.668 449.774 120.174 449.402 121.297C447.755 126.243 433.575 125.369 430.291 123.217C428.335 121.935 429.022 118.209 428.456 117.57C428.042 117.105 425.239 118.16 426.098 116.151C426.655 114.847 428.565 114.447 429.776 114.878C431.963 115.65 430.681 119.522 431.179 120.059C431.489 120.392 438.828 121.789 439.897 121.678C441.564 121.505 445.426 120.507 446.473 119.318C447.68 117.947 446.591 114.909 449.284 114.062C452.271 113.121 453.963 116.364 452.895 117.468L452.891 117.464Z" fill="#A0BBC2"/>
<path d="M435.926 102.621C441.149 107.448 430.266 115.388 427.359 108.588C424.779 102.542 433.542 100.421 435.926 102.621Z" fill="#A0BCC3"/>
<path d="M445.732 101.92C453.893 101.13 456.197 111.843 446.671 110.335C441.049 109.443 440.592 102.421 445.732 101.92Z" fill="#9FBBC2"/>
<path d="M439.482 111.271C440.098 111.963 439.805 117.499 436.563 116.576C433.337 115.654 437.748 109.328 439.482 111.271Z" fill="#9DB6C1"/>
<path d="M443.671 115.689C442.691 115.556 441.837 116.297 441.154 115.099C438.05 109.657 444.601 109.621 443.671 115.689Z" fill="#8E99AA"/>
</svg>
