<svg width="458" height="259" viewBox="0 0 458 259" fill="none" xmlns="http://www.w3.org/2000/svg">
<path d="M66.589 109.752C76.1119 109.539 85.5833 109.98 95.1413 110.022L95.139 110.025L95.1413 110.025H95.6092C119.533 110.126 143.486 109.75 167.412 110.017L282.929 110.015C309.488 109.668 336.124 109.938 362.682 110.022H363.148L363.148 110.022C373.159 110.057 383.189 109.896 393.2 110.143C403.563 117.639 416.663 123.185 426.757 130.797H426.759L426.453 131.792C410.615 132.112 394.77 132.431 378.916 132.75L377.645 131.787C377.226 132.568 376.85 132.681 376.706 132.308C376.66 132.398 376.594 132.466 376.503 132.5C375.895 132.725 375.286 132.79 374.659 132.797C349.348 133.126 297.905 132.635 297.817 132.634L151.642 133.273H87.0645L86.4889 132.282C86.2128 133.832 81.917 133.238 81.5777 131.787C81.7649 133.099 81.5588 133.203 80.6416 132.282C80.4684 132.745 79.8742 133.062 79.3922 133.273H30.6946L30.1284 132.282C30.3554 131.262 33.0345 129.863 34.0242 129.229C44.6772 122.417 55.9759 116.653 66.589 109.752Z" fill="#402F48"/>
<path fill-rule="evenodd" clip-rule="evenodd" d="M143.521 19.9657C143.027 20.7183 143.329 34.0248 143.317 36.3197L143.321 36.3186L143.319 36.3204V37.3108C143.223 60.559 143.221 83.8418 143.523 107.087L172.318 107.551L277.084 107.053C281.49 106.3 313.692 108.226 314.766 106.59C315.695 105.176 315.03 76.4457 314.993 72.1571C314.894 60.6209 314.621 48.9064 314.504 37.3083L314.504 36.8156L314.504 36.8143V36.8131C314.438 30.8564 314.733 24.8849 313.767 19L144.485 19.5026C144.115 19.5324 143.745 19.6215 143.521 19.9657ZM306.551 26.4283C306.663 27.3643 307.646 27.6788 308.423 27.9115C307.825 28.5637 307.994 29.1839 308.885 28.9039L308.886 28.8995L308.888 28.9027L308.891 28.902L308.892 28.9088L308.888 28.9027L308.885 28.9039L308.243 30.8531C308.301 53.4823 308.36 76.0792 308.42 98.644C308.093 99.0822 308.013 99.6567 308.186 100.365C294.702 100.244 280.905 100.33 266.794 100.622C266.298 99.414 266.047 99.2853 265.858 100.622L179.801 101.12C178.154 98.6606 155.405 101.319 151.668 101.35C151.239 100.622 150.512 100.375 149.485 100.61L149.398 29.7413L148.465 29.3957L148.464 29.3955L148.458 29.4045L148.46 29.3947L148.464 29.3955L148.462 29.3947H148.464L148.464 29.3955L148.465 29.3957C149.162 29.5335 149.651 29.0479 149.936 27.9387C152.533 28.3077 154.693 27.966 156.41 26.9211L162.129 27.4411C211.051 27.3445 259.192 27.0053 306.551 26.4283Z" fill="#3F2953"/>
<path d="M46.4952 143.66C49.4502 143.637 52.4287 143.684 55.3838 143.66V143.657L56.3268 144.098C56.4648 152.083 56.6005 160.074 56.7385 168.074C56.7385 189.584 56.0707 214.094 56.7385 238.239C54.3332 240.282 48.1779 240.772 46.9752 237.378C47.1835 219.976 46.5962 202.596 46.4956 185.206V184.711C46.4962 184.709 46.4966 184.707 46.4972 184.706C46.4222 171.671 45.9033 157.565 46.4974 144.648C46.5115 144.318 46.4718 143.986 46.4952 143.66Z" fill="#352A3A"/>
<path d="M412.254 184.211L412.26 184.218V144.152L401.969 144.152V167.354C401.969 184.218 402.607 215.036 401.969 237.383C403.925 240.022 410.785 241.139 412.25 237.383C412.268 219.827 412.259 202.262 412.259 184.714V184.218H412.257L412.254 184.211Z" fill="#352A3A"/>
<path d="M426.759 130.794C427.122 131.066 427.889 131.18 428.158 131.522C428.827 132.369 428.848 140.356 428.652 141.946C428.565 142.637 428.544 143.229 427.973 143.702C426.923 144.576 414.733 144.128 412.259 144.148V144.153C404.159 145.014 392.928 144.519 385.13 144.153L385.129 144.152L385.13 144.153C359.153 143.415 332.688 145.131 306.762 144.172L74.2518 143.623C74.2518 143.623 51.79 144.222 44.904 143.623C42.5501 143.418 31.5323 144.155 30.5636 143.442C30.0209 143.04 29.8593 133.481 30.126 132.282C47.0107 132.282 65.2524 132.28 81.856 132.28C82.8832 132.28 85.2464 132.28 86.4888 132.28C156.846 132.28 227.199 132.032 297.556 131.785L297.665 131.785C313.023 131.767 328.393 131.797 343.755 131.812C353.926 131.822 364.348 131.842 374.636 131.807C375.37 131.807 376.082 131.73 376.709 131.292H376.711L377.646 131.787L377.647 131.785L426.759 130.794Z" fill="#302037"/>
<path d="M156.413 26.9206C164.511 27.5867 172.723 27.7006 181.048 27.2672L182.139 27.911L183.084 28.223C183.849 51.1988 184.917 78.1289 185.682 101.12H179.799C178.217 100.478 176.582 100.981 179.331 101.12L148.458 101.617V29.3967C148.806 28.8866 148.565 27.4158 149.707 27.0023C151.937 26.8092 154.183 26.9627 156.413 26.9231V26.9206Z" fill="#92C2D0"/>
<path d="M308.423 27.9119C308.24 50.1325 308.222 72.6007 308.364 95.3165L307.955 98.6444C308.226 98.8821 308.194 100.37 308.107 100.375C298.067 100.484 288.037 100.402 278.02 100.128L277.089 99.771C277.398 75.8543 277.704 51.9351 278.013 28.0085L278.956 27.4167L281.729 26.81L306.551 26.4287C306.918 26.5426 307.471 26.3099 307.962 26.6689C308.491 27.0576 308.308 27.7435 308.423 27.9119Z" fill="#92C3D0"/>
<path d="M306.553 26.4257L298.387 27.4359C291.911 27.4359 285.427 27.3666 278.958 27.4161C246.753 29.2484 214.355 29.5381 182.138 27.9113C174.932 27.8989 167.15 28.4338 159.906 27.9287C158.771 27.8494 157.321 27.7108 156.415 26.9209C204.001 26.084 251.714 26.9605 299.284 25.9082C301.778 25.8537 304.232 25.7002 306.556 26.4257H306.553Z" fill="#A3D5DA"/>
<path d="M308.89 28.8991C308.785 36.0674 309.024 43.263 308.909 50.4363C308.659 66.0283 309.3 83.3016 308.422 98.6436C308.289 99.0744 308.132 99.0695 307.955 98.6436C309.416 76.4577 306.24 52.5608 307.461 30.1099C307.51 29.1863 307.356 28.2553 308.422 27.9111C308.682 28.29 308.759 28.706 308.89 28.9016V28.8991Z" fill="#A5D4DB"/>
<path d="M308.423 98.6445C308.385 99.3007 308.456 99.9692 308.425 100.625H266.796L267.379 99.5236C270.624 99.266 273.874 99.1422 277.126 99.1546L278.022 100.128C287.985 99.8925 297.995 100.304 307.96 100.128C307.674 99.5186 307.929 99.0729 307.957 98.6445H308.425H308.423Z" fill="#9FCFDE"/>
<path d="M278.022 100.129L278.958 27.416H278.956C246.695 27.6612 214.441 27.9731 182.136 27.9112L184.476 98.1509L184.691 101.083L265.86 100.625C266.009 100.604 266.173 100.619 266.335 100.633L266.796 100.625C268.668 100.191 275.486 100.189 278.022 100.129Z" fill="#98D6DE"/>
<path d="M175.943 30.0085C177.344 31.462 176.38 34.1065 173.959 34.3417C169.314 34.7924 163.75 34.255 158.968 34.317C157.311 34.3392 156.52 35.5649 155.259 33.8316C153.825 31.8607 154.948 29.7931 157.145 29.4266C160.477 28.872 169.932 29.0503 173.507 29.3746C174.244 29.4415 175.409 29.4539 175.945 30.0085H175.943Z" fill="#C2E1E7"/>
<path d="M154.415 37.8831C158.65 37.1972 159.071 46.178 154.777 46.178C151.003 46.178 150.556 38.5071 154.415 37.8831Z" fill="#43275D"/>
<path d="M148.93 48.6858C149.753 48.5744 149.374 49.8025 149.398 50.4117C149.774 60.0165 149.267 69.963 149.379 79.6198C149.456 86.3375 150.663 93.5628 149.594 100.3C149.51 100.83 150.354 101.471 148.932 101.115V48.6833L148.93 48.6858Z" fill="#A5D6DC"/>
<path d="M179.799 101.118C170.683 101.118 161.54 101.405 152.428 101.118C152.023 101.105 150.743 101.321 151.502 100.62C160.22 100.85 168.982 100.32 177.693 100.62C178.341 100.642 179.614 100.268 179.796 101.115L179.799 101.118Z" fill="#9ACFD9"/>
<path d="M153.949 50.7537C157.843 49.8846 159.176 56.2284 156.209 58.1152C151.633 61.0295 149.787 51.6822 153.949 50.7537Z" fill="#606160"/>
<path d="M175.59 51.6525C176.151 52.269 175.199 53.6309 174.42 53.6309H158.75C158.561 53.0564 158.956 51.6525 159.452 51.6525C161.6 51.6525 175.03 51.0384 175.59 51.6525Z" fill="#606160"/>
<path d="M153.954 88.8288C158.238 87.9646 158.514 95.1948 155.217 95.6901C151.055 96.314 150.507 89.5246 153.954 88.8288Z" fill="#606160"/>
<path d="M174.888 80.8384C176.324 81.2866 175.459 82.8168 173.952 82.8168H158.282L158.278 81.3337C159.286 81.8091 160.812 80.8384 161.322 80.8384C164.066 80.8384 173.03 80.259 174.885 80.8384H174.888Z" fill="#606160"/>
<path d="M153.476 66.0883C157.987 64.6992 158.813 74.4996 153.474 72.8233C151.008 72.0482 151.038 66.8385 153.476 66.0883Z" fill="#606160"/>
<path d="M153.474 77.971C157.756 76.6289 158.357 83.3194 155.62 84.2083C151.45 85.5627 150.39 78.9367 153.474 77.971Z" fill="#606160"/>
<path d="M176.058 42.2557L174.885 43.7364C170.267 43.1372 165.323 44.6352 160.833 44.2589C157.885 44.0137 158.509 42.2557 159.923 42.2557H176.06H176.058Z" fill="#606160"/>
<path d="M171.378 92.7113C171.378 93.2412 171.507 93.7364 171.172 94.2217C170.557 95.1131 163.39 94.6179 161.771 94.6649C160.393 94.707 156.198 95.7718 159.455 93.2065L171.376 92.7113H171.378Z" fill="#606160"/>
<path d="M158.986 90.7305C158.862 90.6983 158.072 90.0025 158.514 89.74C158.876 89.2003 166.743 88.3633 167.653 88.9824C168.563 89.6014 167.728 90.728 167.405 90.728C165.367 90.728 160.566 91.144 158.986 90.728V90.7305Z" fill="#606160"/>
<path d="M175.59 77.3743V78.855C174.141 78.231 167.513 80.3506 167.174 78.6025C167.08 78.1171 167.7 77.3743 167.873 77.3743H175.59Z" fill="#606160"/>
<path d="M165.297 71.9318C163.289 71.8822 158.385 73.9374 157.817 70.9488C158.098 70.6368 165.737 69.3467 165.297 71.9318Z" fill="#606160"/>
<path d="M165.767 77.8695H157.817V79.3527H165.767V77.8695Z" fill="#606160"/>
<path d="M165.767 56.1046V57.5878H158.285C158.088 57.1644 158.682 56.1046 158.987 56.1046H165.77H165.767Z" fill="#606160"/>
<path d="M164.829 40.2747C163.725 39.6953 158.327 41.7084 158.753 39.5418C158.94 38.591 165.065 37.8556 164.829 40.2747Z" fill="#606160"/>
<path d="M158.282 67.9751V66.4944C165.564 65.8877 165.564 68.5817 158.282 67.9751Z" fill="#606160"/>
<path d="M281.296 30.3854L305.62 29.8877L304.67 49.4143C304.705 49.9343 303.762 51.1575 303.514 51.1575H281.998C281.949 51.1575 281.296 50.4691 281.296 50.4146V30.3804V30.3854Z" fill="#606160"/>
<path d="M301.879 81.3339V82.8146C295.746 82.9037 289.527 83.81 283.38 83.3346C282.868 83.2949 281.324 83.2974 281.305 82.5694C281.289 81.9157 286.317 81.3958 287.147 81.3388C291.951 81.007 297.045 81.5716 301.879 81.3363V81.3339Z" fill="#606160"/>
<path d="M281.761 80.3409V78.8602C286.637 77.9812 291.588 78.5556 296.516 78.3848C297.772 78.3402 298.972 77.7187 300.241 77.8252C302.204 77.9911 302.512 79.504 300.704 79.8457L281.761 80.3409Z" fill="#606160"/>
<path d="M300.938 56.1023C295.367 55.2753 288.722 57.2537 283.378 56.6223C281.127 56.3574 281.195 54.8494 283.378 54.5969C287.356 54.1388 292.36 54.7801 296.516 54.6414C298.383 54.5795 301.163 52.8364 300.938 56.1023Z" fill="#606160"/>
<path d="M300.94 84.3001C300.507 86.8629 295.329 85.6372 293.203 85.7635C291.619 85.8576 282.805 86.8629 282.234 86.2761C281.953 85.9864 282.44 84.3001 282.933 84.3001H300.94Z" fill="#606160"/>
<path d="M299.771 65.9993C300.332 65.9993 300.847 67.2522 299.305 67.4875C294.127 66.6629 287.833 68.5596 282.908 68.0025C281.13 67.8019 281.319 67.5593 281.761 65.9993H299.771Z" fill="#606160"/>
<path d="M282.232 75.8913V74.4106C285.889 74.2992 289.581 74.5468 293.243 74.4279C294.41 74.3908 300.152 72.972 300.47 74.6631C300.561 75.1485 299.946 75.8913 299.771 75.8913H282.232Z" fill="#606160"/>
<path d="M281.763 71.9345V70.4513H290.416C290.68 70.4513 291.354 69.6911 292.248 69.9709C293.394 70.3325 292.856 71.9345 292.285 71.9345H281.761H281.763Z" fill="#606160"/>
<path d="M289.246 60.0616V61.5448H281.763C281.567 61.1214 282.161 60.0616 282.465 60.0616H289.248H289.246Z" fill="#606160"/>
<path d="M273.345 35.8252V44.4817C273.345 45.2443 276.036 44.7466 275.219 46.7052L255.076 45.997C253.974 45.1799 255.698 38.8163 255.104 37.0632C255.088 36.6572 255.542 35.8252 255.806 35.8252H273.345Z" fill="#46A7DD"/>
<path d="M272.404 78.8626C272.587 79.0656 272.713 83.5746 272.973 84.4437C273.251 85.3747 274.69 85.8502 274.276 87.264C271.976 86.0532 259.402 87.5537 258.581 86.3082C258.249 85.8031 257.954 79.2786 258.682 78.8155C261.328 77.1318 269.152 79.4073 272.402 78.8626H272.404Z" fill="#46A7DD"/>
<path d="M235.462 33.8446C236.136 32.0965 236.732 30.9277 236.393 28.8973C239.418 29.3752 252.414 27.3002 254.199 28.6225C254.889 29.1326 255.057 32.8641 253.869 33.285L235.462 33.8471V33.8446Z" fill="#43275D"/>
<path d="M235.928 61.5472C235.942 58.3506 235.35 50.5236 235.911 48.0376C235.979 47.7404 236.939 47.2031 237.098 47.2031H254.871C254.92 47.2031 255.572 47.8915 255.572 47.946V77.377L236.957 77.9316C236.234 76.1439 236.665 73.5836 236.417 72.1623C235.858 68.9681 237.175 64.6671 235.928 61.5497V61.5472Z" fill="#43275D"/>
<path d="M253.235 65.5009C253.071 65.6718 251.519 65.3251 251.358 65.5009C251.253 65.6148 251.494 67.0139 251.286 67.6403C250.366 70.4012 242.446 69.9134 240.612 68.7124C239.519 67.9969 239.903 65.9169 239.587 65.5604C239.355 65.3004 237.79 65.8897 238.269 64.768C238.581 64.04 239.648 63.8172 240.324 64.0574C241.545 64.4882 240.829 66.6499 241.108 66.9495C241.281 67.1352 245.38 67.9152 245.977 67.8532C246.908 67.7567 249.065 67.1996 249.65 66.536C250.324 65.7708 249.716 64.0747 251.22 63.6018C252.888 63.0768 253.834 64.8869 253.237 65.5034L253.235 65.5009Z" fill="#A0BBC2"/>
<path d="M243.759 57.2159C246.676 59.9099 240.598 64.3422 238.974 60.5463C237.533 57.1714 242.427 55.9878 243.759 57.2159Z" fill="#A0BCC3"/>
<path d="M249.236 56.8247C253.794 56.384 255.081 62.3637 249.76 61.5219C246.62 61.0242 246.365 57.1045 249.236 56.8247Z" fill="#9FBBC2"/>
<path d="M245.745 62.0443C246.089 62.4306 245.925 65.5207 244.114 65.0057C242.313 64.4907 244.777 60.9598 245.745 62.0443Z" fill="#9DB6C1"/>
<path d="M248.085 64.5105C247.537 64.4362 247.06 64.8497 246.679 64.1812C244.945 61.143 248.604 61.1232 248.085 64.5105Z" fill="#8E99AA"/>
</svg>
