<svg width="521" height="531" viewBox="0 0 521 531" fill="none" xmlns="http://www.w3.org/2000/svg">
<g clip-path="url(#clip0_142_1956)">
<circle cx="262.5" cy="279.5" r="229.5" fill="#F1F1F1"/>
<mask id="mask0_142_1956" style="mask-type:alpha" maskUnits="userSpaceOnUse" x="33" y="-5" width="487" height="514">
<path d="M492 279.5C492 406.249 389.249 509 262.5 509C135.751 509 33 406.249 33 279.5C33 152.751 135.751 50 262.5 50C389.249 50 492 152.751 492 279.5Z" fill="#D9D9D9"/>
<path d="M520 197C520 323.749 389.249 454 262.5 454C135.751 454 33 351.249 33 224.5C33 97.7506 135.751 -5 262.5 -5C389.249 -5 520 70.2506 520 197Z" fill="#D9D9D9"/>
</mask>
<g mask="url(#mask0_142_1956)">
<path fill-rule="evenodd" clip-rule="evenodd" d="M514.589 181.007C517.575 181.15 520.02 183.482 520.277 186.489L520.934 194.189C521.057 195.622 520.66 197.052 519.817 198.217C512.108 208.87 505.067 220.333 497.836 232.007C490.654 243.604 483.292 255.395 475.111 266.325L475.112 266.326C474.476 267.177 474.043 267.912 472.994 269.431C472.136 270.675 470.957 272.286 469.489 273.648C468.027 275.003 465.785 276.575 462.778 276.858C459.604 277.156 456.788 275.918 454.499 274.018C454.067 273.659 453.688 273.242 453.372 272.778L422.951 228.119C404.339 257.236 385.746 286.68 366.306 315.409L366.301 315.415C365.186 317.058 363.866 319.266 362.149 322.033C360.5 324.692 358.584 327.702 356.496 330.533C354.432 333.333 352.038 336.183 349.377 338.403C346.779 340.572 343.324 342.647 339.206 342.79H339.193C337.342 342.851 335.721 342.308 334.564 341.794C333.352 341.256 332.204 340.547 331.18 339.831C329.138 338.404 327.035 336.551 325.138 334.785C323.265 333.042 321.267 331.07 319.721 329.593C318.005 327.954 316.849 326.927 316.163 326.451C315.514 326.001 314.821 325.479 314.378 325.153C313.865 324.777 313.498 324.522 313.174 324.327C312.749 324.073 312.525 324.001 312.399 323.981L238.583 328.522C231.337 340.114 224.745 352.165 218.148 364.405C211.092 377.499 204.01 390.848 196.24 403.771L196.235 403.78C195.882 404.365 195.416 405.205 194.738 406.401C194.103 407.521 193.342 408.842 192.534 410.124C191.744 411.378 190.809 412.755 189.806 413.929C189.303 414.518 188.691 415.165 187.981 415.745C187.359 416.254 186.39 416.939 185.115 417.353L184.855 417.432C184.848 417.434 184.84 417.436 184.833 417.438C182.058 418.218 179.366 418.131 176.882 417.201C174.517 416.317 172.759 414.825 171.486 413.491C170.243 412.189 169.178 410.72 168.421 409.691C167.658 408.655 167.162 408.006 166.737 407.551L166.559 407.367L166.552 407.361C161.024 401.89 155.892 396.525 150.553 391.474L123.811 453.873C123.293 455.314 122.244 456.503 120.878 457.195C117.418 458.95 113.843 458.922 110.717 458.008C108.551 457.375 106.929 455.936 105.931 454.92C104.809 453.778 103.749 452.404 102.781 451.008C100.837 448.206 98.8436 444.7 97.0034 441.273C95.7348 438.909 94.4782 436.467 93.3247 434.219L77.7906 462.761C77.2864 463.687 76.5471 464.464 75.647 465.014C73.3952 466.388 70.9357 466.802 68.6119 466.559V466.561C66.4515 466.341 64.7008 465.282 63.6285 464.529C62.4265 463.686 61.2669 462.636 60.2095 461.578C58.0901 459.458 55.8333 456.75 53.7408 454.147C51.5519 451.424 49.6802 448.994 47.8296 446.729C45.817 449.472 43.3346 453.027 40.7085 456.772C37.9314 460.731 35.0068 464.883 32.4722 468.242C31.207 469.919 29.9852 471.471 28.8902 472.736C27.9938 473.771 26.8013 475.072 25.5279 475.966L25.272 476.139L25.2671 476.143C21.2791 478.737 17.1305 478.101 14.0425 476.691C11.208 475.396 8.65587 473.216 6.66361 471.377C5.62104 470.415 4.58036 469.4 3.6392 468.488C2.66905 467.549 1.7891 466.705 0.946815 465.954C0.923228 465.933 0.898829 465.913 0.875526 465.893L-18.4458 490.611C-18.6315 490.849 -18.835 491.073 -19.0542 491.279L-19.2788 491.481C-24.7755 496.171 -31.0392 494.323 -34.6596 492.532C-36.864 491.442 -38.1804 489.116 -37.9799 486.665L-37.4477 480.167L-37.4253 479.944C-37.2923 478.833 -36.8505 477.778 -36.1479 476.902L-8.67526 442.654L-8.46627 442.407C-7.96407 441.846 -7.35994 441.384 -6.68502 441.045L-6.31588 440.868C-2.50468 439.128 1.26534 440.025 3.95463 441.238C6.72184 442.487 9.30145 444.474 11.4429 446.326C13.5151 448.119 15.5607 450.132 17.2447 451.76L38.7671 423.322L39.0328 422.996C39.3095 422.679 39.6192 422.392 39.9566 422.14L40.357 421.853C42.3771 420.468 44.6772 419.825 47.0591 419.963C49.4443 420.101 51.5196 420.997 53.1675 421.988C56.3542 423.906 59.2582 427.005 61.6158 429.748C62.8484 431.182 64.0617 432.678 65.19 434.069C66.0761 435.162 66.9069 436.185 67.7027 437.133C69.5883 432.951 71.9823 427.719 74.4224 422.689C76.6519 418.092 78.9866 413.52 81.065 409.977C82.0946 408.222 83.1477 406.569 84.1636 405.254C84.6682 404.601 85.2626 403.901 85.9312 403.283C86.488 402.769 87.6222 401.807 89.2408 401.346L89.6285 401.241C91.4554 400.776 93.5662 400.634 95.8052 401.279L96.2867 401.43L96.5269 401.516C97.7132 401.973 98.7262 402.796 99.4165 403.868L112.53 424.248L137.104 367.193L137.192 366.962C138.142 364.611 140.477 363.102 143.028 363.218L152.219 363.637L152.502 363.656C153.911 363.788 155.233 364.414 156.228 365.429C160.107 369.384 164.839 375.172 169.161 380.122C172.768 384.253 176.144 387.866 179.12 390.389C185.275 379.511 191.169 368.199 197.214 356.786C204.165 343.66 211.297 330.441 219.097 317.998L219.098 317.997L219.615 317.184C222.206 313.171 224.854 310.022 228.752 308.065C232.617 306.124 237.103 305.718 241.982 305.325H241.986L244.199 305.157C255.282 304.361 266.641 304.185 277.822 304.022C289.819 303.846 301.611 303.686 313.037 302.835L313.407 302.819C313.531 302.818 313.655 302.82 313.778 302.826C322.154 303.24 327.821 307.994 332.011 311.868C334.86 314.504 336.994 316.629 339.091 318.187L413.964 202.903L414.155 202.627C414.618 201.995 415.201 201.458 415.872 201.049L416.147 200.886C421.84 197.613 428.833 199.64 432.421 204.306C438.443 211.165 443.808 220.171 448.777 228.385C453.124 235.57 457.174 242.159 461.366 247.273L502.549 183.736L502.766 183.425C503.893 181.906 505.678 181 507.585 181H514.298L514.589 181.007ZM22.4742 470.749C22.3301 470.871 22.1944 470.975 22.0689 471.062C22.2697 470.923 22.4963 470.74 22.7437 470.512L22.4742 470.749ZM68.482 460.404C68.5036 460.413 68.526 460.418 68.5474 460.426C68.4403 460.387 68.33 460.344 68.2183 460.293L68.482 460.404ZM-0.180138 458.013C-0.0445529 458.061 0.0910997 458.117 0.228065 458.175C0.0930515 458.117 -0.040606 458.063 -0.174278 458.015L-0.180138 458.013ZM110.504 451.003C111.183 451.647 111.82 452.079 112.402 452.249L112.15 452.16C111.553 451.917 110.902 451.418 110.211 450.715L110.504 451.003ZM108.992 449.321C109.305 449.715 109.613 450.076 109.914 450.402L109.611 450.064C109.306 449.715 108.994 449.331 108.677 448.917L108.992 449.321ZM103.659 440.94C103.887 441.35 104.116 441.755 104.344 442.155L103.659 440.94C103.43 440.529 103.201 440.114 102.973 439.696L103.659 440.94ZM97.1548 428.546C97.9304 430.047 98.7606 431.674 99.6236 433.348L97.1548 428.546C96.7671 427.796 96.3926 427.076 96.0347 426.399L97.1548 428.546ZM93.6949 422.241C94.2157 423.062 94.828 424.146 95.5103 425.414L95.0122 424.498C94.528 423.62 94.0854 422.857 93.6949 422.241ZM92.1997 406.864C91.7647 406.903 91.3279 406.99 90.8872 407.115L90.7896 407.149C90.8231 407.136 90.855 407.124 90.8872 407.115C91.4012 406.969 91.9108 406.875 92.4175 406.85L92.1997 406.864ZM170.774 403.097C166.549 398.915 162.398 394.628 158.141 390.455L159.556 391.85C163.321 395.579 167.018 399.38 170.774 403.097ZM190.39 401.901C190.285 402.086 190.176 402.28 190.062 402.481C190.318 402.027 190.555 401.608 190.767 401.241L190.39 401.901ZM189.468 384.103C188.203 386.425 186.93 388.734 185.647 391.027C187.377 387.937 189.087 384.816 190.785 381.675L189.468 384.103ZM152.386 384.98C152.874 385.427 153.359 385.877 153.843 386.329L152.386 384.98C151.899 384.532 151.41 384.087 150.918 383.646L152.386 384.98ZM338.997 336.793C338.905 336.796 338.811 336.793 338.715 336.786C338.734 336.788 338.753 336.79 338.772 336.791L338.997 336.793ZM420.424 205.54C419.93 205.685 419.451 205.894 418.996 206.171L341.123 326.075L341.124 326.076L418.996 206.171C419.542 205.838 420.124 205.605 420.722 205.462L420.424 205.54ZM231.683 313.314C231.102 313.589 230.551 313.905 230.02 314.277L230.483 313.969C230.87 313.725 231.269 313.51 231.683 313.314ZM232.465 312.972C232.401 312.997 232.339 313.025 232.276 313.051C232.513 312.954 232.754 312.86 233.002 312.775L232.465 312.972ZM236.707 311.912C236.474 311.948 236.246 311.985 236.023 312.025L236.707 311.912C236.94 311.876 237.179 311.842 237.423 311.809L236.707 311.912ZM246.814 310.993C246.086 311.04 245.36 311.09 244.635 311.142L246.814 310.993C247.541 310.946 248.271 310.902 249.001 310.86L246.814 310.993ZM268.952 310.165C262.99 310.279 257.057 310.44 251.195 310.74L253.397 310.635C260.011 310.335 266.709 310.195 273.429 310.088L268.952 310.165ZM309.103 309.111C304.709 309.374 300.273 309.551 295.815 309.679L298.043 309.611C302.493 309.466 306.917 309.266 311.297 308.973L309.103 309.111ZM313.482 308.818C313.86 308.837 314.231 308.868 314.595 308.909C314.411 308.888 314.226 308.87 314.039 308.855L313.482 308.818ZM461.083 270.827C461.22 270.854 461.356 270.872 461.49 270.884C461.28 270.865 461.066 270.83 460.848 270.776L461.083 270.827ZM460.125 270.531C460.288 270.601 460.45 270.66 460.61 270.709L460.37 270.628C460.208 270.569 460.044 270.499 459.879 270.419L460.125 270.531ZM458.331 269.401C458.777 269.771 459.209 270.065 459.629 270.291L459.376 270.148C459.036 269.944 458.688 269.697 458.331 269.401ZM462.42 256.444C462.247 256.478 462.088 256.492 461.942 256.49C462.137 256.493 462.354 256.467 462.597 256.405L462.42 256.444ZM443.644 231.491C443.748 231.663 443.853 231.835 443.957 232.007C443.215 230.781 442.471 229.551 441.728 228.325L443.644 231.491ZM422.239 205.29C421.832 205.288 421.424 205.323 421.022 205.398L421.325 205.349C421.628 205.307 421.934 205.288 422.239 205.29Z" fill="#DD1D1A"/>
<path d="M165.522 96.3044C196.627 91.3968 236.443 99.6765 249.374 132.464C253.774 143.665 251.152 151.463 253.624 159.983C255.764 167.36 265.439 168.745 264.776 183.618C263.841 205.688 241.356 203.038 238.945 210.053C237.378 228.269 244.431 261.297 220.65 266.958C212.723 268.855 207.478 262.682 202.806 263.616C199.641 264.248 197.23 269.878 193.191 271.173C175.981 276.653 169.169 263.134 167.753 263.134C166.005 263.134 160.037 277.797 141.018 269.547C119.317 260.153 135.502 231.31 130.258 222.608C120.522 213.606 103.011 220.35 98.158 205.477C92.7326 188.857 105.241 184.521 107.803 174.315C109.762 166.517 107.713 158.026 109.189 149.716C113.711 124.034 140.264 100.309 165.613 96.3345L165.522 96.3044ZM134.809 193.403C151.567 195.36 171.189 189.158 169.38 169.196C167.15 144.809 129.384 162.151 128.871 171.936C128.751 174.285 133.875 192.801 134.809 193.403ZM232.284 168.233C231.561 167.089 210.522 158.327 206.845 160.465C174.565 183.227 223.001 210.896 231.47 185.274C232.796 181.24 234.303 171.515 232.284 168.263V168.233ZM191.594 188.706C177.488 174.224 157.716 207.976 169.019 215.653C172.997 218.363 177.82 214.178 181.678 214.84C186.741 215.683 190.599 225.017 198.315 215.533C201.661 211.438 194.518 191.717 191.564 188.706H191.594Z" fill="#DD1D1A"/>
<path d="M134.809 193.403C133.875 192.801 128.751 174.285 128.871 171.936C129.354 162.151 167.15 144.839 169.38 169.196C171.189 189.158 151.597 195.36 134.809 193.403Z" fill="#F1F1F1"/>
<path d="M232.286 168.232C234.305 171.484 232.798 181.209 231.472 185.243C223.002 210.895 174.566 183.196 206.847 160.434C210.554 158.296 231.592 167.058 232.286 168.202V168.232Z" fill="#F1F1F1"/>
<path d="M191.592 188.707C194.546 191.748 201.689 211.468 198.344 215.533C190.598 224.987 186.77 215.684 181.706 214.841C177.848 214.208 173.026 218.363 169.047 215.653C157.744 207.976 177.517 174.194 191.622 188.707H191.592Z" fill="#F1F1F1"/>
</g>
</g>
<defs>
<clipPath id="clip0_142_1956">
<rect width="521" height="531" fill="white"/>
</clipPath>
</defs>
</svg>
