<svg width="160" height="160" viewBox="0 0 160 160" fill="none" xmlns="http://www.w3.org/2000/svg">
<g clip-path="url(#clip0_141_1834)">
<path d="M90.2359 106.022L56.9226 149.667H74.0463C76.9359 149.691 79.683 148.408 81.4643 146.089L111.951 106.236L90.2438 106.038L90.2359 106.022ZM19.0176 118C16.1755 117.977 13.4918 119.251 11.7343 121.626L10.333 123.518L19.4213 125.751L24.678 133.161L35.8484 118H19.0176Z" fill="#BDC1C6"/>
<path d="M73.9672 149.667C71.0855 149.643 68.3859 148.36 66.6522 146.033L48.7447 121.863C47.0109 119.528 44.3113 118.032 41.4297 118H19.833C22.7147 118.024 25.4143 119.33 27.148 121.657L45.0555 145.827C46.7893 148.163 49.4888 149.635 52.3705 149.667H73.9672Z" fill="#DADCE0"/>
<path d="M19.8408 65.7259C19.9042 64.6493 20.1496 63.5805 20.585 62.5751C21.0996 61.3876 21.8596 60.2872 22.8729 59.3609L73.6504 12.803C75.378 11.211 77.6424 10.329 79.9916 10.333L83.1425 38.8568L79.9916 60.9997L54.69 67.3884L19.8408 65.7259Z" fill="#4285F4"/>
<path d="M140.143 65.7259C140.081 64.6402 139.829 63.5738 139.399 62.5751C138.884 61.3876 138.124 60.2872 137.111 59.3609L86.3333 12.803C84.608 11.2124 82.3466 10.3305 80 10.333V60.9997L108.627 67.3884L140.143 65.7259Z" fill="#669DF6"/>
<path d="M140.151 65.7263L111.041 63.1771L79.9997 61L76.833 80C76.833 80 79.9997 98.4221 79.9997 99C79.9997 99.4275 92.6505 102.088 92.6505 102.088L115.846 101.185L120.66 94.915L138.227 72.0042C139.66 70.1517 140.285 67.9113 140.151 65.7263Z" fill="#5BB974"/>
<path d="M19.8489 65.7263C19.7143 67.9113 20.3397 70.1517 21.7726 72.0121L39.3397 94.9229L44.1531 101.193L64.1268 102.246L79.9997 99V61L19.8489 65.7263Z" fill="#34A853"/>
<path d="M80.0001 99C78.1872 99 44.1455 101.193 44.1455 101.193L72.5505 138.227C74.4268 140.681 77.2134 141.9 80.0001 141.9L83.2143 114.865C83.2143 114.873 80.7522 99 80.0001 99Z" fill="#FBBC04"/>
<path d="M80 141.9C82.7867 141.9 85.5733 140.673 87.4496 138.227L115.855 101.193L80 99V141.9Z" fill="#FCC934"/>
</g>
<defs>
<clipPath id="clip0_141_1834">
<rect width="152" height="152" fill="white" transform="translate(4 4)"/>
</clipPath>
</defs>
</svg>
