<svg width="521" height="531" viewBox="0 0 521 531" fill="none" xmlns="http://www.w3.org/2000/svg">
<g clip-path="url(#clip0_132_419)">
<path d="M435.92 131L403.77 180.67C402.38 181.02 402.19 179.79 401.53 179.09C393.5 170.59 386.95 155.25 378.88 146.11C377.5 144.19 374.68 143.45 372.6 144.72L316.93 230.53C309.44 227.86 305.87 218.61 297.17 218.18C280.52 219.42 262.91 218.63 246.4 219.96C239.08 220.55 237.07 221.05 233.33 227.03C222.36 244.55 213.19 264.38 202.76 282.32C201.36 282.7 201.16 281.94 200.36 281.39C194.35 277.26 187.01 267.14 181.69 261.7L175.12 261.4L142.33 353.28L128.24 331.36C127.4 331.08 126.59 331.12 125.75 331.36C122.82 332.19 112.62 355.7 110.67 360C105.63 357.88 97.68 341.22 91.91 345.55L73.75 369.57C69.87 366.99 62.64 357.11 57.92 359.48L38.28 383.99L37.9 388.64C40 389.68 42.29 390.11 44.21 388.47L60.42 367.71C65.32 369.19 71.57 380.37 76.5 377.16C79.85 374.98 93.36 353.35 94.86 353.3C98.33 355.96 106.73 369.27 110.26 369.63C111.1 369.72 111.89 369.57 112.62 369.13L127.49 341.78C130.19 345.7 137.33 362.55 141.13 363.66C142.53 364.07 143.93 364.04 145.25 363.37L178.82 269.86C184.57 274.77 189.77 280.33 195.15 285.65C197.62 288.09 199.35 293.1 204.04 291.78C205.79 291.29 208.52 285.87 209.68 283.92C220.66 265.64 229.7 246.14 241.17 228.13L296.38 224.73C298.52 224.75 299.93 226.16 301.53 227.27C304.77 229.52 312.06 238.31 315.41 238.2C321.72 237.98 327.93 225.59 331.38 220.49C346.19 198.59 360.3 176.1 374.55 153.83L376.53 154.42L400.72 189.97C404.8 193.36 407.28 187.88 409.28 185.2C420.73 169.9 429.96 152.06 441.2 136.51L440.72 131H490.67V399.36H31V131H435.92ZM117.15 170.36C108.75 171.69 99.94 179.56 98.43 188.09C97.94 190.85 98.62 193.68 97.97 196.26C97.12 199.65 92.97 201.09 94.77 206.61C96.38 211.56 102.19 209.31 105.42 212.3C107.17 215.19 101.8 224.77 108.99 227.89C115.31 230.63 117.28 225.76 117.86 225.76C118.33 225.76 120.59 230.25 126.3 228.43C127.64 228 128.44 226.13 129.49 225.92C131.04 225.61 132.79 227.66 135.41 227.03C143.3 225.15 140.96 214.18 141.48 208.13C142.28 205.8 149.74 206.69 150.05 199.35C150.26 194.41 147.06 193.95 146.35 191.5C145.53 188.67 146.4 186.08 144.94 182.36C140.65 171.47 127.44 168.72 117.12 170.35L117.15 170.36Z" fill="#F1F1F1"/>
<path d="M440.72 131L441.19 136.51C429.95 152.06 420.71 169.9 409.27 185.2C407.27 187.88 404.79 193.36 400.71 189.97L376.52 154.42L374.54 153.83C360.29 176.1 346.18 198.58 331.37 220.49C327.92 225.58 321.71 237.98 315.4 238.2C312.04 238.31 304.76 229.52 301.52 227.27C299.92 226.16 298.5 224.76 296.37 224.73L241.16 228.13C229.69 246.14 220.65 265.64 209.67 283.92C208.5 285.86 205.78 291.28 204.03 291.78C199.34 293.1 197.61 288.09 195.14 285.65C189.77 280.33 184.57 274.77 178.81 269.86L145.24 363.37C143.92 364.04 142.52 364.07 141.12 363.66C137.32 362.55 130.19 345.7 127.48 341.78L112.61 369.13C111.89 369.57 111.09 369.72 110.25 369.63C106.72 369.27 98.3196 355.96 94.8496 353.3C93.3396 353.35 79.8297 374.98 76.4897 377.16C71.5597 380.37 65.3096 369.19 60.4096 367.71L44.1996 388.47C42.2796 390.11 39.9896 389.68 37.8896 388.64L38.2696 383.99L57.9096 359.48C62.6296 357.11 69.8597 366.99 73.7397 369.57L91.8997 345.55C97.6797 341.22 105.63 357.88 110.66 360C112.61 355.7 122.8 332.19 125.74 331.36C126.58 331.12 127.4 331.08 128.23 331.36L142.32 353.28L175.11 261.4L181.68 261.7C187 267.13 194.34 277.26 200.35 281.39C201.16 281.94 201.36 282.7 202.75 282.32C213.18 264.38 222.35 244.55 233.32 227.03C237.06 221.06 239.07 220.55 246.39 219.96C262.91 218.64 280.52 219.42 297.16 218.18C305.86 218.61 309.43 227.86 316.92 230.53L372.59 144.72C374.67 143.45 377.49 144.19 378.87 146.11C386.94 155.25 393.49 170.59 401.52 179.09C402.18 179.79 402.37 181.02 403.76 180.67L435.92 131H440.72Z" fill="#DD1D1A"/>
<path d="M117.15 170.36C127.47 168.73 140.68 171.48 144.97 182.37C146.43 186.09 145.56 188.68 146.38 191.51C147.09 193.96 150.3 194.42 150.08 199.36C149.77 206.69 142.31 205.81 141.51 208.14C140.99 214.19 143.33 225.16 135.44 227.04C132.81 227.67 131.07 225.62 129.52 225.93C128.47 226.14 127.67 228.01 126.33 228.44C120.62 230.26 118.36 225.77 117.89 225.77C117.31 225.77 115.33 230.64 109.02 227.9C101.82 224.78 107.19 215.2 105.45 212.31C102.22 209.32 96.4105 211.56 94.8005 206.62C93.0005 201.1 97.1505 199.66 98.0005 196.27C98.6505 193.68 97.9705 190.86 98.4605 188.1C99.9605 179.57 108.77 171.69 117.18 170.37L117.15 170.36ZM106.96 202.61C112.52 203.26 119.03 201.2 118.43 194.57C117.69 186.47 105.16 192.23 104.99 195.48C104.95 196.26 106.65 202.41 106.96 202.61ZM139.3 194.25C139.06 193.87 132.08 190.96 130.86 191.67C120.15 199.23 136.22 208.42 139.03 199.91C139.47 198.57 139.97 195.34 139.3 194.26V194.25ZM125.8 201.05C121.12 196.24 114.56 207.45 118.31 210C119.63 210.9 121.23 209.51 122.51 209.73C124.19 210.01 125.47 213.11 128.03 209.96C129.14 208.6 126.77 202.05 125.79 201.05H125.8Z" fill="#DD1D1A"/>
<path d="M106.961 202.61C106.651 202.41 104.951 196.26 104.991 195.48C105.151 192.23 117.691 186.48 118.431 194.57C119.031 201.2 112.531 203.26 106.961 202.61Z" fill="#F1F1F1"/>
<path d="M139.301 194.25C139.971 195.33 139.471 198.56 139.031 199.9C136.221 208.42 120.151 199.22 130.861 191.66C132.091 190.95 139.071 193.86 139.301 194.24V194.25Z" fill="#F1F1F1"/>
<path d="M125.801 201.05C126.781 202.06 129.151 208.61 128.041 209.96C125.471 213.1 124.201 210.01 122.521 209.73C121.241 209.52 119.641 210.9 118.321 210C114.571 207.45 121.131 196.23 125.811 201.05H125.801Z" fill="#F1F1F1"/>
</g>
<defs>
<clipPath id="clip0_132_419">
<rect x="31" y="131" width="459.67" height="268.37" rx="6" fill="white"/>
</clipPath>
</defs>
</svg>
