<svg width="477" height="520" viewBox="0 0 477 520" fill="none" xmlns="http://www.w3.org/2000/svg">
<path d="M477 281.5C477 413.22 370.22 520 238.5 520C106.78 520 0 413.22 0 281.5C0 149.78 106.78 43 238.5 43C370.22 43 477 149.78 477 281.5Z" fill="#ACC5EA"/>
<path d="M297.132 104.492C303.378 100.315 311.011 99.6188 317.951 101.707C324.037 103.539 332.259 110.726 330.442 124.678C337.382 124.676 351.954 123.983 351.954 107.276C351.954 93.9104 344.09 85.4642 340.157 82.9117C344.321 80.1272 351.954 67.5971 343.627 49.498C336.965 35.0187 315.407 34.6474 305.46 36.2717C305.46 27.2221 296.439 10.5152 272.151 2.16176C252.721 -4.521 233.985 5.8744 227.045 11.9074C217.33 7.0346 207.615 3.55424 186.103 2.85812C164.591 2.162 154.875 9.81931 150.018 32.0952C146.132 49.9158 164.128 67.8293 173.611 74.5585C210.806 95.1636 241.849 85.0003 252.72 77.343C255.496 98.505 283.485 104.26 297.132 104.492Z" fill="black"/>
<path d="M173.611 74.5585C168.06 98.9227 163.528 150.818 179.857 172.015C183.116 176.247 188.388 178.777 194.429 180.224C210.254 184.015 231.354 180.369 235.372 180.369C240.923 180.369 239.535 185.938 235.372 187.33C231.208 188.722 217.329 195.683 194.429 199.86V208.509C194.429 214.774 206.184 227.722 231.166 229.393C255.375 231.012 274.153 217.073 281.186 209.24C281.597 208.782 282.178 208.508 282.794 208.514C283.395 208.519 283.997 208.53 284.599 208.545L279.784 182.457C287.88 178.744 303.933 166.864 303.378 149.043C310.086 149.043 324.612 145.424 329.054 130.944C329.736 128.72 330.188 126.632 330.442 124.678C332.259 110.726 324.037 103.539 317.951 101.707C311.011 99.6188 303.378 100.315 297.132 104.492C283.485 104.26 255.496 98.505 252.72 77.343C241.849 85.0003 210.806 95.1636 173.611 74.5585Z" fill="#0083F8"/>
<path d="M235.372 187.33C239.535 185.938 240.923 180.369 235.372 180.369C231.354 180.369 210.254 184.015 194.429 180.224V199.86C217.329 195.683 231.208 188.722 235.372 187.33Z" fill="black"/>
<path d="M49.6476 427.347C56.4992 422.749 62.7111 418.16 68.0315 413.638C47.4973 379.301 32.0086 339.972 13.9872 304.233C12.3165 305.52 3.77164 312.105 2 313.477C7.7041 356.006 24.6088 394.985 49.6476 427.347Z" fill="#0083F8"/>
<path d="M444.764 400.847C424.129 412.115 401 424.7 383.139 434.403C385.652 443.009 389.732 452.112 394.876 461.36C414.642 444.126 431.542 423.685 444.764 400.847Z" fill="#0083F8"/>
<path d="M368.567 380.451C368.012 384.906 372.499 421.29 374.812 438.925L376.2 438.171C380.364 428.368 376.2 383.235 375.506 379.755C374.812 376.274 369.261 374.882 368.567 380.451Z" fill="#E6D3B2"/>
<path fill-rule="evenodd" clip-rule="evenodd" d="M80.725 460.482C115.624 491.253 159.591 511.97 208.1 518.104C214.748 518.663 221.44 519.225 228.118 519.786C231.495 519.928 234.89 520 238.301 520C290.447 520 338.683 503.252 377.928 474.839C377.263 458.679 376.257 443.853 374.812 438.925C372.499 421.29 368.012 384.906 368.567 380.451C369.261 374.882 374.812 376.274 375.506 379.755C376.2 383.235 380.364 428.368 376.2 438.171C377.335 437.555 378.5 436.922 379.694 436.274L383.139 434.403C401 424.7 424.129 412.115 444.764 400.847C456.709 380.216 465.654 357.629 471 333.683C434.215 289.051 359.109 210.466 284.599 208.545C283.997 208.53 283.395 208.519 282.794 208.514C282.178 208.508 281.597 208.782 281.186 209.24C274.153 217.073 255.375 231.012 231.166 229.393C206.184 227.722 194.429 214.774 194.429 208.509C140.523 210.302 98.6242 232.274 13.9872 295.613C11.1793 297.714 12.6111 301.504 13.9872 304.233C32.0086 339.972 47.4973 379.301 68.0315 413.638C70.2461 417.342 70.867 418.17 71.2332 418.658C71.3333 418.792 71.4143 418.9 71.5036 419.034C72.8915 421.123 77.4138 421.057 80.9154 417.988C84.8867 414.507 90.6078 409.39 90.6078 409.39C87.8737 423.736 84.0906 443.227 80.725 460.482ZM90.6078 409.39C91.7645 392.451 95.8484 350.239 98.6242 346.341C102.094 341.468 104.87 344.949 104.87 347.037C104.87 349.125 96.8528 401.733 90.6078 409.39Z" fill="#E29700"/>
<path d="M98.6242 346.341C95.8484 350.239 91.7645 392.451 90.6078 409.39C96.8528 401.733 104.87 349.125 104.87 347.037C104.87 344.949 102.094 341.468 98.6242 346.341Z" fill="#E6D3B2"/>
<path d="M234.097 146.573C235.457 144.713 238.063 144.311 239.917 145.675C241.771 147.039 242.171 149.653 240.811 151.513C236.837 156.95 229.965 159.615 223.917 160.953C217.702 162.327 211.371 162.514 207.355 162.262C205.06 162.118 203.316 160.134 203.459 157.832C203.603 155.53 205.58 153.78 207.875 153.923C211.26 154.136 216.797 153.974 222.124 152.796C227.619 151.581 231.965 149.49 234.097 146.573ZM192.63 108.551C193.461 106.4 195.874 105.332 198.018 106.166C200.161 107 201.225 109.42 200.394 111.57C198.272 117.058 196.267 124.748 196.592 130.444C196.755 133.306 197.466 134.933 198.258 135.731C198.856 136.333 200.16 137.121 203.461 136.569C205.729 136.19 207.874 137.728 208.252 140.004C208.63 142.279 207.098 144.431 204.83 144.81C199.803 145.65 195.439 144.729 192.358 141.626C189.47 138.718 188.491 134.644 188.278 130.922C187.852 123.45 190.356 114.433 192.63 108.551ZM223.575 117.718V117.022C223.575 114.716 225.44 112.846 227.739 112.846C230.039 112.846 231.903 114.716 231.903 117.022V117.718C231.902 120.025 230.038 121.895 227.739 121.895C225.44 121.895 223.576 120.025 223.575 117.718ZM176.388 116.326V115.63C176.388 113.323 178.252 111.453 180.551 111.453C182.851 111.453 184.715 113.323 184.715 115.63V116.326C184.714 118.633 182.85 120.503 180.551 120.503C178.252 120.503 176.388 118.633 176.388 116.326ZM218.806 100.129C222.048 98.3554 229.878 96.0774 237.85 99.6913L238.623 100.06L238.811 100.16C240.729 101.247 241.481 103.664 240.485 105.663C239.488 107.662 237.11 108.509 235.092 107.622L234.898 107.531L234.421 107.304C229.483 105.074 224.482 106.539 222.793 107.463C220.775 108.567 218.245 107.821 217.144 105.796C216.043 103.771 216.787 101.234 218.806 100.129ZM176.248 98.4922C179.032 97.1288 184.386 96.0476 190.486 98.2828L191.119 98.5248L191.315 98.6104C193.317 99.5339 194.265 101.88 193.438 103.955C192.61 106.03 190.31 107.072 188.227 106.356L188.026 106.281L187.625 106.128C183.504 104.62 180.391 105.715 179.841 106.03L179.653 106.132C177.687 107.13 175.266 106.416 174.161 104.476C173.02 102.473 173.713 99.9208 175.71 98.7763L176.248 98.4922Z" fill="black"/>
<path d="M312.745 107.293C314.533 107.473 315.867 108.983 315.869 110.747L315.852 111.103C315.668 112.948 315.032 114.755 314.219 116.415C315.57 119.441 317.315 124.611 317.879 130.647L317.94 131.374L317.95 131.73C317.907 133.493 316.538 134.972 314.747 135.11C312.956 135.248 311.379 133.996 311.067 132.26L311.023 131.906L310.968 131.282C310.693 128.349 310.085 125.668 309.423 123.466C307.534 125.682 305.61 127.543 304.249 128.714C302.794 129.965 300.603 129.796 299.356 128.336C298.109 126.877 298.278 124.679 299.733 123.428C301.772 121.674 305.235 118.132 307.329 114.573L307.679 113.956C308.443 112.545 308.855 111.342 308.948 110.41L309 110.058C309.351 108.329 310.958 107.114 312.745 107.293Z" fill="black"/>
</svg>
