<svg width="469" height="520" viewBox="0 0 469 520" fill="none" xmlns="http://www.w3.org/2000/svg">
<path d="M295.132 104.492C301.378 100.315 309.011 99.6188 315.951 101.707C322.037 103.539 330.259 110.726 328.442 124.678C335.382 124.676 349.954 123.983 349.954 107.276C349.954 93.9104 342.09 85.4642 338.157 82.9117C342.321 80.1272 349.954 67.5971 341.627 49.498C334.965 35.0187 313.407 34.6474 303.46 36.2717C303.46 27.2221 294.439 10.5152 270.151 2.16176C250.721 -4.521 231.985 5.8744 225.045 11.9074C215.33 7.0346 205.615 3.55424 184.103 2.85812C162.591 2.162 152.875 9.81931 148.018 32.0952C144.132 49.9158 162.128 67.8293 171.611 74.5585C208.806 95.1636 239.849 85.0003 250.72 77.343C253.496 98.505 281.485 104.26 295.132 104.492Z" fill="black"/>
<path d="M171.611 74.5585C166.06 98.9227 161.528 150.818 177.857 172.015C181.116 176.247 186.388 178.777 192.429 180.224C208.254 184.015 229.354 180.369 233.372 180.369C238.923 180.369 237.535 185.938 233.372 187.33C229.208 188.722 215.329 195.683 192.429 199.86V208.509C192.429 214.774 204.184 227.722 229.166 229.393C253.375 231.012 272.153 217.073 279.186 209.24C279.597 208.782 280.178 208.508 280.794 208.514C281.395 208.519 281.997 208.53 282.599 208.545L277.784 182.457C285.88 178.744 301.933 166.864 301.378 149.043C308.086 149.043 322.612 145.424 327.054 130.944C327.736 128.72 328.188 126.632 328.442 124.678C330.259 110.726 322.037 103.539 315.951 101.707C309.011 99.6188 301.378 100.315 295.132 104.492C281.485 104.26 253.496 98.505 250.72 77.343C239.849 85.0003 208.806 95.1636 171.611 74.5585Z" fill="#0083F8"/>
<path d="M233.372 187.33C237.535 185.938 238.923 180.369 233.372 180.369C229.354 180.369 208.254 184.015 192.429 180.224V199.86C215.329 195.683 229.208 188.722 233.372 187.33Z" fill="black"/>
<path d="M47.6476 427.347C54.4992 422.749 60.7111 418.16 66.0315 413.638C45.4973 379.301 30.0086 339.972 11.9872 304.233C10.3165 305.52 1.77164 312.105 0 313.477C5.7041 356.006 22.6088 394.985 47.6476 427.347Z" fill="#0083F8"/>
<path d="M442.764 400.847C422.129 412.115 399 424.7 381.139 434.403C383.652 443.009 387.732 452.112 392.876 461.36C412.642 444.126 429.542 423.685 442.764 400.847Z" fill="#0083F8"/>
<path d="M366.567 380.451C366.012 384.906 370.499 421.29 372.812 438.925L374.2 438.171C378.364 428.368 374.2 383.235 373.506 379.755C372.812 376.274 367.261 374.882 366.567 380.451Z" fill="#E6D3B2"/>
<path fill-rule="evenodd" clip-rule="evenodd" d="M78.725 460.482C113.624 491.253 157.591 511.97 206.1 518.104C212.748 518.663 219.44 519.225 226.118 519.786C229.495 519.928 232.89 520 236.301 520C288.447 520 336.683 503.252 375.928 474.839C375.263 458.679 374.257 443.853 372.812 438.925C370.499 421.29 366.012 384.906 366.567 380.451C367.261 374.882 372.812 376.274 373.506 379.755C374.2 383.235 378.364 428.368 374.2 438.171C375.335 437.555 376.5 436.922 377.694 436.274L381.139 434.403C399 424.7 422.129 412.115 442.764 400.847C454.709 380.216 463.654 357.629 469 333.683C432.215 289.051 357.109 210.466 282.599 208.545C281.997 208.53 281.395 208.519 280.794 208.514C280.178 208.508 279.597 208.782 279.186 209.24C272.153 217.073 253.375 231.012 229.166 229.393C204.184 227.722 192.429 214.774 192.429 208.509C138.523 210.302 96.6242 232.274 11.9872 295.613C9.1793 297.714 10.6111 301.504 11.9872 304.233C30.0086 339.972 45.4973 379.301 66.0315 413.638C68.2461 417.342 68.867 418.17 69.2332 418.658C69.3333 418.792 69.4143 418.9 69.5036 419.034C70.8915 421.123 75.4138 421.057 78.9154 417.988C82.8867 414.507 88.6078 409.39 88.6078 409.39C85.8737 423.736 82.0906 443.227 78.725 460.482ZM88.6078 409.39C89.7645 392.451 93.8484 350.239 96.6242 346.341C100.094 341.468 102.87 344.949 102.87 347.037C102.87 349.125 94.8528 401.733 88.6078 409.39Z" fill="#E29700"/>
<path d="M96.6242 346.341C93.8484 350.239 89.7645 392.451 88.6078 409.39C94.8528 401.733 102.87 349.125 102.87 347.037C102.87 344.949 100.094 341.468 96.6242 346.341Z" fill="#E6D3B2"/>
<path d="M232.097 146.573C233.457 144.713 236.063 144.311 237.917 145.675C239.771 147.039 240.171 149.653 238.811 151.513C234.837 156.95 227.965 159.615 221.917 160.953C215.702 162.327 209.371 162.514 205.355 162.262C203.06 162.118 201.316 160.134 201.459 157.832C201.603 155.53 203.58 153.78 205.875 153.923C209.26 154.136 214.797 153.974 220.124 152.796C225.619 151.581 229.965 149.49 232.097 146.573ZM190.63 108.551C191.461 106.4 193.874 105.332 196.018 106.166C198.161 107 199.225 109.42 198.394 111.57C196.272 117.058 194.267 124.748 194.592 130.444C194.755 133.306 195.466 134.933 196.258 135.731C196.856 136.333 198.16 137.121 201.461 136.569C203.729 136.19 205.874 137.728 206.252 140.004C206.63 142.279 205.098 144.431 202.83 144.81C197.803 145.65 193.439 144.729 190.358 141.626C187.47 138.718 186.491 134.644 186.278 130.922C185.852 123.45 188.356 114.433 190.63 108.551ZM221.575 117.718V117.022C221.575 114.716 223.44 112.846 225.739 112.846C228.039 112.846 229.903 114.716 229.903 117.022V117.718C229.902 120.025 228.038 121.895 225.739 121.895C223.44 121.895 221.576 120.025 221.575 117.718ZM174.388 116.326V115.63C174.388 113.323 176.252 111.453 178.551 111.453C180.851 111.453 182.715 113.323 182.715 115.63V116.326C182.714 118.633 180.85 120.503 178.551 120.503C176.252 120.503 174.388 118.633 174.388 116.326ZM216.806 100.129C220.048 98.3554 227.878 96.0774 235.85 99.6913L236.623 100.06L236.811 100.16C238.729 101.247 239.481 103.664 238.485 105.663C237.488 107.662 235.11 108.509 233.092 107.622L232.898 107.531L232.421 107.304C227.483 105.074 222.482 106.539 220.793 107.463C218.775 108.567 216.245 107.821 215.144 105.796C214.043 103.771 214.787 101.234 216.806 100.129ZM174.248 98.4922C177.032 97.1288 182.386 96.0476 188.486 98.2828L189.119 98.5248L189.315 98.6104C191.317 99.5339 192.265 101.88 191.438 103.955C190.61 106.03 188.31 107.072 186.227 106.356L186.026 106.281L185.625 106.128C181.504 104.62 178.391 105.715 177.841 106.03L177.653 106.132C175.687 107.13 173.266 106.416 172.161 104.476C171.02 102.473 171.713 99.9208 173.71 98.7763L174.248 98.4922Z" fill="black"/>
<path d="M310.745 107.293C312.533 107.473 313.867 108.983 313.869 110.747L313.852 111.103C313.668 112.948 313.032 114.755 312.219 116.415C313.57 119.441 315.315 124.611 315.879 130.647L315.94 131.374L315.95 131.73C315.907 133.493 314.538 134.972 312.747 135.11C310.956 135.248 309.379 133.996 309.067 132.26L309.023 131.906L308.968 131.282C308.693 128.349 308.085 125.668 307.423 123.466C305.534 125.682 303.61 127.543 302.249 128.714C300.794 129.965 298.603 129.796 297.356 128.336C296.109 126.877 296.278 124.679 297.733 123.428C299.772 121.674 303.235 118.132 305.329 114.573L305.679 113.956C306.443 112.545 306.855 111.342 306.948 110.41L307 110.058C307.351 108.329 308.958 107.114 310.745 107.293Z" fill="black"/>
</svg>
