<svg width="544" height="528" viewBox="0 0 544 528" fill="none" xmlns="http://www.w3.org/2000/svg">
<path d="M272 355C422.221 355 544 384.933 544 411.563C544 438.192 395.167 451.36 395.167 462.007C395.167 472.653 452 474.672 452 491.578C452 508.483 365.301 528 258 528C150.699 528 60 508.772 60 491.578C60 474.384 112.416 470.412 112.416 462.007C112.416 453.601 0 437.791 0 411.563C0 385.334 121.779 355 272 355Z" fill="#1E1E1E" fill-opacity="0.3"/>
<g clip-path="url(#clip0_68_2)">
<path d="M337.722 342.334C340.483 367.011 317.047 387.915 292.875 383.91L310.189 407.047C311.066 408.927 306.656 410.916 304.889 411.88L303.419 414.505C293.292 420.172 283.02 425.558 272.601 430.659L269.652 430.263C270.469 432.84 264.416 434.389 262.389 433.993C260.282 433.577 248.148 425.914 245.668 424.181L245.628 422.272C241.582 420.732 237.44 418.187 234.415 415.078C233.618 414.878 233.338 415.134 233.614 415.878C235.369 416.234 244.55 421.728 244.65 422.748L244.026 423.869C244.827 426.358 240.52 429.415 238.421 427.866C238.165 428.491 237.884 429.099 237.516 429.647C237.147 430.195 236.799 430.688 236.318 430.984C225.862 437.49 214.629 444.453 203.713 450.055C203.212 450.311 202.603 450.363 201.962 450.395C201.321 450.427 200.644 450.351 199.979 450.243C193.133 453.868 192.776 452.216 186.078 449.331C158.89 437.614 110.425 409.411 107.184 377.003C103.218 337.36 148.538 320.67 177.558 307.157C177.818 306.588 178.106 306.036 178.475 305.552C178.844 305.068 179.188 304.64 179.641 304.416C193.718 297.489 208.528 290.226 223.058 284.404C223.511 284.224 224.06 284.268 224.644 284.332C225.229 284.396 225.826 284.572 226.407 284.776C226.671 284.084 226.94 284.084 227.208 284.776C228.298 282.179 229.9 281.647 232.012 283.176C232.308 282.691 232.62 282.231 233.013 281.847C236.174 278.714 253.66 279.986 258.7 280.767C287.002 285.144 312.697 303.019 329.758 325.151C331.97 328.017 339.537 338.256 338.544 341.41C338.432 341.77 338.107 342.058 337.718 342.334H337.722Z" fill="#407237"/>
<path d="M221.604 84.9363L223.451 85.8567C224.384 89.246 229.376 95.6084 233.137 95.0922C239.487 91.4868 242.051 91.8309 240.825 96.1246C243.885 100.354 244.53 102.187 242.547 107.153C242.988 109.041 244.098 110.506 245.88 111.542C244.655 116.64 246.033 119.353 250.011 119.674L260.066 121.458L260.847 123.303C262.926 123.623 263.719 124.767 262.449 126.5C264.184 127.104 263.787 127.969 262.449 128.897L264.492 130.562C266.079 137.352 267.994 144.131 271.515 150.213L271.259 152.878C273.314 156.219 265.089 161.794 262.449 160.873C259.545 160.197 256.536 159.453 253.432 158.64L252.843 156.876C250.944 158.236 250.075 157.236 251.24 155.275L251.012 153.306C254.105 151.63 253.127 148.292 250.179 146.892L249.638 144.883C248.312 146.472 247.591 145.935 247.234 144.083C245.904 142.87 245.356 140.645 245.58 137.408C244.046 136.304 242.996 135.067 242.427 133.691C241.302 134.883 241.101 134.939 240.024 133.691C238.589 132.843 236.783 130.562 236.819 128.893C235.373 128.713 233.942 128.533 232.813 129.693C233.522 130.117 233.987 130.71 234.159 131.498C232.632 136.128 230.457 146.132 236.819 147.276L237.616 148.877C238.666 149.597 238.666 150.661 237.616 152.074C239.415 151.73 240.941 153.682 240.821 155.271C243.212 155.063 243.745 155.863 242.423 157.668C245.147 157.368 245.948 158.168 244.827 160.065C247.118 159.297 247.627 160.469 246.429 162.462C247.327 162.478 248.332 163.282 249.446 164.879C254.694 165.203 256.352 166.723 257.638 171.257L260.851 172.81C276.615 193.834 298.027 211.696 323.966 217.571C326.546 218.243 330.808 219.928 328.108 222.421C327.062 225.013 325.604 227.498 323.918 229.763L324.903 231.216L324.655 233.197C316.691 233.593 313.474 247.862 313.198 254.521L312.088 255.993C313.137 257.842 309.953 258.898 308.39 259.014C287.435 260.531 263.687 253.508 245.263 243.705C244.807 243.46 244.462 242.996 244.106 242.496C243.749 241.996 243.465 241.404 243.216 240.807C241.694 242.576 239.395 241.5 240.012 239.207L237.556 239.611C227.649 233.521 218.171 226.57 209.782 218.499L209.582 216.022C207.779 214.802 207.242 215.87 207.979 219.219L209.241 221.696C207.695 242.172 211.244 267.942 226.203 282.779L226.395 284.772C211.573 290.65 192.516 300.182 177.546 307.153C133.736 277.097 126.136 214.217 140.706 166.463C143.575 157.06 143.629 156.66 147.913 147.28C153.237 135.624 161.662 123.127 170.335 113.707C171.665 112.263 173.035 110.158 174.341 108.909C180.122 103.374 189.131 96.8369 195.973 92.0911C199.302 89.7823 216.981 82.5834 221.588 84.9283L221.604 84.9363Z" fill="#313241"/>
<path d="M399.383 171.269C412.815 183.506 428.006 215.838 433.847 233.189C446.041 269.418 451.966 323.235 445.637 360.925C443.83 371.681 433.515 376.539 423.403 375.903C422.097 377.671 420.815 377.279 419.109 376.335C409.338 366.719 398.121 361.333 385.142 357.076L384.966 355.119C379.261 350.293 388.859 349.693 390.474 347.428C396.899 338.424 389.264 306.608 386.34 295.792C381.572 278.158 374.506 261.267 367.135 244.613C366.622 243.456 365.909 242.428 364.943 241.608C364.531 241.368 364.262 241.9 364.142 243.208C364.355 244.701 364.555 247.898 363.341 248.802L361.719 249.335C351.491 240.563 340.691 233.349 326.474 233.049L324.899 231.212L323.998 229.771L328.104 222.416C327.791 218.979 320.344 218.759 317.268 217.647C290.067 207.831 274.58 193.514 257.634 171.257C260.298 168.648 261.46 165.611 261.119 162.15L262.441 160.865C264.993 158.104 269.916 156.471 271.251 152.87L273.173 152.882C278.842 161.081 289.73 170.049 299.713 163.53L301.68 164.058C303.936 164.494 305.017 167.608 304.084 169.652C304.773 169.436 305.646 169.44 305.887 170.025C307.946 174.966 310.289 176.327 316.258 175.331C326.417 173.634 344.236 158.176 335.611 147.588L336.116 145.667C336.352 145.155 336.621 145.163 336.917 145.667C342.57 142.234 352.248 144.471 358.762 146.156C374.097 150.129 387.261 159.265 398.999 169.472L399.379 171.245L399.383 171.269Z" fill="#E9645F"/>
<path d="M312.096 256.001C314.243 252.46 321.009 255.925 324.01 257.758C329.029 260.823 333.043 265.693 336.048 270.663C338.896 278.462 342.582 285.564 347.105 291.975C348.775 291.755 350.185 292.023 351.335 292.771C347.85 308.693 345.903 324.819 339.75 340.001C339.249 341.234 339.834 342.802 337.722 342.33C337.126 336.976 326.802 323.575 322.92 319.137C302.145 295.404 264.16 275.241 232.016 283.176C230.593 283.708 229.608 283.58 229.059 282.791C232.933 268.558 237.007 254.437 241.277 240.423L243.224 240.811C262.541 251.311 285.368 258.586 307.601 257.51C309.356 257.426 311.491 256.045 312.096 256.001Z" fill="#E9645F"/>
<path d="M238.421 427.866C239.719 428.571 241.053 429.343 241.958 430.539C248.604 439.347 256.504 450.175 262.269 459.466C263.303 461.131 262.89 462.527 260.843 462.239L261.175 463.896C235.994 478.562 210.804 493.227 185.61 507.897L183.963 507.004C181.079 490.262 184.708 482.071 193.574 468.634C195.713 468.474 196.514 467.938 195.977 467.033C196.31 466.677 198.321 461.967 200.781 459.038C202.335 458.894 202.868 458.362 202.383 457.438C205.131 453.9 202.643 453.176 199.979 450.243C212.182 443.78 226.391 435.033 238.417 427.862L238.421 427.866Z" fill="#752725"/>
<path d="M304.889 411.877L323.309 435.057C323.769 435.477 324.362 436.262 324.106 436.55C307.866 454.677 290.155 473.8 273.021 491.183C271.154 494.016 269.231 495.292 267.252 495.008C264.228 487.917 264.372 482.099 264.849 474.224C262.565 472.416 263.054 468.314 265.65 467.029C264.244 464.561 264.172 460.715 267.252 459.835C268.322 459.271 268.59 458.47 268.054 457.438C267.581 456.437 267.116 455.337 267.256 454.205C267.761 450.163 270.317 441.972 272.857 447.046C274.115 446.674 274.383 445.873 273.658 444.649C269.416 444.869 272.376 440.035 274.447 438.15L268.863 431.968L269.652 430.26C280.38 425.366 294.281 417.647 304.889 411.873V411.877Z" fill="#752725"/>
<path d="M363.349 248.806C365.184 251.988 363.429 255.877 363.605 258.694C363.726 260.591 365.404 263.128 365.476 265.317C365.628 269.854 362.608 271.415 361.406 274.444C359.087 280.294 358.005 289.434 351.339 292.771C349.917 293.483 348.595 293.868 346.976 293.579C342.646 292.803 337.334 276.049 334.658 271.451C330.271 263.924 321.722 255.297 312.096 256.001C309.34 251.639 316.627 235.257 319.703 232.82C321.398 231.48 323.489 232.532 324.911 231.22C332.11 232.272 338.808 232.616 345.474 235.873C348.226 237.218 362.207 246.822 363.353 248.802L363.349 248.806Z" fill="#586BB2"/>
<path d="M353.739 108.117C355.173 109.278 357.64 112.103 359.343 113.711C369.686 123.467 380.851 136.408 388.972 148.084C392.445 153.078 398.374 161.697 400.184 167.268C400.733 168.956 401.567 170.569 399.383 171.265C399.183 171.081 398.053 171.065 397.404 170.473C380.575 155.087 360.204 144.019 336.917 145.687C333.909 142.066 330.972 138.337 328.108 134.495C325.752 134.911 324.527 131.826 326.506 130.498L325.588 125.1C327.675 123.579 330.019 124.94 328.905 127.3C329.995 133.411 336.404 134.795 339.317 132.098L338.976 130.23C348.094 124.063 353.478 112.995 342.918 105.248L343.319 103.319C347.918 104.664 349.512 104.704 353.73 108.117H353.739Z" fill="#313241"/>
<path d="M423.411 375.907C422.915 377.783 419.686 380.28 418.184 381.481C415.171 383.882 401.819 394.402 399.019 388.703C398.658 387.975 399.411 387.287 399.387 387.099C400.741 383.573 400.741 382.241 399.387 383.101C396.247 386.863 391.748 390.988 386.296 389.504C385.45 389.272 385.851 387.963 385.775 387.895C385.138 387.259 384.337 386.991 383.371 387.095C381.657 389.556 376.525 390.564 374.069 388.755C373.136 388.067 373.3 387.027 372.959 386.294C373.356 384.79 373.092 383.99 372.158 383.898C369.182 386.05 363.065 385.006 362.532 381.049C362.312 379.396 363.269 378.039 363.349 376.703C363.577 376.007 363.846 376.015 364.15 376.703L364.951 375.903C365.224 374.214 364.687 373.414 363.349 373.506C363.966 370.004 364.194 368.28 366.962 365.523C371.702 360.805 375.992 363.39 380.891 360.241C382.726 359.06 384.156 357.127 384.97 355.119C386.476 356.395 397.144 359.576 400.721 361.377C403.489 362.766 408.926 365.819 411.345 367.559C415.427 370.493 417.843 375.554 423.407 375.903L423.411 375.907Z" fill="#FED505"/>
<path d="M260.843 462.24C262.537 458.442 265.734 464.168 265.646 467.037C265.318 469.358 264.985 471.895 264.845 474.232C239.254 488.429 213.223 502.551 187.144 515.444C184.688 513.327 184.476 509.99 183.963 507.005L260.843 462.24Z" fill="#C0BBBA"/>
<path d="M267.253 495.012L323.309 435.061C325.416 437.102 329.951 440.783 328.521 443.84C313.342 460.907 297.45 477.341 282.059 494.203C275.505 501.382 273.51 509.693 267.257 495.016L267.253 495.012Z" fill="#C0BBBA"/>
<path d="M363.349 373.51C369.05 370.16 374.794 365.663 381.22 363.746C382.682 363.31 382.911 362.574 384.164 364.33L364.951 375.911L364.15 376.711H363.349C363.413 375.683 363.185 374.442 363.349 373.514V373.51Z" fill="#211C0E"/>
<path d="M364.15 243.212C363.609 239.407 353.226 223.837 353.755 221.276C353.891 220.612 355.533 219.591 356.13 220.032C357.072 220.728 364.955 239.643 364.951 241.612C364.951 242.288 364.891 242.988 364.15 243.212Z" fill="#783835"/>
<path d="M372.158 383.898C375.599 381.409 380.928 374.162 384.297 370.833C387.181 367.984 388.363 369.276 386.191 372.725C383.155 377.555 377.118 382.309 372.96 386.295C372.627 385.578 371.838 385.046 372.158 383.898Z" fill="#241F10"/>
<path d="M383.367 387.099C385.514 384.014 387.589 376.763 390.209 373.546C390.967 372.617 392.853 371.041 393.775 371.917C394.696 372.793 386.328 385.71 385.771 387.899C385.659 387.799 383.692 389.16 383.367 387.099Z" fill="#252110"/>
<path d="M202.383 457.442C205.608 459.995 210.88 462.048 213.896 464.593C214.998 465.521 214.369 465.921 213.6 466.645C211.841 467.762 202.731 460.363 200.781 459.043C201.329 458.39 202.09 457.822 202.383 457.442Z" fill="#BAAEAD"/>
<path d="M195.977 467.033C197.087 467.69 209.033 474.16 207.186 475.821C202.034 475.304 198.453 470.287 193.578 468.63C194.679 466.961 195.801 467.225 195.981 467.029L195.977 467.033Z" fill="#BBB0AF"/>
<path d="M399.383 387.099C399.191 385.566 398.422 385.69 399.383 383.101C399.884 381.749 404.403 374.946 405.38 374.298C406.442 373.59 407.235 373.578 407.395 374.726C407.656 376.607 400.777 385.022 399.383 387.099Z" fill="#302A18"/>
<path d="M276.859 107.317C273.354 106.693 273.754 102.675 276.35 100.71C274.051 97.5691 275.99 94.628 278.778 92.6032C283.577 89.1259 301.252 89.342 307.453 89.6861C312.296 89.9542 316.887 90.6505 321.462 92.2831L322.508 91.3307L324.082 90.2623C325.572 90.4224 335.403 95.4963 334.518 97.7251C337.27 99.2617 340.459 102.483 343.327 103.319C349.368 110.002 352.537 110.99 349.084 120.658C346.648 127.472 343.82 127.781 339.325 132.098C336.048 135.547 329.226 131.786 328.913 127.3C328.509 127 326.754 125.372 326.518 125.7L326.51 130.498C324.739 130.37 323.593 128.529 323.069 124.975C320.376 123.871 318.321 122.246 316.899 120.106C316.675 122.278 315.124 122.491 313.694 120.906C313.674 122.218 313.142 122.218 312.092 120.906C312.068 123.371 309.528 123.439 308.086 121.706C307.072 123.859 305.742 124.011 304.881 121.706C304.693 124.275 297.482 124.295 296.873 121.706C294.361 124.475 285.652 119.673 286.461 116.112C287.691 115.428 286.89 114.628 284.058 113.715C282.656 117.012 276.815 113.687 278.453 110.518C282.219 109.442 282.303 109.017 278.718 109.25L277.652 108.121C276.366 109.177 275.906 108.725 276.851 107.321L276.859 107.317Z" fill="#586BB2"/>
<path d="M240.024 239.215L241.366 240.351C236.971 254.448 232.677 268.81 229.207 283.183L227.208 284.78C226.976 284.868 226.639 284.688 226.407 284.78C222.077 282.367 219.789 278.358 217.462 274.124C209.233 259.15 205.247 236.054 207.987 219.231C207.234 217.058 206.753 215.578 209.59 216.034C217.241 223.981 230.429 233.657 240.02 239.215H240.024Z" fill="#E9645F"/>
<path d="M220.002 404.682C211.501 398.532 210.371 387.451 216.132 378.836C227.461 361.89 246.938 373.462 262.838 372.698C283.389 371.709 309.043 361.41 307.641 337.516C307.389 333.187 309.841 332.963 310.413 337.208C313.414 359.345 289.23 372.022 270.457 374.314C270.89 375.523 273.506 376.287 274.72 376.843C279.086 378.84 286.818 380.717 290.239 382.934C291.309 383.626 292.406 383.874 292.066 385.499C287.255 384.154 282.327 382.95 277.672 381.089C274.295 379.736 268.863 375.899 265.867 375.287C262.401 374.579 258.355 375.511 254.85 375.095C242.283 373.606 224.084 367.288 217.161 382.265C212.715 391.889 216.036 395.41 220.803 403.085C224.052 406.563 224.152 408.555 220.002 404.686V404.682Z" fill="#434523"/>
<path d="M243.224 240.811C241.858 241.592 241.926 243.044 241.534 244.317C237.9 256.093 233.902 269.046 230.986 280.955C230.621 282.435 229.4 283.48 232.016 283.18C230.922 283.452 228.386 284.34 227.212 284.78L240.024 239.215C240.949 239.751 242.151 240.227 243.228 240.815L243.224 240.811Z" fill="#743634"/>
<path d="M245.628 422.268C245.039 422.736 244.59 423.381 244.026 423.869C244.15 421.9 242.796 421.836 241.638 421.052C239.026 419.283 236.11 417.803 233.614 415.874C232.552 414.749 233.001 414.337 234.415 415.074C238.149 417.414 241.975 419.975 245.628 422.268Z" fill="#54816F"/>
<path d="M220.803 403.085C223.218 405.582 226.76 408.675 228.001 411.876L220.001 404.682C220.486 405.03 222.253 406.466 222.397 406.278C222.669 404.918 221.516 404.225 220.803 403.081V403.085Z" fill="#424F27"/>
<path d="M234.419 415.073L233.618 415.874C232.152 414.741 230.441 413.633 229.616 411.884C231.763 411.592 233.197 414.305 234.419 415.073Z" fill="#4C7B5B"/>
<path d="M276.859 107.317C277.027 107.877 277.624 108.037 277.66 108.117C279.827 108.241 279.868 108.973 278.461 110.514C280.044 112.683 281.125 113.751 284.066 113.711C286.061 114.115 286.862 114.912 286.469 116.108C289.286 118.857 292.863 121.022 296.881 121.702L298.652 122.47C300.082 128.329 302.59 130.381 303.247 122.811L304.889 121.698C305.955 121.678 307.032 121.758 308.094 121.698C309.889 123.599 311.275 123.143 312.1 120.898C312.625 120.854 313.178 120.954 313.702 120.898C315.317 121.254 316.386 120.986 316.907 120.098C317.901 120.202 324.094 123.427 324.507 124.099C324.979 124.867 325.66 128.461 326.518 130.486C327.078 131.814 327.439 133.067 328.12 134.483C331.169 138 333.837 141.73 336.128 145.675C341.324 151.93 340.851 153.902 337.074 161.409C332.37 170.765 316.527 182.069 306.512 174.838C303.976 173.01 304.853 171.261 304.096 169.656L303.791 167.167C308.855 158.144 312.769 149.885 303.703 164.35L301.692 164.062C290.584 172.954 277.312 162.386 271.263 152.87C266.307 145.079 264.488 137.46 262.453 128.889C263.827 126.84 263.827 126.04 262.453 126.492C262.417 126.304 261.356 125.808 260.851 123.295C258.247 122.47 257.678 115.86 260.05 114.503C260.879 113.303 262.337 112.467 264.424 111.991L270.057 107.821C273.302 105.372 275.573 105.204 276.863 107.309L276.859 107.317Z" fill="#FED505"/>
<path d="M289.674 61.7553C292.791 69.0181 294.381 77.8294 294.477 85.7364L292.843 87.361C282.423 87.8612 271.555 90.8583 263.964 98.3372L261.648 98.5252L259.557 100.286C256.272 99.4496 253.003 98.5813 249.75 97.6809C245.744 100.518 242.587 101.947 240.825 96.1283C240.332 95.6041 239.519 93.8355 238.826 93.8235C238.505 93.8195 235.453 96.5805 233.089 96.6966C228.014 96.9447 222.221 89.5219 221.604 84.9401C221.576 84.74 222.273 81.5428 222.405 80.9426C219.397 79.6141 221.776 75.7286 223.583 73.8239C227.889 69.2902 233.774 71.0028 237.724 75.1244C238.269 73.4117 239.863 72.3713 242.499 72.0112L242.123 71.0388C234.259 69.2662 237.668 65.7888 242.495 63.0278C235.208 61.1431 233.906 58.6061 238.593 55.4129C240.384 52.4998 230.637 50.8432 228.322 52.2277C225.97 51.2193 225.434 48.8944 228.01 48.1702C230.265 44.9729 236.034 39.6829 240.024 39.3788C241.738 37.4621 243.705 37.7062 245.916 40.1151C253.424 41.1115 261.211 39.879 268.571 38.2904L270.453 39.3788L276.07 43.7645L283.261 51.3634C287.679 57.4217 287.88 57.6218 289.674 61.7593V61.7553Z" fill="#586BB2"/>
<path d="M261.644 98.5253L262.345 100.222C258.912 104.772 258.415 109.641 260.042 114.511C260.354 115.32 260.342 120.802 260.843 123.303C257.486 122.242 246.409 121.658 244.783 118.957C242.96 115.928 244.879 112.527 244.715 112.218C244.655 112.102 243.192 111.786 242.531 110.834C239.226 106.06 242.059 105.388 242.235 101.983C242.319 100.378 240.132 98.2532 240.821 96.1244C246.137 101.811 246.129 96.1244 249.995 96.0684C253.384 96.0203 257.69 99.5977 261.64 98.5253H261.644Z" fill="#8F929C"/>
<path d="M236.819 128.901C239.639 130.517 239.643 129.817 240.024 133.699C242.624 136.7 241.834 147.328 237.62 148.888C230.585 149.177 230.806 141.67 231.222 136.508C231.411 134.187 232.769 131.682 232.817 129.705C232.224 127.744 233.558 127.476 236.823 128.905L236.819 128.901Z" fill="#FCD408"/>
<path d="M262.445 160.877C263.535 163.939 262.437 171.481 257.642 171.269C257.562 171.165 256.276 171.181 255.655 170.473C254.874 169.581 254.702 167.664 254.301 167.408C253.416 166.84 249.185 167.316 247.431 165.467C246.593 164.583 246.814 163.034 246.429 162.478C247.387 160.341 250.664 156.364 252.835 156.884C254.926 157.432 261.404 157.952 262.445 160.881V160.877Z" fill="#FCD409"/>
<path d="M209.594 216.034C209.145 216.77 208.1 218.571 207.991 219.231C200.332 207.355 190.028 196.979 183.326 184.298C181.183 180.244 178.587 176.099 179.164 171.273C180.911 170.961 181.055 172.045 181.548 173.282C187.472 188.119 198.453 204.458 209.59 216.034H209.594Z" fill="#676769"/>
<path d="M247.23 144.091C249.714 146.632 245.588 159.312 240.825 155.283C240.1 154.471 238.978 155.795 237.62 152.086C240.729 146.808 241.834 140.973 241.414 134.495L242.427 133.699C248.26 135.163 247.807 138.329 247.23 144.091Z" fill="#F8D10F"/>
<path d="M251.232 155.279C251.801 157.284 247.062 162.322 244.827 160.077C244.282 159.353 243.192 158.584 242.423 157.68C246.205 154.259 247.547 150.681 248.412 145.279L249.63 144.891C252.074 145.928 254.093 147.152 254.433 150.161C254.774 153.17 253.039 153.414 251.232 155.283V155.279Z" fill="#F3CD16"/>
<path d="M242.427 133.699C242.828 138.993 243.581 149.777 237.624 152.086C237.544 151.866 236.911 151.63 236.871 150.881C236.823 150.009 237.384 149.521 237.624 148.889C239.627 143.643 240.621 139.749 240.028 133.699C241.31 132.442 241.826 133.547 242.431 133.699H242.427Z" fill="#2A2514"/>
<path d="M249.634 144.887C248.216 149.425 248.813 157.332 242.427 157.676C241.718 156.843 241.261 155.767 240.825 155.279C245.324 155.911 246.918 147.224 247.23 144.087C248.376 143.742 248.957 144.599 249.634 144.887Z" fill="#231F10"/>
<path d="M324.911 231.22C323.725 231.048 321.754 231.716 320.913 230.824L328.116 222.424C328.264 224.057 326.005 230.211 324.911 231.216V231.22Z" fill="#2E222A"/>
<path d="M252.835 156.879C250.463 158.496 249.65 162.141 246.429 162.474C245.896 161.701 245.316 160.721 244.827 160.077C246.914 159.5 249.654 156.915 251.232 155.279C251.697 155.615 252.466 156.779 252.835 156.879Z" fill="#2D2914"/>
<path d="M262.445 126.504C263.964 123.651 270.95 122.394 269.66 126.504C266.271 125.636 265.205 128.105 262.445 128.905C262.117 127.516 262.477 126.676 262.445 126.508V126.504Z" fill="#282112"/>
<path d="M232.817 129.701C232.853 128.125 230.393 124.475 233.229 122.514C235.821 122.43 233.654 126.564 234.587 127.965C234.656 128.065 236.178 128.533 236.823 128.901L232.817 129.701Z" fill="#636366"/>
<path d="M301.684 164.075C304.024 162.202 306.247 157.228 307.934 154.723C310.061 151.558 311.291 152.714 310.75 155.891C310.073 159.861 306.383 166.203 304.088 169.669C303.295 167.992 301.648 166.423 301.684 164.075Z" fill="#1F190D"/>
<path d="M336.921 145.687H336.12C332.43 141.246 330.816 140.133 328.112 134.495C331.966 137.288 334.598 141.598 336.921 145.687Z" fill="#829897"/>
<path d="M273.658 444.653C275.076 444.697 286.862 450.123 284.867 451.844C280.601 451.796 276.695 448.838 272.857 447.05C270.634 444.073 273.546 444.813 273.658 444.653Z" fill="#B9ACAA"/>
<path d="M268.05 457.442C270.838 458.774 278.325 459.863 280.388 461.367C281.149 461.924 281.005 463.676 280.861 463.832C280.132 464.609 269.36 459.979 267.253 459.839C267.461 458.934 267.853 458.194 268.054 457.442H268.05Z" fill="#B8ADAC"/>
<path d="M339.325 132.098C339.285 132.138 340.154 132.654 339.401 133.251C334.978 136.76 326.165 133.547 328.913 127.3C332.41 129.885 334.073 133.139 339.325 132.098Z" fill="#1D1E2B"/>
<path d="M294.477 85.7364C296.092 85.7364 297.79 86.6447 299.281 86.5367L300.374 87.6491C307.253 86.5247 315.088 85.8725 320.905 90.5342C321.29 90.6663 321.891 91.0904 322.508 91.3345C323.169 92.2629 324.35 93.8675 322.091 93.7594C319.407 93.6314 315.417 91.5986 311.723 91.3025C304.885 90.7583 284.498 90.4982 279.303 94.1676C276.979 95.8122 275.637 99.1375 278.638 100.394C280.264 101.074 293.3 102.555 295.667 102.579C297.502 102.599 306.451 100.538 306.471 102.923C306.5 106.596 279.01 103.627 276.062 102.527C275.665 104.335 276.37 105.7 276.855 107.321C269.945 106.768 266.892 115.488 260.038 114.515C259.982 114.371 258.219 113.799 257.798 112.358C256.492 107.865 258.756 101.983 261.636 98.5252C269.047 89.6419 283.357 85.7164 294.469 85.7364H294.477Z" fill="#020204"/>
<path d="M277.66 108.117C286.089 108.717 294.498 106.589 302.926 107.277C304.332 107.393 305.55 107.113 306.479 108.529C306.864 110.462 304.925 109.67 303.695 109.718C295.267 110.05 286.926 110.982 278.461 110.514C277.504 109.202 277.929 108.737 277.66 108.117Z" fill="#161426"/>
<path d="M284.066 113.715C286.001 113.687 288.3 113.431 290.74 113.419C292.979 113.407 305.83 112.223 306.491 112.919V115.312L286.465 116.116C285.732 115.404 284.414 115.048 284.062 113.719L284.066 113.715Z" fill="#19192B"/>
<path d="M304.889 121.706C304.741 132.462 298.427 131.394 296.881 121.706C298.283 121.942 303.066 121.742 304.889 121.706Z" fill="#1A1813"/>
<path d="M316.899 120.11C318.778 123.343 316.907 131.294 313.282 132.094C312.3 132.31 311.042 131.066 311.295 130.106C311.527 129.221 318.353 125.608 313.698 120.906C314.52 120.818 315.421 119.954 316.903 120.106L316.899 120.11Z" fill="#2C2718"/>
<path d="M312.096 120.906C315.846 126.928 310.141 123.783 309.7 124.095C309.304 124.379 309.099 131.434 306.492 128.901C305.518 127.956 307.757 123.171 308.09 121.706C309.564 121.622 310.866 121.01 312.096 120.906Z" fill="#25221B"/>
<path d="M228.01 48.1664C228.226 48.6546 227.757 50.3392 228.018 50.5593C228.478 50.9515 231.234 49.9991 232.284 50.0591C238.65 50.4273 244.334 54.6049 236.835 58.9585C236.739 60.4711 243.264 59.8069 243.974 62.2598C244.887 65.413 239.447 66.2213 239.206 66.9496C238.097 70.3148 243.172 67.9179 243.941 71.0991C244.887 74.9886 239.543 73.488 239.222 74.9566C238.778 77.0174 245.011 76.9454 243.224 80.9349C238.157 81.8392 239.815 79.9665 237.989 77.7817C234.363 73.444 229.055 70.1948 224.368 75.3087C222.177 77.6976 222.938 78.498 222.397 80.9389C217.706 81.387 211.745 77.1975 213.135 72.1395C213.508 70.787 215.867 67.998 215.863 67.7419C215.855 67.2016 212.751 65.8331 213.604 61.3874C214.185 58.3663 217.049 58.3343 217.522 57.674C217.83 57.2499 215.018 51.2996 219.224 47.7983C221.231 46.1297 227.032 45.9696 228.006 48.1704L228.01 48.1664Z" fill="#90939C"/>
<path d="M240.024 39.3711C243.533 37.9586 238.806 36.546 238.589 34.0531C238.101 28.4029 244.102 29.7234 245.484 28.8311C245.925 28.547 246.738 24.7055 248.853 23.7612C250.968 22.8168 253.011 24.4934 253.528 24.1173C253.756 23.9492 254.001 22.4727 254.79 21.7644C259.841 17.2227 261.452 24.9136 262.149 25.0497C263.471 25.3018 265.31 24.1133 266.816 24.2013C268.779 24.3174 269.836 26.1901 270.962 26.3622C272.504 26.6023 276.13 24.6495 277.72 27.1104C280.989 32.1804 274.916 37.7225 270.453 39.3671C265.658 41.1358 249.89 42.9925 245.392 41.6039C243.545 41.0317 243.805 39.079 240.024 39.3671V39.3711Z" fill="#90939C"/>
<path d="M320.905 90.5306C317.925 89.4942 310.862 88.3938 307.689 88.2938C306.015 88.2418 295.992 91.1188 299.281 86.5331C301.156 86.393 302.169 84.6924 303.848 84.3002C309.596 82.9677 317.6 85.4007 320.901 90.5306H320.905Z" fill="#5968AB"/>
<path d="M268.851 129.701C269.099 129.633 269.877 127.016 270.866 128.889C272.589 132.154 271.707 143.066 276.47 144.883C278.065 145.491 277.868 143.09 278.542 142.19C282.748 136.548 282.836 147.628 276.434 147.34C271.399 147.112 269.8 138.408 268.843 134.503L265.654 136.096C265.181 134.927 266.443 133.507 266.451 132.902C266.355 130.617 266.535 130.209 268.855 129.705L268.851 129.701Z" fill="#1C190C"/>
<path d="M276.062 154.479C275.693 152.782 276.927 152.662 277.921 151.946C279.543 150.773 285.568 147.256 287.235 146.836C288.669 146.476 288.701 146.476 289.666 147.7C290.055 149.537 277.24 155.487 276.062 154.479Z" fill="#28210F"/>
<path d="M284.803 118.585C285.087 119.045 284.775 120.198 284.867 120.906C283.305 121.058 281.774 120.27 280.212 120.642C278.457 121.058 274.327 126.136 273.662 122.899C273.021 119.766 282.94 115.564 284.803 118.589V118.585Z" fill="#312A13"/>
<path d="M284.066 128.901C286.221 129.101 286.077 129.773 284.066 130.501C282.175 133.414 276.502 131.478 276.046 128.509C275.613 125.676 279.836 128.541 280.677 128.721C281.426 128.881 283.669 129.169 284.066 128.901Z" fill="#383215"/>
<path d="M284.066 128.901C284.294 128.745 284.474 124.444 287.639 128.145C289.097 129.85 288.633 130.954 288.06 132.899C286.345 133.367 284.703 131.902 284.066 130.502C283.914 130.17 284.166 129.385 284.066 128.901Z" fill="#B4DAC4"/>
<path d="M268.851 129.702L266.447 132.899C266.459 132.126 265.314 130.022 265.646 129.706C265.907 129.457 268.082 129.91 268.851 129.702Z" fill="#685927"/>
<path d="M280.861 124.111C282.071 125.48 279.815 127.7 278.465 126.5C277.608 125.736 280.104 123.255 280.861 124.111Z" fill="#645021"/>
<path d="M273.662 80.1427C275.265 78.5141 278.618 84.4723 280.861 83.3319C280.961 80.5948 281.017 78.1819 280.32 75.4849C279.447 72.1036 275.597 68.9224 275.245 66.9577C274.952 65.3211 276.102 65.4651 277.135 65.8733C280.789 67.3138 284.422 78.2419 283.91 81.9193C282.528 91.7951 271.531 82.3075 273.662 80.1427Z" fill="#0E0E1D"/>
<path d="M234.415 91.3268C233.562 92.1511 231.587 90.7346 230.866 89.6822C228.326 85.9728 230.746 81.9953 230.417 81.7472C230.025 81.4511 227.152 82.2314 226.415 80.5267C225.55 76.1411 237.828 80.9829 238.417 83.752C239.238 87.6054 234.676 83.5039 233.898 83.4318C229.604 83.0437 235.1 90.6626 234.415 91.3268Z" fill="#121223"/>
<path d="M265.646 60.1589C266.92 61.4314 258.796 69.5705 257.654 70.1627C256.512 70.7549 255.423 70.2067 255.242 69.3384C255.03 68.318 264.14 58.6623 265.646 60.1629V60.1589Z" fill="#141427"/>
<path d="M287.267 63.348C286.357 64.2564 278.477 59.6786 277.075 58.7623C275.95 58.026 275.353 56.9016 276.062 56.1613C276.731 55.465 289.726 60.8911 287.267 63.348Z" fill="#161629"/>
<path d="M282.463 65.7488V64.9525C282.463 64.5128 282.106 64.1562 281.666 64.1562C281.226 64.1562 280.869 64.5128 280.869 64.9525V65.7488C280.869 66.1886 281.226 66.5451 281.666 66.5451C282.106 66.5451 282.463 66.1886 282.463 65.7488Z" fill="#27294B"/>
<path d="M264.845 69.7546C265.718 70.6269 264.124 72.2155 263.251 71.3432C262.377 70.4708 263.972 68.8822 264.845 69.7546Z" fill="#1C1C36"/>
</g>
<defs>
<clipPath id="clip0_68_2">
<rect width="399" height="527" fill="white" transform="translate(72.1553)"/>
</clipPath>
</defs>
</svg>
