<svg width="100" height="158" viewBox="0 0 100 158" fill="none" xmlns="http://www.w3.org/2000/svg">
<path d="M51.0304 7.14895H53.6396V9.24825H51.0304V12.0046C52.831 12.4707 54.1614 14.1146 54.1614 16.071C54.1614 17.126 53.7729 18.0887 53.134 18.8263C74.7995 20.1755 83.9752 30.5508 87 36.8333C85.9191 37.3145 84.9083 38.0922 84.1473 39.2565C83.5276 40.2045 83.1168 41.3439 82.9293 42.673C82.4968 42.7358 82.0458 42.8395 81.5993 43C78.3193 30.6114 66.2013 25.1397 60.4234 23.9433C65.9647 27.5495 69.3212 33.097 70.9405 36.9379C70.2751 36.7603 69.5848 36.6795 68.9316 36.6796C67.8369 36.6797 66.6356 36.8982 65.6264 37.4391L65.4266 37.5519C65.0152 37.7967 64.6594 38.0827 64.3534 38.3955C62.5969 30.682 55.8934 25.2426 52.5959 23.4185C53.3779 25.3848 53.6081 33.0295 53.6345 37.2966C52.9506 36.856 52.1923 36.5674 51.4401 36.4161C49.9498 36.1164 48.296 36.3011 46.9139 37.0281L46.6417 37.1808C46.5371 37.243 46.4356 37.3073 46.338 37.3745C46.362 33.1232 46.5908 25.3968 47.3776 23.4185C44.0694 25.2485 37.3317 30.717 35.6018 38.4703C33.9876 36.8175 31.5174 36.0697 29.0361 36.9286C30.6568 33.0881 34.013 27.5467 39.5501 23.9433C33.7796 25.1382 21.6839 30.5969 18.3855 42.9518C17.987 42.8194 17.5876 42.7289 17.2022 42.673C17.0147 41.3439 16.6049 40.2045 15.9852 39.2565C15.1932 38.0449 14.1305 37.2528 13 36.7769C16.0523 30.4891 25.238 20.1718 46.8384 18.8263C46.1998 18.0888 45.8121 17.1257 45.8121 16.071C45.8121 14.1146 47.1425 12.4707 48.9431 12.0046V9.24825H46.3339V7.14895H48.9431V4H51.0304V7.14895Z" fill="#FFD800"/>
<path d="M88.3014 61.3776C88.0954 63.2258 87.9373 64.8716 87.8318 66.1842L78.0034 66.499V66.3386H21.9966V66.5L12.1682 66.1851C12.0627 64.8725 11.9046 63.2263 11.6985 61.3776H88.3014Z" fill="#FFD800"/>
<path d="M84.2089 43.7757C84.209 36.6354 90.5867 36.9739 93 38.1641C90.903 43.188 89.4045 52.2603 88.5398 59.3371H11.4602C10.5955 52.2603 9.09683 43.188 7 38.1641C9.41331 36.9739 15.791 36.6353 15.7911 43.7757C17.3425 43.6058 20.4451 44.083 20.4452 47.3477C20.4448 50.612 18.0319 51.7689 16.8253 51.939C17.1705 52.9593 18.6874 54.845 21.9956 54.8454C25.0202 54.8453 26.4877 52.7685 26.9133 51.5743C26.1396 51.5401 25.1165 51.3184 24.2549 50.7393C23.3041 50.0999 22.5583 49.0324 22.5581 47.3477C22.5582 45.7615 23.3072 44.721 24.2549 44.0836C25.1262 43.4979 26.1641 43.2547 26.9436 43.2217C26.802 42.3392 26.8318 41.0993 27.3708 40.0473C27.6602 39.4828 28.0964 38.9714 28.7283 38.6025C32.3143 36.5102 36.2846 39.3698 35.667 43.2207C36.4464 43.2537 37.4844 43.497 38.3556 44.0826C39.3034 44.7199 40.0522 45.7606 40.0524 47.3467C40.0524 49.0316 39.3065 50.0988 38.3556 50.7384C37.4941 51.3175 36.4711 51.5391 35.6973 51.5733C36.1226 52.7674 37.5898 54.8453 40.615 54.8454H40.7685C41.3952 54.8454 41.9547 54.7553 42.4522 54.6033C42.5939 54.56 42.7306 54.5117 42.8623 54.4588C44.5004 53.801 45.3731 52.4496 45.6853 51.5733C44.9117 51.5389 43.8891 51.3181 43.0279 50.7393C42.0771 50.0999 41.3313 49.0324 41.3311 47.3477C41.3312 46.0583 41.8257 45.1288 42.5199 44.4841C42.6798 44.3356 42.8505 44.2019 43.0279 44.0826C43.8991 43.497 44.9371 43.2537 45.7166 43.2207C45.575 42.3382 45.6048 40.7385 46.1438 39.6866C46.4332 39.1221 46.8694 38.6106 47.5012 38.2418C49.5174 37.0656 52.7403 37.5105 53.8562 39.6866C54.3952 40.7385 54.425 42.3382 54.2834 43.2207C55.0629 43.2537 56.1009 43.497 56.9721 44.0826C57.1495 44.2019 57.3202 44.3356 57.4801 44.4841C58.1743 45.1288 58.6688 46.0583 58.6689 47.3477C58.6687 49.0324 57.9229 50.0999 56.9721 50.7393C56.1106 51.3183 55.0874 51.5391 54.3137 51.5733C54.6258 52.4496 55.4995 53.801 57.1377 54.4588C57.2694 54.5117 57.4061 54.56 57.5478 54.6033C58.0453 54.7553 58.6048 54.8454 59.2315 54.8454H59.4314C62.4246 54.8241 63.8793 52.7624 64.3027 51.5743C63.529 51.5401 62.5059 51.3184 61.6444 50.7393C60.6936 50.0999 59.9478 49.0324 59.9475 47.3477C59.9476 45.7615 60.6966 44.721 61.6444 44.0836C62.5156 43.4979 63.5535 43.2547 64.333 43.2217C64.1914 42.3392 64.2212 41.0993 64.7602 40.0473C65.0496 39.4828 65.4858 38.9714 66.1177 38.6025C67.5028 37.7943 69.8886 37.7947 71.2717 38.6015C71.9036 38.9703 72.3397 39.4818 72.6292 40.0463C73.1683 41.0982 73.198 42.3381 73.0564 43.2207C73.8358 43.2537 74.8738 43.497 75.7451 44.0826C76.6928 44.7199 77.4416 45.7606 77.4419 47.3467C77.4419 49.0316 76.6959 50.0988 75.7451 50.7384C74.8835 51.3175 73.8605 51.5391 73.0867 51.5733C73.512 52.7674 74.9793 54.8453 78.0044 54.8454H78.0539C81.3285 54.8263 82.8317 52.9531 83.1747 51.938C81.968 51.7679 79.5548 50.6115 79.5548 47.3467C79.5553 44.0825 82.6576 43.6058 84.2089 43.7757Z" fill="#FFD800"/>
<path d="M92 66.5C91.761 67.7958 90.7384 96.8449 89.4171 112.207C84.5448 168.857 15.4105 168.338 10.5829 112.207C9.26164 96.8449 8.23897 67.7958 8 66.5H92Z" fill="#1B4273"/>
<path d="M32.04 81.5V81.5051C32.7244 81.5314 33.2436 81.7284 33.6243 82.0504C34.0324 82.3957 34.2655 82.8691 34.3821 83.3802C34.595 84.3132 34.4267 85.404 34.1917 86.1914C34.706 86.1959 35.411 86.2304 36.0166 86.5312C36.3678 86.7058 36.6875 86.9704 36.9178 87.3665C37.1475 87.7617 37.2834 88.2781 37.2834 88.9497C37.2834 89.626 37.1238 90.1649 36.8584 90.5938C36.5933 91.0222 36.2273 91.3323 35.8272 91.5594C35.1176 91.9622 34.2863 92.1096 33.6837 92.1983C34.1159 93.0665 35.3822 94.5232 37.6501 94.5232C39.902 94.5232 41.1665 93.0868 41.6072 92.2167C41.16 92.169 40.5912 91.9868 40.1038 91.5685C39.5191 91.0667 39.0654 90.2399 39.0654 88.9497C39.0654 87.6472 39.6176 86.8978 40.3271 86.5078C40.9429 86.1695 41.66 86.111 42.1961 86.1649C42.0471 84.358 42.7061 83.2693 43.6329 82.6599C44.5781 82.0385 45.7723 81.9337 46.5813 82.023L46.7646 82.0433L46.7155 82.2193C44.6215 89.7083 43.3993 98.8672 43.0502 102.509L43.0369 102.65H20.7277L20.7144 102.509C20.3653 98.8672 19.1431 89.7083 17.0492 82.2193L17 82.0433L17.1833 82.023C17.9923 81.9337 19.1865 82.0385 20.1317 82.6599C21.0585 83.2693 21.7175 84.358 21.5685 86.1649C22.1046 86.111 22.8217 86.1695 23.4375 86.5078C24.147 86.8978 24.6992 87.6472 24.6992 88.9497C24.6992 90.2399 24.2455 91.0667 23.6608 91.5685C23.1734 91.9868 22.6046 92.169 22.1574 92.2167C22.5981 93.0868 23.8626 94.5232 26.1145 94.5232C28.3824 94.5232 29.6487 93.0665 30.0809 92.1983C29.4783 92.1096 28.647 91.9622 27.9375 91.5594C27.5373 91.3323 27.1713 91.0222 26.9062 90.5938C26.6408 90.1649 26.4812 89.626 26.4812 88.9497C26.4812 88.2781 26.6171 87.7617 26.8468 87.3665C27.0771 86.9704 27.3968 86.7058 27.748 86.5312C28.3536 86.2304 29.0586 86.1959 29.5729 86.1914C29.3379 85.404 29.1696 84.3132 29.3825 83.3802C29.4991 82.8691 29.7323 82.3957 30.1403 82.0504C30.521 81.7284 31.0402 81.5314 31.7246 81.5051V81.5H32.04Z" fill="#FFD800"/>
<path d="M67.2754 81.5V81.5051C67.9598 81.5314 68.479 81.7284 68.8597 82.0504C69.2677 82.3957 69.5009 82.8691 69.6175 83.3802C69.8304 84.3132 69.6621 85.404 69.427 86.1914C69.9414 86.1959 70.6464 86.2304 71.252 86.5312C71.6032 86.7058 71.9229 86.9704 72.1532 87.3665C72.3829 87.7617 72.5188 88.2781 72.5188 88.9497C72.5188 89.626 72.3592 90.1649 72.0938 90.5938C71.8287 91.0222 71.4626 91.3323 71.0625 91.5594C70.353 91.9622 69.5217 92.1096 68.9191 92.1983C69.3513 93.0665 70.6176 94.5232 72.8855 94.5232C75.1374 94.5232 76.4018 93.0868 76.8426 92.2167C76.3953 92.169 75.8266 91.9868 75.3392 91.5685C74.7545 91.0667 74.3008 90.2399 74.3008 88.9497C74.3008 87.6472 74.853 86.8978 75.5625 86.5078C76.1783 86.1695 76.8954 86.111 77.4315 86.1649C77.2825 84.358 77.9415 83.2693 78.8683 82.6599C79.8135 82.0385 81.0076 81.9337 81.8167 82.023L82 82.0433L81.9508 82.2193C79.8569 89.7083 78.6347 98.8672 78.2856 102.509L78.2723 102.65H55.9631L55.9498 102.509C55.6007 98.8672 54.3785 89.7083 52.2845 82.2193L52.2354 82.0433L52.4187 82.023C53.2277 81.9337 54.4219 82.0385 55.3671 82.6599C56.2939 83.2693 56.9529 84.358 56.8039 86.1649C57.34 86.111 58.0571 86.1695 58.6729 86.5078C59.3824 86.8978 59.9346 87.6472 59.9346 88.9497C59.9346 90.2399 59.4809 91.0667 58.8962 91.5685C58.4088 91.9868 57.84 92.169 57.3928 92.2167C57.8335 93.0868 59.098 94.5232 61.3499 94.5232C63.6178 94.5232 64.8841 93.0665 65.3163 92.1983C64.7137 92.1096 63.8824 91.9622 63.1728 91.5594C62.7727 91.3323 62.4067 91.0222 62.1416 90.5938C61.8762 90.1649 61.7166 89.626 61.7166 88.9497C61.7166 88.2781 61.8525 87.7617 62.0822 87.3665C62.3125 86.9704 62.6322 86.7058 62.9834 86.5312C63.589 86.2304 64.294 86.1959 64.8083 86.1914C64.5733 85.404 64.405 84.3132 64.6178 83.3802C64.7345 82.8691 64.9676 82.3957 65.3757 82.0504C65.7564 81.7284 66.2756 81.5314 66.96 81.5051V81.5H67.2754Z" fill="#FFD800"/>
<path d="M49.6759 110.621V110.626C50.3993 110.654 50.9481 110.857 51.3505 111.19C51.7818 111.548 52.0282 112.037 52.1515 112.566C52.3765 113.531 52.1986 114.66 51.9502 115.474C52.4938 115.479 53.239 115.514 53.8791 115.826C54.2503 116.006 54.5882 116.28 54.8317 116.69C55.0744 117.098 55.2181 117.633 55.2181 118.327C55.2181 119.027 55.0494 119.584 54.7689 120.028C54.4886 120.471 54.1017 120.792 53.6788 121.027C52.9289 121.444 52.0502 121.596 51.4133 121.688C51.87 122.586 53.2086 124.093 55.6056 124.093C57.9859 124.093 59.3224 122.607 59.7882 121.707C59.3155 121.658 58.7144 121.469 58.1992 121.036C57.5812 120.517 57.1016 119.662 57.1016 118.327C57.1016 116.98 57.6853 116.205 58.4352 115.801C59.086 115.451 59.8441 115.391 60.4106 115.447C60.2532 113.577 60.9497 112.451 61.9293 111.821C62.9284 111.178 64.1906 111.07 65.0457 111.162L65.2395 111.183L65.1875 111.365C62.9743 119.112 61.6824 128.586 61.3134 132.354L61.2993 132.5H37.7191L37.705 132.354C37.336 128.586 36.0441 119.112 33.8309 111.365L33.7789 111.183L33.9727 111.162C34.8278 111.07 36.0901 111.178 37.0891 111.821C38.0687 112.451 38.7653 113.577 38.6078 115.447C39.1744 115.391 39.9324 115.451 40.5833 115.801C41.3332 116.205 41.9169 116.98 41.9169 118.327C41.9169 119.662 41.4373 120.517 40.8193 121.036C40.3041 121.469 39.7029 121.658 39.2302 121.707C39.6961 122.607 41.0325 124.093 43.4128 124.093C45.8099 124.093 47.1484 122.586 47.6052 121.688C46.9683 121.596 46.0895 121.444 45.3396 121.027C44.9167 120.792 44.5298 120.471 44.2496 120.028C43.9691 119.584 43.8003 119.027 43.8003 118.327C43.8003 117.633 43.944 117.098 44.1868 116.69C44.4302 116.28 44.7681 116.006 45.1393 115.826C45.7794 115.514 46.5247 115.479 47.0683 115.474C46.8198 114.66 46.642 113.531 46.8669 112.566C46.9902 112.037 47.2367 111.548 47.668 111.19C48.0703 110.857 48.6191 110.654 49.3425 110.626V110.621H49.6759Z" fill="#FFD800"/>
</svg>
