<svg width="521" height="531" viewBox="0 0 521 531" fill="none" xmlns="http://www.w3.org/2000/svg">
<g clip-path="url(#clip0_142_1922)">
<circle cx="262.5" cy="279.5" r="229.5" fill="#F1F1F1"/>
<mask id="mask0_142_1922" style="mask-type:alpha" maskUnits="userSpaceOnUse" x="33" y="-5" width="459" height="514">
<path d="M492 279.5C492 406.249 389.249 509 262.5 509C135.751 509 33 406.249 33 279.5C33 152.751 135.751 50 262.5 50C389.249 50 492 152.751 492 279.5Z" fill="#D9D9D9"/>
<path d="M492 224.5C492 351.249 389.249 454 262.5 454C135.751 454 33 351.249 33 224.5C33 97.7506 135.751 -5 262.5 -5C389.249 -5 492 97.7506 492 224.5Z" fill="#D9D9D9"/>
</mask>
<g mask="url(#mask0_142_1922)">
<path d="M376.849 508.178C373.791 508.317 370.733 508.541 367.674 508.572C347.541 508.772 327.408 508.919 307.275 509.111C282.6 509.35 257.926 509.62 233.251 509.874C210.298 510.113 187.337 510.337 164.384 510.584C156.039 510.676 147.686 510.838 139.34 510.961C138.357 510.977 137.365 511.038 136.397 510.946C133.931 510.707 132.401 509.119 132.171 506.637C132.102 505.904 132.132 505.157 132.132 504.417C132.132 488.275 132.117 472.133 132.125 455.983C132.125 454.88 132.255 453.778 132.324 452.676C133.031 452.522 133.808 452.491 134.445 452.182C138.195 450.348 142.061 448.69 145.618 446.532C153.18 441.93 160.157 436.503 166.512 430.32C170.647 426.297 174.858 422.342 178.438 417.763C181.305 414.094 184.471 410.648 187.306 406.948C191.717 401.197 195.667 395.115 199.486 388.963C202.076 384.793 204.419 380.461 206.732 376.128C211.666 366.901 215.861 357.327 219.481 347.506C222.07 340.475 224.053 333.245 225.959 325.991C226.404 324.31 225.974 323.108 224.937 321.967C224.445 321.427 223.884 320.903 223.269 320.533C221.379 319.4 219.442 318.344 217.529 317.257C217.76 316.309 217.929 315.337 218.221 314.412C221.379 304.337 224.568 294.262 227.718 284.186C228.118 282.907 228.372 281.581 228.694 280.278C229.763 278.544 230.692 276.786 229.809 274.666L229.924 274.751C230.469 274.974 230.7 274.697 230.792 274.204L230.777 274.219C230.984 274.096 231.192 273.965 231.392 273.841C233.82 272.415 236.256 271.004 238.169 268.869C243.033 263.442 247.022 257.437 249.826 250.7C251.11 247.624 251.755 244.355 251.632 241.002C251.586 239.676 251.402 238.296 250.964 237.048C249.611 233.224 247.89 229.616 245.423 226.325C242.127 221.923 238.515 217.722 236.01 212.757C235.841 212.064 235.372 211.262 235.564 210.692C236.386 208.286 235.925 205.843 236.071 203.422C249.066 203.9 262.037 203.615 274.924 201.796C281.225 200.909 287.495 199.784 293.497 197.548C295.441 196.824 297.316 195.906 299.168 194.973C300.659 194.218 301.535 192.985 301.88 191.258C302.134 189.963 302.803 188.76 303.287 187.511C304.793 186.548 306.468 186.378 308.212 186.278C327.285 185.191 344.875 190.125 361.381 199.452C372.254 205.596 381.952 213.282 390.82 222.054C403.307 234.411 413.704 248.387 422.717 263.442C434.774 283.585 443.965 305.015 451.134 327.348C457.12 346.003 461.524 365.035 464.682 384.384C469.462 413.677 470.906 443.148 469.508 472.765C469.093 481.491 468.071 490.186 467.356 498.905C467.256 500.115 467.272 501.341 467.302 502.551C467.371 505.388 465.796 507.207 462.976 507.462C462.492 507.508 461.992 507.5 461.501 507.5C435.358 507.778 409.216 508.055 383.081 508.317C382.474 508.317 381.86 508.225 381.253 508.171C380.653 506.274 380.476 504.324 380.507 502.343C380.523 501.356 380.476 500.37 380.376 499.391C379.962 495.49 379.454 491.605 379.093 487.704C378.74 483.919 378.525 480.119 378.248 476.326C378.233 476.079 378.186 475.84 378.163 475.594C377.733 471.701 377.234 467.808 376.888 463.907C376.527 459.876 376.311 455.829 376.027 451.789C376.019 451.666 375.996 451.543 375.981 451.419C375.543 447.65 375.028 443.88 374.69 440.103C374.329 436.071 374.121 432.024 373.845 427.985C373.829 427.738 373.822 427.491 373.799 427.245C373.353 423.475 372.838 419.713 372.485 415.928C372.116 412.02 371.916 408.096 371.639 404.18C371.616 403.81 371.57 403.448 371.532 403.078C371.101 399.062 370.61 395.045 370.248 391.021C369.895 387.113 369.68 383.189 369.396 379.273C369.388 379.15 369.357 379.027 369.342 378.911C368.904 375.018 368.397 371.125 368.043 367.225C367.682 363.193 367.467 359.146 367.19 355.107C367.175 354.86 367.136 354.621 367.106 354.374C366.675 350.851 366.168 347.328 365.845 343.798C365.476 339.766 365.515 335.681 364.916 331.688C364.493 328.866 364.431 326.06 364.224 323.246C364.109 321.658 363.832 320.086 363.532 318.521C363.425 317.951 363.163 317.318 362.772 316.91C362.387 316.517 361.742 316.162 361.219 316.178C360.397 316.201 360.028 316.933 359.905 317.712C359.844 318.074 359.821 318.452 359.844 318.814C360.151 323.717 360.466 328.619 360.789 333.522C360.797 333.646 360.858 333.761 360.874 333.877C361.273 337.531 361.734 341.177 362.057 344.839C362.403 348.747 362.626 352.671 362.91 356.587C362.925 356.833 362.979 357.072 363.01 357.319C363.44 361.335 363.924 365.351 364.285 369.375C364.639 373.284 364.862 377.207 365.146 381.124C365.154 381.247 365.184 381.37 365.2 381.486C365.63 385.255 366.137 389.025 366.483 392.802C366.844 396.711 367.052 400.634 367.336 404.55C367.351 404.797 367.398 405.036 367.421 405.283C367.851 409.175 368.35 413.068 368.696 416.969C369.057 421.001 369.273 425.048 369.557 429.087C369.572 429.334 369.634 429.573 369.657 429.819C370.079 433.589 370.571 437.359 370.909 441.136C371.271 445.167 371.486 449.215 371.762 453.254C371.778 453.501 371.816 453.74 371.839 453.986C372.277 457.879 372.769 461.772 373.13 465.673C373.484 469.458 373.699 473.258 373.975 477.051C373.991 477.297 374.037 477.536 374.068 477.783C374.498 481.799 374.99 485.816 375.351 489.839C375.704 493.748 375.92 497.672 376.204 501.588C376.212 501.711 376.219 501.842 376.258 501.95C376.98 503.97 376.834 506.074 376.88 508.163L376.849 508.178Z" fill="#1F2B51"/>
<path d="M132.225 448.174C131.84 447.95 131.41 447.48 131.087 447.549C130.019 447.773 128.989 448.205 127.944 448.536C113.344 453.138 99.1356 452.29 85.5035 445.16C75.3909 439.864 68.1522 431.646 62.75 421.679C58.4929 413.816 55.788 405.406 54.1512 396.657C51.5693 382.873 51.4463 369.005 53.06 355.091C56.8331 322.637 67.9985 292.797 84.5814 264.868C94.3021 248.495 105.829 233.517 119.515 220.273C130.711 209.443 143.006 200.131 157.099 193.378C166.013 189.099 175.342 186.216 185.193 185.168C186.161 185.068 187.145 185.153 188.121 185.145C188.451 186.425 188.789 187.696 189.112 188.976C189.858 191.913 191.318 194.272 194.199 195.536C193.723 195.845 193.246 196.153 192.77 196.461C189.942 197.255 188.198 199.182 187.107 201.827C186.023 204.447 185.001 207.068 185.009 209.982C185.009 210.938 184.724 211.894 184.563 212.896C183.917 213.189 183.372 213.436 182.826 213.683C181.044 214.492 179.238 215.255 177.478 216.118C173.759 217.93 171.307 220.89 169.917 224.76C168.956 227.443 168.441 230.202 168.395 233.062C168.372 234.766 168.572 236.493 168.164 238.181C165.729 239.992 163.377 241.735 161.587 244.14C157.468 249.667 156.515 255.464 159.858 261.708C160.088 262.14 160.265 262.602 160.465 263.049C159.896 264.784 159.335 266.518 158.766 268.253C157.445 272.392 156.154 276.539 154.794 280.671C154.494 281.573 153.979 282.406 153.556 283.269C152.411 282.837 151.29 282.359 150.129 281.997C147.624 281.211 146.202 281.804 144.996 284.078C144.65 284.734 144.335 285.397 144.005 286.06C136.774 300.614 129.543 315.175 122.312 329.722C121.712 330.924 121.067 332.104 120.506 333.183C119.123 333.615 117.962 334.016 116.779 334.339C113.044 335.365 109.74 337.307 106.728 339.612C100.065 344.715 94.1869 350.589 89.7222 357.828C88.0163 360.603 86.8944 363.548 85.9569 366.6C85.7187 367.387 85.7648 368.312 85.8954 369.144C86.0184 369.923 86.6639 370.485 87.463 370.439C88.0086 370.401 88.7463 370.123 89.0153 369.699C89.5301 368.89 89.753 367.895 90.1218 366.993C90.9594 364.958 91.6357 362.846 92.6884 360.927C96.4538 354.02 101.756 348.415 107.942 343.667C110.263 341.886 112.921 340.545 115.473 339.08C115.903 338.833 116.564 338.98 117.278 338.941C117.033 340.984 116.241 342.495 115.488 344.021C110.777 353.503 106.059 362.985 101.349 372.467C100.857 373.461 100.357 374.448 99.9502 375.481C99.6121 376.344 100.027 377.269 100.811 377.678C101.756 378.179 102.832 377.963 103.4 377.092C103.8 376.475 104.13 375.812 104.453 375.149C111.992 359.794 119.507 344.422 127.076 329.074C133.777 315.491 140.539 301.947 147.301 288.388C147.67 287.64 148.216 286.985 148.708 286.26C150.16 286.522 151.466 286.753 152.765 286.992V286.985C152.972 287.208 153.172 287.424 153.38 287.648C154.724 288.488 156.008 289.436 157.414 290.145C175.703 299.388 193.999 308.592 212.296 317.82C213.387 318.367 214.44 318.991 215.516 319.585C216.092 320.926 217.398 321.45 218.459 322.275C219.596 323.169 221.141 323.593 221.948 325.451C220.472 330.57 219.158 336.074 217.298 341.377C214.901 348.215 212.273 354.976 209.322 361.613C206.218 368.605 202.69 375.357 198.925 381.979C194.553 389.672 189.688 397.073 184.309 404.103C179.837 409.962 175.311 415.782 170.039 420.962C167.227 423.722 164.53 426.597 161.648 429.272C159.228 431.523 156.707 433.697 154.064 435.678C150.729 438.183 147.324 440.612 143.774 442.793C140.647 444.72 137.289 446.278 134.007 447.935C133.493 448.189 132.816 448.104 132.209 448.182L132.225 448.174Z" fill="#1F2B51"/>
<path d="M194.207 195.529C191.325 194.272 189.858 191.905 189.12 188.968C188.797 187.689 188.459 186.417 188.129 185.137C188.313 181.953 188.597 178.777 188.666 175.594C188.92 164.424 189.104 153.254 189.304 142.084C189.304 141.976 189.212 141.868 189.051 141.514C188.736 141.49 188.275 141.352 187.86 141.436C182.457 142.547 177.947 140.712 174.151 137.019C167.842 130.876 166.535 120.538 170.969 112.899C171.523 111.951 172.199 111.072 172.821 110.162C174.404 109.014 175.864 107.611 177.601 106.763C182.027 104.596 186.499 104.072 190.78 107.287C191.156 107.572 191.617 107.742 192.147 108.019C195.39 105.236 198.157 102.114 200.5 98.6454C202.821 95.2073 204.942 91.6227 207.186 88.0459C208.815 88.2617 210.39 88.4699 211.958 88.6703C217.06 89.3255 222.17 89.9962 227.273 90.6283C230.8 91.0677 234.335 91.4609 237.87 91.8463C238.469 91.908 239.184 92.0005 239.66 91.7384C240.236 91.4223 240.79 90.8287 241.051 90.2197C241.366 89.4874 240.713 88.4236 239.929 88.1384C239.36 87.938 238.746 87.8223 238.139 87.7375C235.103 87.3136 232.068 86.8973 229.033 86.5119C224.291 85.9183 219.542 85.371 214.793 84.7697C212.895 84.5307 211.005 84.2147 208.876 83.8986C211.013 78.1479 212.788 72.5591 213.449 66.5463C217.66 68.5968 221.671 70.6242 225.751 72.5051C229.885 74.4092 234.273 75.604 238.699 76.5907C243.126 77.5775 247.613 78.171 252.155 78.5256C256.835 78.8879 261.468 78.7338 266.125 78.4023C270.674 78.0708 275.154 77.3385 279.488 76.0126C283.799 74.7021 287.979 72.9676 292.214 71.4182C292.459 75.5886 292.705 79.8438 292.944 84.099C292.944 84.2147 292.928 84.3534 292.867 84.4536C292.805 84.5538 292.682 84.6078 292.406 84.8236C289.808 85.1243 287.019 85.4558 284.229 85.7641C279.473 86.2806 274.724 86.7817 269.967 87.3058C269.614 87.3444 269.253 87.4832 268.922 87.6296C268.108 87.9842 267.624 88.8553 267.723 89.7187C267.816 90.5821 268.492 91.4223 269.322 91.5148C270.044 91.5996 270.797 91.5996 271.52 91.5148C272.98 91.3298 274.424 91.0523 275.877 90.8133C276.722 90.8287 277.567 90.8442 278.412 90.8442C278.95 90.8442 279.327 91.0369 279.427 91.615C277.698 91.8848 276.722 93.1259 275.861 94.475C274.962 95.8779 274.816 97.4505 274.993 99.0694C275.385 102.646 278.397 104.959 281.947 104.404C284.667 103.98 287.042 101.652 287.541 98.815C287.803 97.3503 287.734 95.8779 286.988 94.5289C286.274 93.2339 285.49 92.0005 283.868 91.6921C283.246 91.4223 282.608 91.1756 282.001 90.8673C281.64 90.6823 281.332 90.4125 280.994 90.1735C285.351 89.8343 289.701 89.4874 294.142 89.1405C296.317 96.618 299.007 103.656 303.725 110.016C304.562 109.345 305.169 108.759 305.869 108.328C306.691 107.826 307.559 107.356 308.466 107.071C313.177 105.614 317.634 106.092 321.714 109.029C322.306 109.453 322.951 109.808 323.574 110.201C327.554 114.487 329.383 119.575 328.907 125.402C328.422 131.33 326.025 136.318 321.153 139.879C316.888 143.009 312.193 143.618 307.19 141.922C306.191 141.583 305.254 140.696 304.094 141.49C302.618 143.109 301.212 144.805 299.652 146.347C287.672 158.195 273.033 164.316 256.535 166.405C255.075 166.59 253.615 166.76 252.155 166.891C250.649 167.022 249.135 167.106 246.929 167.253C248.705 168.486 250.042 168.972 251.409 169.373C256.327 170.83 261.261 172.271 266.179 173.728C268.192 174.33 270.244 174.522 272.342 174.468C278.605 174.306 284.798 173.52 290.83 171.878C295.064 170.722 299.176 169.149 303.348 167.762C303.364 168.972 303.41 170.182 303.402 171.4C303.364 176.773 303.302 182.146 303.248 187.519C302.764 188.768 302.103 189.978 301.842 191.266C301.496 192.992 300.62 194.226 299.13 194.981C297.278 195.922 295.403 196.831 293.458 197.556C287.457 199.791 281.186 200.917 274.885 201.803C261.991 203.623 249.027 203.908 236.033 203.43C235.841 202.713 235.603 202.012 235.457 201.287C234.465 196.346 232.222 192.013 229.009 188.182C226.282 184.921 222.985 182.408 219.004 180.851C215.477 179.471 211.858 179.132 208.185 180.142C202.268 181.768 198.533 185.762 196.374 191.366C195.89 192.622 195.613 193.956 195.244 195.266C194.883 195.359 194.53 195.444 194.168 195.529H194.207ZM258.249 113.176C258.249 118.218 257.841 122.242 256.666 126.304C256.128 128.177 255.344 129.997 254.529 131.77C254.13 132.641 253.5 133.458 252.823 134.144C251.287 135.717 249.627 135.732 247.959 134.229C247.329 133.658 246.791 132.965 246.299 132.271C245.808 131.569 245.416 130.798 244.993 130.051C244.755 129.627 244.57 129.156 244.301 128.756C243.641 127.761 242.434 127.453 241.42 127.969C240.59 128.393 240.029 129.534 240.513 130.505C241.435 132.363 242.373 134.267 243.671 135.863C248.097 141.329 253.6 140.959 257.557 135.084C259.37 132.394 260.408 129.395 261.146 126.266C263.09 118.002 263.105 109.684 261.453 101.39C260.854 98.3987 259.847 95.4771 258.948 92.5555C258.702 91.7538 258.241 90.9906 257.749 90.3045C257.211 89.5645 256.197 89.4489 255.421 89.842C254.552 90.2891 254.168 91.0292 254.26 91.9542C254.322 92.5555 254.537 93.1491 254.775 93.7118C257.342 99.9481 258.256 106.47 258.241 113.169L258.249 113.176ZM250.879 150.116C250.879 150.248 250.879 150.379 250.879 150.51C252.716 150.51 254.56 150.486 256.397 150.51C259.832 150.564 263.266 150.656 266.701 150.71C267.308 150.718 267.939 150.718 268.53 150.61C269.637 150.409 270.613 149.176 270.467 148.259C270.328 147.395 269.406 146.524 268.4 146.424C267.547 146.339 266.686 146.362 265.825 146.347C259.324 146.208 252.823 146.069 246.322 145.938C242.642 145.861 238.961 145.784 235.28 145.746C234.435 145.738 233.566 145.8 232.744 145.992C231.914 146.185 231.361 147.141 231.407 147.981C231.453 148.845 232.06 149.77 232.859 149.916C233.697 150.07 234.565 150.093 235.418 150.093C240.574 150.109 245.723 150.093 250.879 150.093V150.116ZM228.91 97.4814C228.963 94.0895 226.32 91.2604 222.57 91.191C218.981 91.1294 216.146 94.2514 216.107 97.8668C216.077 101.374 219.25 104.196 222.485 104.165C226.082 104.126 228.948 101.135 228.91 97.4814ZM312.954 118.511C312.293 120.33 311.709 121.926 311.14 123.529C310.856 124.331 310.51 125.133 310.326 125.957C310.087 127.037 310.602 127.946 311.532 128.37C312.416 128.771 313.522 128.447 314.03 127.445C314.683 126.135 315.105 124.716 315.751 123.398C316.312 122.242 316.381 120.808 317.71 119.752C318.333 120.646 318.84 121.455 319.424 122.195C320.077 123.028 321.138 123.213 322.052 122.735C322.943 122.273 323.151 121.479 323.089 120.569C322.982 118.966 322.044 117.825 320.861 116.923C317.81 114.61 314.337 113.647 310.541 113.993C309.711 114.071 308.873 114.387 308.097 114.718C307.098 115.142 306.653 116.16 306.898 117.131C307.137 118.048 308.036 118.688 309.142 118.626C309.749 118.596 310.341 118.372 310.948 118.341C311.532 118.318 312.116 118.426 312.961 118.503L312.954 118.511ZM179.998 119.104C180.337 120.615 180.598 121.802 180.874 122.974C181.128 124.053 181.336 125.14 181.681 126.189C182.004 127.168 183.157 127.823 183.979 127.646C185.016 127.414 185.915 126.266 185.739 125.156C185.485 123.583 185.055 122.041 184.77 120.469C184.601 119.536 184.563 118.588 184.44 117.462C185.139 117.424 185.616 117.324 186.046 117.401C186.638 117.516 187.199 117.863 187.79 117.94C188.72 118.064 189.419 117.624 189.896 116.792C190.326 116.036 190.226 115.265 189.688 114.749C189.012 114.101 188.19 113.4 187.322 113.176C183.41 112.151 177.255 114.602 174.919 117.987C174.781 118.187 174.673 118.411 174.558 118.626C174.128 119.482 174.258 120.315 174.927 120.978C175.672 121.718 176.74 121.849 177.586 121.201C178.339 120.623 179.03 119.96 180.006 119.104H179.998Z" fill="#FBBE00"/>
<path d="M275.884 90.8133C274.432 91.0523 272.987 91.3298 271.527 91.5148C270.805 91.6073 270.052 91.6073 269.329 91.5148C268.507 91.4223 267.823 90.5744 267.731 89.7187C267.639 88.8553 268.123 87.9842 268.93 87.6296C269.26 87.4832 269.621 87.3444 269.975 87.3059C274.724 86.7817 279.481 86.2883 284.237 85.7641C287.027 85.4558 289.816 85.1243 292.413 84.8237C292.69 84.6155 292.813 84.5538 292.874 84.4536C292.936 84.3534 292.959 84.2147 292.951 84.099C292.705 79.8438 292.459 75.5886 292.221 71.4182C287.987 72.9677 283.807 74.6944 279.496 76.0126C275.162 77.3308 270.682 78.0708 266.133 78.4023C261.476 78.7415 256.842 78.8879 252.163 78.5256C247.621 78.1787 243.133 77.5775 238.707 76.5908C234.289 75.604 229.893 74.4169 225.759 72.5051C221.679 70.6242 217.667 68.5891 213.456 66.5463C212.788 72.5591 211.013 78.1479 208.884 83.8986C211.013 84.2147 212.903 84.5307 214.801 84.7697C219.542 85.371 224.291 85.9183 229.04 86.5119C232.083 86.8896 235.119 87.3136 238.146 87.7375C238.753 87.8223 239.36 87.9303 239.937 88.1384C240.72 88.4159 241.374 89.4797 241.059 90.2198C240.797 90.8287 240.244 91.43 239.668 91.7384C239.184 92.0005 238.469 91.908 237.877 91.8463C234.342 91.4609 230.808 91.0677 227.281 90.6283C222.17 89.9962 217.068 89.3255 211.966 88.6703C210.39 88.4699 208.823 88.2617 207.194 88.0459C204.95 91.6227 202.836 95.2073 200.508 98.6454C198.164 102.114 195.398 105.236 192.155 108.019C191.625 107.742 191.164 107.572 190.787 107.287C186.515 104.072 182.035 104.589 177.609 106.763C175.88 107.611 174.412 109.014 172.829 110.162C168.564 104.543 166.266 98.1443 165.214 91.2142C163.408 79.2811 165.214 67.9107 170.47 57.0954C173.359 51.1443 177.247 45.9717 182.619 42.0249C186.438 39.2112 190.618 37.2917 195.398 36.8292C195.621 36.8061 195.828 36.6365 196.051 36.5363C196.543 34.6476 196.927 32.7282 197.542 30.8781C199.624 24.5492 203.805 19.8084 209.076 15.9463C214.793 11.7528 221.225 9.09324 228.049 7.3742C238.285 4.79178 248.635 4.46031 259.094 5.70141C269.429 6.9271 279.212 9.87182 288.348 14.8825C293.666 17.7964 298.438 21.4349 302.426 26.0524C305.016 29.0588 307.098 32.3659 308.474 36.1123C310.364 41.2386 310.671 46.4188 309.188 51.6993C308.989 52.4008 308.85 53.1177 308.635 54.0505C309.173 54.2971 309.68 54.5515 310.203 54.7674C313.392 56.0701 315.735 58.3751 317.626 61.181C320.769 65.8371 322.536 71.079 323.735 76.506C325.933 86.481 326.125 96.5332 324.473 106.616C324.273 107.826 323.896 109.006 323.604 110.201C322.982 109.815 322.336 109.461 321.745 109.029C317.657 106.092 313.207 105.614 308.497 107.071C307.582 107.356 306.714 107.826 305.899 108.328C305.193 108.759 304.585 109.345 303.756 110.016C299.037 103.664 296.348 96.618 294.173 89.1405C289.732 89.4874 285.382 89.8343 281.025 90.1735C279.849 90.1735 278.666 90.1041 277.49 90.1966C276.952 90.2429 276.43 90.5898 275.907 90.8056L275.884 90.8133Z" fill="#060503"/>
<path d="M376.849 508.178C376.803 506.089 376.949 503.985 376.227 501.965C376.189 501.85 376.181 501.726 376.173 501.603C375.897 497.687 375.674 493.763 375.32 489.855C374.959 485.831 374.475 481.815 374.037 477.798C374.014 477.552 373.968 477.313 373.945 477.066C373.668 473.273 373.453 469.473 373.099 465.688C372.738 461.787 372.246 457.895 371.808 454.002C371.778 453.755 371.747 453.516 371.732 453.269C371.455 449.23 371.24 445.183 370.879 441.151C370.541 437.374 370.049 433.604 369.626 429.835C369.595 429.588 369.542 429.349 369.526 429.102C369.242 425.063 369.027 421.016 368.666 416.984C368.32 413.084 367.82 409.191 367.39 405.298C367.359 405.051 367.321 404.812 367.305 404.566C367.029 400.65 366.814 396.726 366.452 392.818C366.107 389.04 365.607 385.271 365.169 381.501C365.154 381.378 365.123 381.254 365.115 381.139C364.831 377.223 364.608 373.299 364.255 369.391C363.894 365.367 363.409 361.351 362.979 357.334C362.956 357.088 362.902 356.849 362.879 356.602C362.603 352.686 362.38 348.762 362.026 344.854C361.704 341.192 361.242 337.546 360.843 333.892C360.827 333.769 360.766 333.653 360.758 333.538C360.443 328.635 360.121 323.732 359.813 318.829C359.79 318.467 359.813 318.089 359.875 317.727C359.998 316.948 360.366 316.216 361.189 316.193C361.711 316.178 362.357 316.532 362.741 316.925C363.133 317.334 363.394 317.966 363.502 318.536C363.801 320.101 364.078 321.674 364.193 323.262C364.401 326.075 364.462 328.881 364.885 331.703C365.484 335.696 365.446 339.782 365.815 343.813C366.137 347.352 366.645 350.867 367.075 354.39C367.106 354.636 367.144 354.875 367.159 355.122C367.436 359.161 367.651 363.208 368.012 367.24C368.366 371.141 368.873 375.034 369.311 378.926C369.326 379.05 369.357 379.173 369.365 379.289C369.641 383.205 369.864 387.129 370.218 391.037C370.579 395.061 371.063 399.077 371.501 403.093C371.539 403.463 371.586 403.826 371.609 404.196C371.885 408.112 372.085 412.035 372.454 415.944C372.807 419.721 373.33 423.491 373.768 427.26C373.799 427.507 373.799 427.753 373.814 428C374.091 432.039 374.291 436.087 374.659 440.118C375.005 443.895 375.512 447.665 375.95 451.435C375.966 451.558 375.989 451.681 375.996 451.805C376.281 455.844 376.496 459.891 376.857 463.923C377.203 467.823 377.702 471.716 378.133 475.609C378.163 475.856 378.202 476.095 378.217 476.341C378.494 480.134 378.709 483.935 379.062 487.72C379.424 491.62 379.931 495.513 380.346 499.406C380.453 500.385 380.492 501.372 380.476 502.358C380.446 504.34 380.622 506.29 381.222 508.186C379.754 508.186 378.294 508.194 376.826 508.202L376.849 508.178Z" fill="#4F5975"/>
<path d="M303.379 167.762C299.214 169.149 295.095 170.722 290.861 171.878C284.829 173.528 278.635 174.314 272.372 174.468C270.275 174.522 268.223 174.33 266.21 173.728C261.292 172.264 256.366 170.83 251.44 169.373C250.072 168.964 248.728 168.486 246.96 167.253C249.158 167.106 250.672 167.029 252.186 166.891C253.646 166.76 255.106 166.59 256.566 166.405C273.064 164.316 287.703 158.195 299.683 146.347C301.243 144.805 302.649 143.117 304.124 141.49C304.224 142.331 304.424 143.163 304.401 144.003C304.232 150.849 304.04 157.686 303.817 164.532C303.779 165.611 303.533 166.682 303.379 167.762Z" fill="#110E05"/>
<path d="M132.225 448.174C132.832 448.105 133.516 448.189 134.023 447.927C137.312 446.27 140.662 444.713 143.79 442.785C147.34 440.604 150.744 438.176 154.079 435.67C156.722 433.681 159.243 431.515 161.663 429.264C164.545 426.582 167.242 423.706 170.055 420.954C175.326 415.774 179.852 409.954 184.325 404.095C189.704 397.057 194.568 389.657 198.94 381.971C202.706 375.35 206.233 368.597 209.337 361.605C212.288 354.96 214.916 348.207 217.314 341.37C219.173 336.058 220.487 330.562 221.963 325.443C221.156 323.586 219.611 323.162 218.474 322.267C217.421 321.443 216.115 320.918 215.531 319.577C216.238 319.492 216.799 319.276 216.968 318.444C217.053 318.028 217.337 317.658 217.529 317.272C219.442 318.359 221.379 319.415 223.269 320.548C223.892 320.918 224.445 321.443 224.937 321.982C225.974 323.123 226.397 324.326 225.959 326.006C224.045 333.252 222.07 340.483 219.481 347.521C215.861 357.342 211.666 366.909 206.732 376.144C204.412 380.476 202.076 384.808 199.486 388.979C195.659 395.13 191.709 401.212 187.306 406.963C184.471 410.663 181.305 414.101 178.438 417.778C174.865 422.357 170.647 426.312 166.512 430.336C160.165 436.518 153.18 441.945 145.618 446.547C142.061 448.713 138.195 450.371 134.445 452.198C133.808 452.506 133.039 452.537 132.324 452.691C132.294 451.188 132.263 449.692 132.232 448.189L132.225 448.174Z" fill="#4F5975"/>
<path d="M194.207 195.529C194.56 195.444 194.922 195.351 195.283 195.266C195.659 193.956 195.936 192.615 196.412 191.366C198.572 185.762 202.306 181.761 208.223 180.142C211.896 179.132 215.516 179.471 219.043 180.851C223.016 182.408 226.312 184.929 229.048 188.182C232.26 192.013 234.511 196.338 235.495 201.287C235.641 202.012 235.879 202.713 236.071 203.43C235.918 205.85 236.386 208.302 235.564 210.699C235.372 211.27 235.841 212.071 236.01 212.765C235.779 213.035 235.434 213.266 235.326 213.582C233.336 219.271 229.232 222.948 224.038 225.6C223.623 225.808 223.269 226.14 222.777 226.487C225.29 230.711 227.111 235.09 228.272 239.923C229.309 239.445 230.177 239.021 231.069 238.651C231.745 238.374 232.429 238.088 233.136 237.934C234.035 237.734 234.957 238.242 235.272 238.975C235.618 239.784 235.449 240.825 234.788 241.334C234.212 241.781 233.566 242.135 232.921 242.482C224.645 246.923 218.62 253.506 214.463 261.901C213.249 264.344 212.549 266.934 212.073 269.609C211.766 271.359 211.973 273.047 212.519 274.697C213.087 276.431 214.217 277.619 215.992 278.204C217.429 278.675 218.835 278.767 220.326 278.521C223.784 277.958 226.758 276.231 229.801 274.666C230.685 276.786 229.763 278.551 228.687 280.278C225.705 281.388 222.777 282.691 219.542 282.868C215.946 283.069 212.734 282.205 210.275 279.361C209.737 278.744 209.207 278.112 208.515 277.295C208.139 278.413 207.885 279.199 207.608 279.977C205.933 284.626 202.713 287.486 197.911 288.65C195.344 289.266 192.816 289.243 190.257 288.796C185.862 288.018 181.797 286.36 177.931 284.163C171.676 280.602 166.297 275.977 161.448 270.681C160.634 269.794 159.673 269.039 158.774 268.229C159.343 266.495 159.904 264.76 160.472 263.026C162.778 265.578 164.975 268.229 167.404 270.658C172.483 275.73 178.139 280.016 184.847 282.745C187.936 284.001 191.087 284.873 194.476 284.765C200.024 284.587 203.198 281.727 203.928 275.946C192.317 273.633 185.255 265.393 178.946 256.312C178.777 256.219 178.677 256.134 178.561 256.104C178.323 256.042 178.085 256.026 177.847 255.98C175.549 255.549 174.858 254.346 176.003 252.442C177.14 250.553 178.438 248.749 179.76 246.976C180.398 246.121 181.597 246.021 182.411 246.545C183.211 247.061 183.572 248.164 183.118 249.158C182.673 250.145 182.081 251.07 181.535 252.072C184.993 257.931 189.066 263.126 194.507 267.096C196.174 268.314 198.026 269.324 199.893 270.218C201.545 271.012 203.344 271.482 205.234 271.344C207.055 271.213 207.678 270.758 207.893 268.969C208.415 264.599 210.106 260.683 212.234 256.913C212.711 256.073 213.126 255.202 213.579 254.323C213.172 253.837 212.895 253.429 212.549 253.105C207.178 248.048 201.807 242.991 196.42 237.957C196.09 237.649 195.621 237.502 195.206 237.279C194.799 237.772 194.507 238.173 194.168 238.528C192.924 239.83 191.556 240.131 190.664 239.329C189.896 238.628 189.881 237.333 190.803 235.953C192.432 233.494 194.13 231.081 195.821 228.661C196.097 228.26 196.435 227.89 196.796 227.566C197.457 226.957 198.449 226.888 199.171 227.335C199.886 227.782 200.308 228.738 200.039 229.578C199.855 230.156 199.524 230.68 199.24 231.22C198.856 231.944 198.134 232.523 198.21 233.44C200.892 236.477 214.278 248.911 216.207 250.245C218.251 248.372 220.165 246.437 222.27 244.749C223.738 243.569 224.061 242.228 223.769 240.524C222.931 235.575 220.856 231.197 217.898 227.227C217.275 227.165 216.791 227.103 216.307 227.073C212.803 226.864 209.975 225.292 207.67 222.725C204.558 219.256 203.505 214.993 203.167 210.499C203.09 209.466 203.536 208.572 204.504 208.047C205.295 207.616 206.164 207.862 207.101 208.811C207.447 209.158 207.724 209.574 208.07 209.921C209.752 211.632 211.773 212.626 214.132 213.158C216.369 213.667 218.52 213.49 220.687 213.02C225.505 211.971 229.478 209.504 232.852 205.843C231.399 197.533 227.496 190.98 220.549 186.386C219.335 185.584 217.967 184.937 216.584 184.49C209.053 182.054 203.351 185.638 200.946 192.114C200.731 192.684 200.639 193.301 200.462 193.894C200.216 194.696 199.955 195.49 199.694 196.284C197.327 196.862 195.037 195.976 192.785 196.461C193.262 196.153 193.738 195.845 194.215 195.536L194.207 195.529Z" fill="#201908"/>
<path d="M158.774 268.229C159.666 269.046 160.634 269.794 161.448 270.681C166.297 275.977 171.676 280.602 177.931 284.163C181.797 286.368 185.862 288.025 190.257 288.796C192.816 289.251 195.344 289.274 197.911 288.65C202.721 287.486 205.933 284.626 207.608 279.977C207.885 279.199 208.139 278.413 208.515 277.295C209.214 278.112 209.745 278.744 210.275 279.361C212.734 282.205 215.946 283.069 219.542 282.868C222.777 282.691 225.713 281.388 228.687 280.278C228.364 281.581 228.11 282.907 227.711 284.186C224.56 294.269 221.371 304.337 218.213 314.412C217.921 315.345 217.744 316.309 217.521 317.257C217.329 317.65 217.045 318.02 216.96 318.429C216.791 319.253 216.23 319.477 215.523 319.562C214.455 318.976 213.395 318.351 212.304 317.796C194.007 308.569 175.703 299.365 157.422 290.122C156.015 289.413 154.724 288.457 153.387 287.625C153.18 287.401 152.98 287.185 152.773 286.962V286.969C153.034 285.728 153.303 284.479 153.564 283.238C153.979 282.375 154.502 281.542 154.801 280.64C156.161 276.516 157.46 272.361 158.774 268.222L158.774 268.229Z" fill="#FABD00"/>
<path d="M229.793 274.666C226.75 276.231 223.776 277.958 220.318 278.52C218.828 278.767 217.421 278.675 215.984 278.204C214.202 277.619 213.08 276.439 212.511 274.697C211.965 273.04 211.758 271.359 212.065 269.609C212.534 266.934 213.241 264.344 214.455 261.901C218.612 253.513 224.637 246.93 232.913 242.482C233.559 242.135 234.204 241.781 234.78 241.334C235.441 240.825 235.603 239.776 235.265 238.975C234.949 238.242 234.027 237.734 233.128 237.934C232.421 238.088 231.737 238.374 231.061 238.651C230.17 239.021 229.309 239.445 228.264 239.923C227.104 235.082 225.283 230.711 222.77 226.487C223.262 226.14 223.615 225.808 224.03 225.6C229.232 222.948 233.328 219.271 235.318 213.582C235.426 213.266 235.772 213.035 236.002 212.765C238.507 217.722 242.119 221.923 245.416 226.332C247.882 229.624 249.604 233.232 250.956 237.055C251.394 238.296 251.578 239.684 251.625 241.01C251.748 244.363 251.102 247.632 249.819 250.707C247.006 257.445 243.018 263.45 238.162 268.877C236.24 271.02 233.812 272.431 231.384 273.849C231.176 273.972 230.969 274.103 230.762 274.227L230.777 274.211C230.485 274.396 230.193 274.574 229.909 274.759L229.793 274.674V274.666Z" fill="#FABD00"/>
<path d="M229.909 274.751C230.201 274.566 230.493 274.389 230.777 274.204C230.685 274.697 230.446 274.974 229.909 274.751Z" fill="#201908"/>
<path d="M192.778 196.454C195.021 195.968 197.319 196.854 199.686 196.276C199.939 195.482 200.208 194.688 200.454 193.887C200.631 193.301 200.731 192.684 200.938 192.106C203.344 185.631 209.045 182.054 216.576 184.482C217.959 184.929 219.327 185.577 220.541 186.378C227.48 190.973 231.384 197.517 232.844 205.835C229.471 209.497 225.505 211.963 220.68 213.012C218.513 213.482 216.361 213.659 214.125 213.151C211.766 212.611 209.745 211.624 208.062 209.913C207.716 209.566 207.439 209.15 207.094 208.803C206.156 207.855 205.288 207.608 204.496 208.04C203.528 208.564 203.082 209.458 203.159 210.491C203.497 214.993 204.55 219.256 207.662 222.717C209.968 225.284 212.803 226.857 216.299 227.065C216.784 227.096 217.268 227.157 217.89 227.219C220.849 231.189 222.923 235.568 223.761 240.517C224.053 242.228 223.73 243.569 222.263 244.741C220.157 246.429 218.251 248.356 216.2 250.237C214.263 248.904 200.885 236.477 198.203 233.432C198.126 232.507 198.848 231.937 199.232 231.212C199.517 230.673 199.847 230.141 200.032 229.57C200.301 228.73 199.878 227.766 199.163 227.327C198.441 226.88 197.45 226.949 196.789 227.558C196.428 227.89 196.09 228.252 195.813 228.653C194.122 231.073 192.424 233.486 190.795 235.945C189.873 237.333 189.888 238.62 190.657 239.322C191.54 240.131 192.916 239.823 194.161 238.52C194.499 238.165 194.791 237.765 195.198 237.271C195.613 237.495 196.09 237.641 196.412 237.95C201.799 242.983 207.178 248.04 212.542 253.097C212.888 253.421 213.164 253.83 213.572 254.315C213.118 255.194 212.703 256.065 212.227 256.905C210.098 260.675 208.4 264.599 207.885 268.962C207.67 270.758 207.047 271.205 205.226 271.336C203.336 271.475 201.538 271.005 199.886 270.211C198.018 269.316 196.166 268.306 194.499 267.089C189.058 263.119 184.986 257.923 181.528 252.064C182.081 251.062 182.665 250.137 183.111 249.15C183.564 248.156 183.203 247.054 182.404 246.537C181.589 246.013 180.39 246.113 179.753 246.969C178.431 248.742 177.132 250.538 175.995 252.434C174.85 254.338 175.549 255.541 177.839 255.973C178.077 256.019 178.323 256.042 178.554 256.096C178.669 256.127 178.769 256.212 178.938 256.304C185.247 265.385 192.309 273.625 203.92 275.938C203.19 281.72 200.016 284.58 194.468 284.757C191.079 284.865 187.929 283.994 184.84 282.737C178.131 280.008 172.475 275.722 167.396 270.65C164.968 268.222 162.77 265.57 160.465 263.018C160.265 262.571 160.088 262.109 159.858 261.677C156.523 255.433 157.475 249.636 161.587 244.109C163.377 241.704 165.729 239.962 168.164 238.15C168.564 236.462 168.364 234.735 168.395 233.031C168.433 230.171 168.956 227.404 169.917 224.729C171.307 220.859 173.766 217.899 177.478 216.088C179.238 215.232 181.044 214.461 182.826 213.652C183.372 213.405 183.925 213.158 184.563 212.865C184.724 211.871 185.009 210.907 185.009 209.952C185.009 207.038 186.023 204.417 187.107 201.796C188.198 199.152 189.942 197.224 192.77 196.43L192.778 196.454ZM217.529 192.992C213.341 193.894 209.506 195.32 206.594 198.573C206.433 198.751 206.317 198.974 206.195 199.19C205.749 199.992 205.903 200.979 206.548 201.526C207.186 202.066 208.177 202.119 208.922 201.603C209.222 201.395 209.468 201.11 209.729 200.863C211.374 199.321 213.372 198.388 215.493 197.795C216.645 197.471 217.898 197.525 219.097 197.363C219.973 197.24 220.641 196.5 220.741 195.636C220.841 194.773 220.411 193.887 219.581 193.555C218.92 193.285 218.198 193.17 217.521 192.985L217.529 192.992Z" fill="#FABD00"/>
<path d="M153.564 283.246C153.303 284.487 153.034 285.736 152.773 286.977C151.466 286.746 150.168 286.507 148.715 286.245C148.231 286.977 147.686 287.632 147.309 288.372C140.554 301.924 133.792 315.476 127.084 329.059C119.515 344.399 111.999 359.778 104.461 375.134C104.138 375.797 103.808 376.46 103.408 377.076C102.839 377.948 101.756 378.163 100.819 377.662C100.042 377.246 99.6197 376.329 99.9579 375.465C100.357 374.432 100.865 373.446 101.356 372.451C106.067 362.969 110.777 353.488 115.496 344.006C116.256 342.48 117.048 340.969 117.286 338.926C116.571 338.972 115.911 338.818 115.48 339.065C112.929 340.529 110.27 341.871 107.95 343.651C101.771 348.4 96.4691 354.004 92.6961 360.911C91.651 362.831 90.9671 364.951 90.1295 366.978C89.7607 367.88 89.5378 368.874 89.023 369.684C88.754 370.1 88.0163 370.385 87.4707 370.424C86.6715 370.478 86.0261 369.907 85.9031 369.129C85.7725 368.304 85.7264 367.371 85.9646 366.585C86.9021 363.532 88.024 360.58 89.7299 357.812C94.1869 350.566 100.073 344.7 106.735 339.597C109.748 337.292 113.052 335.349 116.787 334.324C117.962 334 119.123 333.599 120.514 333.168C121.082 332.088 121.728 330.909 122.319 329.706C129.558 315.152 136.781 300.598 144.012 286.044C144.343 285.381 144.658 284.711 145.004 284.063C146.21 281.789 147.632 281.188 150.137 281.982C151.297 282.344 152.427 282.83 153.564 283.254V283.246Z" fill="#4F5975"/>
<path d="M258.249 113.176C258.256 106.485 257.342 99.9559 254.783 93.7195C254.552 93.1568 254.33 92.5632 254.268 91.9619C254.176 91.0369 254.552 90.2891 255.428 89.8497C256.205 89.4566 257.219 89.5722 257.757 90.3123C258.256 90.9906 258.71 91.7615 258.956 92.5632C259.855 95.4925 260.861 98.4064 261.461 101.397C263.113 109.692 263.097 118.002 261.153 126.273C260.416 129.395 259.37 132.402 257.565 135.092C253.607 140.974 248.105 141.336 243.679 135.871C242.388 134.275 241.45 132.363 240.521 130.513C240.037 129.55 240.605 128.401 241.427 127.977C242.449 127.453 243.648 127.769 244.309 128.763C244.578 129.172 244.755 129.634 245.001 130.058C245.423 130.806 245.815 131.577 246.307 132.278C246.799 132.98 247.337 133.674 247.967 134.236C249.634 135.747 251.294 135.732 252.831 134.152C253.507 133.458 254.137 132.649 254.537 131.777C255.352 129.997 256.135 128.185 256.673 126.312C257.849 122.242 258.249 118.226 258.256 113.184L258.249 113.176Z" fill="#201908"/>
<path d="M250.879 150.116C245.723 150.116 240.574 150.116 235.418 150.116C234.565 150.116 233.697 150.093 232.859 149.939C232.06 149.793 231.453 148.868 231.407 148.004C231.361 147.164 231.922 146.2 232.744 146.015C233.566 145.823 234.435 145.761 235.28 145.769C238.961 145.807 242.642 145.884 246.322 145.961C252.823 146.093 259.324 146.231 265.825 146.37C266.686 146.385 267.547 146.37 268.4 146.447C269.406 146.547 270.321 147.418 270.467 148.282C270.613 149.199 269.637 150.433 268.53 150.633C267.931 150.741 267.308 150.741 266.701 150.733C263.266 150.671 259.832 150.587 256.397 150.533C254.56 150.502 252.716 150.533 250.879 150.533C250.879 150.402 250.879 150.271 250.879 150.14L250.879 150.116Z" fill="#201908"/>
<path d="M228.91 97.4814C228.948 101.143 226.082 104.134 222.485 104.165C219.25 104.196 216.077 101.367 216.107 97.8668C216.138 94.2591 218.981 91.1294 222.57 91.191C226.32 91.2604 228.963 94.0895 228.91 97.4814Z" fill="#110E05"/>
<path d="M283.868 91.6921C285.482 92.0005 286.266 93.2261 286.988 94.5289C287.734 95.8856 287.803 97.3503 287.541 98.815C287.034 101.652 284.667 103.98 281.947 104.404C278.397 104.951 275.385 102.646 274.993 99.0694C274.816 97.4505 274.97 95.8779 275.861 94.475C276.722 93.1259 277.698 91.8848 279.427 91.615C280.91 91.6381 282.385 91.669 283.868 91.6921Z" fill="#110E05"/>
<path d="M312.954 118.511C312.108 118.434 311.524 118.318 310.94 118.349C310.333 118.38 309.742 118.596 309.135 118.634C308.028 118.696 307.129 118.056 306.891 117.139C306.637 116.167 307.091 115.15 308.09 114.726C308.873 114.394 309.703 114.078 310.533 114.001C314.329 113.654 317.803 114.626 320.853 116.93C322.044 117.832 322.982 118.973 323.082 120.577C323.143 121.486 322.936 122.28 322.044 122.743C321.13 123.213 320.069 123.036 319.416 122.203C318.832 121.455 318.325 120.654 317.703 119.76C316.373 120.816 316.312 122.249 315.743 123.406C315.098 124.724 314.675 126.142 314.022 127.453C313.515 128.463 312.408 128.779 311.524 128.378C310.595 127.954 310.08 127.044 310.318 125.965C310.502 125.133 310.841 124.339 311.133 123.537C311.709 121.933 312.293 120.338 312.946 118.518L312.954 118.511Z" fill="#201908"/>
<path d="M179.998 119.104C179.015 119.96 178.331 120.631 177.578 121.201C176.733 121.849 175.664 121.718 174.919 120.978C174.251 120.315 174.12 119.482 174.55 118.626C174.658 118.41 174.773 118.187 174.911 117.987C177.247 114.602 183.403 112.143 187.314 113.176C188.19 113.408 189.005 114.101 189.681 114.749C190.219 115.265 190.319 116.036 189.888 116.792C189.412 117.632 188.713 118.064 187.783 117.94C187.191 117.863 186.63 117.509 186.038 117.401C185.6 117.316 185.132 117.424 184.432 117.462C184.548 118.588 184.594 119.544 184.763 120.469C185.047 122.034 185.485 123.583 185.731 125.156C185.908 126.273 185.009 127.422 183.971 127.646C183.149 127.823 181.996 127.168 181.674 126.189C181.328 125.14 181.12 124.053 180.867 122.974C180.59 121.795 180.329 120.615 179.991 119.104L179.998 119.104Z" fill="#201908"/>
<path d="M283.868 91.6921C282.385 91.669 280.91 91.6381 279.427 91.615C279.327 91.0369 278.95 90.8519 278.412 90.8442C277.567 90.8442 276.722 90.821 275.877 90.8133C276.407 90.5975 276.922 90.2506 277.46 90.2043C278.628 90.1118 279.811 90.1812 280.994 90.1812C281.325 90.4125 281.64 90.69 282.001 90.875C282.608 91.1833 283.246 91.43 283.868 91.6998V91.6921Z" fill="#201908"/>
<path d="M217.529 192.992C218.205 193.17 218.928 193.293 219.588 193.563C220.418 193.894 220.856 194.773 220.749 195.644C220.649 196.5 219.98 197.248 219.104 197.371C217.906 197.54 216.653 197.486 215.5 197.803C213.379 198.396 211.381 199.321 209.737 200.871C209.468 201.125 209.222 201.403 208.93 201.611C208.192 202.127 207.193 202.073 206.556 201.534C205.91 200.986 205.756 200 206.202 199.198C206.317 198.982 206.44 198.766 206.602 198.581C209.514 195.32 213.349 193.902 217.537 193L217.529 192.992Z" fill="#201908"/>
</g>
</g>
<defs>
<clipPath id="clip0_142_1922">
<rect width="521" height="531" fill="white"/>
</clipPath>
</defs>
</svg>
