<svg width="521" height="531" viewBox="0 0 521 531" fill="none" xmlns="http://www.w3.org/2000/svg">
<g clip-path="url(#clip0_132_193)">
<g clip-path="url(#clip1_132_193)">
<path d="M371.306 545.318C368.394 545.45 365.482 545.662 362.57 545.692C343.401 545.882 324.231 546.022 305.061 546.205C281.567 546.432 258.073 546.688 234.579 546.93C212.724 547.157 190.862 547.37 169.007 547.604C161.061 547.692 153.107 547.846 145.162 547.963C144.225 547.978 143.281 548.037 142.359 547.949C140.011 547.722 138.555 546.212 138.335 543.852C138.269 543.156 138.298 542.446 138.298 541.742C138.298 526.398 138.284 511.053 138.291 495.701C138.291 494.653 138.415 493.605 138.481 492.558C139.154 492.411 139.893 492.382 140.501 492.089C144.071 490.345 147.752 488.769 151.139 486.717C158.339 482.343 164.982 477.184 171.033 471.307C174.97 467.482 178.979 463.722 182.389 459.37C185.118 455.882 188.133 452.606 190.832 449.089C195.032 443.622 198.793 437.84 202.429 431.993C204.895 428.028 207.127 423.91 209.329 419.792C214.026 411.021 218.021 401.919 221.468 392.584C223.933 385.901 225.821 379.027 227.636 372.132C228.06 370.534 227.65 369.391 226.662 368.307C226.194 367.794 225.66 367.295 225.075 366.944C223.275 365.866 221.431 364.862 219.609 363.829C219.829 362.928 219.99 362.005 220.268 361.125C223.275 351.548 226.311 341.97 229.311 332.393C229.691 331.176 229.933 329.916 230.24 328.678C231.257 327.029 232.143 325.358 231.301 323.343L231.411 323.423C231.93 323.636 232.15 323.372 232.238 322.903L232.223 322.918C232.421 322.801 232.618 322.676 232.808 322.559C235.12 321.203 237.44 319.862 239.262 317.832C243.893 312.673 247.691 306.965 250.361 300.561C251.583 297.637 252.198 294.53 252.081 291.342C252.037 290.082 251.861 288.77 251.444 287.583C250.156 283.948 248.517 280.519 246.169 277.39C243.03 273.206 239.591 269.212 237.206 264.493C237.045 263.833 236.598 263.071 236.781 262.529C237.564 260.243 237.125 257.92 237.264 255.619C249.637 256.073 261.987 255.802 274.258 254.073C280.257 253.23 286.228 252.16 291.942 250.035C293.793 249.346 295.578 248.474 297.342 247.588C298.761 246.869 299.595 245.697 299.925 244.056C300.166 242.824 300.803 241.681 301.264 240.494C302.698 239.578 304.293 239.417 305.954 239.322C324.114 238.288 340.862 242.978 356.578 251.845C366.931 257.685 376.165 264.991 384.608 273.33C396.498 285.077 406.397 298.362 414.98 312.673C426.46 331.821 435.211 352.193 442.037 373.421C447.737 391.155 451.929 409.247 454.936 427.64C459.487 455.486 460.863 483.5 459.531 511.654C459.136 519.949 458.163 528.215 457.483 536.503C457.388 537.653 457.402 538.818 457.432 539.969C457.497 542.665 455.997 544.395 453.312 544.637C452.851 544.681 452.376 544.673 451.907 544.673C427.016 544.937 402.124 545.201 377.24 545.45C376.662 545.45 376.077 545.362 375.499 545.311C374.928 543.508 374.76 541.654 374.789 539.771C374.804 538.833 374.76 537.895 374.665 536.964C374.27 533.256 373.787 529.563 373.443 525.855C373.106 522.257 372.902 518.645 372.638 515.039C372.623 514.805 372.58 514.578 372.558 514.343C372.148 510.643 371.672 506.942 371.343 503.234C370.999 499.402 370.794 495.555 370.524 491.715C370.516 491.598 370.494 491.48 370.48 491.363C370.063 487.78 369.572 484.196 369.25 480.606C368.907 476.773 368.709 472.926 368.446 469.086C368.431 468.852 368.424 468.617 368.402 468.383C367.977 464.8 367.487 461.224 367.151 457.626C366.799 453.91 366.609 450.181 366.346 446.458C366.324 446.106 366.28 445.762 366.243 445.41C365.834 441.592 365.365 437.775 365.021 433.949C364.685 430.234 364.48 426.504 364.209 422.782C364.202 422.665 364.173 422.547 364.158 422.437C363.741 418.737 363.258 415.036 362.922 411.328C362.578 407.496 362.373 403.649 362.109 399.809C362.095 399.574 362.058 399.347 362.029 399.113C361.619 395.764 361.136 392.415 360.829 389.059C360.478 385.227 360.514 381.343 359.944 377.547C359.541 374.865 359.483 372.198 359.285 369.523C359.175 368.013 358.912 366.519 358.627 365.031C358.524 364.489 358.275 363.888 357.902 363.499C357.536 363.126 356.922 362.789 356.424 362.803C355.641 362.825 355.29 363.521 355.173 364.262C355.115 364.606 355.093 364.965 355.115 365.309C355.407 369.97 355.707 374.63 356.015 379.291C356.022 379.408 356.08 379.518 356.095 379.628C356.476 383.101 356.914 386.568 357.222 390.048C357.551 393.763 357.763 397.493 358.034 401.216C358.049 401.45 358.1 401.678 358.129 401.912C358.539 405.73 359 409.548 359.344 413.373C359.68 417.088 359.892 420.818 360.163 424.54C360.17 424.658 360.2 424.775 360.214 424.885C360.624 428.468 361.107 432.051 361.436 435.642C361.78 439.357 361.978 443.087 362.248 446.81C362.263 447.044 362.307 447.271 362.329 447.506C362.739 451.206 363.214 454.907 363.543 458.615C363.887 462.447 364.092 466.295 364.363 470.134C364.378 470.369 364.436 470.596 364.458 470.83C364.86 474.414 365.329 477.997 365.651 481.588C365.995 485.42 366.199 489.267 366.463 493.107C366.477 493.342 366.514 493.569 366.536 493.803C366.953 497.504 367.421 501.204 367.765 504.912C368.102 508.51 368.307 512.123 368.57 515.728C368.585 515.963 368.629 516.19 368.658 516.424C369.068 520.242 369.536 524.06 369.88 527.885C370.216 531.6 370.421 535.33 370.692 539.053C370.699 539.17 370.707 539.295 370.743 539.397C371.431 541.317 371.292 543.318 371.336 545.303L371.306 545.318Z" fill="#1F2B51"/>
<path d="M138.386 488.278C138.02 488.066 137.61 487.619 137.303 487.685C136.286 487.897 135.306 488.307 134.311 488.623C120.409 492.997 106.88 492.191 93.9004 485.413C84.2716 480.379 77.3793 472.567 72.2356 463.092C68.1822 455.618 65.6067 447.623 64.0482 439.306C61.5898 426.204 61.4728 413.021 63.0093 399.794C66.6018 368.944 77.233 340.578 93.0224 314.029C102.278 298.465 113.253 284.227 126.284 271.638C136.945 261.342 148.651 252.49 162.07 246.071C170.558 242.004 179.44 239.263 188.82 238.267C189.742 238.171 190.679 238.252 191.608 238.245C191.922 239.461 192.244 240.67 192.552 241.887C193.261 244.678 194.652 246.921 197.395 248.123C196.942 248.416 196.488 248.709 196.034 249.002C193.342 249.757 191.681 251.589 190.642 254.102C189.61 256.594 188.637 259.085 188.645 261.855C188.645 262.764 188.374 263.672 188.22 264.625C187.606 264.903 187.086 265.138 186.567 265.372C184.869 266.142 183.15 266.867 181.474 267.688C177.933 269.41 175.599 272.224 174.275 275.902C173.36 278.453 172.87 281.076 172.826 283.795C172.804 285.414 172.994 287.055 172.606 288.66C170.287 290.382 168.048 292.038 166.343 294.325C162.421 299.579 161.514 305.089 164.697 311.025C164.916 311.435 165.085 311.875 165.275 312.3C164.734 313.949 164.199 315.597 163.658 317.246C162.4 321.181 161.17 325.124 159.875 329.051C159.59 329.909 159.1 330.7 158.697 331.521C157.607 331.11 156.539 330.656 155.434 330.312C153.049 329.564 151.695 330.129 150.546 332.29C150.217 332.913 149.917 333.543 149.603 334.173C142.718 348.008 135.833 361.851 128.947 375.678C128.377 376.822 127.762 377.943 127.228 378.969C125.911 379.379 124.806 379.76 123.679 380.068C120.124 381.042 116.977 382.889 114.109 385.08C107.766 389.931 102.168 395.515 97.9173 402.396C96.293 405.034 95.2248 407.833 94.3321 410.735C94.1053 411.482 94.1492 412.362 94.2736 413.153C94.3906 413.893 95.0053 414.428 95.7662 414.384C96.2857 414.347 96.9881 414.084 97.2442 413.681C97.7344 412.911 97.9466 411.966 98.2978 411.109C99.0953 409.174 99.7392 407.166 100.742 405.342C104.327 398.776 109.375 393.448 115.265 388.934C117.475 387.242 120.006 385.967 122.436 384.574C122.845 384.34 123.475 384.479 124.155 384.443C123.921 386.384 123.167 387.821 122.45 389.272C117.965 398.285 113.473 407.298 108.987 416.311C108.519 417.257 108.044 418.195 107.656 419.177C107.334 419.997 107.729 420.877 108.475 421.265C109.375 421.741 110.4 421.536 110.941 420.708C111.322 420.122 111.636 419.492 111.943 418.861C119.121 404.264 126.277 389.653 133.484 375.063C139.864 362.151 146.303 349.276 152.741 336.386C153.093 335.676 153.612 335.053 154.08 334.364C155.463 334.613 156.707 334.833 157.944 335.06V335.053C158.141 335.265 158.331 335.471 158.529 335.683C159.809 336.482 161.031 337.383 162.37 338.057C179.784 346.843 197.205 355.593 214.626 364.364C215.665 364.884 216.668 365.478 217.692 366.042C218.241 367.317 219.485 367.816 220.494 368.6C221.577 369.45 223.048 369.853 223.816 371.619C222.411 376.484 221.16 381.717 219.389 386.758C217.107 393.258 214.604 399.684 211.795 405.994C208.839 412.64 205.48 419.059 201.895 425.354C197.732 432.667 193.1 439.702 187.979 446.385C183.72 451.954 179.411 457.487 174.392 462.411C171.714 465.034 169.146 467.768 166.402 470.31C164.097 472.45 161.697 474.516 159.18 476.4C156.005 478.781 152.763 481.09 149.383 483.163C146.405 484.995 143.208 486.476 140.084 488.051C139.593 488.293 138.949 488.212 138.371 488.285L138.386 488.278Z" fill="#1F2B51"/>
<path d="M197.404 248.115C194.66 246.921 193.262 244.671 192.56 241.879C192.253 240.663 191.931 239.454 191.616 238.237C191.792 235.211 192.062 232.192 192.128 229.166C192.37 218.548 192.545 207.93 192.735 197.311C192.735 197.209 192.648 197.106 192.494 196.769C192.194 196.747 191.755 196.615 191.36 196.696C186.216 197.751 181.921 196.007 178.307 192.497C172.3 186.657 171.056 176.83 175.278 169.568C175.805 168.667 176.448 167.832 177.041 166.967C178.548 165.875 179.939 164.541 181.592 163.735C185.807 161.676 190.065 161.178 194.14 164.234C194.499 164.505 194.938 164.666 195.443 164.93C198.53 162.284 201.164 159.317 203.396 156.019C205.606 152.751 207.625 149.343 209.761 145.943C211.313 146.148 212.813 146.346 214.305 146.537C219.163 147.16 224.029 147.797 228.887 148.398C232.246 148.816 235.611 149.189 238.977 149.556C239.548 149.614 240.228 149.702 240.682 149.453C241.231 149.153 241.757 148.589 242.006 148.01C242.306 147.314 241.684 146.302 240.938 146.031C240.397 145.841 239.811 145.731 239.233 145.65C236.343 145.247 233.453 144.851 230.563 144.485C226.048 143.921 221.527 143.4 217.005 142.829C215.198 142.602 213.398 142.301 211.371 142.001C213.405 136.534 215.095 131.222 215.725 125.506C219.734 127.455 223.553 129.382 227.439 131.17C231.375 132.98 235.553 134.116 239.767 135.054C243.982 135.992 248.255 136.556 252.579 136.893C257.035 137.238 261.447 137.091 265.881 136.776C270.212 136.461 274.478 135.765 278.604 134.504C282.709 133.259 286.689 131.61 290.721 130.137C290.955 134.101 291.189 138.146 291.416 142.191C291.416 142.301 291.401 142.433 291.343 142.528C291.284 142.624 291.167 142.675 290.904 142.88C288.431 143.166 285.775 143.481 283.119 143.774C278.59 144.265 274.068 144.741 269.539 145.24C269.202 145.276 268.859 145.408 268.544 145.548C267.768 145.885 267.307 146.713 267.403 147.533C267.49 148.354 268.134 149.153 268.924 149.241C269.612 149.321 270.329 149.321 271.017 149.241C272.407 149.065 273.783 148.801 275.166 148.574C275.97 148.589 276.775 148.603 277.58 148.603C278.092 148.603 278.451 148.786 278.546 149.336C276.9 149.593 275.97 150.772 275.151 152.055C274.295 153.388 274.156 154.883 274.324 156.422C274.697 159.822 277.565 162.021 280.946 161.493C283.536 161.09 285.797 158.877 286.272 156.18C286.521 154.788 286.455 153.388 285.746 152.106C285.065 150.875 284.319 149.702 282.775 149.409C282.182 149.153 281.575 148.918 280.997 148.625C280.653 148.449 280.36 148.193 280.039 147.966C284.187 147.643 288.328 147.314 292.557 146.984C294.628 154.092 297.189 160.782 301.681 166.828C302.479 166.19 303.057 165.633 303.723 165.223C304.506 164.746 305.332 164.299 306.196 164.028C310.681 162.643 314.925 163.098 318.81 165.89C319.373 166.293 319.988 166.63 320.58 167.003C324.371 171.078 326.112 175.914 325.658 181.454C325.197 187.089 322.914 191.83 318.276 195.216C314.215 198.191 309.744 198.77 304.981 197.158C304.03 196.835 303.137 195.992 302.033 196.747C300.628 198.286 299.289 199.898 297.804 201.364C286.397 212.627 272.458 218.445 256.749 220.431C255.359 220.607 253.969 220.768 252.579 220.892C251.145 221.017 249.703 221.098 247.604 221.237C249.294 222.409 250.567 222.871 251.869 223.252C256.552 224.637 261.249 226.007 265.932 227.392C267.849 227.964 269.802 228.147 271.8 228.096C277.763 227.942 283.66 227.194 289.404 225.634C293.435 224.534 297.35 223.04 301.323 221.721C301.337 222.871 301.381 224.021 301.374 225.179C301.337 230.287 301.279 235.394 301.228 240.502C300.767 241.689 300.138 242.839 299.889 244.063C299.56 245.705 298.725 246.877 297.306 247.595C295.543 248.489 293.757 249.354 291.906 250.043C286.192 252.168 280.221 253.238 274.222 254.08C261.944 255.81 249.601 256.081 237.228 255.626C237.046 254.945 236.819 254.278 236.68 253.589C235.736 248.892 233.599 244.774 230.541 241.132C227.944 238.032 224.805 235.643 221.015 234.163C217.656 232.852 214.21 232.529 210.713 233.489C205.079 235.035 201.523 238.831 199.467 244.158C199.006 245.353 198.743 246.621 198.391 247.866C198.047 247.954 197.711 248.035 197.367 248.115H197.404ZM258.381 169.832C258.381 174.624 257.993 178.45 256.874 182.311C256.362 184.092 255.615 185.821 254.84 187.507C254.459 188.335 253.859 189.112 253.215 189.764C251.752 191.259 250.172 191.273 248.584 189.844C247.984 189.302 247.472 188.643 247.004 187.983C246.535 187.316 246.162 186.583 245.76 185.873C245.533 185.47 245.357 185.023 245.101 184.642C244.472 183.696 243.323 183.403 242.357 183.894C241.567 184.297 241.033 185.382 241.494 186.305C242.372 188.071 243.265 189.881 244.501 191.398C248.716 196.593 253.954 196.242 257.723 190.658C259.449 188.1 260.437 185.25 261.139 182.275C262.991 174.419 263.005 166.513 261.432 158.628C260.861 155.785 259.903 153.007 259.047 150.23C258.813 149.468 258.374 148.742 257.905 148.09C257.393 147.387 256.427 147.277 255.689 147.651C254.862 148.076 254.496 148.779 254.584 149.658C254.642 150.23 254.847 150.794 255.074 151.329C257.518 157.257 258.388 163.457 258.374 169.825L258.381 169.832ZM251.364 204.947C251.364 205.072 251.364 205.196 251.364 205.321C253.113 205.321 254.869 205.299 256.618 205.321C259.888 205.372 263.159 205.46 266.429 205.511C267.007 205.519 267.607 205.519 268.171 205.416C269.224 205.226 270.154 204.053 270.015 203.181C269.883 202.36 269.005 201.532 268.046 201.437C267.234 201.356 266.415 201.378 265.595 201.364C259.405 201.232 253.215 201.1 247.026 200.975C243.521 200.902 240.016 200.829 236.511 200.792C235.707 200.785 234.88 200.843 234.097 201.027C233.307 201.21 232.78 202.119 232.824 202.917C232.868 203.738 233.446 204.617 234.207 204.757C235.004 204.903 235.831 204.925 236.643 204.925C241.553 204.94 246.455 204.925 251.364 204.925V204.947ZM230.446 154.913C230.497 151.688 227.98 148.999 224.41 148.933C220.993 148.874 218.293 151.842 218.256 155.279C218.227 158.613 221.249 161.295 224.329 161.266C227.753 161.229 230.482 158.386 230.446 154.913ZM310.469 174.903C309.84 176.632 309.283 178.149 308.742 179.673C308.471 180.435 308.142 181.198 307.966 181.982C307.74 183.007 308.23 183.872 309.115 184.275C309.957 184.656 311.01 184.348 311.493 183.396C312.115 182.15 312.517 180.802 313.132 179.549C313.666 178.45 313.732 177.087 314.998 176.083C315.59 176.933 316.073 177.702 316.629 178.406C317.251 179.197 318.261 179.373 319.132 178.919C319.98 178.479 320.178 177.724 320.119 176.859C320.017 175.335 319.124 174.251 317.998 173.393C315.093 171.195 311.786 170.279 308.171 170.609C307.381 170.682 306.584 170.982 305.845 171.298C304.893 171.701 304.469 172.668 304.703 173.591C304.93 174.463 305.786 175.071 306.84 175.013C307.418 174.983 307.981 174.771 308.559 174.742C309.115 174.72 309.671 174.822 310.476 174.896L310.469 174.903ZM183.875 175.467C184.197 176.903 184.446 178.032 184.709 179.146C184.951 180.172 185.148 181.205 185.477 182.201C185.785 183.132 186.882 183.755 187.665 183.586C188.653 183.367 189.509 182.275 189.341 181.219C189.099 179.725 188.689 178.259 188.419 176.764C188.258 175.877 188.221 174.976 188.104 173.906C188.77 173.87 189.223 173.774 189.633 173.848C190.197 173.958 190.731 174.287 191.294 174.361C192.179 174.478 192.845 174.06 193.299 173.269C193.709 172.551 193.613 171.818 193.101 171.327C192.457 170.711 191.675 170.045 190.848 169.832C187.124 168.857 181.263 171.188 179.039 174.405C178.907 174.595 178.804 174.808 178.695 175.013C178.285 175.826 178.409 176.618 179.046 177.248C179.756 177.951 180.773 178.076 181.577 177.46C182.295 176.911 182.953 176.281 183.882 175.467H183.875Z" fill="#FBBE00"/>
<path d="M275.173 148.574C273.79 148.801 272.414 149.065 271.024 149.241C270.337 149.328 269.62 149.328 268.932 149.241C268.149 149.153 267.498 148.347 267.41 147.533C267.322 146.712 267.783 145.884 268.551 145.547C268.866 145.408 269.21 145.276 269.546 145.24C274.068 144.741 278.597 144.272 283.126 143.774C285.782 143.481 288.438 143.166 290.911 142.88C291.175 142.682 291.292 142.624 291.35 142.528C291.409 142.433 291.431 142.301 291.423 142.191C291.189 138.146 290.955 134.101 290.728 130.137C286.697 131.61 282.716 133.251 278.612 134.504C274.485 135.757 270.219 136.461 265.888 136.776C261.454 137.098 257.042 137.238 252.586 136.893C248.262 136.563 243.989 135.992 239.775 135.054C235.568 134.116 231.382 132.987 227.446 131.17C223.561 129.382 219.741 127.448 215.732 125.506C215.095 131.221 213.405 136.534 211.378 142.001C213.405 142.301 215.205 142.602 217.012 142.829C221.527 143.4 226.048 143.921 230.57 144.485C233.468 144.844 236.358 145.247 239.241 145.65C239.819 145.731 240.397 145.833 240.945 146.031C241.692 146.295 242.314 147.306 242.014 148.009C241.765 148.588 241.238 149.16 240.689 149.453C240.228 149.702 239.548 149.614 238.984 149.556C235.619 149.189 232.253 148.816 228.895 148.398C224.029 147.797 219.171 147.159 214.312 146.537C212.813 146.346 211.32 146.148 209.769 145.943C207.632 149.343 205.62 152.751 203.403 156.019C201.172 159.316 198.538 162.284 195.45 164.929C194.945 164.666 194.506 164.504 194.148 164.233C190.08 161.178 185.814 161.669 181.599 163.735C179.953 164.541 178.556 165.875 177.048 166.967C172.988 161.625 170.8 155.543 169.798 148.955C168.078 137.611 169.798 126.803 174.802 116.522C177.553 110.865 181.256 105.948 186.37 102.196C190.006 99.5211 193.987 97.6965 198.538 97.2568C198.75 97.2348 198.947 97.0736 199.16 96.9783C199.628 95.183 199.994 93.3584 200.579 91.5997C202.562 85.5835 206.542 81.0769 211.561 77.4057C217.005 73.4193 223.129 70.8912 229.626 69.2571C239.372 66.8023 249.228 66.4872 259.186 67.6669C269.027 68.8321 278.341 71.6313 287.041 76.3944C292.104 79.1643 296.647 82.6231 300.445 87.0125C302.911 89.8703 304.893 93.014 306.203 96.5753C308.003 101.448 308.296 106.373 306.884 111.392C306.693 112.059 306.562 112.741 306.357 113.627C306.869 113.862 307.352 114.104 307.849 114.309C310.886 115.547 313.117 117.738 314.917 120.405C317.91 124.831 319.593 129.814 320.734 134.973C322.827 144.455 323.01 154.011 321.436 163.596C321.246 164.746 320.888 165.867 320.61 167.003C320.017 166.637 319.402 166.3 318.839 165.889C314.947 163.098 310.71 162.643 306.225 164.028C305.354 164.299 304.528 164.746 303.752 165.223C303.079 165.633 302.501 166.19 301.711 166.827C297.218 160.789 294.657 154.092 292.587 146.984C288.358 147.313 284.216 147.643 280.068 147.966C278.948 147.966 277.822 147.9 276.702 147.987C276.19 148.031 275.692 148.361 275.195 148.566L275.173 148.574Z" fill="#060503"/>
<path d="M371.307 545.318C371.263 543.332 371.402 541.332 370.714 539.412C370.677 539.302 370.67 539.185 370.663 539.067C370.399 535.345 370.187 531.615 369.851 527.9C369.507 524.074 369.046 520.257 368.629 516.439C368.607 516.204 368.563 515.977 368.541 515.743C368.278 512.137 368.073 508.525 367.736 504.927C367.392 501.219 366.924 497.518 366.507 493.818C366.478 493.583 366.448 493.356 366.434 493.122C366.17 489.282 365.965 485.435 365.622 481.602C365.3 478.012 364.831 474.428 364.429 470.845C364.4 470.61 364.348 470.383 364.334 470.149C364.063 466.309 363.858 462.462 363.514 458.629C363.185 454.922 362.71 451.221 362.3 447.52C362.271 447.286 362.234 447.059 362.219 446.824C361.956 443.102 361.751 439.372 361.407 435.657C361.078 432.066 360.602 428.483 360.185 424.899C360.171 424.782 360.141 424.665 360.134 424.555C359.863 420.832 359.651 417.103 359.315 413.387C358.971 409.562 358.51 405.744 358.1 401.927C358.078 401.692 358.027 401.465 358.005 401.23C357.741 397.508 357.529 393.778 357.193 390.063C356.885 386.582 356.446 383.116 356.066 379.643C356.051 379.525 355.993 379.415 355.985 379.306C355.685 374.645 355.378 369.984 355.085 365.324C355.064 364.98 355.085 364.62 355.144 364.276C355.261 363.536 355.612 362.84 356.395 362.818C356.893 362.803 357.507 363.14 357.873 363.514C358.246 363.902 358.495 364.503 358.598 365.046C358.883 366.533 359.146 368.028 359.256 369.537C359.454 372.212 359.512 374.879 359.915 377.561C360.485 381.357 360.449 385.241 360.8 389.074C361.107 392.437 361.59 395.778 362 399.127C362.029 399.362 362.066 399.589 362.08 399.823C362.344 403.663 362.549 407.51 362.892 411.343C363.229 415.051 363.712 418.751 364.129 422.452C364.144 422.569 364.173 422.686 364.18 422.796C364.444 426.519 364.656 430.249 364.992 433.964C365.336 437.789 365.797 441.607 366.214 445.425C366.251 445.776 366.295 446.121 366.317 446.473C366.58 450.195 366.77 453.925 367.121 457.64C367.458 461.231 367.956 464.814 368.373 468.397C368.402 468.632 368.402 468.866 368.417 469.101C368.68 472.941 368.87 476.788 369.221 480.62C369.551 484.211 370.034 487.794 370.451 491.378C370.465 491.495 370.487 491.612 370.494 491.729C370.765 495.569 370.97 499.416 371.314 503.249C371.643 506.957 372.119 510.657 372.529 514.358C372.558 514.592 372.594 514.819 372.609 515.054C372.872 518.659 373.077 522.272 373.414 525.87C373.758 529.578 374.241 533.278 374.636 536.979C374.738 537.909 374.775 538.847 374.76 539.785C374.731 541.669 374.899 543.523 375.47 545.325C374.072 545.325 372.682 545.333 371.285 545.34L371.307 545.318Z" fill="#4F5975"/>
<path d="M301.352 221.72C297.386 223.039 293.465 224.534 289.433 225.633C283.69 227.202 277.792 227.949 271.829 228.096C269.832 228.147 267.878 227.964 265.961 227.392C261.278 226 256.588 224.637 251.898 223.252C250.596 222.864 249.316 222.409 247.633 221.237C249.725 221.098 251.167 221.024 252.608 220.892C253.998 220.768 255.389 220.607 256.779 220.431C272.488 218.445 286.426 212.627 297.833 201.364C299.318 199.898 300.657 198.293 302.062 196.747C302.157 197.546 302.347 198.337 302.325 199.136C302.164 205.643 301.981 212.143 301.769 218.65C301.733 219.676 301.498 220.694 301.352 221.72Z" fill="#110E05"/>
<path d="M138.387 488.278C138.965 488.212 139.616 488.293 140.099 488.043C143.23 486.468 146.42 484.988 149.398 483.156C152.779 481.082 156.02 478.774 159.195 476.392C161.712 474.502 164.112 472.442 166.417 470.303C169.161 467.753 171.729 465.019 174.407 462.403C179.426 457.479 183.736 451.946 187.994 446.377C193.116 439.687 197.747 432.652 201.91 425.346C205.496 419.052 208.854 412.633 211.81 405.986C214.62 399.67 217.122 393.25 219.405 386.751C221.175 381.702 222.426 376.477 223.831 371.611C223.063 369.845 221.592 369.442 220.51 368.592C219.507 367.808 218.263 367.31 217.707 366.035C218.38 365.954 218.914 365.749 219.075 364.958C219.156 364.562 219.427 364.21 219.61 363.844C221.431 364.877 223.275 365.881 225.075 366.958C225.668 367.31 226.195 367.808 226.663 368.321C227.651 369.406 228.053 370.549 227.636 372.146C225.814 379.034 223.934 385.908 221.468 392.598C218.022 401.934 214.027 411.028 209.33 419.807C207.12 423.925 204.896 428.043 202.43 432.007C198.786 437.855 195.025 443.637 190.833 449.103C188.133 452.621 185.119 455.889 182.389 459.384C178.987 463.737 174.97 467.496 171.034 471.321C164.99 477.198 158.339 482.357 151.14 486.732C147.752 488.791 144.072 490.366 140.501 492.103C139.894 492.396 139.162 492.426 138.482 492.572C138.453 491.143 138.423 489.722 138.394 488.293L138.387 488.278Z" fill="#4F5975"/>
<path d="M197.403 248.115C197.74 248.035 198.084 247.947 198.428 247.866C198.786 246.62 199.05 245.345 199.503 244.158C201.559 238.831 205.115 235.028 210.749 233.489C214.246 232.529 217.693 232.851 221.051 234.163C224.834 235.643 227.973 238.04 230.577 241.132C233.636 244.774 235.78 248.885 236.716 253.589C236.855 254.278 237.082 254.945 237.265 255.626C237.119 257.927 237.565 260.258 236.782 262.537C236.599 263.079 237.045 263.841 237.206 264.5C236.987 264.757 236.658 264.977 236.555 265.277C234.66 270.685 230.753 274.181 225.807 276.701C225.412 276.899 225.075 277.214 224.607 277.544C226.999 281.56 228.734 285.722 229.838 290.316C230.826 289.862 231.653 289.459 232.502 289.107C233.146 288.844 233.797 288.572 234.47 288.426C235.326 288.235 236.204 288.719 236.504 289.415C236.833 290.185 236.672 291.174 236.043 291.657C235.494 292.082 234.88 292.42 234.265 292.749C226.385 296.97 220.649 303.228 216.69 311.208C215.534 313.531 214.868 315.993 214.415 318.536C214.122 320.199 214.32 321.804 214.839 323.372C215.381 325.021 216.456 326.15 218.146 326.707C219.514 327.154 220.853 327.241 222.273 327.007C225.565 326.472 228.397 324.831 231.294 323.343C232.136 325.358 231.258 327.036 230.233 328.678C227.395 329.733 224.607 330.971 221.527 331.14C218.102 331.33 215.044 330.51 212.703 327.806C212.19 327.22 211.686 326.619 211.027 325.842C210.669 326.904 210.427 327.652 210.164 328.392C208.569 332.811 205.503 335.529 200.93 336.636C198.486 337.222 196.079 337.2 193.643 336.775C189.457 336.035 185.587 334.459 181.907 332.371C175.951 328.986 170.829 324.589 166.212 319.555C165.437 318.712 164.522 317.994 163.666 317.224C164.207 315.576 164.742 313.927 165.283 312.278C167.478 314.704 169.571 317.224 171.883 319.533C176.719 324.354 182.104 328.429 188.492 331.023C191.433 332.217 194.433 333.045 197.659 332.943C202.942 332.774 205.964 330.055 206.659 324.56C195.603 322.361 188.879 314.528 182.872 305.895C182.711 305.808 182.616 305.727 182.507 305.698C182.28 305.639 182.053 305.624 181.826 305.58C179.638 305.17 178.98 304.027 180.07 302.217C181.153 300.422 182.389 298.707 183.648 297.021C184.255 296.208 185.397 296.113 186.172 296.611C186.933 297.102 187.277 298.15 186.845 299.095C186.421 300.033 185.858 300.913 185.338 301.865C188.631 307.434 192.509 312.373 197.689 316.147C199.276 317.305 201.04 318.265 202.818 319.115C204.391 319.87 206.103 320.317 207.903 320.185C209.637 320.06 210.23 319.628 210.434 317.928C210.932 313.773 212.542 310.05 214.568 306.467C215.022 305.668 215.417 304.84 215.849 304.005C215.461 303.543 215.198 303.155 214.868 302.847C209.754 298.04 204.64 293.233 199.511 288.448C199.196 288.155 198.75 288.016 198.355 287.803C197.967 288.272 197.689 288.653 197.367 288.99C196.181 290.229 194.879 290.514 194.03 289.752C193.299 289.085 193.284 287.854 194.162 286.543C195.713 284.205 197.33 281.911 198.94 279.61C199.203 279.229 199.525 278.878 199.869 278.57C200.498 277.991 201.442 277.925 202.13 278.35C202.81 278.775 203.213 279.684 202.957 280.482C202.781 281.032 202.467 281.53 202.196 282.043C201.83 282.732 201.142 283.282 201.215 284.154C203.769 287.041 216.515 298.861 218.351 300.128C220.297 298.348 222.119 296.508 224.124 294.904C225.522 293.783 225.829 292.507 225.551 290.888C224.753 286.184 222.778 282.021 219.961 278.247C219.368 278.189 218.907 278.13 218.446 278.101C215.11 277.903 212.417 276.408 210.222 273.968C207.259 270.67 206.257 266.618 205.935 262.346C205.862 261.364 206.286 260.514 207.208 260.016C207.961 259.605 208.788 259.84 209.681 260.741C210.01 261.071 210.273 261.467 210.603 261.796C212.205 263.423 214.129 264.369 216.376 264.874C218.505 265.358 220.553 265.189 222.617 264.742C227.204 263.746 230.987 261.401 234.199 257.92C232.816 250.021 229.099 243.792 222.485 239.425C221.329 238.662 220.027 238.047 218.71 237.622C211.539 235.306 206.11 238.714 203.82 244.869C203.615 245.411 203.527 245.998 203.359 246.562C203.125 247.324 202.876 248.079 202.628 248.834C200.374 249.383 198.194 248.54 196.05 249.002C196.503 248.709 196.957 248.416 197.411 248.123L197.403 248.115Z" fill="#201908"/>
<path d="M163.666 317.224C164.514 318.001 165.436 318.712 166.212 319.554C170.829 324.589 175.95 328.985 181.906 332.371C185.586 334.467 189.457 336.042 193.642 336.775C196.079 337.207 198.486 337.229 200.93 336.636C205.51 335.529 208.568 332.81 210.163 328.392C210.427 327.652 210.668 326.904 211.027 325.842C211.692 326.618 212.197 327.219 212.702 327.806C215.043 330.51 218.102 331.33 221.526 331.14C224.606 330.971 227.401 329.733 230.233 328.678C229.926 329.916 229.684 331.176 229.304 332.393C226.304 341.978 223.267 351.548 220.26 361.125C219.982 362.012 219.814 362.928 219.602 363.829C219.419 364.203 219.148 364.555 219.068 364.943C218.907 365.727 218.373 365.94 217.699 366.02C216.682 365.463 215.673 364.87 214.634 364.342C197.213 355.571 179.784 346.821 162.378 338.035C161.039 337.361 159.81 336.452 158.537 335.661C158.339 335.448 158.149 335.243 157.951 335.031V335.038C158.2 333.858 158.456 332.671 158.705 331.491C159.1 330.671 159.597 329.879 159.883 329.022C161.178 325.102 162.414 321.152 163.666 317.217V317.224Z" fill="#FABD00"/>
<path d="M231.287 323.343C228.39 324.83 225.558 326.472 222.266 327.007C220.846 327.241 219.507 327.153 218.139 326.706C216.441 326.149 215.373 325.028 214.832 323.372C214.312 321.796 214.115 320.199 214.407 318.536C214.854 315.993 215.527 313.531 216.683 311.208C220.641 303.235 226.378 296.977 234.258 292.749C234.872 292.419 235.487 292.082 236.036 291.657C236.665 291.173 236.818 290.177 236.497 289.415C236.197 288.719 235.319 288.235 234.463 288.425C233.789 288.572 233.138 288.843 232.494 289.107C231.646 289.459 230.826 289.862 229.831 290.316C228.726 285.714 226.992 281.559 224.6 277.544C225.068 277.214 225.404 276.899 225.8 276.701C230.753 274.18 234.653 270.685 236.548 265.277C236.65 264.976 236.979 264.756 237.199 264.5C239.584 269.212 243.023 273.205 246.162 277.397C248.511 280.526 250.15 283.955 251.437 287.59C251.854 288.77 252.03 290.089 252.074 291.349C252.191 294.537 251.576 297.644 250.354 300.568C247.676 306.972 243.879 312.681 239.255 317.839C237.426 319.877 235.114 321.218 232.802 322.566C232.604 322.683 232.407 322.808 232.209 322.925L232.224 322.91C231.946 323.086 231.668 323.255 231.397 323.431L231.287 323.35V323.343Z" fill="#FABD00"/>
<path d="M231.396 323.424C231.675 323.248 231.953 323.079 232.223 322.903C232.135 323.372 231.909 323.636 231.396 323.424Z" fill="#201908"/>
<path d="M196.042 248.994C198.179 248.533 200.366 249.375 202.62 248.826C202.861 248.071 203.117 247.316 203.352 246.554C203.52 245.997 203.615 245.411 203.813 244.862C206.103 238.706 211.532 235.306 218.702 237.614C220.019 238.039 221.321 238.655 222.477 239.417C229.084 243.784 232.801 250.006 234.192 257.912C230.98 261.393 227.204 263.738 222.609 264.735C220.546 265.182 218.497 265.35 216.368 264.867C214.122 264.354 212.198 263.416 210.595 261.789C210.266 261.459 210.002 261.063 209.673 260.734C208.781 259.832 207.954 259.598 207.2 260.008C206.278 260.506 205.854 261.357 205.927 262.338C206.249 266.618 207.251 270.67 210.215 273.96C212.41 276.401 215.11 277.895 218.439 278.093C218.9 278.123 219.361 278.181 219.953 278.24C222.77 282.014 224.746 286.176 225.543 290.88C225.821 292.507 225.514 293.782 224.116 294.896C222.112 296.501 220.297 298.333 218.344 300.121C216.5 298.853 203.761 287.041 201.208 284.146C201.135 283.267 201.822 282.725 202.188 282.036C202.459 281.523 202.774 281.017 202.949 280.475C203.205 279.676 202.803 278.76 202.122 278.342C201.435 277.917 200.491 277.983 199.862 278.562C199.518 278.877 199.196 279.222 198.932 279.603C197.323 281.904 195.706 284.197 194.154 286.535C193.276 287.854 193.291 289.078 194.023 289.745C194.864 290.514 196.174 290.221 197.359 288.982C197.681 288.645 197.959 288.264 198.347 287.795C198.742 288.008 199.196 288.147 199.503 288.44C204.632 293.225 209.754 298.032 214.861 302.839C215.19 303.147 215.453 303.536 215.841 303.997C215.41 304.833 215.014 305.661 214.561 306.459C212.534 310.043 210.917 313.773 210.427 317.92C210.222 319.628 209.629 320.053 207.895 320.177C206.095 320.309 204.383 319.862 202.81 319.107C201.032 318.257 199.269 317.297 197.681 316.14C192.501 312.366 188.623 307.427 185.331 301.858C185.857 300.905 186.413 300.026 186.838 299.088C187.269 298.142 186.926 297.094 186.165 296.603C185.389 296.105 184.248 296.2 183.64 297.014C182.382 298.699 181.145 300.407 180.062 302.209C178.972 304.019 179.638 305.162 181.819 305.573C182.045 305.617 182.279 305.639 182.499 305.69C182.609 305.719 182.704 305.8 182.865 305.888C188.872 314.52 195.596 322.354 206.651 324.552C205.956 330.048 202.935 332.766 197.652 332.935C194.425 333.038 191.425 332.209 188.484 331.015C182.097 328.421 176.711 324.347 171.875 319.525C169.563 317.217 167.47 314.696 165.275 312.27C165.085 311.845 164.917 311.406 164.697 310.995C161.522 305.06 162.429 299.549 166.344 294.295C168.048 292.009 170.287 290.353 172.607 288.631C172.987 287.026 172.797 285.385 172.826 283.765C172.863 281.046 173.36 278.416 174.275 275.873C175.599 272.194 177.941 269.38 181.475 267.658C183.15 266.845 184.87 266.112 186.567 265.343C187.087 265.108 187.613 264.874 188.221 264.595C188.374 263.65 188.645 262.734 188.645 261.825C188.645 259.056 189.611 256.564 190.642 254.073C191.681 251.559 193.342 249.727 196.035 248.972L196.042 248.994ZM219.609 245.704C215.622 246.562 211.971 247.917 209.198 251.01C209.044 251.178 208.934 251.391 208.817 251.596C208.393 252.358 208.539 253.296 209.154 253.816C209.761 254.329 210.705 254.38 211.415 253.889C211.7 253.692 211.934 253.42 212.183 253.186C213.749 251.72 215.651 250.834 217.67 250.269C218.768 249.962 219.961 250.013 221.102 249.859C221.936 249.742 222.573 249.038 222.668 248.218C222.763 247.397 222.353 246.554 221.563 246.239C220.934 245.983 220.246 245.873 219.602 245.697L219.609 245.704Z" fill="#FABD00"/>
<path d="M158.705 331.499C158.456 332.678 158.2 333.865 157.951 335.045C156.707 334.825 155.471 334.598 154.088 334.349C153.627 335.045 153.108 335.668 152.749 336.372C146.318 349.254 139.879 362.136 133.491 375.048C126.285 389.63 119.129 404.249 111.951 418.846C111.644 419.477 111.329 420.107 110.949 420.693C110.407 421.521 109.376 421.726 108.483 421.25C107.744 420.854 107.342 419.982 107.663 419.162C108.044 418.18 108.527 417.242 108.995 416.296C113.48 407.283 117.965 398.27 122.458 389.257C123.182 387.806 123.936 386.369 124.163 384.428C123.482 384.472 122.853 384.325 122.443 384.559C120.014 385.952 117.483 387.227 115.273 388.92C109.39 393.434 104.342 398.761 100.749 405.327C99.7541 407.151 99.1029 409.166 98.3054 411.094C97.9542 411.951 97.742 412.896 97.2518 413.666C96.9957 414.061 96.2933 414.333 95.7738 414.369C95.0129 414.42 94.3983 413.878 94.2812 413.138C94.1568 412.354 94.1129 411.467 94.3397 410.72C95.2324 407.818 96.3006 405.012 97.9249 402.381C102.169 395.493 107.773 389.916 114.117 385.065C116.985 382.874 120.131 381.027 123.687 380.053C124.807 379.745 125.911 379.364 127.236 378.954C127.777 377.928 128.392 376.807 128.955 375.663C135.847 361.828 142.725 347.994 149.61 334.159C149.925 333.528 150.225 332.891 150.554 332.275C151.703 330.114 153.056 329.542 155.442 330.297C156.546 330.641 157.622 331.103 158.705 331.506V331.499Z" fill="#4F5975"/>
<path d="M258.38 169.832C258.388 163.471 257.517 157.265 255.081 151.336C254.861 150.802 254.649 150.237 254.59 149.666C254.503 148.786 254.861 148.076 255.695 147.658C256.434 147.284 257.4 147.394 257.912 148.098C258.388 148.742 258.819 149.475 259.054 150.237C259.91 153.022 260.868 155.792 261.439 158.635C263.012 166.52 262.997 174.419 261.146 182.282C260.444 185.25 259.449 188.108 257.729 190.665C253.961 196.256 248.722 196.601 244.508 191.405C243.279 189.888 242.386 188.071 241.501 186.312C241.04 185.396 241.581 184.304 242.364 183.901C243.337 183.403 244.479 183.704 245.108 184.649C245.364 185.037 245.532 185.477 245.766 185.88C246.169 186.591 246.542 187.324 247.01 187.99C247.479 188.657 247.991 189.317 248.591 189.852C250.178 191.288 251.759 191.273 253.222 189.771C253.866 189.112 254.466 188.342 254.846 187.514C255.622 185.821 256.368 184.099 256.88 182.319C258 178.45 258.38 174.632 258.388 169.839L258.38 169.832Z" fill="#201908"/>
<path d="M251.363 204.947C246.454 204.947 241.552 204.947 236.642 204.947C235.83 204.947 235.003 204.925 234.206 204.778C233.445 204.639 232.867 203.76 232.823 202.939C232.779 202.14 233.313 201.224 234.096 201.049C234.879 200.865 235.706 200.807 236.51 200.814C240.015 200.851 243.52 200.924 247.025 200.997C253.215 201.122 259.404 201.254 265.594 201.386C266.414 201.4 267.233 201.386 268.045 201.459C269.004 201.554 269.875 202.382 270.014 203.203C270.153 204.075 269.223 205.247 268.17 205.438C267.599 205.541 267.007 205.541 266.428 205.533C263.158 205.475 259.887 205.394 256.617 205.343C254.868 205.313 253.112 205.343 251.363 205.343C251.363 205.218 251.363 205.094 251.363 204.969V204.947Z" fill="#201908"/>
<path d="M230.446 154.912C230.482 158.393 227.753 161.236 224.329 161.265C221.249 161.295 218.227 158.605 218.256 155.278C218.285 151.849 220.993 148.874 224.409 148.932C227.98 148.998 230.497 151.688 230.446 154.912Z" fill="#110E05"/>
<path d="M282.775 149.409C284.311 149.702 285.058 150.867 285.746 152.106C286.455 153.396 286.521 154.788 286.272 156.18C285.789 158.877 283.536 161.09 280.946 161.493C277.565 162.013 274.697 159.822 274.324 156.422C274.156 154.883 274.302 153.388 275.151 152.055C275.97 150.772 276.9 149.592 278.546 149.336C279.958 149.358 281.363 149.387 282.775 149.409Z" fill="#110E05"/>
<path d="M310.469 174.903C309.664 174.829 309.108 174.719 308.552 174.749C307.974 174.778 307.41 174.983 306.832 175.02C305.779 175.078 304.923 174.47 304.696 173.598C304.454 172.675 304.886 171.708 305.837 171.305C306.583 170.99 307.374 170.689 308.164 170.616C311.778 170.286 315.085 171.209 317.99 173.4C319.124 174.258 320.017 175.342 320.112 176.866C320.171 177.731 319.973 178.486 319.124 178.926C318.254 179.373 317.244 179.204 316.622 178.413C316.066 177.702 315.583 176.94 314.99 176.09C313.725 177.094 313.666 178.457 313.125 179.556C312.51 180.809 312.108 182.157 311.486 183.403C311.003 184.363 309.949 184.663 309.108 184.282C308.222 183.879 307.732 183.015 307.959 181.989C308.135 181.197 308.457 180.442 308.735 179.68C309.283 178.156 309.839 176.639 310.461 174.91L310.469 174.903Z" fill="#201908"/>
<path d="M183.875 175.467C182.938 176.28 182.287 176.918 181.57 177.46C180.765 178.076 179.748 177.951 179.038 177.248C178.402 176.618 178.277 175.826 178.687 175.013C178.79 174.808 178.899 174.595 179.031 174.405C181.255 171.188 187.116 168.85 190.84 169.832C191.674 170.052 192.45 170.711 193.094 171.327C193.606 171.818 193.701 172.551 193.291 173.269C192.838 174.067 192.172 174.478 191.287 174.361C190.723 174.287 190.189 173.95 189.626 173.848C189.209 173.767 188.762 173.87 188.096 173.906C188.206 174.976 188.25 175.885 188.411 176.764C188.682 178.252 189.099 179.725 189.333 181.219C189.501 182.282 188.645 183.374 187.657 183.586C186.875 183.755 185.777 183.132 185.47 182.201C185.141 181.205 184.943 180.172 184.702 179.146C184.438 178.024 184.189 176.903 183.867 175.467H183.875Z" fill="#201908"/>
<path d="M282.774 149.409C281.362 149.387 279.957 149.358 278.545 149.336C278.45 148.786 278.092 148.61 277.58 148.603C276.775 148.603 275.97 148.581 275.165 148.574C275.67 148.369 276.16 148.039 276.672 147.995C277.784 147.907 278.911 147.973 280.038 147.973C280.353 148.193 280.653 148.457 280.996 148.632C281.574 148.926 282.182 149.16 282.774 149.417V149.409Z" fill="#201908"/>
<path d="M219.609 245.704C220.253 245.873 220.941 245.99 221.57 246.246C222.36 246.561 222.777 247.397 222.675 248.225C222.58 249.038 221.943 249.749 221.109 249.866C219.968 250.028 218.775 249.976 217.677 250.277C215.658 250.841 213.756 251.72 212.19 253.193C211.934 253.435 211.7 253.699 211.422 253.897C210.719 254.388 209.768 254.336 209.161 253.823C208.546 253.303 208.4 252.365 208.824 251.603C208.934 251.398 209.051 251.193 209.205 251.017C211.978 247.917 215.629 246.569 219.616 245.711L219.609 245.704Z" fill="#201908"/>
</g>
</g>
<defs>
<clipPath id="clip0_132_193">
<rect width="521" height="531" fill="white"/>
</clipPath>
<clipPath id="clip1_132_193">
<rect width="398" height="481" fill="white" transform="translate(62 67)"/>
</clipPath>
</defs>
</svg>
