<svg width="521" height="531" viewBox="0 0 521 531" fill="none" xmlns="http://www.w3.org/2000/svg">
<ellipse cx="260.5" cy="471" rx="143.5" ry="9" fill="#1E1E1E" fill-opacity="0.08"/>
<g clip-path="url(#clip0_148_116)">
<path d="M258.61 51.2314C263.683 49.5448 265.45 57.3509 267.86 61.0898C294.819 102.889 370.371 116.024 414.212 98.0234C421.082 95.2024 422.35 90.4859 427.236 99.3368C448.273 137.487 430.944 213.369 416.188 252.556C392.937 314.319 335.191 404.91 269.77 426.955C258.67 430.694 255.686 428.91 245.272 424.604C181.38 398.201 126.588 312.49 103.665 249.683C89.454 210.757 75.0568 144.8 90.9683 105.568C91.7814 103.561 95.6828 95.292 97.0479 94.4412C99.256 93.0606 105.88 97.7174 108.513 98.7398C152.518 115.822 226.958 102.367 253.425 60.3734C254.507 58.6644 257.812 51.5 258.617 51.2314H258.61Z" fill="#0F9AD7"/>
<path d="M310.401 210.847C309.812 218.817 294.482 218.093 293.93 210.847C292.468 210.175 292.244 208.376 293.244 205.458C292.617 189.376 292.923 173.577 294.161 158.084C294.825 152.465 291.461 149.726 287.41 146.562C270.73 133.554 252.961 130.718 235.379 145.114C234.088 146.174 227.434 152.465 227.404 153.024C226.636 170.652 227.434 188.271 228.359 205.608C228.732 207.921 228.158 209.675 226.621 210.854C225.674 219.071 210.128 217.772 210.15 210.854C210.15 210.361 210.896 209.041 210.896 207.682C210.881 200.458 210.24 193.286 210.113 186.174C210.016 180.48 209.225 153.204 210.53 149.995C212.962 144.017 222.675 134.688 228.113 131.054C257.84 111.18 290.924 120.613 309.998 149.278L310.386 210.847H310.401Z" fill="#919DA2"/>
<path d="M293.938 210.846C289.776 210.697 285.554 211.048 281.384 210.876C280.444 210.839 279.526 210.137 279.265 210.137H242.034C241.773 210.137 240.848 210.839 239.915 210.876C235.507 211.055 231.046 210.697 226.645 210.846C227.599 202.525 226.003 193.682 225.899 185.45C225.757 174.525 225.914 163.569 226.1 152.651C237.924 137.561 256.23 129.136 274.871 137.181C279.832 139.322 292.864 147.442 294.841 152.3C296.669 156.8 294.722 164.935 294.64 169.636C294.423 181.584 294.886 193.555 294.699 205.503C294.669 207.324 293.819 209.018 293.953 210.846H293.938Z" fill="#0F9AD7"/>
<path d="M293.938 210.846C297.623 215.272 305.889 217.66 308.902 211.324L310.409 210.846C314.519 211.563 321.897 208.548 322.531 214.115C323.814 248.474 321.226 282.982 321.83 317.236C321.875 319.983 323.755 326.072 321.696 328.132C320.017 329.811 297.847 328.893 293.558 328.99C273.133 329.46 252.522 330.155 231.985 329.766C223.489 329.602 210.569 329.96 202.646 329.035C201.684 328.923 198.723 328.11 198.723 327.229V212.63C198.723 209.958 208.234 211.003 210.181 210.839C210.845 210.734 211.225 211.07 211.673 211.481C215.403 214.936 217.006 216.279 222.541 214.264C223.929 212.719 225.302 211.578 226.652 210.839C229.046 209.286 238.043 208.607 240.743 209.13C241.31 209.242 241.713 209.682 242.049 210.122L242.705 208.689H278.429L279.28 210.122C279.526 209.592 279.899 209.234 280.451 209.063C281.003 208.891 290.223 209.204 291.685 209.369L293.961 210.839L293.938 210.846Z" fill="#53788A"/>
<path d="M257.96 246.847C267.277 245.564 275.707 252.243 274.543 261.989C274.148 265.303 271.761 267.43 271.119 270.475C273.857 277.303 278.914 284.288 281.384 291.08C281.876 292.438 283.375 295.408 281.794 296.475C280.212 297.542 261.392 296.639 257.744 297.542C254.67 295.938 240.266 297.781 239.117 296.132C238.364 295.05 238.819 293.012 239.139 291.766C240.43 286.826 250.075 273.333 249.419 269.407C249.12 267.624 247.069 265.676 246.718 263.452C245.413 255.258 249.396 248.034 257.953 246.855L257.96 246.847Z" fill="#292F31"/>
</g>
<defs>
<clipPath id="clip0_148_116">
<rect width="353" height="378" fill="white" transform="translate(84 51)"/>
</clipPath>
</defs>
</svg>
