<svg width="521" height="531" viewBox="0 0 521 531" fill="none" xmlns="http://www.w3.org/2000/svg">
<g clip-path="url(#clip0_132_269)">
<ellipse cx="234.5" cy="496" rx="166.5" ry="9" fill="#1E1E1E" fill-opacity="0.25"/>
<path d="M462.233 -59L465.658 76.5781C464.488 78.1191 462.069 77.1274 462.233 75.2082C461.391 76.9348 458.416 76.3783 458.124 74.5233C456.804 76.1785 451.923 77.1274 449.904 76.5781L447.164 -59H462.233Z" fill="#734633"/>
<path d="M451.958 89.5846C452.322 89.6774 452.643 89.7987 452.779 90.027C454.798 93.423 456.539 96.0557 460.128 91.5895C460.128 90.4693 460.356 89.92 461.548 89.5775C463.667 88.9711 465.329 87.8581 466.535 86.2385L468.39 86.1601C468.141 90.9331 468.876 93.2875 465.665 97.4755C464.916 98.4529 462.996 99.1164 462.875 99.6515C462.554 101.036 463.688 104.139 463.603 106.329C462.782 127.69 435.854 129.638 434.121 109.811C433.935 107.678 433.5 101.057 437.096 101.985C440.157 103.361 438.095 105.402 438.302 107.628C439.6 121.826 453.614 121.84 455.319 108.363C456.625 98.0605 450.367 102.07 446.778 95.1068C444.203 90.1126 445.715 89.6917 446.479 85.4823L447.392 85.1826C448.905 86.6024 450.431 88.0721 451.958 89.5918V89.5846Z" fill="#84929E"/>
<path d="M458.123 74.5228L458.957 76.3207C457.502 79.8024 456.367 83.3697 455.547 87.0297L454.02 88.2141C454.555 89.9692 453.449 90.4472 451.965 89.5839C448.69 89.8621 448.084 87.5933 446.485 85.4744C447.163 81.7287 445.893 79.5884 449.91 76.5705C452.393 74.7012 455.119 74.4301 458.13 74.5157L458.123 74.5228Z" fill="#573123"/>
<path d="M465.658 76.5785C470.075 79.6464 468.598 82.2576 468.398 86.1674C466.093 88.7858 465.294 90.9333 461.548 89.592C460.642 91.3613 456.889 89.5563 456.068 88.2221C455.091 87.3018 455.747 86.4813 458.038 85.7678L460.635 75.7152L462.233 75.2158C462.982 75.4156 465.13 76.2218 465.658 76.5857V76.5785Z" fill="#573123"/>
<path d="M462.233 75.2081C461.356 77.5411 459.95 85.6602 458.887 87.1299C458.288 87.9647 456.618 87.1656 456.069 88.2215C455.391 90.0123 454.606 90.0265 454.014 88.2215C454.435 83.527 456.661 78.9751 458.123 74.5303C459.679 74.5731 460.763 74.8228 462.233 75.2152V75.2081Z" fill="#040404"/>
<path d="M245.392 84.2143L243.78 84.2499C241.603 81.2962 238.614 79.006 235.332 77.4008C233.869 89.2156 215.717 99.1683 204.929 96.9281C191.23 88.8446 186.235 107.773 200.199 110.127C203.031 113.594 205.778 130.061 203.952 134.178C203.645 134.87 202.896 135.255 202.254 135.569C199.264 134.413 181.961 140.691 178.287 142.418C169.803 125.844 161.441 94.6022 179.314 81.4817C184.138 77.9359 190.01 78.6422 192.521 77.2224C192.828 77.0512 195.739 73.0273 197.131 71.9143C202.04 67.9974 209.624 65.4789 215.796 64.5514C221.019 63.7738 233.819 63.5241 238.564 65.379C244.036 67.5123 249.538 79.1202 245.399 84.2214L245.392 84.2143Z" fill="#030304"/>
<path d="M257.722 456.703C258.485 458.607 256.787 463.409 257.094 464.486C257.501 465.928 258.992 465.364 259.777 465.599C260.547 466.548 260.462 467.683 259.513 469.002C260.697 467.297 261.924 466.62 263.194 466.969C263.815 467.205 264.393 467.29 265.249 467.654C265.313 468.903 264.721 470.294 263.48 471.835C264.921 469.438 266.419 468.496 267.989 469.024C274.461 472.748 280.012 478.563 281.688 486.14L281.189 487.502C258.799 487.053 236.409 486.603 214.012 486.161L213.206 484.777C213.541 475.217 213.527 465.585 213.891 456.018C228.496 456.232 243.123 456.781 257.722 456.703Z" fill="#F6A306"/>
<path d="M281.688 486.147C284.764 500.06 277.15 495.229 267.675 495.023C249.302 494.616 230.88 494.83 212.514 494.366C212.649 491.741 212.343 489.058 212.493 486.433C212.542 485.548 213.199 484.863 213.206 484.777L281.688 486.147Z" fill="#E4D4B3"/>
<path d="M267.996 469.031C266.262 469.687 265.841 471.821 264.621 472.841C259.933 476.758 261.995 468.981 265.256 467.661C266.519 468.203 266.826 468.36 267.996 469.031Z" fill="#E3D1A9"/>
<path d="M263.202 466.976C259.484 472.37 255.396 472.406 259.777 465.606C261.496 466.127 262.017 466.527 263.202 466.976Z" fill="#E1CFA3"/>
<path d="M202.247 135.569L203.688 135.212C210.659 146.128 228.154 143.481 236.302 134.963L237.858 135.576C243.666 134.057 255.774 139.964 261.289 142.618C274.839 149.146 298.805 163.287 306.34 175.972C306.376 176.728 306.39 177.478 306.297 178.212C306.205 178.947 306.112 179.646 305.819 180.253C301.146 189.963 295.395 199.58 289.744 208.77C289.394 209.34 288.859 209.811 288.31 210.289C287.76 210.767 287.125 211.181 286.483 211.574L284.664 212.801L265.256 200.615C265.057 199.92 265.057 199.92 265.256 200.615C264.893 219.179 271.114 235.86 272.106 253.339C259.213 260.859 243.316 264.947 228.525 266.938C210.695 269.335 189.204 270.341 172.807 262.243C172.857 260.196 172.122 257.056 172.122 255.737V223.553C172.122 221.077 171.366 217.538 171.438 214.306C170.967 213.621 170.952 212.908 171.438 212.251C170.91 208.185 170.553 203.883 170.474 199.73C170.46 199.102 171.487 211.609 170.753 212.251C171.288 212.844 171.323 213.742 170.753 214.306C170.581 215.441 168.348 221.562 167.599 221.762C166.928 221.591 165.822 221.441 165.273 221.148C164.716 221.248 164.167 221.319 163.617 221.298C161.113 221.205 133.821 205.602 132.444 203.483C132.145 203.019 131.916 202.506 131.717 201.97C130.846 201.443 127.443 199.573 127.222 199.238C126.123 197.54 131.702 186.653 132.965 184.398C142.369 167.603 160.878 150.559 178.28 142.404C178.08 141.855 177.98 141.041 178.387 140.856C181.362 139.515 200.927 132.252 202.004 134.563C202.147 134.87 202.211 135.205 202.247 135.562V135.569Z" fill="#82B5E3"/>
<path d="M265.256 200.615L264.571 199.616C263.837 190.676 261.703 178.234 256.038 171.128C255.424 170.357 253.919 169.943 253.762 169.658C252.449 167.289 254.033 166.49 256.388 167.361C258.892 168.288 262.224 175.672 263.209 178.341C266.498 187.223 265.428 191.575 265.249 200.608L265.256 200.615Z" fill="#BDD0E0"/>
<path d="M171.43 212.258H170.745C170.638 205.709 167.613 196.113 168.697 190.006C169.161 187.38 171.137 187.751 171.466 190.655C172.258 197.725 171.516 205.431 171.43 212.258Z" fill="#BCD0E0"/>
<path d="M272.099 253.339C273.426 276.754 271.492 300.826 271.385 324.178C271.25 353.872 271.078 383.587 270.7 413.189C270.515 427.686 270.893 442.212 270.729 456.702C266.398 456.717 262.045 456.674 257.714 456.702C243.537 458.957 228.04 458.443 213.884 456.017C211.379 455.982 208.853 456.046 206.349 456.017L217.993 349.199C220.633 343.691 223.794 337.006 226.106 330.863C231.108 317.571 233.89 304.965 233.241 290.895C233.448 287.264 233.876 284.438 237.822 283.611C259.477 277.168 241.361 280.864 233.184 285.523C233.79 305.785 229.167 325.319 220.291 343.662L218.686 344.404C188.647 390.387 133.75 416.199 79.7017 419.003C78.7456 415.629 79.2736 412.147 78.9811 408.772C78.5672 408.102 78.1819 407.417 77.8823 406.696C77.5826 405.976 77.3115 405.291 77.2258 404.57C75.8345 392.855 74.7856 381.083 73.7725 369.333C73.8509 367.799 74.222 366.343 74.8784 364.952C74.7714 362.947 74.8499 360.864 74.9497 358.859C95.8911 356.162 116.383 347.686 133.086 334.823L134.67 335.022C134.049 343.798 141.227 362.754 150.325 349.199C148.598 342.585 144.31 336.934 137.453 332.247L137.874 330.713C157.559 313.683 172.129 288.79 172.8 262.243L175.426 261.957C204.979 272.488 240.968 266.509 269.002 253.51L272.099 253.346V253.339Z" fill="#93639B"/>
<path d="M218.686 344.412C219.77 339.482 223.709 332.889 225.55 327.653C229.074 317.593 230.922 307.462 231.693 296.817C231.907 293.885 231.044 286.914 232.042 284.838C232.856 283.147 248.582 277.718 249.509 278.681C249.388 279.409 249.709 280.45 249.552 281.021C249.345 281.742 237.044 284.817 235.446 286.179C233.819 291.873 234.868 297.78 234.354 303.581C233.013 318.827 227.034 334.052 219.934 347.401C219.421 348.364 219.663 349.563 218.008 349.206C219.121 347.772 218.393 345.767 218.693 344.412H218.686Z" fill="#83569F"/>
<path d="M193.342 272.516C194.683 278.388 179.885 285.772 176.039 284.731C174.255 284.253 173.121 282.084 175.918 281.449C180.905 280.307 182.418 280.7 186.827 277.289C187.883 276.476 192.065 271.189 193.349 272.516H193.342Z" fill="#83569F"/>
<path d="M137.874 330.713C142.419 335.6 153.022 342.328 151.566 350.197C151.081 352.823 146.229 355.498 143.739 355.341C138.751 355.027 134.834 347.393 134.071 343.07C133.564 340.216 134.378 337.262 133.079 334.822C134.442 333.766 136.461 331.933 137.874 330.713Z" fill="#83569F"/>
<path d="M136.511 334.83C137.596 333.588 150.018 345.189 148.762 349.441C148.47 350.44 145.558 351.981 144.395 352.003C138.174 352.117 136.119 339.61 136.511 334.837V334.83Z" fill="#93639B"/>
<path d="M74.8715 364.952C75.6135 379.15 77.7398 394.411 78.9813 408.773C77.2688 409.4 73.473 408.095 72.4455 408.273C71.1898 408.487 71.6393 410.114 71.4466 410.827C70.6903 412.033 69.299 411.862 67.2726 410.321C69.3561 411.534 70.5191 412.846 70.7617 414.252C70.5547 414.908 70.3193 415.665 70.0767 416.307C68.8281 416.863 67.3511 416.556 65.6458 415.386C67.5794 416.435 68.5997 417.648 68.7068 419.039C65.3033 425.353 58.047 431.889 50.9048 433.415L49.542 432.93C49.7632 410.314 49.9915 387.697 50.2127 365.066L51.5898 364.253C59.3741 364.253 67.08 365.287 74.8715 364.938V364.952Z" fill="#F6A306"/>
<path d="M51.5895 364.268L50.9046 433.423C47.9364 434.058 44.9611 433.937 42 433.423V364.268C45.1894 364.268 48.4002 364.268 51.5895 364.268Z" fill="#E4D4B3"/>
<path d="M70.0768 416.307C69.7414 417.199 69.1706 418.19 68.7068 419.047C61.2293 415.601 62.4137 410.649 70.0768 416.307Z" fill="#E3D2A7"/>
<path d="M71.4463 410.827C71.1467 411.947 71.0539 413.296 70.7614 414.252C69.313 413.36 65.3958 412.004 65.9737 409.807C66.6516 407.224 70.2405 410.92 71.4463 410.827Z" fill="#E3D1A5"/>
<path d="M165.273 221.162L150.582 252.576C149.882 256.614 153.678 263.877 153.55 267.408C153.5 268.878 151.631 270.961 150.889 272.517C149.347 273.152 148.384 271.618 147.999 267.908C148.477 270.84 148.755 273.744 148.841 276.626C146.408 281.62 146.986 285.444 140.614 287.906C137.089 289.269 130.497 288.541 128.984 284.838C127.293 284.51 126.587 282.79 126.865 279.687C128.37 269.456 125.267 280.821 127.186 284.324L126.244 285.523C118.56 286.194 108.635 279.665 103.983 273.886C100.315 269.335 102.006 266.374 103.455 261.016C105.852 252.14 107.272 249.943 115.513 245.626L131.731 201.984C142.034 208.256 154.763 215.561 165.287 221.155L165.273 221.162Z" fill="#387FC5"/>
<path d="M128.977 284.838C128.006 284.56 126.858 285.466 126.237 285.523C124.896 283.397 124.339 274.486 127.272 273.887C129.983 273.33 128.171 278.353 128.221 279.701C128.27 280.95 128.542 283.789 128.97 284.838H128.977Z" fill="#070A0E"/>
<path d="M148.834 276.619C147.628 274.914 145.031 266.888 147.792 266.517C150.404 266.167 149.298 271.104 150.889 272.51C150.233 273.887 149.505 275.242 148.834 276.619Z" fill="#080D0F"/>
<path d="M245.392 84.2139C246.056 85.3126 246.948 88.2877 247.447 89.6932C246.213 90.264 244.55 89.893 242.445 88.5874C245.228 90.0499 247.347 92.012 248.817 94.4876C250.472 104.027 247.975 118.174 238.542 123.247C236.809 127.842 228.625 126.707 224.458 125.48C228.147 127.756 232.599 128.355 236.866 128.12L237.857 129.411C237.615 131.216 236.816 134.47 237.857 135.576C237.258 135.733 232.413 140.149 230.116 141.183C222.189 144.751 211.472 144.986 204.651 138.993C203.88 138.315 202.439 135.647 202.246 135.576C204.33 127.078 202.225 119.016 199.392 111.047C190.695 110.812 187.127 99.118 194.476 94.6018C200.042 91.1772 202.175 96.1571 208.097 95.8932C218.143 95.4437 234.704 87.2318 233.762 75.3242C237.95 76.6156 243.145 80.4896 245.399 84.2281L245.392 84.2139Z" fill="#387FC5"/>
<path d="M238.542 123.247C239.07 125.48 238.114 127.514 237.857 129.411C231.214 130.096 221.682 128.291 219.37 121.192C224.857 125.323 232.263 126.622 238.542 123.247Z" fill="#040506"/>
<path d="M247.447 89.6928C248.189 91.7618 248.41 92.1614 248.817 94.4872C247.654 93.8879 241.439 89.7142 241.275 89.2219C239.713 84.4489 245.727 88.4585 247.447 89.6999V89.6928Z" fill="#07090B"/>
<path d="M226.569 110.233C228.717 109.691 230.729 115.384 237.215 113.351C238.335 113.002 242.652 107.972 243.344 111.275C243.979 114.35 236.758 116.876 234.204 116.826C230.244 116.747 222.252 111.332 226.569 110.24V110.233Z" fill="#050709"/>
<path d="M241.247 94.5228C243.544 96.0639 244.022 110.126 236.987 108.064C234.682 107.386 232.349 102.492 236.038 103.498C237.294 103.841 237.7 106.166 238.885 104.761C241.796 101.301 238.271 97.0342 238.578 95.5645C238.764 94.6798 240.604 94.0948 241.254 94.53L241.247 94.5228Z" fill="#050608"/>
<path d="M200.198 101.329C200.862 108.028 195.411 107.907 197.444 101.329C191.444 102.856 193.513 97.1481 199.67 98.0542C206.549 99.0673 206.87 106.259 200.191 101.329H200.198Z" fill="#06080B"/>
<path d="M230.815 88.4518C231.764 88.2163 233.355 88.6444 233.062 90.0214C232.877 90.8918 225.806 96.1785 224.522 95.8503C220.811 94.9228 229.68 88.73 230.815 88.4446V88.4518Z" fill="#06080A"/>
<path d="M228.439 96.0215C230.045 94.4448 232.15 96.4639 231.693 98.2404C231.072 100.673 226.099 98.3189 228.439 96.0215Z" fill="#090E15"/>
<path d="M246.762 97.2193C242.238 98.3537 242.616 92.8601 245.727 93.809C246.869 94.1586 246.876 96.2133 246.762 97.2193Z" fill="#07090B"/>
<path d="M306.347 175.964C308.531 179.638 317.664 177.848 321.417 176.999C328.944 175.286 358.398 160.382 361.437 154.018C362.322 152.163 362.415 148.732 363.342 146.334C364.341 143.759 366.046 142.432 366.96 140.37C368.48 136.945 369.421 123.568 375.058 124.067C376.264 124.174 378.932 126.721 378.932 127.692V138.993C382.871 135.368 389.492 123.639 395.55 124.724C399.574 125.444 398.911 128.662 397.426 131.459C397.912 132.144 396.849 133.114 396.057 133.513C395.693 134.298 395.008 134.983 394.002 135.568C394.423 135.775 394.408 136.003 394.002 136.253C393.864 136.429 393.864 136.429 394.002 136.253L394.687 135.568C394.822 134.641 395.864 133.927 396.742 133.513C396.67 132.836 397.369 131.915 398.111 132.144C400.873 129.754 402.899 126.964 407.052 128.334C410.141 129.354 410.141 132.936 409.064 135.561C407.58 136.774 407.808 137.002 409.749 136.246C416.862 141.433 402.343 150.672 398.104 154.047C397.905 154.71 397.455 155.281 396.734 155.417C395.878 156.023 396.106 156.023 397.419 155.417C397.241 154.989 397.633 154.817 398.104 154.732C400.98 154.318 410.084 150.001 409.756 155.702C409.456 160.932 395.907 164.221 391.683 166.461C385.482 169.75 384.341 173.474 379.967 178.026C369.05 189.398 357.927 199.43 344.021 207.135C327.781 216.125 302.323 225.606 286.483 211.573C293.412 199.879 300.647 188.314 306.34 175.964H306.347Z" fill="#387FC5"/>
<path d="M409.756 136.253L390.584 153.369C391.19 151.072 393.959 148.839 395.693 147.191C399.938 143.16 404.647 139.414 409.064 135.568C409.321 135.754 409.499 136.075 409.749 136.253H409.756Z" fill="#0A111A"/>
<path d="M398.112 132.144C397.741 132.465 397.213 133.071 396.742 133.514H396.057C396.299 133.157 397.362 131.58 397.427 131.459L398.112 132.144Z" fill="#55AF31"/>
<path d="M398.111 154.739C397.961 155.053 397.704 155.238 397.426 155.424H396.741C396.984 155.245 397.526 154.525 398.111 154.054V154.739Z" fill="#54AF32"/>
<path d="M388.522 143.103C387.965 144.159 387.623 144.879 386.831 145.85C386.039 146.82 384.298 148.768 383.042 148.918C383.727 146.206 386.374 144.045 388.529 142.418C388.914 142.625 388.907 142.853 388.529 143.103H388.522Z" fill="#0E1A2A"/>
<path d="M396.741 133.514C396.006 134.213 395.828 134.741 394.686 135.568C394.486 135.989 394.251 135.982 394.001 135.568C394.015 134.491 395.728 133.999 396.056 133.514H396.741Z" fill="#47AD45"/>
<path d="M396.742 155.424H397.427C396.827 155.823 396.635 156.501 395.379 156.101V155.431C395.793 155.338 396.556 155.559 396.749 155.431L396.742 155.424Z" fill="#18A179"/>
<path d="M388.521 143.103V142.418C388.557 142.39 388.443 141.619 389.206 141.733C389.57 143.017 388.629 142.896 388.521 143.103Z" fill="#142943"/>
<path d="M389.206 141.733C388.885 141.412 389.841 140.641 389.891 141.39C389.906 141.626 389.363 141.89 389.206 141.733Z" fill="#162A47"/>
<path d="M394.002 136.253C394.323 136.574 393.367 137.345 393.317 136.596C393.302 136.36 393.845 136.096 394.002 136.253Z" fill="#44AD4D"/>
<path d="M394.001 136.253V135.568H394.686C394.643 135.597 394.764 136.375 394.001 136.253Z" fill="#4EAE3C"/>
</g>
<defs>
<clipPath id="clip0_132_269">
<rect width="521" height="531" fill="white"/>
</clipPath>
</defs>
</svg>
