<?xml version="1.0" encoding="UTF-8"?>
<svg id="Lager_1" data-name="Lager 1" xmlns="http://www.w3.org/2000/svg" viewBox="0 0 613.87 783.51">
  <defs>
    <style>
      .cls-1 {
        fill: #080d0f;
      }

      .cls-2 {
        fill: #84929e;
      }

      .cls-3 {
        fill: #4f2818;
      }

      .cls-4 {
        fill: #18a179;
      }

      .cls-5 {
        fill: #e3d2a7;
      }

      .cls-6 {
        fill: #0e1a2a;
      }

      .cls-7 {
        fill: #090e15;
      }

      .cls-8 {
        fill: #93639b;
      }

      .cls-9 {
        fill: #0a111a;
      }

      .cls-10 {
        fill: #54af32;
      }

      .cls-11 {
        fill: #e1cfa3;
      }

      .cls-12 {
        fill: #4eae3c;
      }

      .cls-13 {
        fill: #030304;
      }

      .cls-14 {
        fill: #55af31;
      }

      .cls-15 {
        fill: #142943;
      }

      .cls-16 {
        fill: #06080b;
      }

      .cls-17 {
        fill: #050709;
      }

      .cls-18 {
        fill: #341c13;
      }

      .cls-19 {
        fill: #bcd0e0;
      }

      .cls-20 {
        fill: #07090b;
      }

      .cls-21 {
        fill: #82b5e3;
      }

      .cls-22 {
        fill: #040506;
      }

      .cls-23 {
        fill: #040404;
      }

      .cls-24 {
        fill: #e4d4b3;
      }

      .cls-25 {
        fill: #e3d1a9;
      }

      .cls-26 {
        fill: #e3d1a5;
      }

      .cls-27 {
        fill: #f6a306;
      }

      .cls-28 {
        fill: #162a47;
      }

      .cls-29 {
        fill: #83569f;
      }

      .cls-30 {
        fill: #bdd0e0;
      }

      .cls-31 {
        fill: #06080a;
      }

      .cls-32 {
        fill: #44ad4d;
      }

      .cls-33 {
        fill: #050608;
      }

      .cls-34 {
        fill: #47ad45;
      }

      .cls-35 {
        fill: #2c73b9;
      }

      .cls-36 {
        fill: #070a0e;
      }
    </style>
  </defs>
  <path class="cls-3" d="M604.68,0l4.8,190.03c-1.64,2.16-5.03.77-4.8-1.92-1.18,2.42-5.35,1.64-5.76-.96-1.85,2.32-8.69,3.65-11.52,2.88l-3.84-190.03h21.12Z"/>
  <path class="cls-2" d="M590.28,208.26c.51.13.96.3,1.15.62,2.83,4.76,5.27,8.45,10.3,2.19,0-1.57.32-2.34,1.99-2.82,2.97-.85,5.3-2.41,6.99-4.68l2.6-.11c-.35,6.69.68,9.99-3.82,15.86-1.05,1.37-3.74,2.3-3.91,3.05-.45,1.94,1.14,6.29,1.02,9.36-1.15,29.94-38.89,32.67-41.32,4.88-.26-2.99-.87-12.27,4.17-10.97,4.29,1.93,1.4,4.79,1.69,7.91,1.82,19.9,21.46,19.92,23.85,1.03,1.83-14.44-6.94-8.82-11.97-18.58-3.61-7-1.49-7.59-.42-13.49l1.28-.42c2.12,1.99,4.26,4.05,6.4,6.18Z"/>
  <path class="cls-18" d="M598.92,187.15l1.17,2.52c-2.04,4.88-3.63,9.88-4.78,15.01l-2.14,1.66c.75,2.46-.8,3.13-2.88,1.92-4.59.39-5.44-2.79-7.68-5.76.95-5.25-.83-8.25,4.8-12.48,3.48-2.62,7.3-3,11.52-2.88Z"/>
  <path class="cls-18" d="M609.48,190.03c6.19,4.3,4.12,7.96,3.84,13.44-3.23,3.67-4.35,6.68-9.6,4.8-1.27,2.48-6.53-.05-7.68-1.92-1.37-1.29-.45-2.44,2.76-3.44l3.64-14.09,2.24-.7c1.05.28,4.06,1.41,4.8,1.92Z"/>
  <path class="cls-23" d="M604.68,188.11c-1.23,3.27-3.2,14.65-4.69,16.71-.84,1.17-3.18.05-3.95,1.53-.95,2.51-2.05,2.53-2.88,0,.59-6.58,3.71-12.96,5.76-19.19,2.18.06,3.7.41,5.76.96Z"/>
  <g>
    <path class="cls-13" d="M285.06,206.34l-2.26.05c-3.05-4.14-7.24-7.35-11.84-9.6-2.05,16.56-27.49,30.51-42.61,27.37-19.2-11.33-26.2,15.2-6.63,18.5,3.97,4.86,7.82,27.94,5.26,33.71-.43.97-1.48,1.51-2.38,1.95-4.19-1.62-28.44,7.18-33.59,9.6-11.89-23.23-23.61-67.02,1.44-85.41,6.76-4.97,14.99-3.98,18.51-5.97.43-.24,4.51-5.88,6.46-7.44,6.88-5.49,17.51-9.02,26.16-10.32,7.32-1.09,25.26-1.44,31.91,1.16,7.67,2.99,15.38,19.26,9.58,26.41Z"/>
    <g>
      <path class="cls-27" d="M302.34,728.43c1.07,2.67-1.31,9.4-.88,10.91.57,2.02,2.66,1.23,3.76,1.56,1.08,1.33.96,2.92-.37,4.77,1.66-2.39,3.38-3.34,5.16-2.85.87.33,1.68.45,2.88.96.09,1.75-.74,3.7-2.48,5.86,2.02-3.36,4.12-4.68,6.32-3.94,9.07,5.22,16.85,13.37,19.2,23.99l-.7,1.91c-31.38-.63-62.76-1.26-94.15-1.88l-1.13-1.94c.47-13.4.45-26.9.96-40.31,20.47.3,40.97,1.07,61.43.96Z"/>
      <path class="cls-24" d="M335.93,769.7c4.31,19.5-6.36,12.73-19.64,12.44-25.75-.57-51.57-.27-77.31-.92.19-3.68-.24-7.44-.03-11.12.07-1.24.99-2.2,1-2.32l95.98,1.92Z"/>
      <path class="cls-25" d="M316.74,745.71c-2.43.92-3.02,3.91-4.73,5.34-6.57,5.49-3.68-5.41.89-7.26,1.77.76,2.2.98,3.84,1.92Z"/>
      <path class="cls-11" d="M310.02,742.83c-5.21,7.56-10.94,7.61-4.8-1.92,2.41.73,3.14,1.29,4.8,1.92Z"/>
    </g>
    <g>
      <path class="cls-21" d="M224.59,278.32l2.02-.5c9.77,15.3,34.29,11.59,45.71-.35l2.18.86c8.14-2.13,25.11,6.15,32.84,9.87,18.99,9.15,52.58,28.97,63.14,46.75.05,1.06.07,2.11-.06,3.14s-.26,2.01-.67,2.86c-6.55,13.61-14.61,27.09-22.53,39.97-.49.8-1.24,1.46-2.01,2.13s-1.66,1.25-2.56,1.8l-2.55,1.72-27.2-17.08q-.42-1.46,0,0c-.51,26.02,8.21,49.4,9.6,73.9-18.07,10.54-40.35,16.27-61.08,19.06-24.99,3.36-55.11,4.77-78.09-6.58.07-2.87-.96-7.27-.96-9.12v-45.11c0-3.47-1.06-8.43-.96-12.96-.66-.96-.68-1.96,0-2.88-.74-5.7-1.24-11.73-1.35-17.55-.02-.88,1.42,16.65.39,17.55.75.83.8,2.09,0,2.88-.24,1.59-3.37,10.17-4.42,10.45-.94-.24-2.49-.45-3.26-.86-.78.14-1.55.24-2.32.21-3.51-.13-41.76-22-43.69-24.97-.42-.65-.74-1.37-1.02-2.12-1.22-.74-5.99-3.36-6.3-3.83-1.54-2.38,6.28-17.64,8.05-20.8,13.18-23.54,39.12-47.43,63.51-58.86-.28-.77-.42-1.91.15-2.17,4.17-1.88,31.59-12.06,33.1-8.82.2.43.29.9.34,1.4Z"/>
      <path class="cls-30" d="M312.9,369.49l-.96-1.4c-1.03-12.53-4.02-29.97-11.96-39.93-.86-1.08-2.97-1.66-3.19-2.06-1.84-3.32.38-4.44,3.68-3.22,3.51,1.3,8.18,11.65,9.56,15.39,4.61,12.45,3.11,18.55,2.86,31.21Z"/>
      <path class="cls-19" d="M181.4,385.81h-.96c-.15-9.18-4.39-22.63-2.87-31.19.65-3.68,3.42-3.16,3.88.91,1.11,9.91.07,20.71-.05,30.28Z"/>
    </g>
    <g>
      <g>
        <path class="cls-8" d="M322.49,443.39c1.86,32.82-.85,66.56-1,99.29-.19,41.62-.43,83.27-.96,124.76-.26,20.32.27,40.68.04,60.99-6.07.02-12.17-.04-18.24,0-19.87,3.16-41.59,2.44-61.43-.96-3.51-.05-7.05.04-10.56,0l16.32-149.72c3.7-7.72,8.13-17.09,11.37-25.7,7.01-18.63,10.91-36.3,10-56.02.29-5.09.89-9.05,6.42-10.21,30.35-9.03,4.96-3.85-6.5,2.68.85,28.4-5.63,55.78-18.07,81.49l-2.25,1.04c-42.1,64.45-119.04,100.63-194.79,104.56-1.34-4.73-.6-9.61-1.01-14.34-.58-.94-1.12-1.9-1.54-2.91s-.8-1.97-.92-2.98c-1.95-16.42-3.42-32.92-4.84-49.39.11-2.15.63-4.19,1.55-6.14-.15-2.81-.04-5.73.1-8.54,29.35-3.78,58.07-15.66,81.48-33.69l2.22.28c-.87,12.3,9.19,38.87,21.94,19.87-2.42-9.27-8.43-17.19-18.04-23.76l.59-2.15c27.59-23.87,48.01-58.76,48.95-95.97l3.68-.4c41.42,14.76,91.86,6.38,131.15-11.84l4.34-.23Z"/>
        <path class="cls-29" d="M247.63,571.04c1.52-6.91,7.04-16.15,9.62-23.49,4.94-14.1,7.53-28.3,8.61-43.22.3-4.11-.91-13.88.49-16.79,1.14-2.37,23.18-9.98,24.48-8.63-.17,1.02.28,2.48.06,3.28-.29,1.01-17.53,5.32-19.77,7.23-2.28,7.98-.81,16.26-1.53,24.39-1.88,21.37-10.26,42.71-20.21,61.42-.72,1.35-.38,3.03-2.7,2.53,1.56-2.01.54-4.82.96-6.72Z"/>
        <path class="cls-29" d="M212.11,470.27c1.88,8.23-18.86,18.58-24.25,17.12-2.5-.67-4.09-3.71-.17-4.6,6.99-1.6,9.11-1.05,15.29-5.83,1.48-1.14,7.34-8.55,9.14-6.69Z"/>
      </g>
      <g>
        <path class="cls-29" d="M134.37,551.84c6.37,6.85,21.23,16.28,19.19,27.31-.68,3.68-7.48,7.43-10.97,7.21-6.99-.44-12.48-11.14-13.55-17.2-.71-4,.43-8.14-1.39-11.56,1.91-1.48,4.74-4.05,6.72-5.76Z"/>
        <path class="cls-8" d="M132.46,557.61c1.52-1.74,18.93,14.52,17.17,20.48-.41,1.4-4.49,3.56-6.12,3.59-8.72.16-11.6-17.37-11.05-24.06Z"/>
      </g>
    </g>
    <g>
      <path class="cls-27" d="M46.07,599.83c1.04,19.9,4.02,41.29,5.76,61.42-2.4.88-7.72-.95-9.16-.7-1.76.3-1.13,2.58-1.4,3.58-1.06,1.69-3.01,1.45-5.85-.71,2.92,1.7,4.55,3.54,4.89,5.51-.29.92-.62,1.98-.96,2.88-1.75.78-3.82.35-6.21-1.29,2.71,1.47,4.14,3.17,4.29,5.12-4.77,8.85-14.94,18.01-24.95,20.15l-1.91-.68c.31-31.7.63-63.4.94-95.12l1.93-1.14c10.91,0,21.71,1.45,32.63.96Z"/>
      <path class="cls-24" d="M13.44,598.87l-.96,96.93c-4.16.89-8.33.72-12.48,0v-96.93c4.47,0,8.97,0,13.44,0Z"/>
      <path class="cls-5" d="M39.35,671.81c-.47,1.25-1.27,2.64-1.92,3.84-10.48-4.83-8.82-11.77,1.92-3.84Z"/>
      <path class="cls-26" d="M41.27,664.13c-.42,1.57-.55,3.46-.96,4.8-2.03-1.25-7.52-3.15-6.71-6.23.95-3.62,5.98,1.56,7.67,1.43Z"/>
    </g>
    <g>
      <g>
        <path class="cls-35" d="M172.77,398.29l-20.59,44.03c-.98,5.66,4.34,15.84,4.16,20.79-.07,2.06-2.69,4.98-3.73,7.16-2.16.89-3.51-1.26-4.05-6.46.67,4.11,1.06,8.18,1.18,12.22-3.41,7-2.6,12.36-11.53,15.81-4.94,1.91-14.18.89-16.3-4.3-2.37-.46-3.36-2.87-2.97-7.22,2.11-14.34-2.24,1.59.45,6.5l-1.32,1.68c-10.77.94-24.68-8.21-31.2-16.31-5.14-6.38-2.77-10.53-.74-18.04,3.36-12.44,5.35-15.52,16.9-21.57l22.73-61.17c14.44,8.79,32.28,19.03,47.03,26.87Z"/>
        <path class="cls-36" d="M121.9,487.54c-1.36-.39-2.97.88-3.84.96-1.88-2.98-2.66-15.47,1.45-16.31,3.8-.78,1.26,6.26,1.33,8.15.07,1.75.45,5.73,1.05,7.2Z"/>
        <path class="cls-1" d="M149.73,476.02c-1.69-2.39-5.33-13.64-1.46-14.16,3.66-.49,2.11,6.43,4.34,8.4-.92,1.93-1.94,3.83-2.88,5.76Z"/>
      </g>
      <g>
        <path class="cls-35" d="M285.06,206.34c.93,1.54,2.18,5.71,2.88,7.68-1.73.8-4.06.28-7.01-1.55,3.9,2.05,6.87,4.8,8.93,8.27,2.32,13.37-1.18,33.2-14.4,40.31-2.43,6.44-13.9,4.85-19.74,3.13,5.17,3.19,11.41,4.03,17.39,3.7l1.39,1.81c-.34,2.53-1.46,7.09,0,8.64-.84.22-7.63,6.41-10.85,7.86-11.11,5-26.13,5.33-35.69-3.07-1.08-.95-3.1-4.69-3.37-4.79,2.92-11.91-.03-23.21-4-34.38-12.19-.33-17.19-16.72-6.89-23.05,7.8-4.8,10.79,2.18,19.09,1.81,14.08-.63,37.29-12.14,35.97-28.83,5.87,1.81,13.15,7.24,16.31,12.48Z"/>
        <g>
          <path class="cls-22" d="M275.46,261.05c.74,3.13-.6,5.98-.96,8.64-9.31.96-22.67-1.57-25.91-11.52,7.69,5.79,18.07,7.61,26.87,2.88Z"/>
          <path class="cls-20" d="M287.94,214.02c1.04,2.9,1.35,3.46,1.92,6.72-1.63-.84-10.34-6.69-10.57-7.38-2.19-6.69,6.24-1.07,8.65.67Z"/>
          <path class="cls-17" d="M258.68,242.81c3.01-.76,5.83,7.22,14.92,4.37,1.57-.49,7.62-7.54,8.59-2.91.89,4.31-9.23,7.85-12.81,7.78-5.55-.11-16.75-7.7-10.7-9.23Z"/>
          <path class="cls-33" d="M279.25,220.79c3.22,2.16,3.89,21.87-5.97,18.98-3.23-.95-6.5-7.81-1.33-6.4,1.76.48,2.33,3.74,3.99,1.77,4.08-4.85-.86-10.83-.43-12.89.26-1.24,2.84-2.06,3.75-1.45Z"/>
          <path class="cls-16" d="M221.72,230.33c.93,9.39-6.71,9.22-3.86,0-8.41,2.14-5.51-5.86,3.12-4.59,9.64,1.42,10.09,11.5.73,4.59Z"/>
          <path class="cls-31" d="M264.63,212.28c1.33-.33,3.56.27,3.15,2.2-.26,1.22-10.17,8.63-11.97,8.17-5.2-1.3,7.23-9.98,8.82-10.38Z"/>
          <path class="cls-7" d="M261.3,222.89c2.25-2.21,5.2.62,4.56,3.11-.87,3.41-7.84.11-4.56-3.11Z"/>
          <path class="cls-20" d="M286.98,224.57c-6.34,1.59-5.81-6.11-1.45-4.78,1.6.49,1.61,3.37,1.45,4.78Z"/>
        </g>
      </g>
      <g>
        <path class="cls-35" d="M370.49,334.94c3.06,5.15,15.86,2.64,21.12,1.45,10.55-2.4,51.83-23.29,56.09-32.21,1.24-2.6,1.37-7.41,2.67-10.77,1.4-3.61,3.79-5.47,5.07-8.36,2.13-4.8,3.45-23.55,11.35-22.85,1.69.15,5.43,3.72,5.43,5.08v15.84c5.52-5.08,14.8-21.52,23.29-20,5.64,1.01,4.71,5.52,2.63,9.44.68.96-.81,2.32-1.92,2.88-.51,1.1-1.47,2.06-2.88,2.88.59.29.57.61,0,.96q-.29.37,0,0l.96-.96c.19-1.3,1.65-2.3,2.88-2.88-.1-.95.88-2.24,1.92-1.92,3.87-3.35,6.71-7.26,12.53-5.34,4.33,1.43,4.33,6.45,2.82,10.13-2.08,1.7-1.76,2.02.96.96,9.97,7.27-10.38,20.22-16.32,24.95-.28.93-.91,1.73-1.92,1.92-1.2.85-.88.85.96,0-.25-.6.3-.84.96-.96,4.03-.58,16.79-6.63,16.33,1.36-.42,7.33-19.41,11.94-25.33,15.08-8.69,4.61-10.29,9.83-16.42,16.21-15.3,15.94-30.89,30-50.38,40.8-22.76,12.6-58.44,25.89-80.64,6.22,9.71-16.39,19.85-32.6,27.83-49.91Z"/>
        <g>
          <path class="cls-9" d="M515.42,279.28l-26.87,23.99c.85-3.22,4.73-6.35,7.16-8.66,5.95-5.65,12.55-10.9,18.74-16.29.36.26.61.71.96.96Z"/>
          <path class="cls-14" d="M499.1,273.52c-.52.45-1.26,1.3-1.92,1.92h-.96c.34-.5,1.83-2.71,1.92-2.88l.96.96Z"/>
          <path class="cls-10" d="M499.1,305.19c-.21.44-.57.7-.96.96h-.96c.34-.25,1.1-1.26,1.92-1.92v.96Z"/>
          <path class="cls-6" d="M485.66,288.88c-.78,1.48-1.26,2.49-2.37,3.85s-3.55,4.09-5.31,4.3c.96-3.8,4.67-6.83,7.69-9.11.54.29.53.61,0,.96Z"/>
          <path class="cls-34" d="M497.18,275.44c-1.03.98-1.28,1.72-2.88,2.88-.28.59-.61.58-.96,0,.02-1.51,2.42-2.2,2.88-2.88h.96Z"/>
          <path class="cls-4" d="M497.18,306.15h.96c-.84.56-1.11,1.51-2.87.95v-.94c.58-.13,1.65.18,1.92,0Z"/>
          <path class="cls-15" d="M485.66,288.88v-.96c.05-.04-.11-1.12.96-.96.51,1.8-.81,1.63-.96,1.92Z"/>
          <path class="cls-28" d="M486.62,286.96c-.45-.45.89-1.53.96-.48.02.33-.74.7-.96.48Z"/>
          <path class="cls-32" d="M493.34,279.28c.45.45-.89,1.53-.96.48-.02-.33.74-.7.96-.48Z"/>
          <path class="cls-12" d="M493.34,279.28v-.96h.96c-.06.04.11,1.13-.96.96Z"/>
        </g>
      </g>
    </g>
  </g>
</svg>