<svg width="446" height="885" viewBox="0 0 446 885" fill="none" xmlns="http://www.w3.org/2000/svg">
<g clip-path="url(#clip0_111_621)">
<g filter="url(#filter0_i_111_621)">
<path fill-rule="evenodd" clip-rule="evenodd" d="M66.9761 0C29.9863 0 0 30.007 0 67.0224V817.978C0 854.994 29.9863 885 66.9761 885H374.457C411.448 885 441.433 854.994 441.433 817.978V280.275H442.956C444.638 280.275 446 278.912 446 277.229V230.009C446 228.325 444.638 226.962 442.956 226.962H441.433V211.73H442.956C444.638 211.73 446 210.366 446 208.683V161.463C446 159.78 444.638 158.417 442.956 158.417H441.433V67.0224C441.433 30.007 411.448 0 374.457 0H66.9761Z" fill="#EEEEEE"/>
</g>
<g filter="url(#filter1_i_111_621)">
<path fill-rule="evenodd" clip-rule="evenodd" d="M140.041 36.5576C144.244 36.5576 147.652 33.1476 147.652 28.9414C147.652 24.7351 144.244 21.3252 140.041 21.3252C135.838 21.3252 132.43 24.7351 132.43 28.9414C132.43 33.1476 135.838 36.5576 140.041 36.5576ZM162.874 21.3252C158.671 21.3252 155.263 24.7351 155.263 28.9414C155.263 33.1476 158.671 36.5576 162.874 36.5576H299.87C304.073 36.5576 307.481 33.1476 307.481 28.9414C307.481 24.7351 304.073 21.3252 299.87 21.3252H162.874Z" fill="black" fill-opacity="0.02"/>
</g>
<g opacity="0.8">
<mask id="mask0_111_621" style="mask-type:alpha" maskUnits="userSpaceOnUse" x="25" y="30" width="391" height="834">
<g opacity="0.8">
<path opacity="0.8" d="M415.556 30.4648H25.8771V863.675H415.556V30.4648Z" fill="white"/>
<path opacity="0.8" fill-rule="evenodd" clip-rule="evenodd" d="M113.941 31.9883H71.5427C47.1629 31.9883 27.3994 51.7657 27.3994 76.1621V817.978C27.3994 842.374 47.1629 862.152 71.5427 862.152H369.891C394.27 862.152 414.034 842.374 414.034 817.978V76.1621C414.034 51.7655 394.27 31.9883 369.891 31.9883H327.492C324.358 40.8627 315.9 47.2206 305.959 47.2206H135.474C125.533 47.2206 117.075 40.8627 113.941 31.9883Z" fill="black"/>
</g>
</mask>
<g mask="url(#mask0_111_621)">
<path opacity="0.8" d="M113.941 31.9881L115.376 31.4805L115.017 30.4648H113.941V31.9881ZM327.492 31.9881V30.4648H326.416L326.058 31.4805L327.492 31.9881ZM71.5427 33.5113H113.941V30.4648H71.5427V33.5113ZM28.9215 76.1619C28.9215 52.6066 48.0036 33.5113 71.5427 33.5113V30.4648C46.3224 30.4648 25.8771 50.9242 25.8771 76.1619H28.9215ZM28.9215 817.978V76.1619H25.8771V817.978H28.9215ZM71.5427 860.628C48.0036 860.628 28.9215 841.533 28.9215 817.978H25.8771C25.8771 843.216 46.3224 863.675 71.5427 863.675V860.628ZM369.891 860.628H71.5427V863.675H369.891V860.628ZM412.512 817.978C412.512 841.533 393.43 860.628 369.891 860.628V863.675C395.112 863.675 415.556 843.216 415.556 817.978H412.512ZM412.512 76.1619V817.978H415.556V76.1619H412.512ZM369.891 33.5113C393.43 33.5113 412.512 52.6066 412.512 76.1619H415.556C415.556 50.9242 395.112 30.4648 369.891 30.4648V33.5113ZM327.492 33.5113H369.891V30.4648H327.492V33.5113ZM326.058 31.4805C323.131 39.7653 315.235 45.6972 305.959 45.6972V48.7437C316.566 48.7437 325.585 41.9596 328.927 32.4956L326.058 31.4805ZM305.959 45.6972H135.474V48.7437H305.959V45.6972ZM135.474 45.6972C126.198 45.6972 118.302 39.7653 115.376 31.4805L112.506 32.4956C115.848 41.9596 124.868 48.7437 135.474 48.7437V45.6972Z" fill="#C7C7C7"/>
<g opacity="0.2">
<path opacity="0.2" d="M27.3993 89.8711H0V91.3943H27.3993V89.8711Z" fill="black"/>
<path opacity="0.2" d="M27.3993 814.931H0V816.454H27.3993V814.931Z" fill="black"/>
<path opacity="0.2" d="M441.434 89.8711H414.034V91.3943H441.434V89.8711Z" fill="black"/>
<path opacity="0.2" d="M441.434 814.931H414.034V816.454H441.434V814.931Z" fill="black"/>
</g>
</g>
</g>
<mask id="mask1_111_621" style="mask-type:alpha" maskUnits="userSpaceOnUse" x="27" y="31" width="388" height="832">
<path fill-rule="evenodd" clip-rule="evenodd" d="M113.941 31.9878H71.5427C47.1629 31.9878 27.3994 51.7652 27.3994 76.1616L27.3994 817.978C27.3994 842.374 47.1629 862.151 71.5427 862.151H369.891C394.27 862.151 414.034 842.374 414.034 817.978L414.034 76.1616C414.034 51.765 394.27 31.9878 369.891 31.9878H327.492C324.358 40.8622 315.9 47.2202 305.959 47.2202L135.474 47.2202C125.533 47.2202 117.075 40.8622 113.941 31.9878Z" fill="#118BD6"/>
<path fill-rule="evenodd" clip-rule="evenodd" d="M113.941 31.9878H71.5427C47.1629 31.9878 27.3994 51.7652 27.3994 76.1616L27.3994 817.978C27.3994 842.374 47.1629 862.151 71.5427 862.151H369.891C394.27 862.151 414.034 842.374 414.034 817.978L414.034 76.1616C414.034 51.765 394.27 31.9878 369.891 31.9878H327.492C324.358 40.8622 315.9 47.2202 305.959 47.2202L135.474 47.2202C125.533 47.2202 117.075 40.8622 113.941 31.9878Z" fill="url(#paint0_linear_111_621)" fill-opacity="0.07"/>
</mask>
<g mask="url(#mask1_111_621)">
<rect y="37" width="432" height="794" fill="#CADAF2"/>
<line x1="101.647" y1="347.646" x2="307.647" y2="142.646" stroke="black" stroke-dasharray="5 5"/>
<line x1="101.647" y1="758.646" x2="307.647" y2="553.646" stroke="black" stroke-dasharray="5 5"/>
<line x1="103.354" y1="347.647" x2="308.354" y2="553.647" stroke="black" stroke-dasharray="5 5"/>
<line x1="102.354" y1="-63.3536" x2="307.854" y2="142.147" stroke="black" stroke-dasharray="5 5"/>
<ellipse cx="108" cy="348" rx="63" ry="63" transform="rotate(90 108 348)" fill="#AAC7F4"/>
<ellipse cx="102" cy="758" rx="63" ry="63" transform="rotate(90 102 758)" fill="#AAC7F4"/>
<ellipse cx="308" cy="143" rx="63" ry="63" transform="rotate(90 308 143)" fill="#AAC7F4"/>
<ellipse cx="308" cy="554" rx="63" ry="63" transform="rotate(90 308 554)" fill="#AAC7F4"/>
<path d="M301.364 563.455V562.364C301.364 559.864 301.561 557.871 301.955 556.386C302.348 554.902 302.932 553.712 303.705 552.818C304.477 551.909 305.424 551.091 306.545 550.364C307.515 549.727 308.379 549.114 309.136 548.523C309.909 547.932 310.515 547.303 310.955 546.636C311.409 545.97 311.636 545.212 311.636 544.364C311.636 543.606 311.455 542.939 311.091 542.364C310.727 541.788 310.235 541.341 309.614 541.023C308.992 540.705 308.303 540.545 307.545 540.545C306.727 540.545 305.97 540.735 305.273 541.114C304.591 541.492 304.038 542.015 303.614 542.682C303.205 543.348 303 544.121 303 545H291.364C291.394 541.667 292.152 538.962 293.636 536.886C295.121 534.795 297.091 533.265 299.545 532.295C302 531.311 304.697 530.818 307.636 530.818C310.879 530.818 313.773 531.295 316.318 532.25C318.864 533.189 320.871 534.614 322.341 536.523C323.811 538.417 324.545 540.788 324.545 543.636C324.545 545.47 324.227 547.083 323.591 548.477C322.97 549.856 322.098 551.076 320.977 552.136C319.871 553.182 318.576 554.136 317.091 555C316 555.636 315.083 556.295 314.341 556.977C313.598 557.644 313.038 558.409 312.659 559.273C312.28 560.121 312.091 561.152 312.091 562.364V563.455H301.364ZM306.909 578.727C305.152 578.727 303.644 578.114 302.386 576.886C301.144 575.644 300.53 574.136 300.545 572.364C300.53 570.636 301.144 569.159 302.386 567.932C303.644 566.705 305.152 566.091 306.909 566.091C308.576 566.091 310.045 566.705 311.318 567.932C312.606 569.159 313.258 570.636 313.273 572.364C313.258 573.545 312.947 574.621 312.341 575.591C311.75 576.545 310.977 577.311 310.023 577.886C309.068 578.447 308.03 578.727 306.909 578.727Z" fill="black"/>
<g filter="url(#filter2_d_111_621)">
<rect x="329" y="716" width="63" height="63" rx="10" fill="#324893" shape-rendering="crispEdges"/>
<path d="M345.478 756.308C344.54 756.308 343.711 756.11 342.992 755.714C342.288 755.318 341.731 754.761 341.32 754.042C340.924 753.323 340.712 752.495 340.682 751.556L343.542 751.248C343.572 752.025 343.748 752.641 344.07 753.096C344.408 753.536 344.848 753.756 345.39 753.756C345.904 753.756 346.3 753.558 346.578 753.162C346.857 752.766 346.996 752.201 346.996 751.468C346.996 750.559 346.747 749.891 346.248 749.466C345.75 749.041 344.972 748.828 343.916 748.828V746.452C345.823 746.452 346.776 745.579 346.776 743.834C346.776 743.159 346.652 742.646 346.402 742.294C346.153 741.927 345.801 741.744 345.346 741.744C344.364 741.744 343.814 742.617 343.696 744.362L340.836 743.724C340.939 742.331 341.408 741.231 342.244 740.424C343.095 739.603 344.188 739.192 345.522 739.192C346.872 739.192 347.942 739.588 348.734 740.38C349.541 741.157 349.944 742.199 349.944 743.504C349.944 744.443 349.732 745.279 349.306 746.012C348.896 746.731 348.324 747.259 347.59 747.596C348.426 747.919 349.064 748.432 349.504 749.136C349.944 749.825 350.164 750.647 350.164 751.6C350.164 752.524 349.966 753.345 349.57 754.064C349.174 754.768 348.624 755.318 347.92 755.714C347.231 756.11 346.417 756.308 345.478 756.308ZM356.792 756.308C355.531 756.308 354.533 755.956 353.8 755.252C353.081 754.533 352.568 753.551 352.26 752.304C351.952 751.043 351.798 749.605 351.798 747.992C351.798 746.247 351.967 744.714 352.304 743.394C352.656 742.074 353.221 741.047 353.998 740.314C354.775 739.566 355.809 739.192 357.1 739.192C358.42 739.192 359.432 739.588 360.136 740.38C360.84 741.157 361.287 742.257 361.478 743.68L358.574 744.318C358.515 743.614 358.361 743.013 358.112 742.514C357.877 742.001 357.489 741.744 356.946 741.744C356.418 741.744 356 741.993 355.692 742.492C355.384 742.991 355.164 743.658 355.032 744.494C354.915 745.315 354.856 746.21 354.856 747.178C355.179 746.65 355.575 746.254 356.044 745.99C356.513 745.711 357.078 745.572 357.738 745.572C358.97 745.572 359.945 746.019 360.664 746.914C361.397 747.809 361.764 749.019 361.764 750.544C361.764 751.615 361.573 752.59 361.192 753.47C360.811 754.335 360.246 755.025 359.498 755.538C358.765 756.051 357.863 756.308 356.792 756.308ZM356.748 753.756C357.393 753.756 357.855 753.477 358.134 752.92C358.427 752.348 358.574 751.644 358.574 750.808C358.574 749.987 358.435 749.319 358.156 748.806C357.892 748.293 357.452 748.036 356.836 748.036C356.205 748.036 355.736 748.307 355.428 748.85C355.135 749.378 354.988 750.075 354.988 750.94C354.988 751.717 355.12 752.385 355.384 752.942C355.663 753.485 356.117 753.756 356.748 753.756ZM369.141 756.572L367.381 755.89L374.421 738.884L376.159 739.61L369.141 756.572ZM366.897 748.542C365.782 748.542 364.946 748.124 364.389 747.288C363.831 746.452 363.553 745.301 363.553 743.834C363.553 742.411 363.831 741.282 364.389 740.446C364.946 739.595 365.782 739.17 366.897 739.17C368.07 739.17 368.935 739.595 369.493 740.446C370.05 741.282 370.329 742.411 370.329 743.834C370.329 745.301 370.05 746.452 369.493 747.288C368.935 748.124 368.07 748.542 366.897 748.542ZM366.941 746.716C367.381 746.716 367.681 746.43 367.843 745.858C368.004 745.286 368.085 744.619 368.085 743.856C368.085 743.064 368.004 742.397 367.843 741.854C367.696 741.297 367.395 741.018 366.941 741.018C366.486 741.018 366.178 741.297 366.017 741.854C365.855 742.397 365.775 743.057 365.775 743.834C365.775 744.611 365.855 745.286 366.017 745.858C366.178 746.43 366.486 746.716 366.941 746.716ZM376.423 756.286C375.308 756.286 374.472 755.868 373.915 755.032C373.357 754.196 373.079 753.045 373.079 751.578C373.079 750.155 373.357 749.026 373.915 748.19C374.472 747.339 375.308 746.914 376.423 746.914C377.596 746.914 378.461 747.339 379.019 748.19C379.576 749.026 379.855 750.155 379.855 751.578C379.855 753.045 379.576 754.196 379.019 755.032C378.461 755.868 377.596 756.286 376.423 756.286ZM376.467 754.438C376.907 754.438 377.207 754.159 377.369 753.602C377.53 753.03 377.611 752.363 377.611 751.6C377.611 750.808 377.53 750.141 377.369 749.598C377.222 749.041 376.921 748.762 376.467 748.762C376.012 748.762 375.704 749.041 375.543 749.598C375.381 750.141 375.301 750.801 375.301 751.578C375.301 752.355 375.381 753.03 375.543 753.602C375.704 754.159 376.012 754.438 376.467 754.438Z" fill="white"/>
</g>
<path d="M415 115H25V24H415V115Z" fill="#171426"/>
<path fill-rule="evenodd" clip-rule="evenodd" d="M188.665 77.1129C188.798 77.1232 188.967 77.1864 189.172 77.3496C189.52 77.6264 189.613 78.0465 189.531 78.6413C189.448 79.2461 189.196 79.9314 188.953 80.6405L188.888 80.8252C188.748 81.2139 188.681 81.3224 188.625 81.4066C188.588 81.4614 188.534 81.5355 188.472 81.6463C188.41 81.7581 188.339 81.9065 188.247 82.1346C188.183 82.2942 188.253 82.4794 188.403 82.5479C188.437 82.5632 188.472 82.5711 188.507 82.5726C188.552 83.1968 188.597 83.8292 188.642 84.4615L189.353 94.4822C189.379 94.8416 189.139 95.1543 188.805 95.2093L188.738 95.2169L184.667 95.4502L184.875 98.8648C184.9 99.281 184.603 99.6402 184.21 99.6671L183.812 99.6943C183.812 99.7459 183.814 99.7974 183.813 99.8491C183.811 100.416 183.739 101.017 183.449 101.628L183.388 101.751C182.497 103.452 181.192 104.433 179.334 104.702L179.152 104.726C178.039 104.857 176.912 104.981 175.764 104.981C175.121 104.981 174.447 104.828 173.813 104.649C173.495 104.559 173.177 104.459 172.875 104.365C172.571 104.271 172.281 104.182 172.007 104.11C171.108 103.871 170.355 103.412 169.667 102.928C169.428 102.76 169.201 102.592 168.979 102.429C168.973 102.556 168.969 102.664 168.969 102.764C168.969 105.145 166.682 106.724 164.638 106.192L164.541 106.165C163.942 105.988 163.147 105.801 162.531 105.434C162.21 105.243 161.909 104.989 161.689 104.635C161.467 104.276 161.347 103.846 161.347 103.34C161.347 103.027 161.331 102.698 161.393 102.414C161.466 102.077 161.635 101.814 161.903 101.529C161.99 101.437 162.09 101.315 162.212 101.167C162.329 101.023 162.463 100.859 162.604 100.703C162.869 100.41 163.241 100.051 163.685 99.9465L163.759 99.9305C164.128 99.8578 164.489 99.8909 164.798 99.9349C165.157 99.9863 165.412 100.044 165.679 100.054L165.827 100.061C166.135 100.077 166.454 100.106 166.775 100.165C166.72 100.114 166.666 100.064 166.615 100.017C166.301 99.7284 166.04 99.5059 165.75 99.3841L165.691 99.3609C163.965 98.7266 162.15 98.9109 160.18 98.9109C157.913 98.9109 156.181 99.8118 154.227 101.057L153.833 101.31C153.498 101.528 153.182 101.757 152.865 101.992C152.55 102.225 152.229 102.467 151.9 102.694C151.279 103.124 150.605 103.52 149.783 103.777L149.617 103.826C148.704 104.084 147.639 104.349 146.635 104.349C146.194 104.349 145.734 104.398 145.182 104.422C144.665 104.444 144.1 104.441 143.594 104.306C143.267 104.22 142.986 104.003 142.755 103.774C142.519 103.54 142.299 103.255 142.102 102.976C141.904 102.696 141.714 102.4 141.549 102.152C141.399 101.925 141.274 101.743 141.168 101.613L141.123 101.561C140.807 101.199 140.589 100.631 140.431 100.136C140.312 99.7637 140.203 99.3494 140.116 99.0291L140.038 98.7452C139.846 98.0856 139.659 97.3385 139.659 96.5735C139.659 96.2616 139.587 95.9487 139.496 95.5737C139.41 95.2217 139.302 94.7965 139.302 94.3602C139.302 94.0821 139.514 93.8566 139.776 93.8566C140.038 93.8566 140.25 94.0821 140.25 94.3602C140.25 94.6444 140.321 94.9401 140.414 95.3216C140.501 95.6799 140.608 96.1137 140.608 96.5735C140.608 97.1781 140.757 97.8032 140.945 98.4491L141.032 98.7636C141.12 99.0884 141.211 99.4421 141.329 99.8125C141.487 100.308 141.654 100.687 141.819 100.875L141.881 100.949C142.027 101.128 142.179 101.352 142.326 101.573C142.5 101.837 142.675 102.109 142.86 102.371C143.046 102.633 143.227 102.864 143.403 103.039C143.584 103.218 143.724 103.303 143.824 103.329C144.191 103.427 144.641 103.437 145.144 103.416C145.613 103.395 146.179 103.342 146.635 103.342C147.504 103.342 148.464 103.11 149.372 102.853L149.514 102.811C150.215 102.592 150.802 102.252 151.383 101.85C151.695 101.635 151.998 101.406 152.322 101.167C152.642 100.93 152.978 100.685 153.338 100.451L153.737 100.194C155.725 98.9267 157.647 97.9037 160.18 97.9037C162.022 97.9037 164.078 97.7027 166.002 98.4093L166.096 98.4463C166.561 98.6411 166.932 98.9757 167.236 99.2565C167.586 99.5787 167.849 99.8285 168.151 99.9709L168.208 99.9994C168.689 100.256 168.873 100.751 168.945 101.185C169.38 101.491 169.797 101.811 170.191 102.088C170.848 102.55 171.494 102.935 172.237 103.133C172.532 103.211 172.838 103.305 173.142 103.399C173.448 103.494 173.753 103.59 174.058 103.676C174.672 103.85 175.249 103.975 175.764 103.975C176.853 103.975 177.932 103.856 179.048 103.725L179.201 103.705C180.763 103.48 181.811 102.688 182.558 101.261L182.601 101.176C182.803 100.752 182.863 100.32 182.865 99.8453C182.865 99.8166 182.864 99.788 182.864 99.7593L182.553 99.7807C182.161 99.8075 181.823 99.4918 181.797 99.0755L181.588 95.6269L177.473 95.8633C177.12 95.8834 176.812 95.5932 176.788 95.2143L176.712 94.0264C176.393 88.9349 176.25 85.2565 176.188 82.5146C176.92 82.4678 177.658 82.4207 178.397 82.3732C180.398 82.2451 182.406 82.1158 184.302 81.9943C184.293 82.1042 184.295 82.2139 184.315 82.3202L184.337 82.4235C184.36 82.5203 184.386 82.5989 184.408 82.6588C184.423 82.6984 184.437 82.7298 184.448 82.753C184.453 82.7646 184.458 82.7744 184.462 82.782C184.464 82.7856 184.465 82.7891 184.467 82.7917L184.47 82.7967L184.47 82.7974L184.47 82.7982C184.555 82.9471 184.737 82.9954 184.877 82.9061C185.016 82.8175 185.062 82.6269 184.981 82.4785C184.981 82.4778 184.98 82.4756 184.978 82.4719C184.974 82.4636 184.967 82.448 184.958 82.4249C184.945 82.3903 184.928 82.339 184.912 82.2708L184.897 82.1968C184.881 82.1118 184.89 81.9812 184.942 81.8115C184.993 81.6457 185.079 81.4635 185.192 81.2869C185.41 80.947 185.695 80.6749 185.953 80.5634L186.004 80.5432C186.377 80.4115 186.754 80.235 187.069 79.9008C187.387 79.5634 187.616 79.0926 187.743 78.4183C187.856 77.8207 188.071 77.4098 188.309 77.2262C188.42 77.1402 188.537 77.103 188.665 77.1129ZM164.671 100.933C164.405 100.895 164.18 100.88 163.976 100.912L163.891 100.929C163.75 100.963 163.55 101.112 163.288 101.401C163.167 101.535 163.049 101.679 162.928 101.826C162.813 101.968 162.69 102.118 162.574 102.242C162.376 102.452 162.336 102.554 162.317 102.64C162.287 102.778 162.296 102.929 162.296 103.34C162.296 103.669 162.371 103.903 162.482 104.081C162.595 104.263 162.765 104.418 162.995 104.556C163.481 104.846 164.11 104.992 164.795 105.195L164.868 105.215C166.395 105.612 168.02 104.401 168.02 102.764C168.02 102.583 168.034 102.344 168.041 102.143C168.046 102.015 168.047 101.888 168.044 101.766C167.963 101.713 167.881 101.66 167.797 101.609L167.668 101.531C167.12 101.208 166.483 101.103 165.784 101.067L165.644 101.06C165.317 101.048 164.945 100.972 164.671 100.933Z" fill="white"/>
<path d="M182.229 70.2372C182.821 70.1947 183.184 70.4414 183.414 70.7577C183.655 71.0898 183.758 71.5145 183.776 71.8035C183.776 71.8052 183.777 71.8072 183.777 71.8089C183.777 71.8104 183.777 71.8121 183.777 71.8136L183.777 71.8133C183.791 72.1896 183.841 72.8909 183.89 73.612C183.94 74.3442 183.988 75.1 183.997 75.594C184.006 76.0082 183.844 76.4044 183.555 76.6649C183.289 76.9045 182.895 77.0473 182.377 76.9558L182.272 76.9344C181.791 76.8234 181.547 76.5507 181.411 76.2593C181.269 75.9555 181.238 75.6165 181.229 75.3757C181.231 75.3147 181.229 75.2528 181.223 75.1906L181.073 72.2001C181.068 72.0619 181.062 71.8962 181.047 71.7207C181.058 71.3833 181.133 71.0246 181.309 70.7488C181.468 70.5006 181.72 70.2982 182.142 70.2458L182.229 70.2372Z" fill="white"/>
<path d="M179.219 70.362C179.74 70.3182 180.005 70.4996 180.164 70.7321C180.34 70.9891 180.418 71.3562 180.453 71.739C180.449 71.9227 180.46 72.0953 180.481 72.2445L180.631 75.2279C180.632 75.2468 180.632 75.2692 180.632 75.2972C180.633 75.3195 180.634 75.3447 180.635 75.3717C180.621 75.5891 180.499 75.7817 180.268 75.9064C180.045 76.027 179.724 76.0788 179.344 75.9944L179.268 75.976C178.852 75.8656 178.594 75.5613 178.432 75.2043C178.288 74.8871 178.231 74.5485 178.215 74.3318L178.211 74.2467L178.21 74.2263L178 71.8652C178.001 71.6046 178.041 71.248 178.207 70.9514C178.353 70.6877 178.613 70.4428 179.115 70.3736L179.219 70.362Z" fill="white"/>
<path d="M185.465 70.1103C186.145 70.0381 186.581 70.4865 186.769 70.8188L186.785 70.852C186.799 70.8886 186.81 70.9364 186.815 70.9985L187.021 73.4258C187.048 74.1974 186.886 74.7234 186.654 75.0757C186.422 75.4287 186.104 75.6333 185.776 75.7311C185.443 75.8301 185.111 75.8161 184.872 75.7419C184.752 75.7046 184.67 75.6568 184.624 75.6153C184.601 75.5939 184.592 75.5797 184.59 75.574C184.579 75.061 184.53 74.2918 184.481 73.5666C184.431 72.8313 184.382 72.1434 184.369 71.7825L184.368 71.7761C184.368 71.7725 184.368 71.7687 184.368 71.7651L184.361 71.5866C184.354 71.1813 184.408 70.8552 184.543 70.6179C184.676 70.3841 184.912 70.1913 185.371 70.1226L185.465 70.1103Z" fill="white"/>
<path d="M176.229 70.8636C176.739 70.7852 176.992 70.9402 177.137 71.1215C177.301 71.3268 177.376 71.6263 177.41 71.9137L177.616 74.2345C177.569 74.443 177.488 74.6896 177.339 74.8624C177.262 74.9502 177.17 75.018 177.051 75.0546C176.947 75.087 176.808 75.0994 176.625 75.065L176.543 75.0473C176.094 74.9367 175.791 74.5713 175.588 74.0666C175.384 73.561 175.302 72.9641 175.275 72.5003C175.249 72.0528 175.307 71.6665 175.455 71.3863C175.587 71.1384 175.801 70.9501 176.156 70.8769L176.229 70.8636Z" fill="white"/>
<path d="M195.863 71.2297C196.356 71.2233 196.693 71.3462 196.919 71.512C197.161 71.6887 197.302 71.9324 197.37 72.1853C197.44 72.4428 197.431 72.718 197.382 72.8995C197.357 72.9907 197.327 73.0479 197.305 73.0755C197.304 73.0768 197.303 73.0779 197.302 73.079C196.929 73.0908 196.383 73.1331 195.87 73.1751C195.337 73.2188 194.88 73.2732 194.566 73.3196C194.404 73.3436 194.292 73.4286 194.299 73.6021C194.306 73.7757 194.446 73.8796 194.61 73.872C194.883 73.8592 195.347 73.832 195.87 73.7891C196.4 73.7457 196.991 73.7171 197.346 73.7071C197.626 73.6993 197.894 73.8024 198.069 74.0194C198.229 74.2173 198.33 74.5162 198.269 74.9194L198.254 75.0015C198.181 75.3702 197.999 75.4976 197.806 75.6007C197.598 75.7116 197.385 75.7358 197.19 75.7451C196.994 75.7543 194.901 75.9433 194.901 75.9433C194.738 75.9535 194.609 76.0444 194.618 76.2178C194.627 76.3803 194.751 76.4428 194.901 76.4496C194.901 76.4496 196.857 76.3675 196.986 76.376C197.248 76.3932 197.444 76.5186 197.526 76.6871C197.605 76.851 197.644 77.0958 197.587 77.3917L197.574 77.4517C197.502 77.7631 197.302 77.9601 197.056 78.0874C196.806 78.2174 196.533 78.2595 196.392 78.2647L196.373 78.2659L194.653 78.4481C194.49 78.4654 194.368 78.5691 194.384 78.7419C194.401 78.9147 194.535 78.9767 194.697 78.9596L196.214 78.8708C196.452 78.8708 196.631 79.0273 196.709 79.1286C196.787 79.2299 196.868 79.4722 196.804 79.773C196.74 80.0738 196.626 80.2549 196.311 80.4077C195.985 80.566 195.567 80.6355 195.138 80.6661C194.915 80.6821 192.669 80.8266 189.447 81.0337L189.51 80.8552C189.741 80.1799 190.023 79.4175 190.118 78.7323C190.214 78.0371 190.129 77.324 189.527 76.8457C189.258 76.6315 188.983 76.506 188.708 76.4847C188.428 76.4632 188.174 76.5517 187.96 76.7173C187.546 77.0372 187.286 77.6335 187.162 78.2944C187.051 78.8787 186.866 79.2263 186.65 79.4553C186.431 79.6875 186.156 79.8257 185.817 79.9458L185.735 79.978C185.326 80.1527 184.957 80.5353 184.702 80.9329C184.616 81.0675 184.539 81.2092 184.476 81.3525C182.519 81.4781 180.437 81.612 178.362 81.7449C175.395 81.935 172.444 82.1239 169.893 82.2872L169.527 82.3106C169.331 82.3231 169.151 82.2006 169.091 82.0133L166.388 73.558C166.303 73.2917 166.491 73.0165 166.77 72.9995C169.287 72.8459 171.982 72.6804 174.681 72.5145C174.681 72.5226 174.682 72.5308 174.682 72.5389C174.711 73.0353 174.8 73.7136 175.042 74.3139C175.284 74.9149 175.703 75.4864 176.409 75.6602L176.521 75.6845C176.78 75.7329 177.011 75.7221 177.216 75.6587C177.452 75.5859 177.635 75.4493 177.775 75.288C177.785 75.2755 177.796 75.2626 177.806 75.2499L177.807 75.2489C177.834 75.3248 177.864 75.4014 177.898 75.4773C178.111 75.9448 178.487 76.4171 179.124 76.5865L179.222 76.6104C179.712 76.7193 180.175 76.6636 180.538 76.4673C180.626 76.4193 180.709 76.3624 180.784 76.2979C180.811 76.3778 180.842 76.4586 180.879 76.5383C181.088 76.9861 181.474 77.3935 182.146 77.5485L182.282 77.5763C182.955 77.6944 183.527 77.5143 183.938 77.1441C184.201 76.9071 184.389 76.5994 184.494 76.2615C184.562 76.2946 184.633 76.3229 184.706 76.3456C185.054 76.4538 185.5 76.4669 185.936 76.3367C186.377 76.2052 186.82 75.9242 187.141 75.4355C187.442 74.9773 187.622 74.359 187.617 73.5582L187.613 73.3956L187.612 73.3794L187.473 71.729C191.863 71.46 195.089 71.2643 195.762 71.2329L195.863 71.2297Z" fill="white"/>
<path d="M142.786 84.0838L142.771 85.138V90.9597L142.8 93.7289V94.5156L142.815 95.2551C142.756 95.339 142.514 95.381 142.089 95.381H141.703L137.048 95.444C135.072 95.444 133.599 95.4386 132.631 95.4281C132.482 95.2604 131.944 93.7342 131.015 90.8494L128.183 82.8722L127.65 82.9509L127.635 84.5558V88.8199L127.694 93.0837V94.8461C127.694 95.318 127.595 95.5646 127.398 95.5856C126.419 95.5541 125.485 95.5384 124.596 95.5384H124.136L121.898 95.6012H121.601L120.534 95.6327L120.489 95.6012C120.163 95.276 120 95.04 120 94.8933V94.6101L120.015 94.2954L120.089 88.1589C120.089 81.4247 120.148 76.332 120.267 72.881L120.296 71.575C120.296 71.4806 123.701 71.3967 130.511 71.3232C130.57 71.3652 130.659 71.596 130.778 72.0156V71.9684L130.867 72.283C131.598 74.5068 132.487 77.061 133.535 79.9456C134.583 82.8198 135.116 84.2883 135.136 84.3513L135.64 84.3198L135.699 71.4963C135.699 71.4124 136.421 71.3705 137.864 71.3705L141.585 71.4491H142.682C142.751 74.9212 142.786 79.1327 142.786 84.0838Z" fill="white"/>
<path d="M169.44 95.2711C169.431 95.4073 169.159 95.4756 168.625 95.4756H167.261L166.342 95.4913H165.438L164 95.5071C162.567 95.5071 161.376 95.4703 160.427 95.397C160.397 95.3865 160.363 95.3236 160.323 95.2081L160.249 94.8776C160.16 93.7972 159.928 92.7536 159.552 91.7467L153.207 91.8095C153.168 91.9879 153.039 92.5176 152.822 93.3986C152.604 94.2798 152.441 94.9459 152.333 95.397C152.234 95.5018 151.764 95.5543 150.924 95.5543L150.554 95.5386H149.694L145.84 95.6329H145.395L144.98 95.6487H143.942C143.873 95.5753 143.799 95.4808 143.719 95.3655C144.708 91.7362 146.047 87.2361 147.737 81.8655L148.078 80.7483H148.063L148.464 79.4423C148.592 79.0228 148.958 77.8584 149.56 75.9493C150.173 74.0402 150.554 72.8077 150.702 72.2518C150.86 71.6958 150.954 71.4074 150.984 71.3864H153.445L158.707 71.3077L160.13 71.3864L161.302 71.3077C161.895 71.3077 162.191 71.4336 162.191 71.6853C163.179 74.6119 164.499 78.8235 166.149 84.32C167.8 89.8165 168.729 92.9057 168.936 93.5875L169.144 94.3742C169.213 94.6574 169.312 94.9564 169.44 95.2711ZM154.764 86.6801L155.372 86.6959L158.915 86.6801C158.767 85.4319 158.653 84.5141 158.574 83.9267L158.011 81.2361C157.417 78.4563 157.111 77.0402 157.091 76.9878C157.072 76.9353 157.052 76.8881 157.032 76.8462C157.022 76.7937 157.012 76.7623 157.003 76.7518C156.993 76.7308 156.978 76.6993 156.958 76.6574C156.948 76.6154 156.933 76.5892 156.914 76.5787C156.904 76.5577 156.889 76.5315 156.869 76.5C156.8 76.3742 156.657 76.264 156.439 76.1696C156.172 76.2325 155.377 79.3899 154.052 85.6416L153.889 86.6801H154.764ZM160.353 63.0472L162.873 63C163.476 63 163.792 63.042 163.822 63.1259C163.871 64.7203 163.906 66.514 163.926 68.507C163.896 68.5699 163.852 68.6098 163.852 68.6518L163.777 68.6486L158.841 68.8689L158.455 68.4126C158.455 67.521 158.485 66.4301 158.544 65.1399C158.604 63.8392 158.693 63.1259 158.811 63C159.355 63.0315 159.869 63.0472 160.353 63.0472ZM155.416 64.1329L155.446 65.6748V66.1626C155.446 67.306 155.451 68.1241 155.461 68.6172C155.362 68.7325 154.962 68.7902 154.26 68.7902L153.949 68.7745H153.192L150.42 68.8846L150.065 68.3339C150.065 65.0402 150.173 63.2622 150.391 63C150.746 63.0105 151.498 63.021 152.644 63.0315C153.8 63.0315 154.695 63.042 155.327 63.0629C155.396 63.0839 155.431 63.215 155.431 63.4563L155.416 63.6294V64.1329Z" fill="white"/>
<path d="M199.668 88.5997L207.51 88.4581C207.708 88.4581 207.871 88.6366 207.999 88.9932C208.138 89.3498 208.271 89.633 208.399 89.8427C208.706 90.3463 209.21 90.598 209.912 90.598C210.623 90.598 211.196 90.4249 211.631 90.0788C212.066 89.7221 212.283 89.2659 212.283 88.7098C212.283 88.154 212.15 87.7763 211.883 87.5769C211.616 87.3672 211.325 87.168 211.009 86.9791C210.692 86.7799 210.223 86.6278 209.6 86.5229C208.987 86.4179 208.651 86.3549 208.592 86.3339H208.622L207.777 86.0981C207.233 85.9931 206.779 85.8777 206.413 85.7518C204.051 85.0805 202.341 84.2361 201.284 83.2186C200.236 82.2012 199.712 80.8323 199.712 79.112C199.712 77.8637 199.93 76.7413 200.364 75.7448C200.799 74.7483 201.367 73.9354 202.069 73.306C204.095 71.4913 206.892 70.584 210.46 70.584C213.296 70.584 215.525 71.1294 217.146 72.2204H217.131C218.169 73.0176 218.88 73.8043 219.266 74.5805C219.651 75.3462 219.893 76.2955 219.992 77.4284L219.607 77.8375C217.008 77.9424 214.705 77.9948 212.699 77.9948C212.096 77.9948 211.735 77.806 211.616 77.4284C211.567 77.2711 211.513 77.1137 211.453 76.9564C211.315 76.5787 210.87 76.3899 210.119 76.3899H210.06C209.477 76.3899 208.978 76.5368 208.562 76.8305C208.147 77.1137 207.935 77.3917 207.925 77.6644C207.925 77.9371 207.979 78.1627 208.088 78.341C208.207 78.5193 208.33 78.6609 208.459 78.7658C208.587 78.8707 208.785 78.9809 209.052 79.0962C209.319 79.2011 209.516 79.2746 209.645 79.3165C209.783 79.348 209.995 79.4057 210.282 79.4896L210.801 79.6312C211.009 79.6941 211.611 79.8515 212.61 80.1032C213.618 80.355 214.458 80.5962 215.13 80.827V80.8113C217.235 81.5665 218.668 82.5105 219.429 83.6434C220.2 84.7658 220.585 86.0771 220.585 87.5769C220.585 91.5736 218.337 94.1644 213.84 95.3498C212.536 95.6959 211.142 95.9424 209.659 96.0894C207.841 96.0894 206.042 95.806 204.263 95.2396C202.484 94.6731 201.293 93.7501 200.691 92.4705C200.285 91.8515 200.013 91.2851 199.875 90.7711C199.737 90.2467 199.623 89.5176 199.534 88.5841C199.564 88.5946 199.608 88.5997 199.668 88.5997Z" fill="white"/>
<path d="M230.103 81.5666C229.984 84.5352 229.925 87.5875 229.925 90.724V95.4128H228.843L228.472 95.3971L223.21 95.4443C222.874 95.4443 222.696 95.4494 222.676 95.4599C222.676 95.4494 222.696 95.3603 222.735 95.1926V95.0981L222.75 95.0352C222.701 94.2799 222.676 93.3621 222.676 92.2816L222.735 74.7064L222.72 73.8883V73.1015L222.691 71.6225C222.691 71.5176 222.745 71.4075 222.854 71.2921H224.885L226.071 71.2764C228.858 71.2764 230.849 71.3183 232.045 71.4022C233.251 71.4862 234.115 71.5281 234.639 71.5281C234.926 73.3323 235.351 75.7239 235.914 78.703L236.967 84.3358H237.486L239.383 74.0456C239.413 73.8883 239.482 73.432 239.591 72.6767C239.7 71.911 239.783 71.4862 239.843 71.4022H239.902L249.553 71.3078L250.131 71.3236H251.791C251.88 71.3655 251.93 71.5596 251.94 71.9057L252.088 77.8533C252.207 82.7834 252.291 86.6225 252.34 89.3709C252.34 91.4897 252.31 93.4775 252.251 95.3342C252.221 95.4599 252.024 95.5334 251.658 95.5544L250.991 95.5859C250.457 95.6069 250.062 95.6174 249.805 95.6174H249.034C248.075 95.6278 246.662 95.633 244.794 95.633C244.448 95.3078 244.275 93.9023 244.275 91.4163L244.305 86.4758V85.2013C244.305 84.0789 244.3 83.2502 244.29 82.7151L243.727 82.605C243.401 83.8744 242.773 86.7012 241.844 91.0858L241.711 91.7153C241.642 92.0404 241.523 92.6226 241.355 93.4617C241.197 94.2904 241.068 94.9197 240.97 95.3498C240.851 95.4968 240.327 95.5702 239.398 95.5702H239.205L237.545 95.5229L236.641 95.5387H235.944L234.773 95.5544H234.358C233.903 95.5544 233.651 95.4443 233.602 95.2239L233.616 95.2397L232.267 88.9933C232.228 88.8358 232.139 88.4949 232 87.9705C231.862 87.4354 231.783 86.9897 231.763 86.633L230.652 81.5351L230.103 81.5666Z" fill="white"/>
<path d="M278.432 95.271C278.422 95.4072 278.15 95.4755 277.616 95.4755H276.252L275.333 95.4912H274.429L272.991 95.507C271.558 95.507 270.367 95.4702 269.418 95.3969C269.388 95.3864 269.354 95.3235 269.314 95.208L269.24 94.8775C269.151 93.7971 268.919 92.7535 268.543 91.7466L262.199 91.8094C262.159 91.9878 262.03 92.5175 261.813 93.3985C261.596 94.2797 261.433 94.9458 261.324 95.3969C261.225 95.5017 260.756 95.5542 259.916 95.5542L259.545 95.5385H258.685L254.831 95.6328H254.386L253.971 95.6486H252.933C252.864 95.5752 252.79 95.4807 252.711 95.3654C253.699 91.7361 255.038 87.236 256.728 81.8654L257.069 80.7482H257.054L257.455 79.4422C257.583 79.0227 257.949 77.8583 258.552 75.9492C259.164 74.0401 259.545 72.8076 259.693 72.2517C259.851 71.6957 259.945 71.4073 259.975 71.3863H262.436L267.698 71.3076L269.122 71.3863L270.293 71.3076C270.886 71.3076 271.182 71.4335 271.182 71.6852C272.171 74.6118 273.49 78.8234 275.141 84.3199C276.791 89.8164 277.72 92.9056 277.928 93.5874L278.135 94.3741C278.204 94.6573 278.303 94.9563 278.432 95.271ZM263.755 86.6799L264.363 86.6958L267.906 86.6799C267.758 85.4318 267.644 84.514 267.565 83.9266L267.002 81.236C266.409 78.4562 266.102 77.0401 266.083 76.9877C266.063 76.9352 266.043 76.888 266.023 76.8461C266.013 76.7936 266.004 76.7622 265.994 76.7517C265.984 76.7307 265.969 76.6992 265.949 76.6573C265.939 76.6153 265.924 76.5891 265.905 76.5786C265.895 76.5576 265.88 76.5314 265.86 76.4999C265.791 76.3741 265.648 76.2639 265.43 76.1695C265.163 76.2324 264.368 79.3898 263.044 85.6415L262.88 86.6799H263.755Z" fill="white"/>
<path d="M285.873 71.4339L290.632 71.3867C291.64 71.3867 292.554 71.4077 293.375 71.4497C295.578 71.5126 297.254 72.0633 298.4 73.1018C299.556 74.1402 300.135 75.6035 300.135 77.4916C300.135 78.8028 299.774 79.9252 299.053 80.8588C298.331 81.7819 297.278 82.5948 295.895 83.2975C298.088 84.0318 299.419 85.815 299.884 88.6473C299.991 89.2662 300.076 89.9741 300.135 90.7713C300.204 91.5686 300.258 92.1036 300.298 92.3763L300.446 93.1787C300.603 94.1229 300.742 94.8047 300.862 95.2241L300.801 95.2714C299.122 95.3869 297.585 95.4445 296.192 95.4445C294.808 95.4445 293.583 95.4182 292.515 95.3659H292.426C292.119 95.3659 291.793 93.8185 291.447 90.7242L291.373 90.0476C291.334 88.8937 291.141 88.1176 290.795 87.719C290.459 87.3204 289.871 87.121 289.031 87.121L288.838 87.1368H288.053V91.9201L288.067 92.4234V95.3029C288.038 95.4077 287.964 95.4706 287.845 95.4916C286.758 95.5336 285.221 95.5546 283.235 95.5546C281.258 95.5546 279.953 95.5599 279.321 95.5704L279.232 95.5389L279.202 95.5546C279.182 95.5546 279.153 95.5389 279.113 95.5075L279.143 94.0914L279.128 93.6193L279.187 87.0895V85.9409L279.202 84.7609L279.217 80.6857L279.232 80.1507L279.187 76.579C279.187 76.579 279.207 74.906 279.247 71.5598C279.247 71.4759 279.528 71.4339 280.092 71.4339L281.04 71.4497H281.945L283.827 71.4654L285.873 71.4339ZM300.95 95.177L300.876 95.2241V95.1928C300.876 95.1823 300.9 95.177 300.95 95.177ZM300.876 95.2241V95.2399C300.865 95.2399 300.862 95.2346 300.862 95.2241H300.876ZM291.358 76.5633C290.765 76.2906 289.975 76.1542 288.986 76.1542H288.127C288.018 76.322 287.964 77.2084 287.964 78.8133C287.964 80.4077 287.988 81.4777 288.038 82.0231C291.131 81.9496 292.678 80.8168 292.678 78.6245C292.678 77.6909 292.238 77.0039 291.358 76.5633Z" fill="white"/>
<path d="M320 77.2397C320 77.5858 319.966 77.7589 319.896 77.7589C319.896 77.7589 318.108 77.7432 314.531 77.7117C314.51 78.7292 314.501 80.3183 314.501 82.4791C314.501 84.6401 314.505 86.14 314.515 86.9792L314.574 95.3183C314.526 95.4653 314.427 95.5439 314.278 95.5544L311.15 95.5072L311.136 95.5229L310.157 95.5072H307.444C306.712 95.5072 306.164 95.5124 305.798 95.5229L305.546 95.2869C305.536 95.2764 305.472 95.1926 305.354 95.0352C305.354 94.1122 305.389 92.0614 305.458 88.883L305.621 80.5124L305.592 80.119C305.522 79.0806 305.453 78.4669 305.383 78.2781C305.324 78.0788 305.201 77.9739 305.012 77.9634C304.825 77.9425 304.686 77.932 304.598 77.932L304.004 77.9634L300.328 77.9005C300.2 77.6278 300.136 77.0141 300.136 76.0596L300.165 74.675V74.2501C300.155 72.5718 300.141 71.675 300.12 71.5596C300.141 71.5596 300.179 71.5701 300.24 71.591L319.111 71.418C319.496 71.418 319.739 71.4494 319.837 71.5124C319.936 71.5648 319.985 71.6697 319.985 71.8271V75.9809L320 77.2397Z" fill="white"/>
<rect x="25.5" y="799.5" width="389" height="59" fill="#171426" stroke="black"/>
<path d="M357.499 848.996C357.218 848.997 356.944 848.903 356.716 848.728L345.998 840.404L335.28 848.728C335.051 848.906 334.775 849.001 334.492 849C334.209 848.999 333.934 848.901 333.706 848.722C333.478 848.542 333.31 848.289 333.225 848C333.14 847.711 333.143 847.401 333.234 847.114L337.414 833.851L326.58 825.892C326.345 825.72 326.168 825.472 326.074 825.184C325.981 824.896 325.975 824.584 326.059 824.293C326.143 824.002 326.311 823.747 326.54 823.565C326.769 823.384 327.045 823.286 327.33 823.285H340.696L344.729 809.988C344.816 809.701 344.986 809.451 345.214 809.273C345.442 809.096 345.716 809 345.998 809C346.28 809 346.554 809.096 346.782 809.273C347.01 809.451 347.179 809.701 347.266 809.988L351.3 823.29H364.666C364.951 823.289 365.228 823.387 365.457 823.568C365.687 823.749 365.856 824.004 365.94 824.295C366.025 824.586 366.02 824.899 365.926 825.187C365.832 825.475 365.655 825.724 365.42 825.896L354.582 833.851L358.76 847.11C358.827 847.325 358.846 847.554 358.815 847.778C358.784 848.002 358.704 848.215 358.58 848.399C358.457 848.583 358.295 848.734 358.107 848.837C357.919 848.941 357.71 848.995 357.499 848.996Z" fill="#AAC7F4"/>
<path d="M219.997 838.754C219.779 838.754 219.565 838.697 219.376 838.589L208.434 832.335C208.339 832.28 208.231 832.251 208.121 832.251C208.012 832.252 207.904 832.28 207.809 832.335C207.714 832.39 207.635 832.469 207.58 832.565C207.525 832.66 207.496 832.768 207.497 832.877V838.754C207.496 838.977 207.556 839.196 207.669 839.388C207.782 839.581 207.945 839.739 208.14 839.848L219.39 846.098C219.575 846.201 219.784 846.255 219.997 846.255C220.209 846.255 220.418 846.201 220.604 846.098L231.854 839.848C232.049 839.739 232.211 839.581 232.324 839.388C232.437 839.196 232.497 838.977 232.497 838.754V832.877C232.497 832.768 232.468 832.66 232.413 832.565C232.358 832.469 232.28 832.39 232.184 832.335C232.089 832.28 231.982 832.252 231.872 832.251C231.762 832.251 231.654 832.28 231.559 832.335L220.617 838.589C220.428 838.697 220.214 838.754 219.997 838.754Z" fill="#AAC7F4"/>
<path d="M238.741 824.886C238.741 824.886 238.741 824.88 238.741 824.878C238.721 824.679 238.654 824.489 238.545 824.322C238.437 824.155 238.289 824.017 238.116 823.918L220.616 813.918C220.428 813.81 220.214 813.753 219.996 813.753C219.779 813.753 219.565 813.81 219.376 813.918L201.876 823.918C201.685 824.028 201.526 824.186 201.415 824.376C201.304 824.567 201.246 824.783 201.246 825.003C201.246 825.224 201.304 825.44 201.415 825.631C201.526 825.821 201.685 825.979 201.876 826.089L219.376 836.089C219.565 836.196 219.779 836.253 219.996 836.253C220.214 836.253 220.428 836.196 220.616 836.089L236.013 827.291C236.037 827.277 236.064 827.27 236.092 827.27C236.119 827.27 236.146 827.277 236.17 827.291C236.194 827.305 236.213 827.325 236.227 827.348C236.241 827.372 236.248 827.399 236.248 827.427V838.718C236.248 839.391 236.765 839.968 237.438 840.002C237.607 840.01 237.775 839.984 237.934 839.925C238.093 839.866 238.237 839.775 238.36 839.658C238.482 839.541 238.58 839.401 238.647 839.246C238.713 839.09 238.748 838.923 238.748 838.753V825.003C238.748 824.964 238.745 824.925 238.741 824.886V824.886Z" fill="#AAC7F4"/>
<path d="M94.4355 816.912C94.3192 816.8 94.1645 816.738 94.0035 816.738C93.8425 816.738 93.6878 816.8 93.5715 816.912L79.1887 830.651C79.1276 830.71 79.079 830.78 79.0458 830.858C79.0126 830.936 78.9956 831.019 78.9957 831.104L78.9933 843.999C78.9933 844.662 79.2567 845.298 79.7256 845.767C80.1944 846.236 80.8303 846.499 81.4933 846.499H89.0012C89.3327 846.499 89.6506 846.367 89.885 846.133C90.1195 845.899 90.2512 845.581 90.2512 845.249V834.624C90.2512 834.458 90.317 834.299 90.4342 834.182C90.5514 834.065 90.7104 833.999 90.8762 833.999H97.1262C97.2919 833.999 97.4509 834.065 97.5681 834.182C97.6853 834.299 97.7512 834.458 97.7512 834.624V845.249C97.7512 845.581 97.8829 845.899 98.1173 846.133C98.3517 846.367 98.6696 846.499 99.0012 846.499H106.506C107.169 846.499 107.805 846.236 108.274 845.767C108.742 845.298 109.006 844.662 109.006 843.999V831.104C109.006 831.019 108.989 830.936 108.956 830.858C108.923 830.78 108.874 830.71 108.813 830.651L94.4355 816.912Z" fill="white"/>
<path d="M112.352 828.074L106.508 822.484V814C106.508 813.668 106.377 813.351 106.142 813.116C105.908 812.882 105.59 812.75 105.258 812.75H101.508C101.177 812.75 100.859 812.882 100.624 813.116C100.39 813.351 100.258 813.668 100.258 814V816.5L95.7333 812.173C95.3098 811.745 94.6801 811.5 93.9997 811.5C93.3215 811.5 92.6934 811.745 92.27 812.174L75.6528 828.073C75.1669 828.541 75.1059 829.313 75.5481 829.82C75.6591 829.948 75.7951 830.053 75.9477 830.127C76.1003 830.201 76.2664 830.243 76.4358 830.251C76.6052 830.258 76.7744 830.231 76.9331 830.172C77.0919 830.112 77.2368 830.021 77.359 829.903L93.57 814.413C93.6863 814.301 93.8411 814.239 94.002 814.239C94.163 814.239 94.3177 814.301 94.434 814.413L110.647 829.903C110.885 830.132 111.205 830.257 111.536 830.251C111.867 830.244 112.182 830.107 112.411 829.869C112.891 829.372 112.851 828.552 112.352 828.074Z" fill="white"/>
<rect x="25" y="859" width="390" height="10" fill="#171426"/>
</g>
</g>
<defs>
<filter id="filter0_i_111_621" x="-2" y="-1" width="448" height="886" filterUnits="userSpaceOnUse" color-interpolation-filters="sRGB">
<feFlood flood-opacity="0" result="BackgroundImageFix"/>
<feBlend mode="normal" in="SourceGraphic" in2="BackgroundImageFix" result="shape"/>
<feColorMatrix in="SourceAlpha" type="matrix" values="0 0 0 0 0 0 0 0 0 0 0 0 0 0 0 0 0 0 127 0" result="hardAlpha"/>
<feOffset dx="-2" dy="-1"/>
<feGaussianBlur stdDeviation="4.5"/>
<feComposite in2="hardAlpha" operator="arithmetic" k2="-1" k3="1"/>
<feColorMatrix type="matrix" values="0 0 0 0 0 0 0 0 0 0 0 0 0 0 0 0 0 0 0.2 0"/>
<feBlend mode="normal" in2="shape" result="effect1_innerShadow_111_621"/>
</filter>
<filter id="filter1_i_111_621" x="132.43" y="21.3252" width="175.051" height="16.2324" filterUnits="userSpaceOnUse" color-interpolation-filters="sRGB">
<feFlood flood-opacity="0" result="BackgroundImageFix"/>
<feBlend mode="normal" in="SourceGraphic" in2="BackgroundImageFix" result="shape"/>
<feColorMatrix in="SourceAlpha" type="matrix" values="0 0 0 0 0 0 0 0 0 0 0 0 0 0 0 0 0 0 127 0" result="hardAlpha"/>
<feOffset dy="1"/>
<feGaussianBlur stdDeviation="2"/>
<feComposite in2="hardAlpha" operator="arithmetic" k2="-1" k3="1"/>
<feColorMatrix type="matrix" values="0 0 0 0 0 0 0 0 0 0 0 0 0 0 0 0 0 0 0.05 0"/>
<feBlend mode="normal" in2="shape" result="effect1_innerShadow_111_621"/>
</filter>
<filter id="filter2_d_111_621" x="311" y="693" width="89" height="89" filterUnits="userSpaceOnUse" color-interpolation-filters="sRGB">
<feFlood flood-opacity="0" result="BackgroundImageFix"/>
<feColorMatrix in="SourceAlpha" type="matrix" values="0 0 0 0 0 0 0 0 0 0 0 0 0 0 0 0 0 0 127 0" result="hardAlpha"/>
<feMorphology radius="3" operator="dilate" in="SourceAlpha" result="effect1_dropShadow_111_621"/>
<feOffset dx="-5" dy="-10"/>
<feGaussianBlur stdDeviation="5"/>
<feComposite in2="hardAlpha" operator="out"/>
<feColorMatrix type="matrix" values="0 0 0 0 0 0 0 0 0 0 0 0 0 0 0 0 0 0 0.1 0"/>
<feBlend mode="normal" in2="BackgroundImageFix" result="effect1_dropShadow_111_621"/>
<feBlend mode="normal" in="SourceGraphic" in2="effect1_dropShadow_111_621" result="shape"/>
</filter>
<linearGradient id="paint0_linear_111_621" x1="298.553" y1="283.448" x2="-97.5222" y2="675.597" gradientUnits="userSpaceOnUse">
<stop/>
<stop offset="0.461814" stop-color="white" stop-opacity="0"/>
</linearGradient>
<clipPath id="clip0_111_621">
<rect width="446" height="885" fill="white"/>
</clipPath>
</defs>
</svg>
