<svg width="690" height="486" viewBox="0 0 690 486" fill="none" xmlns="http://www.w3.org/2000/svg">
<g clip-path="url(#clip0_292_676)">
<rect width="672.654" height="486" rx="12" fill="#DAC9AD"/>
<path d="M729.297 -148.78C734.725 -149.08 740.198 -149.066 745.625 -148.78L752.75 -148.483L759.875 -148.038L767.891 -146.554C770.745 -145.624 773.629 -144.158 776.352 -141.952C779.181 -139.658 781.378 -137.048 782.883 -134.233L785.704 -125.476L787.782 -113.007L789.118 -96.9756L789.414 -82.7256L789.86 -69.0694L790.157 -61.9444L790.602 -54.8194L790.899 -39.5303V-25.2803L790.008 -8.95221L788.227 5.29779C787.828 8.7663 787.655 12.2333 787.633 15.6913V24.2978L787.782 31.4228L788.375 43.7431L789.266 50.8681L790.008 57.9931L790.602 75.2119L790.305 82.3369L789.86 89.4619C789.658 93.7554 789.615 98.0835 789.711 102.376L790.008 116.626C790.116 121.351 790.327 126.151 790.454 130.876L790.75 145.126L790.305 161.454L789.118 175.704C788.788 179.696 788.677 183.741 788.821 187.727L789.414 201.977L789.86 216.227L790.157 223.352L790.305 230.477V245.915L790.008 253.04L789.86 260.165L788.969 275.306L788.524 282.431L787.93 289.556C787.639 293.29 787.619 297.101 787.93 300.837L789.118 315.087L789.86 330.524L790.157 344.774L789.563 352.048C789.056 354.613 788.136 357.297 786.743 359.915C785.246 362.719 783.357 365.185 781.102 367.188L773.383 371.79L768.485 373.868L763.438 375.946C757.573 378.339 751.28 379.38 745.032 379.657L730.782 380.251L714.305 380.102L707.18 379.657L700.055 379.063C696.557 378.828 693.035 379.062 689.516 379.509L675.266 381.29L656.711 381.438L649.586 380.845L642.461 380.102C638.944 379.759 635.438 379.78 631.922 380.102L624.797 380.696L617.672 381.438L600.75 381.735L586.5 381.142C582.507 380.969 578.474 381 574.477 381.29L567.352 381.884L560.227 382.329L544.493 382.923L537.368 382.774H530.243L514.211 381.884L499.961 380.399C496.455 380.034 492.924 380.08 489.422 380.399L475.172 381.587L456.914 381.438L442.664 379.657C439.124 379.225 435.5 379.107 431.977 379.36L424.852 379.954L417.727 380.399L401.993 380.993L394.868 380.845H387.743L372.157 380.251L365.032 379.657L357.907 379.212H346.774L339.649 379.806L332.524 380.548L315.305 380.696L308.18 380.102L301.055 379.657H289.625L282.5 380.251L275.375 380.696C270.054 381.096 264.67 381.24 259.344 381.142L245.094 380.845L231.883 380.993L196.258 382.477L189.133 382.626L171.618 381.884L164.493 380.845L157.368 379.954L147.274 379.657L133.024 380.845L116.399 381.142L102.149 380.548H89.2348L82.1098 380.696L74.9848 380.993L61.1801 381.587L54.0551 381.884L46.9301 382.329L31.7895 382.774L24.6645 382.923H2.69571L-11.5543 382.626L-26.8434 381.735L-33.9684 381.29L-41.0934 380.696C-45.4762 380.337 -49.9248 380.059 -54.3043 379.954L-68.5543 379.657L-81.4684 379.806L-95.7184 380.399C-99.5986 380.581 -106.323 380.345 -112.492 376.243C-120.135 371.138 -122.74 363.096 -122.586 356.352L-122.289 346.259L-122.882 336.462L-123.476 329.337L-124.218 322.212C-124.824 315.885 -124.603 309.504 -123.625 303.212L-122.586 296.087L-121.398 288.962L-121.25 280.056L-122.14 272.931L-123.179 265.806C-123.973 259.539 -123.913 253.226 -123.179 246.954L-122.437 239.829L-121.546 232.704V222.907L-122.437 215.782L-123.179 208.657C-123.852 202.976 -124.1 197.286 -123.921 191.587L-123.773 184.462L-123.476 177.337C-123.331 172.686 -123.27 168.034 -123.179 163.384L-122.882 149.134C-122.784 144.121 -122.594 139.004 -122.289 133.993L-121.398 119.743L-121.695 108.61L-123.179 94.3603C-123.788 88.4788 -123.798 82.5852 -123.328 76.6962L-122.14 62.4462C-121.812 58.3503 -121.746 54.216 -121.843 50.1259L-122.14 35.8759C-122.248 31.3405 -122.474 26.7559 -122.734 22.2197L-123.625 7.96967C-123.954 2.17359 -123.676 -3.61598 -123.031 -9.39752L-121.546 -23.6475V-33.7413L-123.031 -47.9913C-123.633 -53.4751 -123.974 -58.9706 -123.921 -64.4678L-123.773 -71.5928V-78.7178C-123.72 -84.1054 -123.332 -89.5217 -122.734 -94.8975L-121.992 -102.023L-121.101 -109.148C-120.359 -115.805 -118.363 -124.04 -112.343 -130.523L-109.226 -133.788L-106.109 -137.202L-100.468 -141.804C-94.4895 -145.559 -87.8242 -146.686 -82.5074 -146.851L-75.3824 -146.999L-68.2574 -147.296C-63.3633 -147.447 -58.4565 -147.554 -53.5621 -147.593H-39.3121L-24.1715 -147.444L-9.92148 -146.851C-5.92917 -146.707 -1.89593 -146.827 2.10196 -147.148L16.352 -148.335L32.977 -148.632L40.102 -148.335L47.227 -147.89L60.5863 -147.593H74.8363L90.4223 -146.999L97.5473 -146.405L104.672 -145.96L117.586 -145.515H131.836L144.899 -145.96L159.149 -146.851C163.992 -147.149 168.852 -147.368 173.696 -147.593L180.821 -147.89L187.946 -148.335C193.438 -148.59 198.934 -148.438 204.422 -148.038L211.547 -147.593L218.672 -146.999C223.036 -146.679 227.522 -146.457 231.883 -146.405H239.008L246.133 -146.257L258.75 -146.702L273 -147.593C278.743 -147.997 284.481 -147.953 290.219 -147.444L304.469 -146.257L314.86 -146.405L321.985 -147.148L329.11 -148.038L346.329 -148.632L353.454 -148.335L360.579 -148.187H373.196L387.446 -148.78C392.872 -149.019 398.35 -148.991 403.774 -148.632L418.024 -147.741C422.084 -147.471 426.286 -147.42 430.344 -147.593L444.594 -148.187L459.586 -148.483H495.063L502.188 -148.632C506.921 -148.668 511.705 -148.731 516.438 -148.78H523.563L530.688 -148.929C535.731 -148.98 540.786 -148.827 545.829 -148.632L560.079 -148.038L575.071 -147.296L589.321 -146.108L600.157 -146.257L614.407 -147.741C620.545 -148.375 626.682 -148.323 632.813 -147.593L639.938 -146.851L647.063 -145.96C650.222 -145.583 653.395 -145.537 656.563 -145.96L663.688 -146.999L670.813 -147.89C676.685 -148.675 682.579 -148.921 688.477 -148.632L695.602 -148.335L702.727 -147.89C706.814 -147.688 710.96 -147.812 715.047 -148.038L722.172 -148.335L729.297 -148.78Z" fill="#E8E0DE"/>
</g>
<path d="M275.947 408.156C339.248 408.156 425.614 414.685 425.614 430.757C425.613 446.83 323.405 451.443 276.9 451.443C211.566 451.443 154.207 444.107 147.316 444.107C140.425 444.107 129.294 448.345 99.961 448.771C43.843 449.585 24.1147 445.771 24.1143 439.465C24.1143 433.159 57.7223 427.753 99.478 426.834C109.71 426.834 121.608 428.48 132.474 430.069C148.984 420.196 206.488 409.684 275.947 408.156Z" fill="#1E1E1E" fill-opacity="0.08"/>
<path d="M315.674 383.878C312.638 383.626 309.603 383.374 306.567 383.129C305.802 383.064 304.98 383.186 304.574 382.275C304.183 381.404 304.647 380.786 305.127 380.159C311.418 371.785 316.756 362.842 321.191 353.369C324.585 346.118 327.368 338.64 328.824 330.738C329.484 327.181 329.736 323.584 328.979 319.996C328.588 318.148 327.653 316.659 326.106 315.471C317.578 308.904 308.634 302.922 299.854 296.697C297.551 295.061 295.394 293.222 293.172 291.472C293.042 291.367 292.92 291.253 292.79 291.147C289.714 288.762 288.77 288.811 286.296 291.733C276.978 302.743 267.701 313.786 258.391 324.805C250.155 334.554 241.895 344.271 233.66 354.012C224.35 365.031 215.065 376.058 205.763 387.084C205.259 387.679 204.616 388.183 204.241 388.842C202.85 391.316 200.718 391.65 198.138 391.373C194.289 390.95 190.415 390.69 186.525 390.738C185.215 391.088 183.88 391.007 182.554 390.917C173.334 390.275 164.097 389.778 154.869 389.233C151.662 389.046 148.456 388.916 145.258 388.614C144.705 388.557 144.151 388.533 143.704 388.126C142.239 387.711 140.733 387.809 139.244 387.76C136.607 387.679 135.891 386.49 137.267 384.326C141.588 377.547 145.958 370.801 150.312 364.046C158.01 352.124 165.717 340.202 173.407 328.28C179.868 318.262 186.33 308.245 192.783 298.227C202.541 283.082 212.298 267.929 222.055 252.785C223.52 250.506 225.156 248.325 226.36 245.876C226.8 244.932 227.679 244.972 228.5 244.948C231.56 244.867 234.596 245.241 237.639 245.396C242.457 245.64 247.266 245.965 252.084 246.274C256.902 246.584 261.711 246.828 266.529 247.145C270.899 247.43 275.277 247.666 279.647 247.926C284.514 248.219 289.388 248.504 294.255 248.813C298.625 249.09 303.003 249.334 307.373 249.587C312.353 249.88 317.334 250.213 322.314 250.482C325.081 250.628 327.848 250.905 330.623 250.937C331.437 250.946 332.316 250.791 332.967 251.499C336.645 252.264 340.348 252.915 343.994 253.81C353.8 256.211 362.947 260.093 370.906 266.424C381.493 274.855 387.718 285.857 390.005 299.138C392.65 314.478 389.956 329.265 385.171 343.791C380.402 358.26 373.241 371.574 365.469 384.627C364.078 386.971 362.816 387.459 360.554 387.117C359.846 387.011 359.114 387.068 358.389 387.052C355.338 387.646 352.335 386.905 349.308 386.751C345.613 386.564 341.918 386.214 338.232 385.937C332.828 385.53 327.425 385.18 322.029 384.716C321.142 384.643 320.263 384.627 319.376 384.578C318.107 384.513 316.829 384.505 315.674 383.846V383.878Z" fill="#BB7FB6"/>
<path d="M332.959 251.523C323.885 251.043 314.804 250.587 305.73 250.09C298.373 249.683 291.017 249.211 283.66 248.772C274.261 248.211 264.853 247.657 255.454 247.096C248.097 246.656 240.741 246.241 233.392 245.753C231.675 245.639 229.974 245.419 228.249 245.444C227.573 245.452 226.914 245.444 226.361 245.899C227.72 242.197 229.071 238.494 230.43 234.791C230.617 234.278 230.788 233.758 230.975 233.245C230.666 232.537 231.105 231.943 231.325 231.349C235.272 220.875 239.259 210.41 243.223 199.937C243.459 199.318 243.719 198.7 244.053 198.122C245.998 194.574 247.34 190.749 249.025 187.079C250.042 184.865 250.945 182.603 251.914 180.365C252.109 179.909 252.329 179.453 252.378 178.949C252.41 178.672 252.394 178.363 252.085 178.241C251.792 178.127 251.54 178.282 251.361 178.509C250.815 179.226 250.547 180.072 250.181 180.878C247.943 185.817 245.957 190.871 243.678 195.802C243.426 196.348 243.288 196.974 242.677 197.284C241.408 197.275 240.366 196.567 239.259 196.104C231.862 192.97 224.53 189.683 217.157 186.501C216.595 186.257 216.026 186.045 215.651 185.508C212.844 183.937 212.811 183.921 214.252 180.918C222.951 162.811 235.833 148.236 251.987 136.469C263.323 128.217 275.742 122.26 289.478 119.192C290.39 118.989 291.212 118.452 292.188 118.492C293.808 119.607 295.069 121.178 296.933 122.024C299.537 123.204 302.206 124.059 305.006 124.555C309.848 125.41 314.616 125.263 319.247 123.457C320.997 122.773 322.486 121.788 323.405 120.063C323.739 119.428 324.146 118.769 325.082 119.078C330.681 119.054 335.742 121.129 340.658 123.4C361.971 133.222 381.225 146.153 398.42 162.136C399.877 163.495 401.179 165.017 402.555 166.465C403.238 167.19 403.263 167.857 402.522 168.622C401.757 169.411 401.122 170.331 400.431 171.202C400.097 172.691 398.925 173.627 398.038 174.733C391.446 182.969 384.871 191.205 378.279 199.44C377.897 199.92 377.555 200.433 376.92 200.612C374.129 204.062 371.329 207.497 368.554 210.955C367.041 212.835 366.365 213.014 364.437 211.517C359.139 207.399 353.402 203.875 348.307 199.489C345.882 198.333 343.913 196.502 341.748 194.972C339.217 193.182 336.727 191.318 334.221 189.487C333.822 189.194 333.407 188.91 332.951 188.69C332.65 188.543 332.3 188.413 332.048 188.747C331.796 189.064 331.966 189.374 332.178 189.65C332.455 190.008 332.845 190.236 333.195 190.497C337.476 193.662 341.797 196.771 346.086 199.92C346.623 200.319 347.428 200.579 347.355 201.507C343.058 217.124 338.77 232.749 334.457 248.357C334.147 249.488 334.221 250.839 332.935 251.523H332.959Z" fill="#E19800"/>
<path d="M555.629 152.982C554.416 146.154 553.179 139.334 551.999 132.507C551.755 131.115 552.601 130.334 554.107 130.505C560.227 131.18 566.346 131.888 572.466 132.572C579.025 133.304 585.584 134.037 592.143 134.753C607.142 136.388 622.14 138.024 637.13 139.66C648.1 140.856 659.07 142.069 670.048 143.232C671.683 143.403 672.285 144.339 672.619 145.788C674.589 154.324 676.607 162.853 678.609 171.39C682.287 187.112 685.957 202.834 689.66 218.549C690.067 220.29 689.977 221.706 688.96 223.383C676.574 243.833 664.31 264.357 652.014 284.856C651.046 286.476 650.02 288.054 649.117 289.706C648.384 291.049 647.335 291.399 645.919 291.082C636.82 289.072 627.714 287.078 618.608 285.084C606.58 282.447 594.544 279.819 582.516 277.19C568.478 274.122 554.441 271.062 540.395 267.994C537.465 267.36 534.543 266.717 531.614 266.09C529.294 265.594 529.091 264.983 530.19 262.811C534.275 254.746 538.767 246.901 543.056 238.95C549.509 226.996 555.987 215.049 562.587 203.176C563.693 201.182 563.718 199.351 563.278 197.309C563.091 196.446 563.018 195.559 562.888 194.68C562.79 193.866 563.425 193.744 563.946 193.728C565.809 193.655 567.681 193.37 569.52 193.948C570.155 194.436 570.204 195.185 570.375 195.876C570.936 198.196 571.156 198.448 573.556 198.798C579.652 199.693 585.747 200.605 591.842 201.524C600.623 202.851 609.404 204.177 618.193 205.471C630.88 207.343 643.559 209.263 656.246 211.143C662.837 212.12 669.437 213.039 676.004 214.154C678.454 214.569 678.91 214.008 678.332 211.599C676.346 203.339 674.344 195.087 672.318 186.843C670.259 178.486 668.257 170.12 666.166 161.771C665.222 158.003 664.367 154.21 663.399 150.443C662.902 148.498 662.634 148.367 660.689 148.286C656.644 148.115 652.616 147.586 648.604 147.106C641.443 146.252 634.265 145.487 627.104 144.616C621.155 143.892 615.198 143.216 609.241 142.549C596.782 141.141 584.339 139.546 571.856 138.285C568.877 137.983 565.923 137.438 562.928 137.186C562.489 137.145 562.049 137.056 561.602 137.048C559.551 136.991 558.965 137.609 559.307 139.627C559.917 143.241 560.682 146.821 561.431 150.41C561.602 151.224 561.862 152.029 561.48 152.86C560.007 154.007 556.581 154.08 555.604 152.982H555.629Z" fill="#482C54"/>
<path d="M112.895 329.858C119.121 350.236 125.346 370.621 131.572 390.998C133.866 398.518 136.17 406.037 138.448 413.557C139.099 415.689 138.627 416.307 136.349 416.486C135.136 416.584 133.923 416.739 132.711 416.869C131.783 417.463 130.725 417.528 129.675 417.593C124.036 417.935 118.413 418.399 112.781 418.83C112.163 418.879 111.561 418.92 111.023 418.529C110.633 418.513 110.242 418.464 109.86 418.488C107.337 418.667 107.353 418.667 106.661 416.34C102.007 400.683 97.3436 385.025 92.6887 369.376C92.5992 369.067 92.5504 368.733 92.2086 368.579C92.2086 372.436 92.2086 376.285 92.2086 380.134C92.233 392.113 92.2737 404.092 92.2981 416.079C92.2981 416.682 92.2411 417.292 92.176 417.894C92.0458 419.017 91.4436 419.546 90.2718 419.489C89.3359 419.449 88.3919 419.53 87.4479 419.554C86.8539 419.904 86.1947 419.977 85.5192 419.977C79.4728 419.986 73.4182 419.986 67.3717 419.977C66.7126 419.977 66.029 420.002 65.4593 419.562C61.9519 419.302 61.8786 419.31 61.8054 415.616C61.6101 405.191 61.4636 394.766 61.3171 384.342C61.0811 367.822 60.8614 351.294 60.6417 334.774C60.6336 334.106 60.6742 333.447 60.6905 332.78C61.0567 332.365 61.5613 332.316 62.0658 332.3C66.7207 332.129 71.3674 331.852 76.0223 331.616C82.1664 331.307 88.3187 331.112 94.4547 330.656C96.4484 330.509 98.4422 330.558 100.444 330.452C104.594 330.241 108.737 329.883 112.887 329.867L112.895 329.858Z" fill="#E19800"/>
<path d="M244.419 198.082C240.179 209.248 235.931 220.413 231.683 231.578C231.472 232.14 231.203 232.685 230.959 233.238C222.691 237.527 214.415 241.799 206.163 246.096C194.461 252.191 182.758 258.279 171.08 264.431C168.932 265.562 166.857 266.856 164.855 268.231C162.047 270.168 159.085 271.682 155.773 272.601C150.345 274.107 145.698 272.65 142.24 268.125C139.538 264.594 137.064 260.923 135.404 256.765C134.997 255.748 134.199 255.048 133.557 254.234C130.855 250.784 128.112 247.382 125.191 244.102C122.383 240.945 119.82 237.559 119.559 233.059C119.437 230.919 120.031 229.039 121.675 227.566C123.026 228.404 123.433 229.934 124.222 231.163C127.445 236.152 130.887 240.977 134.712 245.518C134.785 245.6 134.842 245.697 134.924 245.779C135.331 246.21 135.746 246.918 136.397 246.356C136.974 245.86 136.372 245.356 136.047 244.94C134.045 242.353 131.888 239.887 130.041 237.185C127.624 233.653 124.694 230.536 121.984 227.249C120.178 223.53 120.829 220.405 124.068 217.337C124.483 217.556 124.694 217.947 124.882 218.354C127.852 225.051 132.263 230.813 136.608 236.624C137.471 237.779 138.342 238.927 139.221 240.066C139.489 240.416 139.741 240.79 140.099 241.059C140.449 241.319 140.848 241.702 141.271 241.335C141.686 240.969 141.434 240.497 141.157 240.147C140.58 239.399 139.929 238.731 139.351 237.974C136.234 233.873 133.198 229.714 130.244 225.499C128.56 223.098 126.623 220.885 125.329 218.224C125.142 217.833 124.8 217.5 124.825 217.019C124.987 216.165 124.882 215.27 125.207 214.432C126.175 211.99 128.039 211.136 131.286 211.673C131.481 216.897 134.387 220.974 137.153 225.043C139.929 229.129 143.021 232.994 146.032 236.908C146.471 237.478 147.008 238.585 147.773 237.983C148.555 237.364 147.489 236.664 147.139 236.038C146.455 234.793 145.047 234.003 144.86 232.441C144.958 232.172 145.137 232.042 145.43 232.083C149.027 234.402 151.256 237.437 150.817 241.986C150.63 243.931 151.256 245.714 152.583 247.195C152.827 247.463 153.136 247.846 153.559 247.496C153.861 247.244 153.747 246.845 153.559 246.576C151.891 244.143 151.891 241.384 151.875 238.593C151.859 236.664 150.841 235.11 149.507 233.8C147.212 231.546 145.031 229.194 143.127 226.598C141.491 224.368 140.669 221.902 140.946 219.119C141.125 217.304 141.93 216.254 143.436 215.88C147.244 216.075 149.141 218.891 151.11 221.544C152.892 223.953 154.544 226.451 156.839 228.437C158.092 229.527 159.175 229.812 160.802 228.86C172.724 221.886 184.711 215.034 196.674 208.133C200.466 205.944 204.169 203.657 207.131 200.32C209.304 197.879 210.639 194.941 212.274 192.183C213.544 190.05 214.74 187.845 215.652 185.518C219.81 186.991 223.749 188.96 227.802 190.669C232.774 192.768 237.722 194.933 242.678 197.073C243.467 197.049 244.216 197.106 244.419 198.091V198.082Z" fill="#2E78BD"/>
<path d="M112.894 329.859C112.414 330.274 111.877 330.453 111.234 330.477C105.871 330.681 100.508 330.868 95.1537 331.169C85.9334 331.69 76.7132 332.17 67.4929 332.552C65.2306 332.642 62.9683 332.821 60.6978 332.78C60.177 332.137 60.1363 331.34 60.0875 330.575C59.5748 323.348 59.0784 316.122 58.289 308.773C57.6868 310.474 57.052 312.167 56.5068 313.892C56.2952 314.568 56.0755 315.137 55.3186 315.316C54.4723 315.617 53.6829 315.349 52.8936 315.064C48.1492 313.347 43.3804 311.719 38.6034 310.084C38.0175 309.888 37.456 309.669 37.0491 309.172C34.8925 308.912 34.6891 308.627 35.275 306.544C37.7164 297.82 40.5565 289.259 45.7648 281.707C52.2832 272.25 60.3804 264.764 71.5049 261.045C71.92 260.906 72.2943 260.646 72.6849 260.442C73.4173 259.922 74.0602 260.231 74.6543 260.703C78.0397 263.413 83.0282 262.371 85.5347 260.451C86.0555 260.052 86.5356 259.547 87.2762 259.596C101.094 261.281 112.43 267.587 121.561 278.004C125.606 282.618 128.967 287.68 131.856 293.075C132.433 294.158 132.661 295.126 131.693 296.086C130.692 297.608 129.089 298.455 127.705 299.537C123.921 302.523 120.161 305.534 116.304 308.415C115.824 308.773 115.393 309.237 114.766 309.376C113.651 310.368 112.935 309.978 112.357 308.749C111.617 307.162 110.803 305.6 109.737 304.118C110.103 306.902 110.453 309.685 110.835 312.468C111.543 317.66 112.276 322.852 112.959 328.052C113.041 328.638 112.911 329.256 112.878 329.859H112.894Z" fill="#E62F1C"/>
<path d="M427.945 169.802C426.415 163.951 425.463 157.994 424.983 151.98C424.372 144.346 424.535 136.721 425.951 129.161C426.065 128.551 426.163 127.957 426.553 127.468C426.952 126.972 427.416 126.785 427.953 127.314C432.16 131.448 437.124 130.61 441.877 128.958C449.567 126.289 455.532 121.292 459.732 114.261C460.562 112.861 461.05 111.339 461.66 109.85C461.994 109.028 462.409 108.019 463.377 108.011C464.484 108.003 464.81 109.069 465.086 109.988C468.203 120.291 474.998 127.363 484.577 131.871C487.75 133.36 491.184 133.963 494.708 133.108C495.628 132.88 496.442 132.408 497.174 131.782C498.321 130.805 498.964 131.09 499.331 132.636C499.941 135.248 499.868 137.926 499.908 140.554C500.161 156.374 496.726 171.405 490.061 185.752C485.594 195.371 479.808 204.014 472.028 211.256C469.058 214.023 465.77 216.375 462.214 218.353C460.684 219.207 459.341 219.28 457.762 218.198C451.203 213.714 446.027 207.936 441.592 201.418C441.177 200.807 440.982 199.936 440.079 199.749C440.013 198.927 440.721 198.651 441.193 198.268C446.866 193.687 451.756 188.389 455.858 182.359C456.069 182.049 456.232 181.651 456.737 181.765C457.86 182.652 457.998 184.059 458.527 185.248C459.406 187.249 460.301 187.721 462.425 187.152C466.6 186.029 466.877 185.459 465.257 181.496C464.631 179.966 463.817 178.509 463.426 176.882C463.451 176.475 463.662 176.149 463.98 175.922C465.876 174.554 466.649 172.829 465.754 170.551C465.843 169.794 466.462 169.468 466.999 169.11C467.837 168.549 468.561 167.889 468.992 166.962C469.399 165.904 469.245 164.952 468.512 164.089C468.227 163.755 468.016 163.381 468.04 162.909C468.398 161.737 469.432 160.842 469.383 159.516C469.416 157.953 468.252 156.863 467.772 155.504C467.853 154.714 468.439 154.071 468.472 153.266C468.211 151.313 467.585 150.653 465.688 150.352C464.972 150.238 464.248 150.295 463.524 150.287C463.084 150.271 462.661 150.222 462.295 149.962C461.611 148.79 462.328 147.707 462.588 146.625C463.54 142.589 463.573 142.597 459.471 141.938C454.759 141.181 455.418 140.733 453.457 145.225C453.172 145.876 452.993 146.584 452.53 147.154C452.163 147.528 451.683 147.699 451.195 147.773C448.908 148.098 447.687 149.498 446.784 151.54C444.587 156.529 441.291 160.728 437.124 164.244C434.968 166.067 432.722 167.784 430.215 169.11C429.524 169.476 428.881 170.168 427.945 169.777V169.802Z" fill="#8BCED7"/>
<path d="M555.629 152.981C557.541 153.534 559.445 153.184 561.342 152.875C561.968 152.249 562.782 152.379 563.547 152.371C572.368 152.273 581.174 151.744 589.995 151.63C593.136 151.589 596.31 151.394 599.451 151.036C600.477 150.922 601.217 150.466 601.82 149.685C602.536 148.766 603.179 147.789 604.017 146.967C605.791 145.234 607.386 145.551 608.411 147.854C609.022 149.229 609.314 150.711 609.909 152.094C610.608 153.722 610.706 153.778 612.35 153.005C612.903 152.745 613.424 152.419 614.018 152.257C615.646 151.809 616.753 152.501 617.021 154.185C617.216 155.398 617.021 156.627 617.192 157.839C617.395 159.231 617.688 159.369 618.885 158.637C619.454 158.295 619.983 157.888 620.577 157.571C621.505 157.082 622.482 156.814 623.417 157.457C624.345 158.1 624.492 159.117 624.321 160.15C623.955 162.34 623.841 164.561 623.572 166.767C623.295 169.037 623.385 169.2 625.664 169.517C627.145 169.729 628.642 169.818 630.131 170.038C632.345 170.364 633.102 172.146 631.677 173.871C630.514 175.279 629.342 176.695 628.04 177.989C627.177 178.851 627.283 179.494 628.447 179.966C629.114 180.235 629.781 180.528 630.359 180.967C631.791 182.066 631.604 183.783 629.968 184.564C628.927 185.061 627.796 184.93 626.697 185.036C625.126 185.191 624.866 185.59 625.346 187.095C625.704 188.202 626.209 189.268 626.363 190.432C626.73 193.247 624.866 194.167 623.035 192.954C622.848 192.832 622.636 192.759 622.303 192.783C621.936 193.825 622.148 194.924 622.197 195.998C622.327 198.626 620.919 199.587 618.535 198.447C617.127 197.772 615.841 196.893 614.58 195.99C613.164 194.973 611.642 194.623 609.892 194.631C597.344 194.68 584.795 194.663 572.246 194.647C571.376 194.647 570.456 194.826 569.659 194.265C567.771 194.232 565.891 194.208 564.003 194.175C563.539 194.167 563.116 194.216 562.88 194.688C562.343 194.037 561.594 194.183 560.894 194.191C554.481 194.273 548.077 194.362 541.664 194.444C541.632 193.101 542.706 192.043 542.551 190.619C542.421 189.463 542.486 188.291 541.925 187.217C541.444 186.298 541.615 185.508 542.429 184.857C542.73 184.613 542.999 184.328 543.276 184.06C544.586 182.774 545.123 181.301 544.342 179.535C543.699 178.086 543.853 176.923 544.903 175.58C546.262 173.847 546.295 171.714 545.196 169.769C544.504 168.541 544.496 167.645 545.351 166.465C546.97 164.228 545.823 161.257 543.056 160.134C541.68 159.581 540.232 159.565 538.792 159.63C537.465 159.687 536.163 159.963 534.812 159.89C533.697 159.833 533.128 160.631 532.892 161.632C532.59 162.885 532.916 164.057 533.534 165.147C534.031 166.018 534.544 166.872 534.934 167.8C535.634 169.46 534.771 170.787 532.949 170.892C532.265 170.933 531.63 170.77 531.004 170.51C528.147 169.33 525.543 167.662 523.395 165.505C520.449 162.535 520.457 159.516 522.434 155.072C523.321 154.12 523.688 152.875 524.306 151.768C526.902 147.122 529.612 145.982 534.747 147.455C536.733 148.025 538.702 148.741 540.24 150.1C544.569 153.933 549.737 153.705 554.953 153.388C555.189 153.372 555.409 153.111 555.629 152.965V152.981Z" fill="#813686"/>
<path d="M427.945 169.802C432.884 167.523 437.035 164.203 440.664 160.191C443.317 157.253 445.368 153.941 446.922 150.312C447.915 147.992 450.031 147.537 452.187 147.146C454.458 146.78 456.411 147.781 458.372 148.652C459.178 149.01 459.967 149.408 460.773 149.783C460.968 149.888 461.155 150.011 461.326 150.149C463.117 151.687 463.662 153.485 462.848 155.137C461.961 156.944 459.788 157.831 457.599 157.27C456.468 156.985 455.353 156.635 454.328 156.057C453.424 155.544 452.651 155.65 451.968 156.488C451.089 157.563 450.128 158.563 449.477 159.809C449.372 160.004 449.209 160.183 449.16 160.394C448.599 162.868 448.932 165.432 448.249 167.922C447.996 168.85 449.144 169.615 449.99 170.184C450.592 170.583 450.91 171.023 450.763 171.836C450.21 174.888 451.349 176.906 454.238 178.143C454.751 178.363 455.32 178.42 455.792 178.729C456.582 179.649 457.314 180.585 456.614 181.895C453.327 187.111 449.241 191.644 444.717 195.794C443.219 197.17 441.624 198.447 440.078 199.774C433.006 205.104 425.357 209.287 416.682 211.338C405.508 213.983 394.766 213.177 384.757 207.073C381.843 205.299 379.353 203.005 376.944 200.628C381.062 195.428 385.164 190.212 389.306 185.028C393 180.406 396.736 175.816 400.455 171.21C402.457 172.862 404.931 173.358 407.356 173.741C414.663 174.872 421.483 173.212 427.953 169.818L427.945 169.802Z" fill="#2E78BD"/>
<path d="M143.704 388.134C149.01 388.215 154.3 388.687 159.598 389.021C164.179 389.314 168.761 389.55 173.342 389.802C177.534 390.038 181.733 390.258 185.924 390.502C186.127 390.51 186.322 390.665 186.526 390.746C186.274 393.098 186.038 395.45 185.753 397.802C185.623 398.843 185.777 399.47 187.006 399.771C189.513 400.398 191.929 401.35 194.249 402.497C194.525 403.254 193.972 403.759 193.655 404.296C192.67 405.964 191.71 407.64 190.636 409.252C190.237 409.846 189.871 410.472 189.692 411.18C189.618 411.457 189.651 411.75 189.944 411.905C190.221 412.051 190.473 411.945 190.701 411.758C191.002 411.498 191.173 411.148 191.392 410.83C192.727 408.861 193.842 406.761 195.071 404.727C195.51 404.003 195.95 403.246 197.008 403.767C198.7 404.751 200.499 405.557 202.069 406.753C202.265 407.738 201.622 408.438 201.207 409.195C200.238 410.936 199.197 412.645 198.212 414.379C197.976 414.794 197.65 415.371 198.212 415.705C198.773 416.031 199.123 415.477 199.376 415.062C200.531 413.166 201.695 411.278 202.785 409.349C203.127 408.755 203.379 407.982 204.332 408.129C209.402 411.734 214.138 415.681 217.295 421.182C218.898 423.965 219.436 426.968 219.037 430.15C218.15 430.801 217.124 430.662 216.14 430.589C207.4 429.954 198.651 429.499 189.911 428.905C180.447 428.254 170.983 427.708 161.526 427.049C157.099 426.74 152.672 426.398 148.245 426.227C147.301 426.154 146.65 425.503 145.926 425.007C144.412 423.981 142.899 422.931 141.222 422.175C140.84 421.89 140.238 421.784 140.343 421.1C141.466 410.114 142.589 399.136 143.712 388.15L143.704 388.134Z" fill="#E19800"/>
<path d="M315.674 383.878C319.255 384.098 322.835 384.293 326.408 384.545C330.485 384.83 334.554 385.172 338.623 385.473C345.06 385.945 351.505 386.401 357.942 386.881C358.097 386.889 358.235 387.011 358.39 387.084C358.17 389.216 357.983 391.357 357.723 393.481C357.592 394.53 357.763 395.141 358.984 395.45C361.49 396.077 363.899 397.029 366.227 398.176C366.503 398.933 365.95 399.438 365.633 399.975C364.648 401.643 363.688 403.319 362.613 404.931C362.215 405.525 361.849 406.151 361.669 406.859C361.596 407.136 361.629 407.429 361.922 407.584C362.198 407.73 362.451 407.624 362.679 407.437C362.98 407.177 363.151 406.827 363.37 406.509C364.705 404.54 365.82 402.44 367.049 400.406C367.488 399.682 367.919 398.925 368.985 399.446C370.678 400.43 372.477 401.236 374.047 402.432C374.243 403.417 373.6 404.117 373.185 404.874C372.216 406.615 371.175 408.324 370.19 410.058C369.954 410.473 369.628 411.05 370.19 411.384C370.751 411.71 371.101 411.156 371.354 410.733C372.509 408.837 373.673 406.949 374.763 405.02C375.105 404.426 375.357 403.653 376.31 403.799C381.379 407.405 386.116 411.351 389.273 416.853C390.876 419.636 391.414 422.639 391.015 425.821C390.071 426.496 388.988 426.333 387.955 426.252C381.103 425.747 374.243 425.389 367.39 424.917C359.602 424.388 351.806 423.908 344.01 423.387C337.988 422.981 331.958 422.614 325.928 422.273C322.111 422.061 318.303 421.727 314.486 421.573C313.607 421.54 312.712 421.41 312.004 420.759C312.484 415.795 312.956 410.839 313.452 405.875C314.055 399.869 314.673 393.863 315.283 387.857C315.414 386.531 315.544 385.213 315.666 383.886L315.674 383.878Z" fill="#E19800"/>
<path d="M325.099 119.078C324.741 119.208 324.31 119.265 324.131 119.656C322.357 123.676 318.589 124.441 314.902 125.132C309.914 126.06 304.99 125.401 300.205 123.847C298.122 123.171 296.136 122.219 294.289 120.99C293.313 120.339 292.881 119.33 292.198 118.492C293.109 115.074 293.98 111.648 294.956 108.254C295.201 107.4 295.184 106.716 294.834 105.911C293.996 103.982 293.199 102.029 293.288 99.8642C293.304 99.4003 293.247 99.026 292.694 98.8307C289.471 97.7239 288.853 93.7852 290.131 91.1566C290.228 90.9613 290.261 90.7416 290.326 90.53C290.163 89.9522 290.546 89.5941 290.871 89.2279C292.881 86.9412 296.454 86.4448 298.903 88.1049C302.207 90.3428 305.503 90.115 308.555 87.4864C310.638 85.688 312.079 83.5477 312.526 80.7645C312.77 79.2427 313.161 78.9823 314.544 79.5601C318.442 81.204 322.43 81.0331 326.474 80.4309C327.581 80.2681 328.631 79.9345 329.632 79.4299C330.169 79.1614 330.69 78.787 331.349 79.0067C332.13 80.3169 332.912 81.6271 333.017 83.1978C331.43 83.1571 328.501 85.4601 328.143 87.0226C328.094 87.2504 328.07 87.4864 328.265 87.6329C328.664 87.934 329.005 87.6899 329.306 87.4376C330.503 86.4285 331.439 85.1834 332.383 83.9464C332.586 83.686 332.749 83.3849 333.009 83.1733C334.311 85.7693 334.393 88.5932 334.458 91.3926C334.596 97.3577 333.343 102.948 329.697 107.839C328.664 109.231 327.353 110.346 326.003 111.412C325.604 112.047 324.945 112.218 324.277 112.242C322.064 112.323 319.842 112.47 317.36 111.973C319.451 113.08 321.356 113.804 323.512 113.715C324.261 113.682 325.083 113.544 325.71 114.179C325.506 115.806 325.303 117.426 325.099 119.053V119.078Z" fill="#2E78BD"/>
<path d="M312.011 420.751C338.346 422.436 364.68 424.12 391.022 425.805C390.949 428.799 389.899 431.672 389.899 434.683C389.899 435.513 389.102 435.806 388.288 435.765C385.798 435.635 383.291 435.668 380.834 435.318C378.628 435 376.415 435.025 374.217 434.838C367.935 434.309 361.62 434.105 355.321 433.731C348.42 433.316 341.519 432.893 334.618 432.396C327.555 431.884 320.491 431.355 313.419 431.07C311.442 430.988 311.027 430.386 311.263 428.344C311.556 425.821 311.759 423.282 312.003 420.751H312.011Z" fill="#E6D4B2"/>
<path d="M331.349 79.0158C325.807 81.9861 320.118 82.1408 314.324 79.8866C313.348 79.5041 313.014 79.4064 312.9 80.741C312.436 85.9412 307.309 90.4333 302.296 90.1973C301.287 90.1485 300.335 89.9206 299.529 89.2533C296.445 86.7061 293.572 86.9177 290.871 89.9043C290.683 90.1078 290.513 90.3193 290.334 90.5309C289.674 90.5472 288.991 90.6611 288.348 90.5472C287.127 90.3194 285.915 89.8636 285.459 88.5941C284.995 87.3327 285.524 86.1934 286.403 85.2576C286.867 84.7612 287.404 84.4926 286.574 83.7602C285.475 82.7918 285.215 81.4002 285.833 80.1063C286.476 78.7473 287.835 77.966 289.276 78.2753C291.408 78.7473 292.124 77.7544 293.035 76.0373C295.094 72.1637 298.699 69.8851 302.589 68.1354C310.752 64.4571 319.174 64.1397 327.719 66.5323C329.688 67.0857 331.479 68.2331 332.911 69.7061C335.108 71.9603 335.727 76.1594 331.365 79.024L331.349 79.0158Z" fill="#010101"/>
<path d="M147.683 425.755C152.785 425.812 157.864 426.309 162.95 426.65C166.986 426.919 171.023 427.131 175.067 427.391C181.537 427.806 188.006 428.245 194.476 428.669C198.236 428.913 201.995 429.157 205.755 429.377C210.182 429.637 214.609 429.881 219.036 430.125C218.963 433.12 217.913 435.985 217.921 438.996C217.921 439.826 217.132 440.135 216.318 440.086C211.964 439.801 207.602 439.557 203.257 439.199C201.165 439.028 199.066 439.02 196.966 438.825C192.515 438.402 188.023 438.353 183.555 438.06C176.003 437.563 168.459 436.969 160.907 436.457C157.815 436.245 154.714 436.164 151.622 436.017C151.247 434.796 151.321 433.527 151.231 432.282C151.182 431.614 151.085 430.972 150.808 430.361C150.409 429.173 149.514 428.359 148.684 427.48C148.228 426.992 147.471 426.634 147.683 425.747V425.755Z" fill="#E6D4B2"/>
<path d="M37.0496 309.164C41.7777 310.768 46.514 312.379 51.2421 313.974C52.593 314.43 53.9601 314.861 55.3192 315.308C53.2196 323.511 51.1119 331.714 49.0123 339.917C48.6786 341.203 48.3369 342.489 48.0032 343.775C46.4489 343.799 45.4479 344.637 44.7643 345.964C44.2516 346.957 43.6332 347.233 42.6973 346.355C41.7452 345.459 40.6954 345.215 39.6049 346.241C39.1736 346.639 38.5551 346.859 38.1482 346.257C37.4239 345.158 36.4637 345.272 35.3569 345.402C33.648 345.606 33.0457 344.89 33.5177 343.514C32.6144 344.426 32.7446 345.061 34.12 345.386C34.7384 345.533 35.2918 345.883 35.2511 346.623C35.2186 347.364 34.5919 347.592 34.0223 347.819C31.7518 348.731 29.9289 347.754 28.1874 346.428C27.5445 344.743 27.7724 343.026 29.2291 342.107C32.5819 340.015 33.1353 336.736 33.6154 333.293C34.7384 325.245 35.9021 317.196 37.0415 309.156L37.0496 309.164Z" fill="#2070B8"/>
<path d="M114.774 309.376C116.711 307.309 119.112 305.804 121.309 304.054C124.727 301.336 128.226 298.732 131.693 296.079C134.891 302.272 138.203 308.408 141.214 314.69C142.346 317.05 144.087 318.051 146.301 317.832C150.182 317.441 151.965 320.9 150.158 324.692C148.294 326.067 146.48 327.556 143.916 327.215C143.363 327.141 142.809 327.125 142.321 326.816C141.353 326.197 141.312 325.197 142.224 324.497C142.492 324.293 142.809 324.196 143.119 324.057C144.82 323.325 144.958 322.641 143.648 321.046C143.908 321.827 144.673 322.478 144.038 323.243C143.371 324.041 142.386 324.244 141.459 323.992C140.303 323.683 139.53 324.017 138.911 324.952C138.399 325.725 137.845 325.766 137.145 325.107C136.242 324.253 135.38 324.448 134.558 325.319C133.304 326.661 133.304 326.637 132.051 325.156C131.172 324.114 130.163 323.414 128.926 324.155C130.497 323.699 131.506 324.147 132.409 325.75C133.313 327.369 133.313 329.184 133.394 330.926C133.508 333.237 133.109 335.556 132.727 337.843C132.662 338.258 132.442 338.551 132.076 338.754C129.382 338.73 127.331 336.712 127.095 333.57C126.924 331.259 126.794 328.916 127.299 326.604C127.437 325.953 127.551 325.302 127.063 324.7C122.945 319.614 119.071 314.332 114.791 309.376H114.774Z" fill="#2070B8"/>
<path d="M522.433 155.089C522.832 156.261 522.075 157.245 521.782 158.246C520.952 161.119 521.855 163.463 523.833 165.351C525.998 167.418 528.545 169.037 531.344 170.193C532.093 170.502 532.874 170.665 533.623 170.421C534.632 170.095 535.275 169.46 534.665 168.289C534.176 167.353 533.688 166.425 533.192 165.497C532.63 164.464 532.191 163.398 532.264 162.177C532.394 160.143 533.501 159.345 535.527 159.451C537.228 159.54 538.953 159.304 540.662 159.255C541.964 159.215 543.185 159.54 544.284 160.281C546.839 161.99 547.368 164.724 545.48 167.149C544.91 167.89 544.837 168.313 545.39 169.119C547.034 171.519 546.749 174.555 544.69 176.549C543.999 177.224 544.137 177.753 544.389 178.445C545.675 181.952 545.488 182.733 542.64 185.215C542.029 185.744 541.875 186.167 542.241 186.908C543.527 189.512 543.364 192.035 541.671 194.436C540.996 194.501 540.329 194.566 539.653 194.631C538.384 194.663 538.278 193.939 538.628 192.987C539.01 191.954 539.564 190.961 539.433 189.797C539.254 188.218 538.554 187.608 536.992 187.917C534.648 188.373 532.28 188.739 529.969 189.292C526.038 190.236 522.043 190.277 518.071 190.562C516.427 190.676 514.759 190.293 513.099 190.212C512.529 190.188 512.033 189.911 511.659 189.455C511.528 188.723 510.804 188.503 510.405 188.007C511.17 186.941 512.334 187.063 513.425 187.006C521.685 186.574 529.863 185.606 537.838 183.262C538.693 183.01 539.547 182.774 540.296 182.269C540.931 181.838 541.403 181.301 541.142 180.463C540.841 179.511 540.084 179.698 539.352 179.796C531.645 180.788 523.939 181.578 516.143 181.358C513.888 181.293 511.756 180.748 509.584 180.324C508.916 180.194 508.485 179.844 508.404 179.136C508.485 178.884 508.574 178.64 508.656 178.388C510.064 177.631 511.585 177.981 513.026 178.103C517.217 178.461 521.343 178.192 525.42 177.2C525.607 177.134 525.794 177.094 525.99 177.069C529.017 177.167 531.971 176.386 534.982 176.223C535.153 176.174 535.324 176.142 535.503 176.117C536.162 176.02 536.837 176.117 537.488 175.906C537.716 175.84 537.944 175.8 538.18 175.775C539.23 175.686 540.19 175.369 541.028 174.717C541.15 174.62 541.272 174.538 541.403 174.457C542.949 173.204 543.242 172.13 542.339 170.998C541.59 170.063 540.621 170.16 539.629 170.445C539.328 170.526 539.018 170.6 538.717 170.697C538.668 170.722 538.595 170.73 538.571 170.771C536.089 174.425 532.777 174.701 529.001 173.131C528.83 173.065 528.675 172.976 528.529 172.87C526.543 171.422 524.427 171.137 521.961 171.519C518.682 172.032 515.353 171.357 512.057 171.137C511.406 171.096 510.747 170.99 510.088 170.933C509.909 170.925 509.738 170.893 509.567 170.844C509.014 170.649 508.485 170.404 508.021 170.022C507.94 169.932 507.907 169.835 507.915 169.737C507.915 169.631 507.94 169.582 507.956 169.582C508.102 169.037 508.623 168.516 508.094 167.914C508.615 167.003 509.453 167.198 510.292 167.247C513.425 167.418 516.541 167.865 519.691 167.711C520.016 167.694 520.358 167.768 520.765 167.515C520.383 166.458 519.365 165.733 519.056 164.626C517.673 161.225 519.707 158.547 520.952 155.699C521.123 155.496 521.351 155.357 521.571 155.227C521.855 155.178 522.148 155.138 522.433 155.089Z" fill="#020102"/>
<path d="M69.8029 253.093C68.3218 254.257 66.7105 254.778 64.8469 254.135C64.318 253.956 63.5693 253.744 63.4879 253.281C63.1136 251.165 61.5104 249.366 61.8278 247.12C61.9173 246.502 61.8603 246.144 61.5511 245.647C60.1839 243.458 61.1198 240.569 63.5042 239.536C63.8053 239.405 64.3831 239.283 64.3831 239.178C64.2936 236.826 66.8163 236.126 67.4511 234.189C68.0614 232.325 70.6818 231.097 72.6919 231.65C73.5708 231.894 74.0428 231.74 74.6775 231.113C76.2319 229.591 77.9978 229.371 79.9834 230.446C80.6345 230.804 80.9518 230.494 81.4401 230.275C83.3932 229.388 84.7929 229.738 85.9729 231.577C86.3961 232.236 86.8274 232.073 87.3645 232.089C89.7245 232.163 91.1568 233.44 91.4009 235.808C91.4579 236.346 91.6857 236.541 92.0275 236.834C93.5981 238.136 94.0701 239.796 93.3703 241.399C92.6786 242.994 91.3928 243.645 89.2851 243.466C87.4622 242.042 85.2324 241.627 83.1003 240.952C81.7087 240.512 80.3578 241.033 79.0557 241.212C78.1931 241.326 77.7048 242.775 77.3549 243.678C76.7364 245.24 75.1414 245.745 74.295 247.039C73.8881 247.674 72.936 247.275 72.2687 247.039C70.8934 246.559 69.6483 246.542 68.7124 247.844C67.8742 249.008 68.0289 250.31 69.1519 251.799C69.4449 252.19 69.8518 252.524 69.8111 253.085L69.8029 253.093Z" fill="#010101"/>
<path d="M65.474 419.554C72.8063 419.375 80.1304 419.383 87.4626 419.554C87.2836 423.403 87.1045 427.253 86.9255 431.102C86.5105 431.557 85.9408 431.598 85.3874 431.606C82.7752 431.631 80.1629 431.785 77.5669 431.557C71.6344 431.037 65.6856 431.208 59.7612 431.403C56.3514 431.517 52.9416 432.225 49.5075 432.453C48.7425 432.501 47.9531 432.729 47.3184 432.054C48.6937 429.157 51.1757 427.342 53.7229 425.617C54.7564 424.917 55.912 424.388 57.0187 423.786C58.1418 424.168 58.8904 425.145 59.9402 425.641C60.2413 425.78 60.5994 426.016 60.8598 425.723C61.2098 425.324 60.7947 425.039 60.5669 424.738C60.0379 424.046 58.9718 423.916 58.7196 422.948C59.452 422.557 60.2088 422.223 61.0389 422.109C62.3816 422.793 63.3419 423.957 64.5382 424.827C64.8799 425.08 65.295 425.495 65.6775 425.023C66.0437 424.575 65.6042 424.225 65.295 423.916C64.53 423.167 63.4151 422.72 63.2768 421.458C64.1475 420.978 65.7263 421.328 65.474 419.554Z" fill="#A871AE"/>
<path d="M147.685 425.755C148.775 427.22 150.517 428.164 151.054 430.06C150.476 430.686 149.744 430.556 149.028 430.467C140.865 429.425 132.679 429.002 124.459 429.319C120.911 429.458 117.371 429.71 113.815 429.62C113.001 429.596 112.131 429.759 111.447 429.1C111.3 425.576 111.162 422.052 111.016 418.528C117.152 418.048 123.288 417.544 129.432 417.121C130.522 417.047 131.588 416.575 132.703 416.868C132.557 418.602 133.647 419.196 135.096 419.456C134.99 420.661 133.924 421.1 133.2 421.808C132.858 422.142 132.28 422.508 132.695 423.012C133.134 423.541 133.574 422.988 133.956 422.711C135.112 421.881 136.023 420.742 137.325 420.099C138.164 420.213 138.912 420.547 139.645 420.937C139.433 421.865 138.432 421.987 137.92 422.614C137.659 422.939 137.114 423.232 137.504 423.704C137.806 424.062 138.221 423.729 138.554 423.558C139.539 423.061 140.279 422.166 141.337 421.784C143.706 422.695 145.626 424.315 147.669 425.755H147.685Z" fill="#A871AE"/>
<path d="M69.8048 253.093C68.991 252.279 68.0552 251.563 67.8029 250.326C67.5506 249.089 67.7866 247.982 68.6899 247.111C69.5932 246.241 70.6593 245.948 71.9044 246.444C73.1251 246.932 74.476 247.673 74.891 245.484C74.9317 245.256 75.3955 244.987 75.6804 244.963C76.543 244.89 76.5755 244.377 76.779 243.669C77.0882 242.611 78.2682 241.928 78.3496 240.683C78.3496 240.65 78.4472 240.585 78.4798 240.593C80.1725 241.22 81.914 239.503 83.6067 240.707C83.9485 240.951 84.4367 241.203 84.8111 241.155C86.87 240.886 88.0581 242.196 89.2869 243.466C89.5473 246.078 89.9135 248.666 89.3927 251.302C89.0753 252.93 88.7173 254.444 87.2931 255.445C86.4305 256.047 86.5689 256.861 86.7316 257.674C86.8618 258.317 87.0897 258.944 87.2687 259.579C84.2333 262.94 78.903 263.566 75.3711 261.792C74.4678 261.337 73.9307 260.173 72.6775 260.425C73.3692 258.692 73.8493 256.991 72.1648 255.477C71.9044 255.241 71.7579 254.794 71.7172 254.427C71.5951 253.199 70.9197 252.841 69.7967 253.085L69.8048 253.093Z" fill="#2E78BD"/>
<path d="M47.3186 432.045C50.9969 431.752 54.7078 431.671 58.3373 430.914C58.8744 430.8 59.4277 430.784 59.9811 430.768C68.9654 430.532 77.9415 431.109 86.9176 431.093C86.8525 433.03 86.8362 434.967 86.7141 436.895C86.6165 438.401 85.5748 438.727 84.2483 438.718C79.3086 438.686 74.3689 438.702 69.4374 438.694C62.7236 438.686 56.0098 438.67 49.2961 438.653C46.7408 438.653 46.2444 438.1 46.6757 435.553C46.871 434.381 46.3908 433.079 47.3186 432.045Z" fill="#637681"/>
<path d="M111.455 429.101C120.268 429.125 129.082 428.482 137.895 428.791C141.582 428.922 145.211 429.784 148.914 429.898C149.63 429.922 150.346 429.996 151.062 430.053C151.9 431.981 151.917 433.983 151.632 436.018C150.965 436.644 150.135 436.661 149.288 436.661C137.627 436.677 125.965 436.701 114.303 436.709C112.163 436.709 111.659 436.172 111.626 434.073C111.602 432.413 111.52 430.761 111.455 429.101Z" fill="#637681"/>
<path d="M511.668 189.464C517.853 190.392 523.981 190.05 530.1 188.764C532.631 188.235 535.203 187.853 537.709 187.185C538.531 186.966 539.003 187.242 539.434 188.015C540.411 189.781 540.208 191.45 539.117 193.012C538.458 193.956 538.71 194.363 539.67 194.648C532.639 197.846 525.445 198.326 518.113 195.868C515.81 195.095 513.849 193.793 512.433 191.767C511.953 191.083 511.513 190.375 511.676 189.48L511.668 189.464Z" fill="#813686"/>
<path d="M508.404 179.144C508.624 179.372 508.648 179.746 509.071 179.811C510.984 180.129 512.88 180.707 514.8 180.78C520.79 181.016 526.771 180.902 532.728 180.023C535.3 179.649 537.936 179.771 540.459 178.998C540.988 178.835 541.338 179.185 541.468 179.632C541.68 180.34 542.29 181.024 541.655 181.813C541.118 182.489 540.451 182.945 539.637 183.205C533.656 185.109 527.528 186.24 521.278 186.875C517.657 187.249 513.97 187.087 510.406 187.998C507.818 185.475 507.387 182.464 508.404 179.128V179.144Z" fill="#813686"/>
<path d="M535.634 176.525L535.528 176.59L535.414 176.541C532.769 176.573 530.181 177.192 527.528 177.168C526.975 177.168 526.414 177.119 525.966 177.534L525.852 177.591L525.738 177.542C522.442 177.46 519.244 178.339 515.948 178.429C514.638 178.461 513.36 178.217 512.066 178.331C511.472 178.388 511.033 178.12 510.593 177.721C509.194 176.46 509.177 176.476 508.567 178.193C506.386 175.393 506.175 172.391 507.957 169.583L508.054 169.616L508.038 169.721C508.315 170.307 508.925 170.283 509.413 170.47C509.503 170.421 509.576 170.429 509.641 170.511C510.26 171.04 511.033 170.836 511.725 170.877C515.037 171.056 518.341 171.487 521.669 171.373C522.41 171.349 523.061 171.08 523.777 170.983C525.86 170.714 527.276 172.203 529.026 172.797L528.993 172.773C530.897 173.945 532.956 174.051 535.064 173.571C536.439 173.253 537.278 172.22 537.986 171.097C538.189 170.779 538.262 170.372 538.637 170.185C538.93 170.169 539.231 170.153 539.524 170.145C540.329 169.965 541.086 169.868 541.819 170.486C543.194 171.634 543.332 172.561 542.209 173.945C541.933 174.287 541.648 174.604 541.33 174.905L541.355 174.881C540.427 175.516 539.28 175.646 538.303 176.167C538.124 176.183 537.953 176.199 537.774 176.207C537.09 176.516 536.293 176.101 535.626 176.525H535.634Z" fill="#813686"/>
<path d="M521.571 155.228C521.489 155.334 521.408 155.431 521.327 155.537C518.731 158.092 518.031 161.071 519.382 164.489C520.204 165.636 521.018 166.784 521.962 168.118C519.187 168.297 516.582 168.175 513.978 167.964C512.025 167.809 510.064 167.321 508.103 167.923C504.978 163.504 506.589 159.134 511.399 157.01C514.637 155.578 518.047 155.016 521.579 155.228H521.571Z" fill="#813786"/>
<path d="M143.435 215.863C141.376 217.181 140.774 219.305 141.531 222.308C142.076 224.464 143.313 226.222 144.672 227.89C146.137 229.697 147.667 231.455 149.392 233.025C151.459 234.905 152.582 237.184 152.379 240.065C152.224 242.368 152.566 244.589 154.137 246.453C154.576 246.974 154.625 247.617 154.096 248.097C153.421 248.707 152.883 248.235 152.395 247.731C150.613 245.867 150.149 243.588 150.344 241.131C150.58 238.12 149.433 235.768 147.089 233.921C146.438 233.408 145.885 232.773 145.291 232.195C143.981 231.601 143.549 230.112 142.386 229.363C141.914 228.9 141.653 228.289 141.295 227.744C139.269 224.741 138.048 221.527 139.008 217.856C139.448 216.188 140.001 214.512 142.093 214.17C142.679 214.626 143.102 215.195 143.427 215.863H143.435Z" fill="#010102"/>
<path d="M142.102 214.171C139.359 215.725 138.635 219.322 139.522 223.106C139.929 224.856 141.068 226.223 141.727 227.834C141.199 228.03 140.857 227.696 140.596 227.346C137.374 222.968 134.143 218.59 131.946 213.577C131.693 213.007 131.555 212.421 131.726 211.795C132.589 208.743 136.397 208.295 138.399 210.403C139.612 211.681 141.003 212.787 142.11 214.179L142.102 214.171Z" fill="#2E78BD"/>
<path d="M131.716 211.794C133.856 217.58 137.51 222.446 141.091 227.362C141.238 227.565 141.506 227.679 141.718 227.842C141.986 228.273 142.263 228.713 142.531 229.144C143.516 230.145 144.411 231.211 145.038 232.489C146.08 233.913 147.105 235.345 148.155 236.761C148.627 237.404 148.936 238.104 148.171 238.641C147.439 239.162 146.845 238.73 146.364 238.071C142.133 232.22 137.356 226.76 133.775 220.436C132.685 218.516 131.724 216.538 131.187 214.382C130.959 213.478 130.764 212.559 131.285 211.672C131.423 211.713 131.57 211.761 131.708 211.802L131.716 211.794Z" fill="#010103"/>
<path d="M124.825 217.011C126.436 218.5 126.933 220.697 128.292 222.365C132.938 228.062 136.69 234.434 141.581 239.943C142.11 240.537 142.338 241.245 141.662 241.848C141.003 242.434 140.336 241.986 139.929 241.481C137.984 239.073 136.031 236.656 134.208 234.157C131.083 229.869 128.015 225.547 125.565 220.827C124.979 219.704 124.556 218.508 124.052 217.336C124.304 217.23 124.564 217.117 124.817 217.011H124.825Z" fill="#010103"/>
<path d="M137.015 339.047C135.509 339.771 134.077 339.397 132.669 338.746C132.392 337.199 132.97 335.718 133.084 334.205C133.222 332.341 133.369 330.494 133.239 328.622C133.173 327.67 133.523 326.783 134.028 325.969C135.159 324.13 136.534 324.138 137.674 325.993C138.146 326.758 138.3 327.629 138.455 328.5C138.601 331.446 138.317 334.351 137.747 337.232C137.511 337.834 137.47 338.526 137.023 339.047H137.015Z" fill="#2070B7"/>
<path d="M43.5437 356.259C41.6069 357.219 39.6701 358.147 37.4078 357.447C36.6021 356.08 37.2938 354.656 37.2938 353.264C37.2938 351.164 37.7252 349.089 38.8075 347.234C39.3446 346.314 40.0363 345.386 41.2407 345.533C42.437 345.688 43.088 346.64 43.5193 347.706C43.796 348.381 43.8937 349.114 43.7553 349.822C43.3322 351.962 43.5112 354.11 43.5356 356.259H43.5437Z" fill="#2070B7"/>
<path d="M138.065 328.451C137.731 327.409 137.625 326.27 136.763 325.448C136.079 324.797 135.452 324.699 134.818 325.513C134.004 326.555 133.597 327.727 133.646 329.045C133.752 331.934 133.296 334.774 132.979 337.63C132.938 338.005 132.767 338.371 132.661 338.737C132.458 338.737 132.254 338.745 132.051 338.753C132.873 335.059 133.215 331.332 132.621 327.564C132.49 326.75 132.181 325.969 131.652 325.301C130.676 324.073 129.715 323.926 128.429 324.87C128.226 325.017 128.12 325.407 127.803 325.106C127.445 324.764 127.754 324.536 128.014 324.317C129.129 323.356 130.659 323.389 131.79 324.366C132.433 324.919 132.767 325.668 133.166 326.392C135.306 323.422 135.827 323.316 138.179 325.489C138.936 323.942 139.814 322.771 141.873 323.698C142.305 323.894 143.533 323.674 143.916 322.941C144.282 322.242 143.485 321.794 143.07 321.306C142.785 320.972 142.329 320.63 142.809 320.199C143.175 319.865 143.517 320.215 143.81 320.484C144.575 321.184 145.177 321.989 144.941 323.096C144.738 324.081 143.932 324.317 143.07 324.463C142.402 324.569 141.881 324.935 141.857 325.627C141.833 326.392 142.524 326.652 143.102 326.742C144.477 326.953 145.82 326.953 147.13 326.229C148.107 325.684 148.913 324.772 150.133 324.691C149.8 325.171 149.474 325.643 149.14 326.123C148.229 327.157 147.065 327.849 145.755 328.085C144.396 328.329 144.062 329.029 144.119 330.266C144.201 332.04 143.696 333.781 143.769 335.563C143.794 336.133 143.631 336.662 143.127 337.02C142.882 337.044 142.638 337.061 142.394 337.085C141.613 336.369 141.841 335.441 141.963 334.595C142.142 333.334 142.174 332.064 142.207 330.795C142.24 329.435 142.207 328.142 141.06 327.149C140.506 326.669 140.758 325.765 140.083 325.163C139.033 326.188 139.163 327.466 139.139 328.711C139.115 329.997 139.513 331.356 138.577 332.52C137.715 331.958 138.309 331.12 138.179 330.412C138.057 329.769 138.284 329.094 138.04 328.451H138.065Z" fill="#050912"/>
<path d="M138.651 332.43C138.903 330.827 138.822 329.224 138.691 327.621C138.618 326.636 138.936 325.765 139.416 324.943C139.684 324.471 140.124 324.211 140.669 324.374C141.149 324.52 141.1 324.976 141.051 325.358C140.946 326.327 141.149 327.092 142.15 327.531C142.915 327.865 142.793 328.646 142.769 329.281C142.679 331.885 142.541 334.481 142.419 337.077C141.149 338.184 139.888 339.323 138 338.436C137.511 336.361 137.902 334.375 138.643 332.422L138.651 332.43Z" fill="#2170B7"/>
<path d="M121.984 227.24C123.978 228.192 124.987 230.145 126.313 231.716C129.959 236.021 133.035 240.79 136.721 245.07C137.234 245.664 137.511 246.389 136.73 246.95C135.989 247.479 135.371 247.015 134.882 246.413C130.057 240.424 125.377 234.336 121.683 227.558C121.78 227.452 121.886 227.346 121.984 227.24Z" fill="#010205"/>
<path d="M43.5427 356.258C42.794 356.022 42.9894 355.387 43.0056 354.874C43.0382 353.23 42.8347 351.562 43.2986 349.934C43.4044 349.576 43.38 349.161 43.323 348.779C43.1196 347.469 42.5987 346.11 41.2641 345.882C40.0028 345.67 39.3354 346.923 38.8472 347.998C37.8625 350.162 37.8788 352.506 37.6509 354.801C37.5614 355.68 37.4881 356.559 37.4149 357.438C37.244 357.438 37.0812 357.438 36.9103 357.429C36.1454 356.811 36.1779 355.94 36.2919 355.135C36.593 352.994 36.536 350.813 37.1789 348.722C37.2928 348.348 37.3823 347.973 37.3661 347.574C37.3417 347.119 37.2766 346.606 36.829 346.435C36.1861 346.191 36.2105 346.875 35.9989 347.2C35.8768 347.387 35.828 347.631 35.6571 347.762C33.2076 349.552 33.5087 352.311 33.1588 354.842C33.053 355.623 33.3785 356.559 32.3857 357.031C32.1415 357.039 31.873 357.153 31.694 356.868C31.0022 356.013 31.3847 355.069 31.4905 354.158C31.58 353.393 31.637 352.62 31.7672 351.855C31.9137 351.041 32.3857 350.195 32.1253 349.422C31.816 348.486 30.6767 348.885 29.9687 348.518C29.3096 348.185 28.6748 347.892 28.4551 347.111C28.3656 346.883 28.276 346.655 28.1865 346.435C29.1712 346.476 29.9036 347.151 30.7581 347.509C32.052 348.046 33.232 347.737 34.4202 347.273C34.7619 347.135 35.1444 346.883 35.0386 346.403C34.9654 346.053 34.6968 345.841 34.3306 345.809C33.4762 345.735 32.4345 345.613 32.4996 344.58C32.5729 343.53 33.3948 342.773 34.469 342.464C34.8677 342.928 34.4771 343.115 34.2981 343.359C33.9888 343.774 33.11 344.148 33.525 344.612C33.9237 345.06 34.8026 345.394 35.5188 345.068C36.7395 344.515 37.659 344.718 38.3019 345.906C38.4891 346.256 38.6193 346.354 39.0506 346.134C41.728 344.742 41.7361 344.759 43.6974 346.761C44.8692 345.402 45.2273 342.863 47.986 343.774C47.9616 343.986 47.9291 344.205 47.9046 344.417C45.9271 345.166 44.975 346.671 44.7309 348.697C44.4786 350.789 44.0229 352.856 44.2019 354.98C44.2345 355.354 44.3484 355.769 43.9415 356.038C43.8031 356.111 43.6648 356.184 43.5265 356.258H43.5427Z" fill="#040710"/>
<path d="M43.9513 356.038C43.4142 352.71 43.8211 349.455 44.9929 346.33C45.4324 345.15 46.1729 343.864 47.9144 344.409C49.2816 347.005 49.1514 349.715 48.5248 352.45C47.9795 354.85 46.2136 355.778 43.9431 356.03L43.9513 356.038Z" fill="#2271B8"/>
<path d="M347.38 201.499C343.905 198.586 340.088 196.137 336.475 193.402C334.978 192.271 333.423 191.205 331.926 190.058C331.356 189.626 331.039 188.983 331.535 188.324C331.983 187.738 332.61 187.836 333.163 188.243C338.168 191.897 343.164 195.551 348.161 199.205C348.242 199.261 348.275 199.392 348.332 199.481C347.6 199.953 347.868 200.905 347.38 201.499Z" fill="#E6D3B1"/>
<path d="M32.3857 357.031C32.8822 354.72 32.7601 352.328 33.403 350.033C33.6553 349.137 33.7529 348.21 34.9248 347.933C35.5595 347.778 35.8443 347.184 35.8118 346.501C35.7874 346.013 35.9176 345.597 36.4466 345.492C37.0243 345.378 37.3824 345.768 37.6265 346.216C38.066 347.038 37.9846 347.876 37.7405 348.771C36.9592 351.603 36.6907 354.5 36.9104 357.438C35.3479 357.967 33.8099 358.122 32.3939 357.031H32.3857Z" fill="#2070B7"/>
<path d="M143.15 337.02C143.313 334.383 143.517 331.747 143.606 329.102C143.639 328.231 143.744 327.775 144.762 327.824C146.463 327.914 147.659 326.612 149.164 326.115C148.798 327.32 149.343 328.5 149.213 329.728C148.766 333.708 147.073 335.816 143.159 337.02H143.15Z" fill="#2271B8"/>
<path d="M28.4631 347.11C29.4071 347.761 30.3755 348.543 31.5636 348.429C32.9389 348.29 33.0773 348.811 32.7355 349.926C32.0438 352.188 31.9543 354.54 31.6938 356.868C28.8212 356.721 27.7063 355.525 27.6737 352.628C27.6493 350.74 28.1457 348.941 28.4631 347.11Z" fill="#2371B8"/>
<path d="M196.999 403.76C196.128 403.532 195.876 404.183 195.534 404.761C194.208 406.991 192.873 409.212 191.522 411.426C191.091 412.134 190.627 413.021 189.618 412.451C188.584 411.865 189.138 411.027 189.561 410.311C191.107 407.707 192.678 405.103 194.24 402.507C195.16 402.93 196.079 403.345 196.999 403.768V403.76Z" fill="#E6D3B1"/>
<path d="M368.985 399.429C368.115 399.201 367.862 399.852 367.521 400.43C366.194 402.66 364.859 404.881 363.509 407.095C363.077 407.803 362.613 408.69 361.604 408.12C360.571 407.534 361.124 406.696 361.547 405.98C363.094 403.368 364.664 400.772 366.227 398.176C367.146 398.599 368.066 399.014 368.985 399.437V399.429Z" fill="#E6D3B1"/>
<path d="M204.323 408.113C203.111 408.789 202.875 410.156 202.183 411.189C201.255 412.565 200.507 414.054 199.652 415.478C199.262 416.129 198.733 416.715 197.903 416.267C197.056 415.804 197.309 415.055 197.691 414.388C199.14 411.832 200.604 409.293 202.061 406.746C202.818 407.202 203.575 407.658 204.332 408.113H204.323Z" fill="#E6D3B1"/>
<path d="M376.31 403.783C375.097 404.459 374.861 405.826 374.17 406.859C373.242 408.235 372.493 409.724 371.639 411.148C371.248 411.799 370.719 412.385 369.889 411.937C369.043 411.473 369.295 410.725 369.677 410.057C371.126 407.502 372.591 404.963 374.047 402.416C374.804 402.872 375.561 403.327 376.318 403.783H376.31Z" fill="#E6D3B1"/>
<path d="M325.708 114.205C322.29 114.433 319.043 113.977 315.82 111.535C319.507 111.682 322.786 112.504 326.001 111.43C326.09 112.374 326.123 113.31 325.708 114.197V114.205Z" fill="#03050E"/>
<path d="M508.567 178.193C508.925 177.591 507.541 176.899 508.656 176.354C509.73 175.825 510.284 176.598 510.845 177.282C511.537 178.128 514.198 178.69 515.126 178.161C515.403 178.006 515.622 177.55 515.948 177.737C517.803 178.795 519.439 177.754 521.148 177.29C522.694 176.867 524.183 177.754 525.73 177.542C521.604 178.828 517.396 178.917 513.132 178.568C511.643 178.445 510.145 178.462 508.648 178.405C508.542 178.372 508.51 178.307 508.559 178.201L508.567 178.193Z" fill="#813686"/>
<path d="M137.341 420.1C136.413 421.524 134.891 422.314 133.72 423.477C133.296 423.901 132.654 424.006 132.23 423.534C131.758 423.005 131.937 422.363 132.434 421.907C133.329 421.093 134.387 420.458 135.111 419.449C135.917 419.449 136.657 419.677 137.341 420.092V420.1Z" fill="#647682"/>
<path d="M63.2688 421.45C63.9443 422.337 64.8313 422.996 65.7102 423.672C66.3287 424.152 66.7437 424.86 66.1415 425.519C65.6044 426.113 64.9046 425.771 64.4 425.259C63.3177 424.16 61.8854 423.436 61.0391 422.093C61.7226 421.678 62.4632 421.45 63.2688 421.45Z" fill="#647682"/>
<path d="M58.7125 422.939C59.624 423.444 60.4703 424.038 61.2109 424.77C61.5852 425.137 61.8782 425.568 61.5038 426.064C61.1051 426.585 60.511 426.602 60.039 426.243C58.9974 425.47 57.7685 424.909 57.0117 423.778C57.5814 423.501 58.1429 423.216 58.7125 422.939Z" fill="#647682"/>
<path d="M141.361 421.785C140.596 422.908 139.375 423.469 138.334 424.242C137.862 424.592 137.268 424.584 136.869 424.063C136.495 423.567 136.796 423.136 137.17 422.77C137.919 422.037 138.757 421.443 139.668 420.938C139.896 420.987 140.116 421.036 140.344 421.085C140.686 421.321 141.027 421.549 141.369 421.785H141.361Z" fill="#647682"/>
<path d="M138.651 332.43C138.44 334.432 138.22 336.434 138.008 338.444C137.837 338.607 137.675 338.77 137.504 338.932C137.024 338.501 137.178 337.98 137.3 337.468C137.797 334.481 138.081 331.486 138.073 328.459C138.846 329.704 137.854 331.201 138.651 332.438V332.43Z" fill="#131F33"/>
<path d="M137.301 337.468C137.366 337.956 137.439 338.444 137.504 338.933C137.39 339.177 137.203 339.095 137.024 339.047C137.089 338.518 136.837 337.932 137.301 337.468Z" fill="#2170B7"/>
<path d="M244.419 198.081C243.98 197.495 243.207 197.495 242.678 197.064C245.257 191.123 247.837 185.191 250.425 179.25C250.555 178.949 250.669 178.632 250.824 178.339C251.174 177.688 251.695 177.264 252.443 177.614C253.143 177.94 253.102 178.599 252.858 179.201C252.158 180.886 251.434 182.562 250.71 184.239C248.871 188.511 247.023 192.775 245.176 197.039C245.005 197.438 244.908 197.902 244.419 198.081Z" fill="#E6D3B1"/>
<path d="M569.666 194.265C578.772 194.216 587.87 194.159 596.977 194.111C599.638 194.094 602.331 194.314 604.968 194.037C609.997 193.517 614.489 194.461 618.379 197.838C619.128 198.489 620.137 199.001 621.13 198.342C621.984 197.773 621.757 196.812 621.708 195.909C621.626 194.534 621.683 193.142 621.683 191.677C622.44 191.685 622.847 192.361 623.449 192.67C624.092 192.996 624.751 193.354 625.476 192.825C626.118 192.361 626.192 191.661 626.021 191.026C625.581 189.374 625.109 187.714 624.499 186.119C624.092 185.061 624.344 184.728 625.419 184.695C626.631 184.654 627.852 184.54 629.056 184.394C629.903 184.288 630.741 184.06 630.912 183.035C631.091 181.961 630.423 181.448 629.553 181.017C627.263 179.888 627.014 178.356 628.804 176.419C629.707 175.442 630.57 174.433 631.473 173.448C632.01 172.854 632.173 172.179 631.905 171.447C631.62 170.665 630.952 170.462 630.171 170.405C628.129 170.25 626.086 169.998 624.035 169.908C623.01 169.868 622.839 169.436 622.937 168.558C623.254 165.807 623.522 163.048 623.832 160.298C623.938 159.337 624.108 158.296 623.197 157.702C622.229 157.067 621.285 157.571 620.43 158.174C619.885 158.556 619.323 158.914 618.762 159.272C617.012 160.395 616.971 160.395 616.76 158.271C616.63 157.002 616.687 155.724 616.589 154.446C616.451 152.632 615.376 152.038 613.724 152.803C613.627 152.851 613.529 152.908 613.431 152.965C611.305 154.099 609.845 153.551 609.053 151.322C608.646 150.174 608.329 148.994 607.881 147.863C607.108 145.918 605.733 145.69 604.358 147.22C604.138 147.464 603.861 147.7 603.731 147.993C602.274 151.322 599.459 151.745 596.244 151.81C587.87 151.981 579.496 152.274 571.131 152.656C567.859 152.811 564.596 152.949 561.325 152.884C560.47 148.416 559.624 143.957 558.745 139.497C558.305 137.267 559.078 136.258 561.341 136.511C568.445 137.308 575.55 138.187 582.654 139.017C589.644 139.831 596.643 140.596 603.642 141.41C612.235 142.402 620.821 143.428 629.406 144.421C636.291 145.218 643.176 145.991 650.06 146.772C653.087 147.114 656.115 147.448 659.15 147.782C659.809 147.855 660.46 148.034 661.128 147.83C662.552 147.399 663.276 147.944 663.626 149.393C666.702 162.112 669.811 174.824 672.928 187.543C674.93 195.73 676.948 203.917 678.982 212.095C679.552 214.39 678.901 215.147 676.598 214.797C663.39 212.803 650.174 210.826 636.966 208.832C625.622 207.115 614.278 205.357 602.934 203.648C592.9 202.135 582.866 200.621 572.823 199.221C570.992 198.969 570.13 198.204 570.008 196.422C569.959 195.706 569.78 195.006 569.658 194.29L569.666 194.265Z" fill="#91CAD9"/>
<path d="M616.019 260.979C615.726 261.996 615.425 263.168 615.043 264.316C614.351 266.415 613.57 268.482 612.911 270.59C612.577 271.656 612.129 271.876 610.982 271.566C598.238 268.116 585.47 264.731 572.709 261.329C571.481 261.003 570.268 260.58 569.023 260.352C567.794 260.133 567.485 259.644 567.989 258.473C569.324 255.372 570.195 252.092 571.66 249.041C572.254 247.804 573.035 247.356 574.443 247.755C583.313 250.278 592.208 252.743 601.094 255.234C605.302 256.414 609.501 257.61 613.692 258.831C614.725 259.132 615.922 259.319 616.019 260.971V260.979Z" fill="#271E29"/>
<path d="M622.481 258.482C620.153 257.921 617.679 257.343 615.214 256.725C607.019 254.649 598.824 252.558 590.629 250.475C584.2 248.839 577.779 247.203 571.358 245.551C568.811 244.9 568.339 244.038 569.291 241.71C570.024 239.912 570.537 237.731 572.034 236.665C573.605 235.542 575.533 237.104 577.258 237.568C588.375 240.522 599.459 243.582 610.559 246.609C615.303 247.903 620.039 249.221 624.8 250.426C626.159 250.768 626.558 251.313 626.086 252.631C625.622 253.933 625.321 255.292 624.865 256.594C624.499 257.62 623.913 258.49 622.481 258.482Z" fill="#271E29"/>
<path d="M644.975 256.423C645.373 254.535 646.513 252.549 647.327 250.441C648.043 248.586 648.791 246.73 649.613 244.916C649.971 244.118 649.825 243.679 649.044 243.361C648.637 243.19 648.246 242.971 647.855 242.767C645.398 241.506 645.089 240.692 646.138 238.169C647.034 236.021 647.864 233.848 648.865 231.748C650.004 229.372 650.777 229.095 653.218 229.974C655.977 230.967 658.728 232.001 661.454 233.091C663.643 233.97 663.863 234.556 663.041 236.721C660.339 243.866 657.629 251.003 654.911 258.14C654.634 258.864 654.35 259.588 653.788 260.166C653.332 260.638 652.885 260.866 652.169 260.597C650.207 259.849 648.214 259.173 646.22 258.506C645.365 258.221 644.918 257.708 644.967 256.423H644.975Z" fill="#271E29"/>
<path d="M564.239 243.181C562.75 243.198 561.497 242.685 560.211 242.376C557.794 241.798 555.401 241.09 553.001 240.447C550.877 239.878 550.275 238.836 550.95 236.777C551.414 235.361 551.935 233.953 552.464 232.562C552.895 231.414 553.562 230.991 554.913 231.39C559.21 232.659 563.547 233.782 567.869 234.946C568.788 235.198 569.049 235.459 568.56 236.541C567.738 238.356 566.965 240.187 566.07 241.969C565.655 242.799 565.077 243.295 564.239 243.173V243.181Z" fill="#271E29"/>
<path d="M653.511 221.755C657.898 222.618 662.284 223.448 666.662 224.343C669.201 224.864 669.429 225.393 668.469 227.85C667.964 229.136 667.468 230.43 667.012 231.732C666.483 233.238 665.466 233.433 664.107 232.92C662.813 232.432 661.486 232.041 660.217 231.496C658.125 230.601 655.944 230.072 653.747 229.502C650.858 228.762 650.533 228.078 650.948 225.173C651.029 224.628 651.176 224.091 651.224 223.545C651.338 222.105 652.177 221.649 653.511 221.747V221.755Z" fill="#271E29"/>
<path d="M642.443 240.707C639.513 239.959 636.144 239.096 632.783 238.25C631.717 237.981 630.651 237.68 629.569 237.477C628.438 237.265 628.072 236.687 628.421 235.597C628.975 233.863 629.488 232.114 630.057 230.38C630.318 229.567 630.708 229.152 631.766 229.428C636.348 230.641 640.962 231.731 645.568 232.871C646.357 233.066 646.667 233.375 646.276 234.27C645.47 236.142 644.771 238.071 644.079 239.991C643.859 240.61 643.558 240.943 642.451 240.716L642.443 240.707Z" fill="#271E29"/>
<path d="M644.144 255.609C643.249 257.668 642.411 259.653 641.516 261.606C640.954 262.827 639.848 263.055 638.7 262.786C635.046 261.907 631.4 260.988 627.779 260.003C626.713 259.71 626.111 258.921 626.51 257.7C627.063 256.024 627.681 254.364 628.162 252.655C628.446 251.654 628.878 251.515 629.838 251.792C634.143 253.029 638.472 254.185 642.793 255.356C643.2 255.47 643.632 255.511 644.144 255.609Z" fill="#271E29"/>
<path d="M607.947 278.809C604.765 278.036 601.225 277.19 597.677 276.327C594.723 275.603 591.785 274.822 588.815 274.171C587.854 273.959 587.578 273.65 587.928 272.73C588.318 271.697 588.652 270.639 588.977 269.589C589.295 268.547 590.019 269.003 590.605 269.158C594.934 270.297 599.264 271.477 603.593 272.633C605.571 273.162 607.556 273.674 609.534 274.187C611.479 274.692 611.584 274.903 610.787 276.832C610.087 278.533 609.664 278.883 607.947 278.817V278.809Z" fill="#271E29"/>
<path d="M567.144 262.859C571.498 264.023 575.656 265.138 579.815 266.253C581.629 266.741 583.42 267.319 585.251 267.709C586.292 267.937 586.366 268.328 585.959 269.182C585.625 269.874 585.3 270.623 585.202 271.371C584.998 272.942 584.25 273.121 582.85 272.747C577.682 271.371 572.482 270.102 567.29 268.808C566.216 268.539 565.044 268.092 565.069 266.92C565.093 265.52 565.598 264.104 566.558 262.965C566.688 262.81 567.071 262.867 567.144 262.859Z" fill="#271E29"/>
<path d="M641.491 218.915C644.274 219.468 646.496 219.851 648.693 220.371C650.296 220.754 650.89 221.926 650.313 223.521C649.605 225.49 648.766 227.419 648.058 229.388C647.782 230.169 647.301 230.259 646.65 230.104C643.916 229.445 641.19 228.786 638.464 228.119C637.919 227.988 637.471 227.744 637.902 227.093C639.286 225.034 639.619 222.601 640.409 220.323C640.669 219.574 640.661 218.386 641.491 218.915Z" fill="#271E29"/>
<path d="M612.398 220.127C612.854 218.548 613.407 216.579 613.977 214.618C614.204 213.828 614.709 213.902 615.409 213.999C618.314 214.398 621.114 215.334 624.051 215.545C624.955 215.611 625.435 216.001 625.06 217.1C624.377 219.085 623.848 221.128 623.246 223.138C623.026 223.879 622.7 224.196 621.797 223.944C618.973 223.163 616.125 222.487 613.269 221.812C612.52 221.633 612.227 221.258 612.398 220.127Z" fill="#271E29"/>
<path d="M617.289 225.832C620.61 226.654 623.775 227.419 626.941 228.224C627.641 228.403 627.649 228.916 627.445 229.551C626.811 231.496 626.184 233.449 625.647 235.418C625.403 236.322 624.817 236.216 624.239 236.061C621.244 235.28 618.266 234.434 615.271 233.652C614.49 233.449 614.368 233.099 614.612 232.35C615.222 230.462 615.8 228.558 616.272 226.629C616.459 225.873 616.842 225.775 617.297 225.832H617.289Z" fill="#271E29"/>
<path d="M637.919 219.313C637.17 221.877 636.438 224.473 634.819 226.702C634.526 227.101 634.208 227.036 633.801 226.93C631.401 226.304 628.992 225.702 626.583 225.091C625.834 224.904 625.688 224.497 625.924 223.74C626.559 221.69 627.096 219.606 627.706 217.539C627.893 216.921 628.276 216.424 629.032 216.571C631.685 217.075 634.33 217.612 636.991 218.093C637.724 218.223 638.131 218.499 637.927 219.313H637.919Z" fill="#271E29"/>
<path d="M610.689 232.505C607.702 231.716 604.716 230.935 601.729 230.145C601.168 229.999 601.135 229.633 601.257 229.12C601.705 227.305 602.144 225.474 602.535 223.643C602.763 222.561 603.422 222.333 604.374 222.569C607.263 223.301 610.136 224.074 613.033 224.766C613.838 224.953 614.001 225.222 613.733 226.003C613.106 227.826 612.553 229.681 611.999 231.537C611.796 232.229 611.438 232.603 610.681 232.505H610.689Z" fill="#271E29"/>
<path d="M647.774 246.576C646.96 248.626 646.146 250.669 645.316 252.712C645.153 253.119 644.844 253.045 644.494 252.907C641.752 251.857 638.928 251.108 636.072 250.441C634.997 250.189 634.753 249.554 635.103 248.594C635.461 247.609 635.852 246.633 636.202 245.64C637.593 241.652 636.91 242.499 640.588 243.321C642.468 243.736 644.299 244.33 646.163 244.834C647.025 245.07 647.733 245.436 647.774 246.568V246.576Z" fill="#271E29"/>
<path d="M587.219 226.418C584.192 225.604 581.531 224.888 578.87 224.18C578.211 224.001 577.999 223.692 578.186 222.975C578.667 221.104 578.976 219.199 579.806 217.425C580.091 216.807 580.253 216.441 581.108 216.685C583.655 217.393 586.235 217.987 588.806 218.597C589.824 218.833 590.206 219.354 589.848 220.379C589.27 222.048 588.741 223.74 588.155 225.409C587.952 225.978 587.724 226.621 587.219 226.426V226.418Z" fill="#271E29"/>
<path d="M580.099 228.005C579.359 230.105 578.716 232.033 577.975 233.929C577.764 234.475 577.218 234.377 576.681 234.231C573.817 233.425 570.944 232.652 568.063 231.903C567.144 231.667 567.192 231.423 567.599 230.577C568.177 229.364 568.332 227.956 568.649 226.622C568.975 225.271 569.601 224.734 571.107 225.214C573.678 226.028 576.323 226.597 578.927 227.33C579.375 227.452 580.123 227.362 580.107 228.013L580.099 228.005Z" fill="#271E29"/>
<path d="M608.525 220.509C605.904 219.882 603.276 219.28 600.655 218.629C600.086 218.482 599.915 218.075 600.143 217.473C600.761 215.821 601.363 214.161 601.9 212.485C602.153 211.695 602.511 211.467 603.357 211.654C605.562 212.126 607.792 212.485 610.006 212.9C611.056 213.095 611.552 213.608 611.153 214.747C610.608 216.309 610.063 217.864 609.762 219.508C609.648 220.142 609.371 220.712 608.517 220.517L608.525 220.509Z" fill="#271E29"/>
<path d="M620.194 246.12C618.11 245.542 615.873 244.948 613.651 244.305C612.78 244.053 612.853 243.272 613.024 242.645C613.472 241.001 614.001 239.374 614.522 237.754C614.79 236.916 615.376 236.713 616.222 236.957C618.241 237.518 620.267 238.039 622.301 238.544C623.319 238.796 623.831 239.146 623.319 240.35C622.651 241.921 622.171 243.565 621.659 245.2C621.439 245.892 621.073 246.234 620.186 246.128L620.194 246.12Z" fill="#271E29"/>
<path d="M566.411 224.432C565.874 226.547 565.419 228.484 564.882 230.389C564.694 231.048 564.043 230.852 563.596 230.73C560.983 230.014 558.396 229.217 555.775 228.533C554.913 228.305 554.815 227.866 555.124 227.215C555.865 225.669 556.638 224.131 557.444 222.609C557.712 222.096 558.103 221.836 558.811 222.039C560.983 222.674 563.189 223.203 565.37 223.797C565.801 223.919 566.411 223.911 566.411 224.423V224.432Z" fill="#271E29"/>
<path d="M594.128 231.252C596.553 231.887 599.125 232.538 601.688 233.238C602.356 233.417 602.063 233.913 601.892 234.32C601.119 236.151 600.297 237.974 600.077 239.976C600.004 240.668 599.605 240.497 599.272 240.407C596.92 239.789 594.576 239.13 592.232 238.511C591.508 238.324 591.166 237.885 591.313 237.177C591.711 235.272 592.24 233.417 593.201 231.708C593.372 231.399 593.575 231.155 594.128 231.252Z" fill="#271E29"/>
<path d="M634.518 242.205C633.997 243.646 633.525 245.062 632.963 246.445C631.856 249.204 631.84 249.196 628.968 248.48C628.593 248.382 628.227 248.268 627.844 248.17C625.132 247.498 624.212 245.862 625.086 243.263C626.233 239.837 626.233 239.862 629.757 240.472C631.181 240.716 632.467 241.457 633.923 241.546C634.265 241.571 634.509 241.839 634.509 242.205H634.518Z" fill="#271E29"/>
<path d="M574.426 223.122C572.155 222.504 569.755 221.861 567.362 221.177C566.679 220.982 566.817 220.437 566.996 219.948C567.37 218.907 567.769 217.873 568.143 216.831C569.291 213.609 569.307 213.527 572.53 214.569C573.75 214.968 574.995 215.155 576.216 215.456C577.128 215.684 577.486 216.026 577.087 216.954C576.371 218.638 575.899 220.396 575.557 222.194C575.467 222.683 575.223 223.163 574.434 223.114L574.426 223.122Z" fill="#271E29"/>
<path d="M596.221 217.49C593.82 216.847 591.427 216.196 589.019 215.569C588.376 215.398 588.246 215.065 588.473 214.463C589.035 212.957 589.564 211.443 590.109 209.938C590.313 209.368 590.638 209.271 591.265 209.401C593.535 209.856 595.822 210.198 598.101 210.613C599.101 210.792 599.541 211.256 599.085 212.355C598.516 213.73 598.076 215.154 597.58 216.562C597.352 217.205 597.002 217.636 596.229 217.498L596.221 217.49Z" fill="#271E29"/>
<path d="M597.799 229.135C595.398 228.509 593.364 227.98 591.338 227.434C590.743 227.272 590.573 226.849 590.76 226.271C591.346 224.423 591.915 222.576 592.526 220.737C592.737 220.094 593.128 219.736 593.909 219.948C595.667 220.428 597.441 220.851 599.207 221.282C599.972 221.469 600.289 221.746 600.004 222.658C599.451 224.448 599.044 226.279 598.645 228.118C598.491 228.85 598.206 229.233 597.791 229.143L597.799 229.135Z" fill="#271E29"/>
<path d="M609.07 243.125C607.1 242.58 605.025 242.01 602.958 241.424C602.445 241.278 602.274 240.928 602.502 240.399C603.3 238.584 603.658 236.599 604.74 234.89C605.025 234.434 605.261 234.1 605.912 234.287C607.654 234.8 609.403 235.297 611.177 235.712C612.056 235.923 612.203 236.314 611.942 237.119C611.356 238.893 610.803 240.684 610.315 242.49C610.128 243.19 609.696 243.158 609.078 243.125H609.07Z" fill="#271E29"/>
<path d="M578.772 207.033C581.547 207.546 584.143 208.042 586.747 208.506C587.61 208.661 587.463 209.19 587.268 209.735C586.788 211.086 586.291 212.437 585.811 213.788C585.575 214.455 585.225 214.715 584.436 214.504C582.1 213.877 579.732 213.356 577.38 212.771C576.77 212.616 576.119 212.372 576.363 211.558C576.77 210.24 577.242 208.946 577.747 207.66C577.942 207.172 578.349 206.862 578.772 207.025V207.033Z" fill="#271E29"/>
<path d="M587.212 237.111C585.503 236.647 583.477 236.118 581.459 235.541C580.816 235.362 580.702 234.938 580.857 234.247C581.263 232.448 582.118 230.821 582.639 229.071C582.834 228.396 583.363 228.42 583.843 228.542C585.772 229.038 587.684 229.608 589.613 230.08C590.443 230.284 590.541 230.69 590.28 231.398C589.678 233.067 588.929 234.678 588.628 236.444C588.514 237.119 588.083 237.201 587.204 237.111H587.212Z" fill="#271E29"/>
<path d="M567.591 204.853C569.91 205.308 572.173 205.756 574.435 206.195C574.834 206.277 574.972 206.545 574.956 206.911C574.956 207.074 574.907 207.237 574.85 207.392C573.051 212.331 574.337 212.006 569.341 210.687C568.014 210.337 566.655 210.093 565.32 209.768C564.45 209.556 564.108 209.092 564.629 208.205C564.987 207.595 565.296 206.944 565.597 206.301C566.012 205.422 566.712 204.975 567.599 204.853H567.591Z" fill="#271E2A"/>
<path d="M563.05 220.111C562.994 220.103 562.937 220.095 562.888 220.079C558.274 218.777 558.99 219.729 560.747 215.945C560.959 215.497 561.187 215.049 561.415 214.61C563.083 211.461 562.53 212.16 565.5 212.795C566.477 213.007 566.664 213.349 566.273 214.26C565.557 215.928 564.914 217.629 564.304 219.346C564.068 219.997 563.685 220.209 563.05 220.119V220.111Z" fill="#281E2A"/>
<path d="M145.04 232.473C144.112 231.423 143.192 230.373 142.533 229.128C143.892 229.755 144.437 231.105 145.292 232.188C145.211 232.285 145.129 232.375 145.04 232.473Z" fill="#115A9B"/>
<path d="M455.662 178.861C452.968 178.47 451.178 176.997 450.145 174.466C449.632 173.205 450.885 171.927 450.324 171.064C449.762 170.194 448.452 169.779 447.915 168.672C447.443 167.704 447.435 166.678 448.004 165.824C448.623 164.904 448.769 164.172 448.354 163.057C447.581 160.99 449.258 159.557 450.12 157.946C450.324 157.564 450.682 157.263 450.975 156.929C452.757 154.911 452.708 155.033 455.288 156.066C456.866 156.693 458.502 157.686 460.366 156.872C463.084 155.692 463.621 152.917 461.505 150.874C461.228 150.606 460.927 150.362 460.634 150.101C461.066 149.149 461.709 149.491 462.36 149.808C462.75 149.825 463.141 149.841 463.531 149.865C465.354 151.005 465.33 152.819 465.273 154.658C466.656 154.699 467.438 153.063 468.894 153.405C468.813 154.227 468.43 154.919 467.958 155.57C467.478 156.579 466.437 156.791 465.574 157.254C461.725 159.321 457.607 160.453 453.245 160.64C452.912 160.656 452.578 160.672 452.26 160.786C451.715 160.99 451.235 161.299 451.186 161.926C451.129 162.634 451.723 162.861 452.244 163.024C454.246 163.643 456.313 163.512 458.331 163.244C461.92 162.764 465.362 161.755 468.463 159.777C468.854 159.533 469.277 159.126 469.806 159.557C469.863 160.99 469.065 162.007 468.178 162.992C467.918 163.675 467.34 164.001 466.705 164.245C462.164 166.011 457.526 167.15 452.594 166.377C451.837 166.255 450.901 166.06 450.674 167.101C450.454 168.11 451.39 168.355 452.09 168.639C454.531 169.64 457.102 169.551 459.625 169.266C462.213 168.981 464.744 168.338 467.055 167.036C467.788 166.629 468.618 166.035 469.383 167.044C468.789 168.794 467.071 169.372 465.826 170.454C465.672 171.3 464.939 171.39 464.321 171.536C461.245 172.269 458.16 172.944 454.962 172.489C454.222 172.383 453.473 172.35 453.074 173.131C452.659 173.921 453.18 174.499 453.668 175.044C454.287 175.744 455.206 176.151 455.621 177.054C455.825 177.656 456.134 178.258 455.638 178.869L455.662 178.861Z" fill="#010102"/>
<path d="M455.664 178.861L455.379 177.079C455.761 176.778 456.201 176.794 456.64 176.843C458.569 177.07 460.481 177.152 462.377 176.615C462.809 176.493 463.248 176.468 463.631 176.794C464.632 179.048 465.6 181.327 466.658 183.565C467.268 184.85 466.837 185.664 465.747 186.331C464.501 187.088 463.142 187.552 461.726 187.788C459.895 188.089 459 187.438 458.243 185.648C457.714 184.395 457.405 183.036 456.624 181.88C456.681 180.757 456.176 179.805 455.672 178.861H455.664Z" fill="#411F15"/>
<path d="M469.822 159.556C464.972 162.6 459.715 164.146 453.954 163.869C453.221 163.837 452.513 163.715 451.854 163.454C451.17 163.178 450.194 162.885 450.454 161.924C450.69 161.037 451.301 160.036 452.407 160.232C455.199 160.728 457.77 159.581 460.334 159.019C463.003 158.433 465.436 156.773 467.967 155.585C469 156.716 469.757 157.978 469.814 159.564L469.822 159.556Z" fill="#2E78BD"/>
<path d="M462.368 149.816C461.798 149.938 461.163 149.669 460.651 150.109C459.349 149.555 458.022 149.043 456.744 148.424C455.296 147.732 453.685 147.643 452.195 147.146C452.903 145.478 453.611 143.81 454.327 142.142C454.751 141.157 455.394 140.726 456.549 140.978C458.274 141.352 460.032 141.58 461.774 141.849C463.629 142.142 464.044 142.695 463.597 144.55C463.173 146.3 462.498 147.993 462.376 149.816H462.368Z" fill="#411F16"/>
<path d="M469.415 167.035C468.667 166.539 468.072 166.994 467.43 167.336C462.872 169.802 458.03 170.396 452.977 169.46C452.236 169.322 451.536 168.923 450.82 168.63C450.039 168.305 449.656 167.67 449.99 166.897C450.307 166.164 450.706 165.562 451.846 165.766C457.615 166.815 463.019 165.521 468.186 162.982C469.179 164.154 470.262 165.302 469.407 167.035H469.415Z" fill="#2E78BD"/>
<path d="M463.63 176.802C460.903 177.673 458.153 177.86 455.378 177.087C454.588 176.403 453.766 175.76 453.018 175.036C452.399 174.434 451.992 173.644 452.464 172.806C452.944 171.944 453.734 171.797 454.743 171.944C458.576 172.489 462.279 171.895 465.859 170.446C466.999 172.619 466.698 174.247 464.875 175.777C464.46 176.118 464.045 176.46 463.63 176.802Z" fill="#2E78BD"/>
<path d="M468.903 153.405C467.511 153.958 466.429 155.228 464.631 155.252C465.33 153.226 464.655 151.493 463.54 149.865C464.305 149.865 465.086 149.8 465.835 149.898C468 150.182 468.797 151.135 468.895 153.405H468.903Z" fill="#2E78BD"/>
<path d="M328.638 92.9321C328.769 95.585 328.687 97.6195 327.434 99.4099C326.116 101.298 323.601 101.371 322.226 99.5482C321.835 99.0274 321.607 98.4659 322.112 97.8962C322.633 97.3021 323.17 97.53 323.739 97.8881C325.196 98.8158 325.603 98.6856 326.132 96.9766C326.677 95.2188 326.905 93.4204 326.474 91.5812C326.376 91.158 326.368 90.7023 326.327 90.2629C326.27 89.563 326.523 89.0259 327.263 88.9282C327.93 88.8469 328.199 89.3107 328.419 89.8885C328.874 91.0848 328.565 92.3136 328.638 92.9321Z" fill="#010104"/>
<path d="M293.955 95.1126C294.036 94.8196 294.199 94.4046 294.272 93.9733C294.361 93.3955 294.589 92.6793 293.474 92.9723C293.1 93.0699 292.734 92.834 292.555 92.4189C292.343 91.9306 292.579 91.5563 292.872 91.2145C293.816 90.0996 296.713 89.5951 297.967 90.3356C298.52 90.6693 298.951 91.1169 298.675 91.833C298.471 92.3701 298.032 92.6386 297.486 92.362C296.64 91.9225 296.526 92.5573 296.412 93.0699C296.233 93.8756 296.135 94.6975 296.013 95.5113C295.891 96.2681 295.68 96.9924 294.703 96.8459C293.702 96.6995 294.085 95.8531 293.963 95.1044L293.955 95.1126Z" fill="#010207"/>
<path d="M322.396 104.797C320.744 104.854 319.198 104.773 317.742 105.457C317.115 105.75 316.35 105.758 316.057 104.96C315.78 104.22 316.252 103.683 316.944 103.422C319.638 102.397 322.388 102.201 325.196 102.885C325.839 103.04 326.067 103.504 326.001 104.138C325.928 104.789 325.456 104.92 324.927 104.903C324.048 104.887 323.161 104.83 322.396 104.789V104.797Z" fill="#010205"/>
<path d="M322.526 88.6026C320.426 87.6261 318.083 86.56 315.771 85.4451C315.259 85.1929 315.202 84.6151 315.389 84.1268C315.633 83.5002 316.252 83.37 316.781 83.5978C319.051 84.5744 321.305 85.5835 323.527 86.6495C324.023 86.8855 324.357 87.3575 324.064 88.033C323.804 88.6352 323.299 88.5701 322.518 88.6108L322.526 88.6026Z" fill="#010206"/>
<path d="M332.999 83.1911C332.397 85.4616 330.534 86.7393 328.987 88.2529C328.613 88.6191 328.117 88.3831 327.799 88.0576C327.417 87.6589 327.368 87.0973 327.71 86.6904C328.817 85.3965 329.972 84.1351 331.144 82.8982C331.868 82.1414 332.413 82.9226 333.008 83.2074L332.999 83.1911Z" fill="#01020A"/>
<path d="M319.011 91.524C318.278 91.4507 317.79 91.0438 317.774 90.3846C317.758 89.6522 318.181 89.164 319.027 89.1884C319.817 89.2047 320.126 89.7092 320.134 90.3602C320.134 91.0438 319.686 91.4507 319.011 91.5321V91.524Z" fill="#030714"/>
<path d="M330.908 88.5537C331.706 88.6188 332.088 89.0257 332.088 89.7256C332.088 90.3115 331.86 90.816 331.177 90.8649C330.452 90.9137 330.062 90.5231 329.989 89.8151C329.915 89.0827 330.347 88.7327 330.908 88.5537Z" fill="#040714"/>
<path d="M540.077 162.242C540.077 162.242 540.126 162.242 540.183 162.242C541.591 162.332 543.064 162.405 543.552 164.081C543.853 165.123 542.592 166.327 540.859 166.791C540.273 166.946 539.662 167.044 539.068 167.149C538.141 167.312 537.425 167.092 537.132 166.075C537.058 165.815 536.904 165.571 536.774 165.326C535.862 163.531 536.448 162.557 538.531 162.405C539.028 162.364 539.524 162.307 540.077 162.242Z" fill="#803685"/>
<path d="M529.026 172.797C528.863 172.781 528.66 172.829 528.538 172.748C525.934 171.072 523.085 171.324 520.164 171.446C517.039 171.576 513.898 171.275 510.765 171.169C510.26 171.153 509.731 171.202 509.642 170.502C514.866 171.015 520.082 171.267 525.331 170.86C526.739 170.754 527.895 171.942 529.026 172.789V172.797Z" fill="#813686"/>
<path d="M519.382 164.489C517.445 161.665 518.552 157.669 520.294 155.895C520.611 155.57 520.937 155.521 521.327 155.545C520.937 156.522 520.619 157.531 520.139 158.467C519.146 160.396 518.52 162.349 519.382 164.497V164.489Z" fill="#733077"/>
<path d="M538.637 170.185C537.066 174.099 532.012 175.458 528.993 172.781C529.685 172.976 530.377 173.171 531.06 173.375C533.803 174.188 536.106 173.366 537.717 171.007C537.953 170.665 538.051 170.136 538.645 170.193L538.637 170.185Z" fill="#813686"/>
<path d="M541.329 174.904C541.435 174.651 541.517 174.383 541.655 174.155C543.185 171.689 542.436 170.29 539.515 170.143C541.427 169.256 542.314 169.826 543.087 171.535C543.689 172.861 542.965 174.114 541.321 174.904H541.329Z" fill="#813686"/>
<path d="M525.973 177.533C526.176 177.134 526.421 176.638 526.901 176.719C529.757 177.232 532.573 176.19 535.413 176.54C532.28 177.012 529.155 177.541 525.965 177.533H525.973Z" fill="#813686"/>
<path d="M538.311 176.167C539.108 175.215 540.337 175.296 541.362 174.881C540.524 175.727 539.499 176.134 538.311 176.167Z" fill="#813686"/>
<path d="M535.633 176.525C536.268 175.882 537.057 176.272 537.781 176.207C537.114 176.639 536.365 176.525 535.633 176.525Z" fill="#813686"/>
<path d="M509.413 170.469C508.795 170.518 508.185 170.543 508.038 169.721C508.494 169.973 508.958 170.217 509.413 170.469Z" fill="#813686"/>
<path d="M86.0071 246.607C87.0651 248.162 87.3173 249.789 86.5117 251.515C86.2269 252.125 85.7305 252.499 85.0713 252.434C84.2819 252.353 83.8425 251.751 83.5169 251.075C83.46 250.961 83.4925 250.733 83.5739 250.652C83.8587 250.359 84.0785 250.611 84.2494 250.815C84.5667 251.189 84.8434 251.734 85.4375 251.458C86.0153 251.197 85.999 250.587 86.0804 250.025C86.2431 248.878 85.8037 247.771 86.0153 246.616L86.0071 246.607Z" fill="#0D172A"/>
<path d="M72.303 248.968C70.0163 248.903 71.4811 250.376 71.2695 251.157C70.0244 250.978 70.651 249.18 69.3896 249.18C69.4954 248.463 70.1546 248.455 70.6266 248.268C71.237 248.024 71.595 248.634 72.303 248.968Z" fill="#0B1526"/>
<path d="M83.3457 256.323C84.192 255.884 84.957 256.128 85.6976 256.063C86.0393 256.03 86.3649 256.161 86.3649 256.584C86.3649 256.991 86.08 257.17 85.7138 257.145C84.9163 257.105 84.0618 257.194 83.3457 256.315V256.323Z" fill="#0D1321"/>
<path d="M84.1272 253.688C83.1263 253.924 82.2962 253.265 81.4417 253.615C81.165 253.729 81.0104 253.468 81.0674 253.257C81.1162 253.086 81.3197 252.866 81.4906 252.817C82.4915 252.541 83.3948 252.606 84.1354 253.688H84.1272Z" fill="#0D1A2E"/>
<path d="M82.248 245.347C81.6377 246.121 80.9948 246.82 79.6357 246.967C80.4414 245.917 81.1413 245.299 82.248 245.347Z" fill="#0F1A2E"/>
<path d="M82.5966 247.309C82.5315 247.594 82.3606 247.797 82.0677 247.822C81.7259 247.854 81.4004 247.805 81.3841 247.358C81.376 247.049 81.5306 246.853 81.848 246.821C82.2223 246.78 82.4583 246.975 82.5966 247.301V247.309Z" fill="#0B1423"/>
<path d="M88.627 246.721C88.5375 246.998 88.3747 247.185 88.0574 247.152C87.7481 247.12 87.5609 246.9 87.5935 246.624C87.6179 246.347 87.8376 246.135 88.1469 246.176C88.4398 246.217 88.5863 246.436 88.627 246.721Z" fill="#11233D"/>
<path d="M87.3496 244.582C88.0413 244.322 88.4157 244.59 88.6761 245.054C88.7249 245.136 88.5703 245.453 88.5296 245.445C88.0251 245.404 87.6182 245.184 87.3496 244.582Z" fill="#0D1829"/>
<path d="M454.108 158.067C453.742 158.246 453.221 158.328 453.148 158.092C453.026 157.709 453.368 157.555 453.75 157.766C453.881 157.839 453.978 157.953 454.117 158.067H454.108Z" fill="#1A5E9F"/>
<defs>
<clipPath id="clip0_292_676">
<rect width="625" height="486" rx="12" fill="white"/>
</clipPath>
</defs>
</svg>
