<svg width="792" height="486" viewBox="0 0 792 486" fill="none" xmlns="http://www.w3.org/2000/svg">
<g clip-path="url(#clip0_292_676)">
<rect width="760.906" height="486" rx="12" fill="#DAC9AD"/>
<path d="M824.981 -148.78C831.121 -149.08 837.312 -149.066 843.452 -148.78L851.511 -148.483L859.571 -148.038L868.638 -146.554C871.866 -145.624 875.129 -144.158 878.209 -141.952C881.41 -139.658 883.895 -137.048 885.597 -134.233L888.788 -125.476L891.138 -113.007L892.65 -96.9756L892.986 -82.7256L893.489 -69.0694L893.825 -61.9444L894.329 -54.8194L894.665 -39.5303V-25.2803L893.657 -8.9522L891.642 5.2978C891.191 8.76626 890.995 12.2333 890.97 15.6914V24.2978L891.138 31.4228L891.81 43.7431L892.818 50.8681L893.657 57.9931L894.329 75.2119L893.993 82.3369L893.489 89.4619C893.261 93.7553 893.212 98.0836 893.321 102.376L893.657 116.626C893.778 121.351 894.018 126.151 894.161 130.876L894.497 145.126L893.993 161.454L892.65 175.704C892.277 179.696 892.152 183.741 892.314 187.727L892.986 201.977L893.489 216.227L893.825 223.352L893.993 230.477V245.915L893.657 253.04L893.489 260.165L892.482 275.306L891.978 282.431L891.306 289.556C890.977 293.29 890.955 297.101 891.306 300.837L892.65 315.087L893.489 330.524L893.825 344.774L893.154 352.048C892.58 354.613 891.539 357.297 889.963 359.915C888.271 362.719 886.134 365.185 883.583 367.188L874.851 371.79L869.31 373.868L863.601 375.946C856.967 378.339 849.848 379.38 842.78 379.657L826.66 380.251L808.022 380.102L799.961 379.657L791.902 379.063C787.945 378.828 783.961 379.062 779.98 379.509L763.861 381.29L742.872 381.438L734.812 380.845L726.752 380.102C722.773 379.759 718.807 379.78 714.831 380.102L706.77 380.696L698.71 381.438L679.569 381.735L663.449 381.142C658.932 380.969 654.369 381 649.848 381.29L641.789 381.884L633.729 382.329L615.93 382.923L607.87 382.774H599.81L581.675 381.884L565.556 380.399C561.59 380.034 557.595 380.08 553.634 380.399L537.515 381.587L516.862 381.438L500.742 379.657C496.737 379.225 492.637 379.107 488.652 379.36L480.592 379.954L472.533 380.399L454.734 380.993L446.674 380.845H438.614L420.983 380.251L412.923 379.657L404.864 379.212H392.27L384.21 379.806L376.151 380.548L356.673 380.696L348.613 380.102L340.553 379.657H327.625L319.564 380.251L311.504 380.696C305.485 381.096 299.394 381.24 293.37 381.142L277.25 380.845L262.306 380.993L222.007 382.477L213.948 382.626L194.133 381.884L186.074 380.845L178.014 379.954L166.596 379.657L150.476 380.845L131.67 381.142L115.55 380.548H100.942L92.8823 380.696L84.8228 380.993L69.2066 381.587L61.147 381.884L53.0874 382.329L35.9605 382.774L27.8999 382.923H3.04932L-13.0708 382.626L-30.3657 381.735L-38.4253 381.29L-46.4849 380.696C-51.4429 380.337 -56.475 380.059 -61.4292 379.954L-77.5483 379.657L-92.1567 379.806L-108.277 380.399C-112.666 380.581 -120.272 380.345 -127.25 376.243C-135.896 371.138 -138.844 363.096 -138.669 356.352L-138.333 346.259L-139.004 336.462L-139.676 329.337L-140.516 322.212C-141.202 315.885 -140.951 309.504 -139.844 303.212L-138.669 296.087L-137.326 288.962L-137.158 280.056L-138.166 272.931L-139.34 265.806C-140.238 259.539 -140.171 253.226 -139.34 246.954L-138.501 239.829L-137.494 232.704V222.907L-138.501 215.782L-139.34 208.657C-140.101 202.976 -140.382 197.286 -140.18 191.587L-140.012 184.462L-139.676 177.337C-139.512 172.687 -139.443 168.034 -139.34 163.384L-139.004 149.134C-138.894 144.121 -138.679 139.004 -138.333 133.993L-137.326 119.743L-137.662 108.61L-139.34 94.3603C-140.029 88.4788 -140.041 82.5852 -139.508 76.6962L-138.166 62.4462C-137.794 58.3504 -137.719 54.216 -137.83 50.1259L-138.166 35.8759C-138.288 31.3406 -138.542 26.7559 -138.836 22.2197L-139.844 7.96968C-140.216 2.17363 -139.902 -3.616 -139.172 -9.39751L-137.494 -23.6475V-33.7413L-139.172 -47.9913C-139.853 -53.4751 -140.24 -58.9706 -140.18 -64.4678L-140.012 -71.5928V-78.7178C-139.952 -84.1053 -139.513 -89.5217 -138.836 -94.8975L-137.998 -102.023L-136.99 -109.148C-136.15 -115.805 -133.892 -124.04 -127.083 -130.523L-123.557 -133.788L-120.031 -137.202L-113.65 -141.804C-106.887 -145.559 -99.3469 -146.686 -93.3325 -146.851L-85.2729 -146.999L-77.2134 -147.296C-71.677 -147.447 -66.126 -147.554 -60.5893 -147.593H-44.4702L-27.3433 -147.444L-11.2231 -146.851C-6.70702 -146.707 -2.14498 -146.827 2.37745 -147.148L18.4976 -148.335L37.3032 -148.632L45.3628 -148.335L53.4233 -147.89L68.5347 -147.593H84.6548L102.286 -146.999L110.345 -146.405L118.405 -145.96L133.013 -145.515H149.133L163.91 -145.96L180.029 -146.851C185.507 -147.149 191.005 -147.368 196.484 -147.593L204.544 -147.89L212.604 -148.335C218.817 -148.59 225.034 -148.438 231.243 -148.038L239.302 -147.593L247.362 -146.999C252.299 -146.679 257.373 -146.457 262.306 -146.405H270.366L278.425 -146.257L292.698 -146.702L308.818 -147.593C315.314 -147.997 321.805 -147.953 328.295 -147.444L344.416 -146.257L356.169 -146.405L364.229 -147.148L372.289 -148.038L391.766 -148.632L399.827 -148.335L407.886 -148.187H422.159L438.279 -148.78C444.417 -149.019 450.614 -148.991 456.749 -148.632L472.869 -147.741C477.462 -147.471 482.215 -147.42 486.805 -147.593L502.924 -148.187L519.884 -148.483H560.015L568.075 -148.632C573.429 -148.668 578.841 -148.731 584.195 -148.78H592.254L600.314 -148.929C606.019 -148.98 611.737 -148.827 617.441 -148.632L633.561 -148.038L650.52 -147.296L666.639 -146.108L678.897 -146.257L695.016 -147.741C701.959 -148.375 708.902 -148.323 715.837 -147.593L723.898 -146.851L731.958 -145.96C735.532 -145.583 739.12 -145.537 742.704 -145.96L750.763 -146.999L758.824 -147.89C765.466 -148.675 772.133 -148.921 778.805 -148.632L786.865 -148.335L794.924 -147.89C799.548 -147.688 804.237 -147.812 808.861 -148.038L816.921 -148.335L824.981 -148.78Z" fill="#E8E0DE"/>
</g>
<path d="M314.572 416.653C387.582 416.653 487.194 424.183 487.194 442.721C487.193 461.258 369.309 466.579 315.671 466.579C240.317 466.579 174.16 458.118 166.212 458.118C158.264 458.118 145.426 463.006 111.594 463.497C46.8689 464.437 24.1148 460.037 24.1143 452.764C24.1143 445.491 62.877 439.255 111.037 438.196C122.839 438.196 136.561 440.094 149.094 441.927C168.137 430.54 234.46 418.415 314.572 416.653Z" fill="#1E1E1E" fill-opacity="0.08"/>
<path d="M360.392 388.65C356.891 388.359 353.39 388.068 349.889 387.787C349.007 387.712 348.059 387.853 347.589 386.801C347.139 385.797 347.674 385.084 348.228 384.361C355.483 374.703 361.64 364.387 366.756 353.462C370.67 345.099 373.88 336.473 375.56 327.359C376.32 323.258 376.611 319.109 375.738 314.97C375.288 312.839 374.208 311.122 372.425 309.751C362.588 302.177 352.273 295.278 342.146 288.098C339.489 286.211 337.002 284.09 334.44 282.072C334.289 281.95 334.149 281.818 333.998 281.696C330.45 278.946 329.362 279.002 326.508 282.372C315.761 295.071 305.061 307.808 294.324 320.517C284.825 331.761 275.298 342.968 265.799 354.204C255.062 366.912 244.352 379.63 233.624 392.348C233.042 393.034 232.3 393.616 231.869 394.376C230.264 397.229 227.805 397.614 224.829 397.295C220.39 396.807 215.922 396.506 211.435 396.563C209.924 396.966 208.385 396.873 206.855 396.769C196.221 396.028 185.567 395.455 174.924 394.826C171.225 394.61 167.527 394.46 163.839 394.113C163.2 394.047 162.562 394.019 162.046 393.55C160.356 393.071 158.62 393.184 156.902 393.127C153.861 393.034 153.035 391.663 154.622 389.167C159.605 381.348 164.646 373.567 169.667 365.777C178.547 352.026 187.435 338.275 196.305 324.525C203.758 312.971 211.21 301.416 218.653 289.862C229.907 272.395 241.161 254.918 252.415 237.45C254.104 234.822 255.991 232.307 257.38 229.482C257.887 228.393 258.901 228.44 259.849 228.412C263.378 228.318 266.879 228.75 270.389 228.928C275.946 229.209 281.493 229.585 287.049 229.942C292.606 230.298 298.153 230.58 303.71 230.946C308.75 231.274 313.8 231.547 318.84 231.847C324.453 232.185 330.075 232.513 335.688 232.87C340.728 233.189 345.778 233.471 350.818 233.762C356.562 234.1 362.307 234.484 368.051 234.794C371.242 234.963 374.434 235.282 377.634 235.32C378.573 235.329 379.586 235.151 380.337 235.967C384.58 236.85 388.851 237.601 393.055 238.633C404.366 241.402 414.916 245.879 424.095 253.181C436.306 262.905 443.487 275.595 446.124 290.913C449.175 308.606 446.068 325.661 440.549 342.415C435.049 359.103 426.789 374.459 417.825 389.514C416.22 392.217 414.765 392.78 412.156 392.386C411.339 392.264 410.495 392.33 409.659 392.311C406.14 392.996 402.676 392.142 399.185 391.964C394.923 391.748 390.662 391.344 386.41 391.025C380.178 390.556 373.945 390.152 367.722 389.617C366.699 389.533 365.686 389.514 364.663 389.458C363.198 389.382 361.725 389.373 360.392 388.613V388.65Z" fill="#BB7FB6"/>
<path d="M380.329 235.995C369.863 235.441 359.388 234.916 348.923 234.343C340.438 233.874 331.953 233.329 323.468 232.822C312.627 232.175 301.777 231.537 290.936 230.889C282.451 230.382 273.966 229.903 265.49 229.34C263.51 229.209 261.548 228.955 259.558 228.984C258.779 228.993 258.019 228.984 257.381 229.509C258.948 225.239 260.506 220.968 262.074 216.697C262.29 216.106 262.487 215.505 262.703 214.914C262.346 214.097 262.853 213.412 263.106 212.727C267.659 200.647 272.258 188.577 276.829 176.497C277.101 175.783 277.401 175.07 277.786 174.404C280.029 170.311 281.578 165.9 283.521 161.667C284.694 159.114 285.736 156.504 286.853 153.923C287.078 153.398 287.332 152.872 287.388 152.29C287.426 151.971 287.407 151.614 287.05 151.474C286.712 151.342 286.421 151.52 286.215 151.783C285.586 152.609 285.276 153.585 284.854 154.515C282.273 160.212 279.982 166.041 277.354 171.729C277.063 172.358 276.904 173.08 276.2 173.437C274.736 173.428 273.534 172.611 272.258 172.076C263.726 168.462 255.269 164.67 246.765 161C246.118 160.719 245.46 160.475 245.029 159.855C241.791 158.044 241.753 158.025 243.414 154.562C253.448 133.678 268.306 116.867 286.937 103.295C300.012 93.7775 314.335 86.9069 330.179 83.3683C331.23 83.1337 332.178 82.5142 333.305 82.5611C335.172 83.847 336.627 85.6585 338.777 86.6347C341.78 87.9957 344.859 88.9812 348.088 89.5537C353.672 90.5393 359.173 90.3703 364.513 88.2866C366.531 87.4982 368.249 86.3625 369.309 84.3726C369.694 83.6405 370.164 82.8802 371.243 83.2369C377.701 83.2088 383.539 85.6022 389.208 88.2209C413.79 99.5499 435.997 114.464 455.83 132.899C457.51 134.466 459.012 136.221 460.598 137.892C461.387 138.727 461.415 139.497 460.561 140.379C459.678 141.29 458.946 142.35 458.148 143.355C457.764 145.072 456.412 146.152 455.389 147.428C447.786 156.927 440.202 166.426 432.6 175.924C432.159 176.478 431.764 177.069 431.032 177.276C427.813 181.255 424.584 185.216 421.383 189.205C419.638 191.374 418.858 191.58 416.634 189.853C410.524 185.104 403.906 181.04 398.031 175.981C395.234 174.648 392.962 172.536 390.466 170.771C387.547 168.706 384.674 166.557 381.784 164.445C381.324 164.107 380.845 163.779 380.319 163.525C379.972 163.356 379.568 163.206 379.277 163.591C378.987 163.957 379.184 164.314 379.428 164.633C379.747 165.046 380.197 165.309 380.601 165.609C385.538 169.26 390.522 172.846 395.468 176.478C396.088 176.938 397.017 177.238 396.933 178.308C391.977 196.32 387.03 214.341 382.056 232.344C381.699 233.648 381.784 235.207 380.301 235.995H380.329Z" fill="#E19800"/>
<path d="M637.151 122.341C635.752 114.466 634.325 106.6 632.964 98.7254C632.683 97.1204 633.659 96.2194 635.395 96.4165C642.454 97.1955 649.512 98.0121 656.57 98.8005C664.136 99.6453 671.701 100.49 679.266 101.316C696.564 103.203 713.863 105.089 731.152 106.976C743.804 108.356 756.457 109.754 769.119 111.096C771.005 111.293 771.7 112.373 772.085 114.043C774.356 123.889 776.684 133.726 778.993 143.572C783.235 161.706 787.468 179.84 791.739 197.964C792.208 199.973 792.105 201.606 790.932 203.54C776.646 227.127 762.501 250.798 748.319 274.442C747.202 276.31 746.02 278.131 744.978 280.036C744.133 281.585 742.922 281.988 741.289 281.622C730.795 279.304 720.292 277.004 709.789 274.705C695.917 271.664 682.035 268.632 668.162 265.6C651.971 262.062 635.78 258.532 619.58 254.994C616.201 254.262 612.831 253.52 609.452 252.798C606.777 252.225 606.543 251.521 607.81 249.015C612.522 239.713 617.703 230.665 622.649 221.495C630.092 207.707 637.564 193.928 645.176 180.234C646.452 177.934 646.48 175.822 645.974 173.467C645.758 172.472 645.673 171.449 645.523 170.435C645.41 169.496 646.142 169.356 646.743 169.337C648.893 169.252 651.051 168.924 653.173 169.59C653.905 170.153 653.961 171.017 654.158 171.815C654.806 174.49 655.059 174.781 657.828 175.184C664.858 176.217 671.888 177.268 678.919 178.329C689.046 179.859 699.174 181.388 709.311 182.881C723.944 185.04 738.567 187.255 753.2 189.423C760.803 190.549 768.415 191.61 775.989 192.896C778.814 193.374 779.34 192.727 778.674 189.949C776.383 180.422 774.074 170.904 771.737 161.396C769.363 151.757 767.054 142.108 764.641 132.478C763.553 128.132 762.567 123.758 761.45 119.412C760.878 117.169 760.568 117.019 758.325 116.925C753.66 116.728 749.014 116.118 744.386 115.564C736.127 114.578 727.848 113.696 719.588 112.692C712.727 111.857 705.857 111.077 698.986 110.308C684.616 108.684 670.265 106.844 655.866 105.39C652.431 105.042 649.024 104.413 645.57 104.122C645.063 104.075 644.556 103.972 644.04 103.963C641.675 103.897 640.999 104.61 641.393 106.938C642.097 111.106 642.979 115.236 643.843 119.375C644.04 120.313 644.34 121.243 643.899 122.2C642.2 123.523 638.249 123.608 637.122 122.341H637.151Z" fill="#482C54"/>
<path d="M126.512 326.346C133.693 349.848 140.873 373.36 148.053 396.863C150.7 405.536 153.356 414.209 155.984 422.881C156.735 425.34 156.191 426.054 153.563 426.26C152.164 426.373 150.766 426.551 149.367 426.701C148.297 427.387 147.077 427.462 145.866 427.537C139.362 427.931 132.876 428.466 126.381 428.963C125.668 429.02 124.973 429.067 124.353 428.616C123.903 428.597 123.452 428.541 123.011 428.569C120.102 428.776 120.12 428.776 119.323 426.091C113.954 408.033 108.576 389.974 103.207 371.924C103.103 371.568 103.047 371.183 102.653 371.005C102.653 375.454 102.653 379.893 102.653 384.333C102.681 398.149 102.728 411.965 102.756 425.791C102.756 426.486 102.69 427.189 102.615 427.884C102.465 429.179 101.771 429.789 100.419 429.724C99.3396 429.677 98.2508 429.771 97.1621 429.799C96.4769 430.202 95.7166 430.287 94.9376 430.287C87.9637 430.296 80.9805 430.296 74.0067 430.287C73.2464 430.287 72.458 430.315 71.8009 429.808C67.7555 429.508 67.6711 429.517 67.5866 425.256C67.3613 413.232 67.1924 401.209 67.0234 389.185C66.7512 370.132 66.4978 351.069 66.2444 332.015C66.235 331.245 66.2819 330.485 66.3007 329.715C66.7231 329.237 67.305 329.18 67.887 329.162C73.2558 328.964 78.6152 328.645 83.984 328.373C91.0705 328.016 98.1664 327.791 105.243 327.266C107.543 327.097 109.843 327.153 112.152 327.031C116.938 326.787 121.716 326.374 126.503 326.355L126.512 326.346Z" fill="#E19800"/>
<path d="M278.209 174.358C273.319 187.236 268.419 200.114 263.52 212.991C263.275 213.639 262.966 214.268 262.684 214.906C253.148 219.852 243.602 224.78 234.085 229.736C220.588 236.766 207.091 243.787 193.622 250.883C191.144 252.187 188.75 253.68 186.441 255.266C183.203 257.5 179.787 259.246 175.966 260.306C169.706 262.043 164.346 260.363 160.357 255.144C157.241 251.071 154.388 246.837 152.473 242.041C152.004 240.868 151.084 240.061 150.342 239.122C147.226 235.142 144.063 231.219 140.694 227.436C137.455 223.795 134.499 219.89 134.198 214.7C134.058 212.231 134.743 210.063 136.639 208.364C138.197 209.331 138.666 211.095 139.577 212.513C143.294 218.266 147.264 223.832 151.675 229.07C151.76 229.163 151.825 229.276 151.919 229.37C152.389 229.867 152.867 230.684 153.618 230.036C154.285 229.464 153.59 228.882 153.215 228.403C150.906 225.418 148.418 222.574 146.288 219.458C143.5 215.385 140.121 211.79 136.995 207.998C134.912 203.708 135.663 200.104 139.398 196.566C139.877 196.819 140.121 197.27 140.337 197.739C143.763 205.464 148.85 212.109 153.862 218.811C154.857 220.143 155.861 221.467 156.875 222.781C157.185 223.185 157.476 223.616 157.889 223.926C158.292 224.226 158.752 224.668 159.24 224.245C159.719 223.823 159.428 223.278 159.109 222.875C158.443 222.011 157.692 221.242 157.025 220.369C153.43 215.638 149.929 210.842 146.522 205.98C144.579 203.211 142.346 200.658 140.853 197.589C140.637 197.138 140.243 196.753 140.271 196.2C140.459 195.214 140.337 194.182 140.712 193.215C141.829 190.399 143.979 189.414 147.724 190.033C147.949 196.059 151.3 200.761 154.491 205.454C157.692 210.166 161.258 214.624 164.731 219.139C165.238 219.796 165.858 221.073 166.74 220.378C167.641 219.665 166.411 218.858 166.008 218.135C165.219 216.699 163.596 215.788 163.38 213.986C163.492 213.676 163.699 213.526 164.037 213.573C168.185 216.248 170.757 219.749 170.25 224.996C170.034 227.239 170.757 229.295 172.287 231.003C172.569 231.313 172.925 231.754 173.413 231.35C173.761 231.059 173.629 230.6 173.413 230.29C171.489 227.483 171.489 224.301 171.47 221.082C171.452 218.858 170.278 217.065 168.739 215.554C166.092 212.954 163.577 210.241 161.38 207.247C159.494 204.675 158.546 201.831 158.865 198.621C159.071 196.528 160.001 195.317 161.737 194.886C166.13 195.111 168.317 198.358 170.588 201.418C172.644 204.197 174.549 207.078 177.196 209.368C178.641 210.626 179.89 210.955 181.767 209.856C195.518 201.812 209.343 193.909 223.141 185.95C227.515 183.425 231.785 180.788 235.202 176.939C237.708 174.124 239.247 170.735 241.134 167.553C242.598 165.094 243.978 162.551 245.029 159.866C249.825 161.565 254.368 163.836 259.042 165.808C264.777 168.229 270.484 170.726 276.2 173.194C277.111 173.166 277.974 173.232 278.209 174.368V174.358Z" fill="#2E78BD"/>
<path d="M126.512 326.346C125.958 326.824 125.338 327.031 124.597 327.059C118.411 327.294 112.226 327.51 106.05 327.857C95.4155 328.458 84.7811 329.011 74.1467 329.453C71.5374 329.556 68.9281 329.762 66.3094 329.715C65.7087 328.974 65.6617 328.054 65.6054 327.172C65.0141 318.837 64.4415 310.502 63.5311 302.026C62.8365 303.988 62.1044 305.94 61.4755 307.93C61.2315 308.709 60.9781 309.366 60.1052 309.573C59.129 309.92 58.2186 309.61 57.3081 309.282C51.8361 307.301 46.3358 305.424 40.8262 303.538C40.1504 303.312 39.5028 303.059 39.0335 302.486C36.5462 302.186 36.3115 301.858 36.9873 299.455C39.8031 289.393 43.0789 279.519 49.086 270.808C56.6042 259.902 65.9433 251.267 78.774 246.977C79.2527 246.818 79.6845 246.517 80.135 246.283C80.9798 245.682 81.7213 246.039 82.4064 246.583C86.311 249.709 92.0647 248.507 94.9556 246.292C95.5563 245.832 96.1101 245.25 96.9642 245.307C112.902 247.249 125.977 254.524 136.508 266.538C141.173 271.86 145.049 277.698 148.381 283.921C149.047 285.169 149.31 286.286 148.193 287.394C147.039 289.149 145.19 290.125 143.594 291.373C139.23 294.818 134.893 298.291 130.444 301.613C129.89 302.026 129.393 302.561 128.67 302.721C127.384 303.866 126.558 303.416 125.892 301.998C125.038 300.168 124.099 298.366 122.87 296.658C123.292 299.868 123.696 303.078 124.137 306.288C124.953 312.276 125.798 318.264 126.587 324.262C126.68 324.938 126.53 325.651 126.493 326.346H126.512Z" fill="#E62F1C"/>
<path d="M489.883 141.74C488.119 134.991 487.021 128.121 486.467 121.185C485.763 112.38 485.951 103.586 487.584 94.8661C487.715 94.1621 487.828 93.477 488.278 92.9138C488.738 92.3412 489.273 92.1254 489.893 92.7355C494.745 97.5036 500.471 96.5368 505.952 94.6314C514.822 91.5528 521.702 85.7898 526.545 77.6802C527.503 76.0658 528.066 74.3106 528.77 72.593C529.155 71.645 529.633 70.4811 530.75 70.4717C532.027 70.4623 532.402 71.6919 532.721 72.7525C536.316 84.6353 544.154 92.7918 555.201 97.9916C558.862 99.7093 562.822 100.404 566.887 99.4183C567.947 99.1555 568.886 98.6111 569.731 97.8884C571.054 96.7621 571.796 97.0906 572.218 98.8739C572.922 101.887 572.837 104.975 572.884 108.007C573.175 126.253 569.214 143.589 561.527 160.137C556.374 171.231 549.701 181.199 540.728 189.553C537.302 192.744 533.51 195.456 529.408 197.737C527.644 198.723 526.095 198.807 524.274 197.559C516.709 192.387 510.739 185.723 505.624 178.205C505.145 177.501 504.92 176.497 503.878 176.281C503.803 175.333 504.62 175.014 505.164 174.572C511.706 169.288 517.347 163.178 522.078 156.223C522.322 155.866 522.509 155.406 523.091 155.538C524.387 156.561 524.546 158.184 525.156 159.555C526.17 161.864 527.202 162.408 529.652 161.751C534.467 160.456 534.786 159.799 532.918 155.228C532.196 153.463 531.257 151.783 530.807 149.906C530.835 149.437 531.079 149.061 531.445 148.798C533.632 147.221 534.524 145.232 533.491 142.604C533.594 141.731 534.308 141.355 534.927 140.942C535.894 140.295 536.729 139.534 537.227 138.464C537.696 137.244 537.518 136.146 536.673 135.151C536.344 134.766 536.1 134.334 536.129 133.79C536.542 132.438 537.734 131.406 537.677 129.876C537.715 128.074 536.373 126.816 535.819 125.249C535.913 124.338 536.588 123.597 536.626 122.668C536.326 120.415 535.603 119.655 533.416 119.307C532.59 119.176 531.755 119.242 530.919 119.232C530.412 119.214 529.924 119.157 529.502 118.857C528.714 117.505 529.54 116.257 529.84 115.009C530.938 110.353 530.976 110.362 526.245 109.602C520.81 108.729 521.571 108.213 519.309 113.394C518.98 114.145 518.774 114.962 518.239 115.619C517.816 116.05 517.263 116.248 516.699 116.332C514.062 116.707 512.654 118.322 511.612 120.678C509.078 126.431 505.277 131.275 500.471 135.329C497.984 137.432 495.393 139.412 492.502 140.942C491.704 141.365 490.963 142.162 489.883 141.712V141.74Z" fill="#8BCED7"/>
<path d="M637.151 122.339C639.357 122.978 641.553 122.574 643.74 122.217C644.463 121.495 645.401 121.645 646.284 121.635C656.458 121.523 666.614 120.913 676.788 120.781C680.411 120.734 684.072 120.509 687.695 120.096C688.878 119.965 689.732 119.439 690.426 118.538C691.252 117.477 691.994 116.351 692.96 115.403C695.007 113.404 696.846 113.77 698.029 116.426C698.733 118.012 699.071 119.721 699.756 121.316C700.563 123.193 700.676 123.259 702.572 122.367C703.21 122.067 703.811 121.692 704.496 121.504C706.373 120.988 707.65 121.785 707.959 123.728C708.185 125.127 707.959 126.544 708.156 127.943C708.391 129.548 708.729 129.707 710.109 128.863C710.766 128.468 711.376 127.999 712.061 127.633C713.131 127.07 714.257 126.76 715.337 127.502C716.407 128.243 716.576 129.416 716.379 130.608C715.956 133.133 715.825 135.696 715.515 138.239C715.196 140.858 715.299 141.046 717.927 141.412C719.636 141.656 721.363 141.759 723.08 142.012C725.633 142.388 726.506 144.443 724.864 146.433C723.521 148.057 722.17 149.69 720.668 151.183C719.673 152.178 719.795 152.919 721.137 153.463C721.907 153.773 722.677 154.111 723.343 154.618C724.995 155.885 724.779 157.865 722.893 158.767C721.691 159.339 720.387 159.189 719.119 159.311C717.308 159.489 717.008 159.949 717.561 161.686C717.974 162.962 718.556 164.192 718.735 165.534C719.157 168.781 717.008 169.842 714.896 168.444C714.68 168.303 714.436 168.218 714.051 168.246C713.629 169.448 713.873 170.715 713.929 171.954C714.079 174.986 712.455 176.093 709.705 174.779C708.081 174 706.598 172.986 705.144 171.945C703.51 170.771 701.755 170.368 699.737 170.377C685.264 170.433 670.791 170.415 656.317 170.396C655.313 170.396 654.252 170.602 653.333 169.955C651.155 169.917 648.987 169.889 646.809 169.851C646.274 169.842 645.786 169.898 645.514 170.443C644.894 169.692 644.031 169.861 643.224 169.87C635.828 169.964 628.441 170.067 621.045 170.161C621.007 168.613 622.246 167.392 622.068 165.75C621.917 164.417 621.993 163.065 621.345 161.826C620.791 160.766 620.988 159.855 621.927 159.104C622.274 158.823 622.584 158.494 622.903 158.185C624.414 156.702 625.034 155.003 624.133 152.966C623.391 151.295 623.569 149.953 624.78 148.404C626.348 146.405 626.385 143.946 625.118 141.703C624.32 140.285 624.311 139.253 625.296 137.892C627.164 135.311 625.841 131.885 622.65 130.59C621.063 129.951 619.393 129.933 617.731 130.008C616.201 130.073 614.7 130.393 613.141 130.308C611.856 130.242 611.199 131.162 610.926 132.317C610.579 133.762 610.955 135.114 611.668 136.371C612.24 137.376 612.832 138.361 613.282 139.431C614.089 141.346 613.095 142.876 610.992 142.998C610.204 143.045 609.472 142.857 608.749 142.557C605.454 141.196 602.451 139.272 599.973 136.784C596.575 133.358 596.584 129.876 598.865 124.751C599.888 123.653 600.311 122.217 601.024 120.941C604.018 115.581 607.144 114.267 613.066 115.966C615.357 116.623 617.628 117.449 619.402 119.017C624.395 123.437 630.355 123.175 636.372 122.809C636.644 122.79 636.898 122.489 637.151 122.32V122.339Z" fill="#813686"/>
<path d="M489.882 141.74C495.579 139.112 500.366 135.282 504.552 130.655C507.612 127.267 509.978 123.446 511.77 119.26C512.915 116.585 515.356 116.06 517.843 115.609C520.462 115.187 522.714 116.341 524.976 117.345C525.906 117.758 526.816 118.218 527.745 118.65C527.971 118.772 528.186 118.913 528.384 119.073C530.449 120.846 531.077 122.921 530.139 124.826C529.116 126.91 526.61 127.933 524.085 127.285C522.78 126.957 521.494 126.553 520.312 125.887C519.27 125.295 518.378 125.417 517.59 126.384C516.576 127.623 515.468 128.778 514.717 130.214C514.595 130.439 514.408 130.646 514.351 130.89C513.704 133.743 514.089 136.7 513.3 139.572C513.009 140.642 514.333 141.524 515.309 142.181C516.003 142.641 516.369 143.148 516.2 144.086C515.562 147.606 516.876 149.934 520.208 151.361C520.8 151.614 521.457 151.68 522.001 152.036C522.912 153.097 523.756 154.176 522.949 155.688C519.157 161.704 514.445 166.932 509.227 171.719C507.5 173.305 505.66 174.779 503.877 176.309C495.72 182.457 486.897 187.281 476.892 189.646C464.005 192.697 451.615 191.768 440.07 184.728C436.71 182.682 433.838 180.035 431.06 177.294C435.809 171.297 440.539 165.28 445.317 159.301C449.578 153.97 453.886 148.676 458.176 143.364C460.485 145.269 463.338 145.842 466.135 146.283C474.564 147.587 482.429 145.673 489.891 141.759L489.882 141.74Z" fill="#2E78BD"/>
<path d="M162.047 393.56C168.167 393.653 174.267 394.198 180.378 394.583C185.662 394.921 190.947 395.193 196.231 395.484C201.065 395.756 205.908 396.009 210.742 396.291C210.976 396.3 211.202 396.479 211.436 396.573C211.145 399.285 210.873 401.998 210.545 404.71C210.394 405.912 210.573 406.634 211.99 406.982C214.881 407.704 217.669 408.803 220.344 410.126C220.663 410.999 220.025 411.581 219.658 412.2C218.523 414.124 217.415 416.058 216.176 417.916C215.716 418.602 215.294 419.324 215.087 420.141C215.003 420.46 215.041 420.798 215.378 420.976C215.698 421.145 215.988 421.023 216.251 420.807C216.599 420.507 216.796 420.103 217.049 419.737C218.588 417.466 219.874 415.044 221.292 412.698C221.798 411.862 222.305 410.989 223.526 411.59C225.478 412.726 227.552 413.655 229.364 415.035C229.589 416.171 228.847 416.978 228.369 417.851C227.252 419.859 226.05 421.83 224.915 423.83C224.642 424.308 224.267 424.975 224.915 425.36C225.562 425.735 225.966 425.097 226.257 424.618C227.59 422.431 228.932 420.254 230.19 418.029C230.584 417.344 230.875 416.452 231.973 416.621C237.82 420.779 243.283 425.331 246.925 431.676C248.774 434.886 249.393 438.35 248.934 442.02C247.91 442.771 246.728 442.611 245.592 442.527C235.512 441.795 225.421 441.269 215.341 440.584C204.425 439.833 193.509 439.204 182.602 438.444C177.496 438.087 172.39 437.693 167.284 437.496C166.195 437.411 165.445 436.66 164.609 436.088C162.863 434.905 161.118 433.694 159.184 432.821C158.743 432.493 158.048 432.371 158.17 431.582C159.466 418.911 160.761 406.25 162.056 393.578L162.047 393.56Z" fill="#E19800"/>
<path d="M360.392 388.65C364.522 388.904 368.652 389.129 372.773 389.42C377.475 389.749 382.168 390.143 386.861 390.49C394.285 391.034 401.719 391.56 409.143 392.114C409.322 392.123 409.481 392.264 409.66 392.348C409.406 394.808 409.19 397.276 408.89 399.726C408.74 400.937 408.937 401.641 410.345 401.997C413.236 402.72 416.014 403.818 418.698 405.142C419.018 406.015 418.379 406.597 418.013 407.216C416.878 409.14 415.77 411.074 414.531 412.932C414.071 413.617 413.649 414.34 413.442 415.157C413.358 415.476 413.395 415.814 413.733 415.992C414.052 416.161 414.343 416.039 414.606 415.823C414.953 415.523 415.151 415.119 415.404 414.753C416.943 412.482 418.229 410.06 419.646 407.713C420.153 406.878 420.651 406.005 421.88 406.606C423.833 407.742 425.907 408.671 427.718 410.051C427.944 411.186 427.202 411.993 426.724 412.866C425.607 414.875 424.405 416.846 423.269 418.845C422.997 419.324 422.622 419.99 423.269 420.375C423.917 420.751 424.321 420.112 424.612 419.624C425.944 417.437 427.287 415.26 428.544 413.035C428.939 412.35 429.23 411.458 430.328 411.627C436.175 415.785 441.638 420.338 445.28 426.683C447.129 429.893 447.748 433.356 447.288 437.026C446.2 437.805 444.951 437.617 443.759 437.524C435.856 436.942 427.944 436.529 420.041 435.984C411.058 435.374 402.066 434.82 393.075 434.22C386.129 433.75 379.174 433.328 372.219 432.934C367.817 432.69 363.424 432.305 359.022 432.127C358.008 432.089 356.976 431.939 356.159 431.188C356.713 425.463 357.257 419.746 357.83 414.021C358.524 407.094 359.238 400.167 359.942 393.24C360.092 391.71 360.242 390.19 360.383 388.66L360.392 388.65Z" fill="#E19800"/>
<path d="M371.263 83.2358C370.85 83.386 370.352 83.4517 370.146 83.9022C368.1 88.5389 363.754 89.4212 359.502 90.219C353.748 91.289 348.07 90.5288 342.551 88.736C340.148 87.957 337.858 86.8588 335.727 85.4415C334.601 84.6906 334.103 83.5268 333.315 82.56C334.366 78.6179 335.371 74.6663 336.497 70.7524C336.778 69.7668 336.76 68.9784 336.356 68.0492C335.389 65.8247 334.469 63.572 334.573 61.0753C334.592 60.5403 334.526 60.1086 333.888 59.8833C330.171 58.6068 329.457 54.0639 330.931 51.0323C331.044 50.807 331.081 50.5536 331.156 50.3095C330.969 49.6431 331.41 49.2301 331.785 48.8078C334.103 46.1703 338.224 45.5977 341.049 47.5125C344.86 50.0936 348.661 49.8308 352.181 46.7991C354.584 44.7248 356.245 42.2563 356.761 39.0463C357.043 37.2911 357.493 36.9907 359.089 37.6571C363.585 39.5531 368.184 39.356 372.849 38.6614C374.126 38.4737 375.336 38.0889 376.491 37.5069C377.11 37.1972 377.711 36.7654 378.471 37.0189C379.372 38.53 380.273 40.0412 380.395 41.8527C378.565 41.8058 375.186 44.462 374.773 46.2641C374.717 46.5269 374.689 46.7991 374.914 46.9681C375.374 47.3154 375.768 47.0338 376.115 46.7428C377.495 45.579 378.575 44.1429 379.663 42.7162C379.898 42.4159 380.086 42.0686 380.386 41.8245C381.888 44.8187 381.982 48.0756 382.057 51.3044C382.216 58.1844 380.771 64.6326 376.566 70.2737C375.374 71.8787 373.863 73.1646 372.305 74.3941C371.845 75.1263 371.085 75.3234 370.315 75.3515C367.762 75.4454 365.199 75.6143 362.337 75.0418C364.749 76.3183 366.945 77.1536 369.433 77.0504C370.296 77.0128 371.244 76.8533 371.967 77.5854C371.732 79.4626 371.497 81.3304 371.263 83.2076V83.2358Z" fill="#2E78BD"/>
<path d="M356.168 431.179C386.541 433.122 416.914 435.065 447.297 437.007C447.212 440.462 446.001 443.775 446.001 447.248C446.001 448.205 445.082 448.543 444.143 448.496C441.271 448.346 438.38 448.383 435.545 447.98C433.002 447.614 430.449 447.642 427.915 447.426C420.669 446.816 413.385 446.581 406.12 446.149C398.161 445.671 390.201 445.183 382.242 444.61C374.095 444.019 365.948 443.409 357.791 443.08C355.511 442.986 355.032 442.292 355.304 439.936C355.642 437.026 355.877 434.098 356.158 431.179H356.168Z" fill="#E6D4B2"/>
<path d="M378.471 37.0298C372.079 40.4557 365.518 40.634 358.835 38.0341C357.709 37.5929 357.324 37.4803 357.193 39.0196C356.658 45.0173 350.744 50.1984 344.963 49.9262C343.799 49.8699 342.701 49.6071 341.771 48.8374C338.214 45.8996 334.901 46.1436 331.785 49.5883C331.569 49.823 331.372 50.067 331.165 50.311C330.405 50.3298 329.616 50.4612 328.875 50.3298C327.467 50.067 326.069 49.5414 325.543 48.0771C325.008 46.6223 325.618 45.3083 326.632 44.2289C327.167 43.6563 327.786 43.3466 326.829 42.5018C325.562 41.3849 325.261 39.7799 325.975 38.2875C326.716 36.72 328.284 35.819 329.945 36.1756C332.404 36.72 333.23 35.5749 334.281 33.5945C336.656 29.1267 340.814 26.4986 345.301 24.4806C354.715 20.2381 364.429 19.8721 374.285 22.6316C376.556 23.2698 378.621 24.5932 380.273 26.2921C382.807 28.8921 383.521 33.7353 378.49 37.0391L378.471 37.0298Z" fill="#010101"/>
<path d="M166.636 436.951C172.521 437.017 178.378 437.589 184.244 437.983C188.9 438.293 193.555 438.537 198.22 438.837C205.682 439.316 213.144 439.823 220.606 440.311C224.942 440.593 229.278 440.874 233.615 441.128C238.721 441.428 243.827 441.71 248.933 441.991C248.848 445.445 247.638 448.749 247.647 452.222C247.647 453.179 246.736 453.536 245.798 453.48C240.776 453.151 235.745 452.87 230.733 452.457C228.321 452.259 225.899 452.25 223.478 452.025C218.344 451.537 213.163 451.48 208.01 451.143C199.299 450.57 190.598 449.885 181.888 449.293C178.322 449.049 174.745 448.956 171.179 448.787C170.747 447.379 170.831 445.914 170.728 444.478C170.672 443.709 170.559 442.967 170.24 442.263C169.78 440.893 168.748 439.954 167.79 438.941C167.265 438.377 166.392 437.964 166.636 436.941V436.951Z" fill="#E6D4B2"/>
<path d="M39.0332 302.478C44.4865 304.327 49.9492 306.186 55.4025 308.025C56.9606 308.551 58.5374 309.048 60.1049 309.565C57.6833 319.026 55.2523 328.487 52.8307 337.948C52.4459 339.431 52.0517 340.914 51.6668 342.397C49.8741 342.425 48.7196 343.392 47.9312 344.922C47.3399 346.067 46.6265 346.386 45.5471 345.372C44.449 344.34 43.2382 344.058 41.9804 345.241C41.483 345.701 40.7696 345.954 40.3003 345.26C39.465 343.993 38.3574 344.124 37.0809 344.274C35.1098 344.509 34.4153 343.683 34.9597 342.097C33.9178 343.148 34.068 343.88 35.6542 344.255C36.3676 344.424 37.0058 344.828 36.9589 345.682C36.9214 346.536 36.1986 346.799 35.5416 347.062C32.9229 348.113 30.8204 346.987 28.8118 345.457C28.0703 343.514 28.3331 341.533 30.0132 340.473C33.8803 338.061 34.5185 334.278 35.0723 330.308C36.3676 321.025 37.7098 311.742 39.0238 302.469L39.0332 302.478Z" fill="#2070B8"/>
<path d="M128.68 302.723C130.914 300.338 133.682 298.602 136.217 296.584C140.159 293.449 144.195 290.446 148.193 287.386C151.882 294.529 155.702 301.606 159.175 308.852C160.48 311.574 162.488 312.728 165.041 312.475C169.518 312.024 171.574 316.013 169.49 320.387C167.341 321.973 165.248 323.691 162.291 323.297C161.653 323.212 161.015 323.194 160.451 322.837C159.335 322.124 159.288 320.969 160.339 320.162C160.649 319.927 161.015 319.815 161.371 319.655C163.333 318.81 163.493 318.022 161.981 316.182C162.282 317.083 163.164 317.834 162.432 318.716C161.662 319.636 160.527 319.871 159.457 319.58C158.124 319.223 157.232 319.608 156.519 320.687C155.927 321.579 155.289 321.626 154.482 320.866C153.44 319.88 152.445 320.106 151.497 321.11C150.052 322.659 150.052 322.63 148.606 320.922C147.593 319.721 146.429 318.913 145.002 319.768C146.814 319.242 147.977 319.758 149.019 321.607C150.061 323.475 150.061 325.568 150.155 327.577C150.286 330.242 149.826 332.917 149.385 335.555C149.31 336.034 149.057 336.372 148.634 336.606C145.528 336.578 143.162 334.25 142.89 330.627C142.693 327.962 142.543 325.258 143.125 322.593C143.284 321.842 143.416 321.091 142.853 320.397C138.103 314.53 133.636 308.439 128.698 302.723H128.68Z" fill="#2070B8"/>
<path d="M598.863 124.771C599.323 126.122 598.45 127.258 598.112 128.412C597.155 131.726 598.197 134.429 600.478 136.606C602.974 138.99 605.912 140.858 609.141 142.191C610.005 142.548 610.906 142.735 611.769 142.454C612.933 142.078 613.674 141.346 612.971 139.995C612.407 138.915 611.844 137.845 611.272 136.775C610.624 135.583 610.117 134.354 610.202 132.946C610.352 130.599 611.628 129.679 613.965 129.801C615.927 129.905 617.917 129.632 619.888 129.576C621.39 129.529 622.798 129.905 624.065 130.759C627.012 132.73 627.622 135.884 625.445 138.681C624.788 139.535 624.703 140.023 625.341 140.952C627.237 143.721 626.909 147.222 624.534 149.522C623.736 150.301 623.896 150.911 624.187 151.708C625.67 155.754 625.454 156.655 622.169 159.518C621.465 160.128 621.287 160.616 621.709 161.47C623.192 164.474 623.004 167.383 621.052 170.152C620.273 170.227 619.503 170.302 618.724 170.377C617.26 170.415 617.138 169.58 617.542 168.481C617.983 167.289 618.621 166.144 618.471 164.802C618.264 162.981 617.457 162.277 615.655 162.634C612.952 163.159 610.22 163.582 607.555 164.22C603.021 165.309 598.413 165.356 593.832 165.684C591.936 165.816 590.012 165.375 588.097 165.281C587.44 165.253 586.868 164.933 586.436 164.408C586.286 163.563 585.451 163.31 584.991 162.737C585.873 161.508 587.215 161.648 588.473 161.583C598 161.085 607.433 159.968 616.631 157.265C617.617 156.974 618.602 156.702 619.466 156.12C620.198 155.622 620.742 155.003 620.442 154.036C620.095 152.938 619.222 153.154 618.377 153.267C609.488 154.412 600.6 155.322 591.608 155.069C589.008 154.994 586.549 154.365 584.043 153.877C583.273 153.726 582.776 153.323 582.682 152.506C582.776 152.215 582.879 151.934 582.973 151.643C584.596 150.77 586.352 151.173 588.013 151.314C592.847 151.727 597.606 151.418 602.308 150.272C602.524 150.197 602.74 150.15 602.965 150.122C606.457 150.235 609.864 149.334 613.337 149.146C613.534 149.09 613.731 149.052 613.937 149.024C614.698 148.911 615.477 149.024 616.227 148.78C616.49 148.705 616.753 148.658 617.025 148.63C618.236 148.527 619.344 148.161 620.31 147.41C620.451 147.297 620.592 147.203 620.742 147.109C622.526 145.664 622.863 144.425 621.822 143.12C620.958 142.041 619.841 142.153 618.696 142.482C618.349 142.576 617.992 142.66 617.645 142.773C617.588 142.801 617.504 142.811 617.476 142.857C614.613 147.072 610.793 147.391 606.438 145.579C606.241 145.504 606.062 145.401 605.893 145.279C603.603 143.608 601.163 143.28 598.319 143.721C594.536 144.312 590.697 143.533 586.896 143.28C586.145 143.233 585.385 143.111 584.625 143.045C584.418 143.036 584.221 142.998 584.024 142.942C583.386 142.717 582.776 142.435 582.241 141.994C582.147 141.891 582.109 141.778 582.119 141.665C582.119 141.543 582.147 141.487 582.166 141.487C582.334 140.858 582.935 140.257 582.325 139.563C582.926 138.512 583.893 138.737 584.859 138.793C588.473 138.99 592.068 139.507 595.7 139.328C596.076 139.31 596.47 139.394 596.939 139.103C596.498 137.883 595.325 137.047 594.968 135.771C593.372 131.848 595.719 128.76 597.155 125.474C597.352 125.24 597.615 125.08 597.868 124.93C598.197 124.874 598.535 124.827 598.863 124.771Z" fill="#020102"/>
<path d="M76.8102 237.806C75.1019 239.148 73.2435 239.749 71.0941 239.008C70.484 238.801 69.6205 238.557 69.5266 238.022C69.0949 235.582 67.2458 233.507 67.6119 230.917C67.7151 230.204 67.6494 229.791 67.2927 229.218C65.7159 226.693 66.7953 223.361 69.5454 222.169C69.8927 222.019 70.5591 221.878 70.5591 221.756C70.4558 219.043 73.3655 218.236 74.0976 216.002C74.8016 213.853 77.8239 212.436 80.1422 213.074C81.1559 213.356 81.7003 213.177 82.4324 212.454C84.2252 210.699 86.262 210.446 88.5521 211.685C89.303 212.098 89.6691 211.741 90.2323 211.488C92.4849 210.465 94.0993 210.868 95.4603 212.989C95.9484 213.75 96.4458 213.562 97.0653 213.581C99.7873 213.665 101.439 215.139 101.721 217.87C101.786 218.49 102.049 218.715 102.444 219.053C104.255 220.555 104.799 222.469 103.992 224.318C103.194 226.158 101.711 226.909 99.2804 226.703C97.1779 225.06 94.6062 224.581 92.147 223.802C90.542 223.295 88.9839 223.896 87.4821 224.103C86.4872 224.234 85.9241 225.905 85.5205 226.947C84.8071 228.749 82.9674 229.331 81.9913 230.823C81.522 231.555 80.4238 231.095 79.6542 230.823C78.0679 230.269 76.6319 230.25 75.5525 231.752C74.5857 233.094 74.764 234.596 76.0593 236.314C76.3972 236.764 76.8665 237.149 76.8196 237.797L76.8102 237.806Z" fill="#010101"/>
<path d="M71.8172 429.798C80.2741 429.591 88.7215 429.601 97.1784 429.798C96.9719 434.237 96.7654 438.677 96.5589 443.117C96.0802 443.642 95.4232 443.689 94.7849 443.699C91.772 443.727 88.7591 443.905 85.7649 443.642C78.9225 443.042 72.0613 443.239 65.2282 443.464C61.2955 443.595 57.3627 444.412 53.4018 444.675C52.5195 444.731 51.6091 444.994 50.877 444.215C52.4632 440.873 55.3259 438.78 58.2638 436.79C59.4558 435.983 60.7886 435.373 62.0651 434.679C63.3604 435.12 64.2239 436.246 65.4347 436.819C65.782 436.978 66.195 437.25 66.4953 436.912C66.899 436.453 66.4203 436.124 66.1575 435.777C65.5474 434.979 64.3178 434.829 64.0268 433.712C64.8716 433.261 65.7445 432.876 66.7018 432.745C68.2505 433.533 69.3581 434.876 70.7378 435.88C71.1321 436.171 71.6107 436.65 72.0519 436.105C72.4743 435.589 71.9674 435.185 71.6108 434.829C70.7285 433.965 69.4426 433.449 69.283 431.994C70.2873 431.44 72.1082 431.844 71.8172 429.798Z" fill="#A871AE"/>
<path d="M166.638 436.951C167.896 438.64 169.905 439.729 170.524 441.916C169.858 442.639 169.013 442.489 168.187 442.385C158.773 441.184 149.33 440.696 139.85 441.062C135.758 441.221 131.675 441.512 127.574 441.409C126.635 441.381 125.631 441.569 124.842 440.809C124.673 436.744 124.514 432.68 124.345 428.616C131.422 428.062 138.499 427.48 145.585 426.992C146.843 426.908 148.073 426.363 149.359 426.701C149.19 428.7 150.447 429.386 152.118 429.686C151.996 431.075 150.766 431.582 149.931 432.399C149.537 432.783 148.87 433.206 149.349 433.788C149.856 434.398 150.363 433.76 150.804 433.44C152.137 432.483 153.188 431.169 154.69 430.428C155.657 430.559 156.52 430.944 157.365 431.394C157.121 432.464 155.966 432.605 155.375 433.328C155.075 433.703 154.446 434.041 154.896 434.586C155.244 434.999 155.722 434.614 156.107 434.417C157.243 433.844 158.097 432.812 159.317 432.37C162.048 433.422 164.264 435.289 166.62 436.951H166.638Z" fill="#A871AE"/>
<path d="M76.8129 237.806C75.8743 236.868 74.7949 236.042 74.504 234.615C74.213 233.188 74.4852 231.912 75.527 230.907C76.5689 229.903 77.7985 229.565 79.2345 230.138C80.6424 230.701 82.2005 231.555 82.6792 229.03C82.7261 228.767 83.2611 228.458 83.5897 228.429C84.5846 228.345 84.6221 227.754 84.8568 226.937C85.2134 225.717 86.5744 224.928 86.6683 223.492C86.6683 223.455 86.7809 223.38 86.8185 223.389C88.7708 224.112 90.7794 222.131 92.7317 223.521C93.1259 223.802 93.689 224.093 94.1208 224.037C96.4955 223.727 97.8658 225.238 99.2831 226.702C99.5835 229.715 100.006 232.7 99.4052 235.741C99.0391 237.618 98.6261 239.364 96.9836 240.519C95.9886 241.213 96.1482 242.152 96.3359 243.09C96.4861 243.832 96.7489 244.555 96.9554 245.287C93.4544 249.163 87.3065 249.886 83.233 247.84C82.1911 247.314 81.5717 245.972 80.1262 246.263C80.924 244.264 81.4778 242.302 79.5349 240.556C79.2345 240.284 79.0656 239.768 79.0186 239.345C78.8779 237.928 78.0988 237.515 76.8035 237.797L76.8129 237.806Z" fill="#2E78BD"/>
<path d="M50.8779 444.206C55.1204 443.868 59.4004 443.774 63.5866 442.901C64.2061 442.77 64.8443 442.751 65.4826 442.732C75.8448 442.46 86.1976 443.127 96.5504 443.108C96.4753 445.342 96.4565 447.576 96.3158 449.8C96.2031 451.537 95.0017 451.912 93.4718 451.903C87.7744 451.865 82.0771 451.884 76.3892 451.874C68.6457 451.865 60.9022 451.846 53.1587 451.828C50.2115 451.828 49.6389 451.189 50.1364 448.251C50.3616 446.9 49.8079 445.398 50.8779 444.206Z" fill="#637681"/>
<path d="M124.852 440.809C135.017 440.838 145.182 440.096 155.347 440.453C159.599 440.603 163.785 441.598 168.056 441.729C168.882 441.757 169.708 441.842 170.533 441.908C171.5 444.132 171.519 446.441 171.191 448.788C170.421 449.51 169.463 449.529 168.487 449.529C155.037 449.548 141.587 449.576 128.137 449.585C125.668 449.585 125.086 448.966 125.049 446.544C125.021 444.629 124.927 442.724 124.852 440.809Z" fill="#637681"/>
<path d="M586.447 164.418C593.581 165.488 600.649 165.094 607.707 163.611C610.626 163.001 613.592 162.56 616.483 161.79C617.431 161.537 617.975 161.856 618.473 162.748C619.599 164.784 619.364 166.708 618.107 168.511C617.346 169.599 617.637 170.069 618.745 170.397C610.635 174.086 602.338 174.64 593.881 171.805C591.225 170.913 588.963 169.412 587.33 167.075C586.776 166.286 586.269 165.47 586.457 164.437L586.447 164.418Z" fill="#813686"/>
<path d="M582.682 152.516C582.936 152.778 582.964 153.21 583.452 153.285C585.658 153.651 587.844 154.318 590.06 154.402C596.968 154.674 603.867 154.543 610.737 153.529C613.703 153.098 616.744 153.238 619.654 152.347C620.264 152.159 620.668 152.563 620.818 153.079C621.062 153.895 621.766 154.684 621.034 155.594C620.414 156.373 619.644 156.899 618.706 157.199C611.807 159.396 604.739 160.7 597.531 161.432C593.354 161.864 589.102 161.676 584.991 162.728C582.006 159.818 581.509 156.345 582.682 152.497V152.516Z" fill="#813686"/>
<path d="M614.089 149.495L613.967 149.57L613.835 149.513C610.785 149.551 607.8 150.264 604.74 150.236C604.102 150.236 603.454 150.18 602.938 150.658L602.807 150.724L602.675 150.668C598.874 150.574 595.185 151.588 591.384 151.691C589.873 151.728 588.399 151.447 586.907 151.578C586.221 151.644 585.715 151.334 585.208 150.874C583.593 149.419 583.575 149.438 582.871 151.419C580.355 148.19 580.111 144.726 582.167 141.488L582.279 141.526L582.261 141.648C582.58 142.324 583.284 142.295 583.847 142.511C583.95 142.455 584.035 142.464 584.11 142.558C584.823 143.168 585.715 142.934 586.512 142.981C590.333 143.187 594.143 143.685 597.982 143.553C598.836 143.525 599.587 143.215 600.413 143.103C602.816 142.793 604.449 144.511 606.467 145.196L606.43 145.168C608.626 146.519 611.001 146.641 613.432 146.087C615.018 145.721 615.985 144.529 616.801 143.234C617.036 142.868 617.12 142.399 617.552 142.183C617.89 142.164 618.237 142.145 618.575 142.136C619.504 141.929 620.377 141.817 621.222 142.53C622.808 143.854 622.968 144.924 621.673 146.519C621.354 146.913 621.025 147.279 620.659 147.627L620.687 147.599C619.617 148.331 618.294 148.481 617.167 149.082C616.961 149.1 616.764 149.119 616.557 149.129C615.769 149.485 614.849 149.007 614.079 149.495H614.089Z" fill="#813686"/>
<path d="M597.868 124.931C597.774 125.053 597.681 125.165 597.587 125.287C594.593 128.235 593.785 131.67 595.343 135.612C596.291 136.935 597.23 138.259 598.319 139.798C595.118 140.005 592.115 139.864 589.111 139.62C586.859 139.442 584.596 138.878 582.334 139.573C578.73 134.476 580.589 129.436 586.136 126.986C589.871 125.334 593.804 124.687 597.878 124.931H597.868Z" fill="#813786"/>
<path d="M161.736 194.866C159.361 196.387 158.667 198.837 159.54 202.3C160.168 204.787 161.595 206.815 163.163 208.739C164.852 210.823 166.617 212.85 168.606 214.662C170.99 216.83 172.286 219.458 172.051 222.78C171.873 225.437 172.267 227.999 174.079 230.149C174.585 230.749 174.642 231.491 174.032 232.045C173.253 232.748 172.633 232.204 172.07 231.622C170.014 229.473 169.479 226.845 169.705 224.01C169.977 220.537 168.653 217.825 165.95 215.694C165.199 215.103 164.561 214.371 163.876 213.704C162.365 213.019 161.867 211.301 160.525 210.438C159.981 209.903 159.68 209.199 159.267 208.57C156.93 205.107 155.522 201.399 156.63 197.166C157.137 195.242 157.775 193.308 160.187 192.914C160.863 193.44 161.351 194.097 161.726 194.866H161.736Z" fill="#010102"/>
<path d="M160.199 192.914C157.036 194.707 156.2 198.855 157.224 203.22C157.693 205.238 159.007 206.815 159.767 208.673C159.157 208.899 158.763 208.514 158.463 208.11C154.746 203.06 151.019 198.011 148.485 192.229C148.194 191.572 148.035 190.896 148.232 190.173C149.227 186.654 153.619 186.137 155.928 188.568C157.327 190.042 158.932 191.318 160.208 192.923L160.199 192.914Z" fill="#2E78BD"/>
<path d="M148.22 190.173C150.688 196.846 154.903 202.459 159.033 208.129C159.201 208.363 159.511 208.495 159.755 208.682C160.065 209.18 160.384 209.687 160.694 210.184C161.83 211.339 162.862 212.568 163.585 214.042C164.786 215.684 165.969 217.336 167.18 218.969C167.724 219.711 168.081 220.518 167.198 221.138C166.354 221.738 165.668 221.241 165.115 220.481C160.234 213.732 154.724 207.434 150.594 200.141C149.337 197.926 148.229 195.645 147.61 193.158C147.347 192.116 147.122 191.055 147.722 190.032C147.882 190.079 148.051 190.135 148.21 190.182L148.22 190.173Z" fill="#010103"/>
<path d="M140.272 196.189C142.13 197.907 142.703 200.441 144.27 202.365C149.629 208.936 153.956 216.285 159.597 222.639C160.208 223.325 160.47 224.141 159.691 224.836C158.931 225.511 158.161 224.995 157.692 224.413C155.449 221.635 153.196 218.847 151.094 215.966C147.489 211.019 143.951 206.035 141.126 200.592C140.45 199.296 139.962 197.916 139.38 196.565C139.671 196.443 139.971 196.311 140.262 196.189H140.272Z" fill="#010103"/>
<path d="M154.33 336.943C152.594 337.778 150.942 337.346 149.318 336.595C148.999 334.812 149.665 333.104 149.797 331.358C149.956 329.209 150.125 327.078 149.975 324.919C149.9 323.821 150.304 322.798 150.885 321.859C152.19 319.738 153.776 319.747 155.09 321.887C155.635 322.77 155.813 323.774 155.992 324.778C156.16 328.176 155.832 331.527 155.175 334.85C154.903 335.544 154.856 336.342 154.34 336.943H154.33Z" fill="#2070B7"/>
<path d="M46.5242 356.795C44.2903 357.902 42.0564 358.972 39.4471 358.165C38.5179 356.588 39.3157 354.946 39.3157 353.341C39.3157 350.919 39.8132 348.526 41.0615 346.386C41.681 345.325 42.4788 344.255 43.8679 344.424C45.2477 344.602 45.9986 345.7 46.496 346.93C46.8152 347.709 46.9278 348.554 46.7682 349.37C46.2802 351.839 46.4867 354.317 46.5148 356.795H46.5242Z" fill="#2070B7"/>
<path d="M155.542 324.722C155.157 323.52 155.035 322.206 154.04 321.258C153.251 320.507 152.529 320.395 151.796 321.333C150.858 322.535 150.389 323.886 150.445 325.407C150.567 328.739 150.041 332.015 149.675 335.309C149.628 335.741 149.431 336.163 149.309 336.586C149.075 336.586 148.84 336.595 148.605 336.604C149.553 332.343 149.947 328.044 149.262 323.699C149.112 322.76 148.755 321.859 148.145 321.089C147.019 319.672 145.911 319.503 144.428 320.592C144.194 320.761 144.072 321.211 143.706 320.864C143.293 320.47 143.649 320.207 143.95 319.954C145.236 318.846 147 318.884 148.305 320.01C149.046 320.648 149.431 321.512 149.891 322.347C152.36 318.921 152.96 318.799 155.673 321.305C156.546 319.522 157.56 318.17 159.934 319.24C160.432 319.466 161.849 319.212 162.29 318.367C162.712 317.56 161.793 317.044 161.314 316.481C160.985 316.096 160.46 315.702 161.014 315.204C161.436 314.819 161.83 315.223 162.168 315.533C163.05 316.34 163.745 317.269 163.473 318.546C163.238 319.681 162.309 319.954 161.314 320.123C160.544 320.245 159.944 320.667 159.915 321.465C159.887 322.347 160.685 322.647 161.351 322.751C162.938 322.995 164.486 322.995 165.998 322.159C167.124 321.53 168.053 320.479 169.461 320.385C169.076 320.939 168.701 321.484 168.316 322.037C167.265 323.229 165.922 324.027 164.411 324.299C162.844 324.581 162.459 325.388 162.525 326.815C162.619 328.861 162.037 330.87 162.121 332.925C162.149 333.582 161.962 334.192 161.38 334.605C161.098 334.633 160.816 334.652 160.535 334.68C159.634 333.854 159.897 332.784 160.037 331.808C160.244 330.353 160.281 328.889 160.319 327.425C160.357 325.857 160.319 324.365 158.996 323.22C158.357 322.666 158.648 321.624 157.869 320.93C156.658 322.112 156.809 323.586 156.78 325.022C156.752 326.505 157.212 328.073 156.133 329.415C155.138 328.767 155.823 327.8 155.673 326.984C155.532 326.242 155.795 325.463 155.513 324.722H155.542Z" fill="#050912"/>
<path d="M156.218 329.312C156.509 327.463 156.415 325.614 156.265 323.765C156.181 322.629 156.547 321.625 157.101 320.677C157.41 320.133 157.917 319.832 158.546 320.02C159.1 320.189 159.044 320.714 158.987 321.156C158.865 322.273 159.1 323.155 160.254 323.662C161.137 324.046 160.996 324.948 160.968 325.68C160.864 328.683 160.705 331.677 160.564 334.672C159.1 335.948 157.645 337.262 155.467 336.239C154.904 333.846 155.355 331.555 156.209 329.303L156.218 329.312Z" fill="#2170B7"/>
<path d="M136.995 207.988C139.294 209.086 140.458 211.339 141.988 213.151C146.193 218.116 149.741 223.616 153.993 228.553C154.584 229.238 154.903 230.074 154.002 230.721C153.148 231.331 152.435 230.796 151.872 230.102C146.306 223.194 140.909 216.173 136.647 208.354C136.76 208.232 136.882 208.11 136.995 207.988Z" fill="#010205"/>
<path d="M46.523 356.794C45.6595 356.522 45.8848 355.79 45.9035 355.198C45.9411 353.303 45.7064 351.378 46.2414 349.501C46.3634 349.088 46.3353 348.609 46.2696 348.168C46.0349 346.657 45.4342 345.09 43.8949 344.827C42.4401 344.583 41.6704 346.028 41.1073 347.267C39.9715 349.764 39.9903 352.467 39.7275 355.114C39.6243 356.128 39.5398 357.141 39.4553 358.155C39.2582 358.155 39.0705 358.155 38.8734 358.146C37.9911 357.432 38.0286 356.428 38.16 355.499C38.5073 353.03 38.4416 350.515 39.1831 348.103C39.3145 347.671 39.4178 347.239 39.399 346.779C39.3708 346.254 39.2957 345.662 38.7795 345.465C38.038 345.184 38.0662 345.972 37.8221 346.347C37.6813 346.563 37.625 346.845 37.4279 346.995C34.6027 349.06 34.95 352.242 34.5464 355.161C34.4244 356.062 34.7998 357.141 33.6547 357.686C33.3731 357.695 33.0634 357.827 32.8569 357.498C32.0591 356.513 32.5002 355.424 32.6223 354.373C32.7255 353.49 32.7912 352.599 32.9414 351.716C33.1103 350.778 33.6547 349.802 33.3544 348.91C32.9977 347.83 31.6837 348.29 30.8671 347.868C30.1068 347.483 29.3747 347.145 29.1213 346.244C29.018 345.981 28.9148 345.719 28.8115 345.465C29.9472 345.512 30.792 346.291 31.7775 346.704C33.2699 347.324 34.6309 346.967 36.0012 346.432C36.3955 346.272 36.8366 345.981 36.7146 345.428C36.6301 345.024 36.3204 344.78 35.898 344.742C34.9125 344.658 33.711 344.517 33.7861 343.325C33.8706 342.114 34.8186 341.241 36.0576 340.885C36.5175 341.42 36.0669 341.636 35.8605 341.917C35.5038 342.396 34.4901 342.828 34.9688 343.363C35.4287 343.879 36.4424 344.264 37.2684 343.888C38.6763 343.25 39.7369 343.485 40.4784 344.855C40.6943 345.259 40.8444 345.371 41.3419 345.118C44.4299 343.513 44.4393 343.532 46.7013 345.841C48.0529 344.273 48.4659 341.345 51.6478 342.396C51.6196 342.64 51.5821 342.893 51.5539 343.137C49.2731 344.001 48.175 345.737 47.8934 348.074C47.6024 350.487 47.0768 352.871 47.2833 355.321C47.3208 355.752 47.4522 356.231 46.9829 356.541C46.8234 356.625 46.6638 356.71 46.5042 356.794H46.523Z" fill="#040710"/>
<path d="M46.9929 356.541C46.3735 352.702 46.8428 348.948 48.1944 345.343C48.7012 343.982 49.5553 342.499 51.5639 343.128C53.1408 346.123 52.9906 349.248 52.2679 352.402C51.639 355.171 49.6023 356.241 46.9836 356.532L46.9929 356.541Z" fill="#2271B8"/>
<path d="M396.961 178.299C392.953 174.939 388.551 172.114 384.384 168.96C382.657 167.656 380.864 166.426 379.137 165.103C378.48 164.605 378.114 163.864 378.686 163.103C379.203 162.428 379.925 162.54 380.564 163.009C386.336 167.224 392.099 171.438 397.862 175.652C397.956 175.718 397.994 175.868 398.059 175.972C397.214 176.516 397.524 177.614 396.961 178.299Z" fill="#E6D3B1"/>
<path d="M33.6553 357.687C34.2278 355.021 34.087 352.262 34.8285 349.615C35.1195 348.583 35.2321 347.512 36.5837 347.193C37.3158 347.015 37.6443 346.33 37.6068 345.541C37.5786 344.978 37.7288 344.5 38.3389 344.378C39.0053 344.246 39.4183 344.697 39.6999 345.213C40.2067 346.161 40.1129 347.128 39.8313 348.16C38.9302 351.426 38.6205 354.768 38.8739 358.156C37.0718 358.766 35.2978 358.945 33.6647 357.687H33.6553Z" fill="#2070B7"/>
<path d="M161.407 334.606C161.595 331.565 161.83 328.523 161.933 325.473C161.97 324.469 162.092 323.943 163.266 323.999C165.227 324.103 166.607 322.601 168.344 322.028C167.921 323.417 168.55 324.778 168.4 326.196C167.884 330.786 165.931 333.216 161.417 334.606H161.407Z" fill="#2271B8"/>
<path d="M29.1292 346.244C30.218 346.995 31.3349 347.896 32.7053 347.765C34.2916 347.605 34.4511 348.206 34.0569 349.492C33.2591 352.101 33.1558 354.814 32.8555 357.498C29.5422 357.329 28.2563 355.949 28.2188 352.608C28.1906 350.43 28.7632 348.356 29.1292 346.244Z" fill="#2371B8"/>
<path d="M223.516 411.582C222.511 411.319 222.22 412.07 221.826 412.737C220.296 415.308 218.757 417.871 217.199 420.424C216.701 421.24 216.166 422.264 215.002 421.606C213.81 420.931 214.449 419.964 214.937 419.138C216.72 416.134 218.532 413.131 220.334 410.137C221.394 410.625 222.455 411.103 223.516 411.592V411.582Z" fill="#E6D3B1"/>
<path d="M421.881 406.587C420.876 406.324 420.585 407.075 420.191 407.742C418.661 410.313 417.122 412.876 415.564 415.429C415.066 416.245 414.531 417.268 413.368 416.611C412.176 415.936 412.814 414.969 413.302 414.143C415.085 411.13 416.897 408.136 418.699 405.142C419.76 405.63 420.82 406.108 421.881 406.596V406.587Z" fill="#E6D3B1"/>
<path d="M231.964 416.602C230.565 417.381 230.293 418.958 229.495 420.15C228.425 421.736 227.561 423.454 226.576 425.097C226.125 425.847 225.515 426.523 224.558 426.007C223.582 425.472 223.873 424.609 224.314 423.839C225.985 420.892 227.674 417.963 229.354 415.025C230.227 415.551 231.1 416.077 231.973 416.602H231.964Z" fill="#E6D3B1"/>
<path d="M430.328 411.609C428.929 412.388 428.657 413.965 427.859 415.157C426.789 416.743 425.926 418.461 424.94 420.103C424.49 420.854 423.88 421.53 422.922 421.014C421.946 420.479 422.237 419.615 422.678 418.846C424.349 415.898 426.038 412.97 427.718 410.032C428.591 410.558 429.464 411.083 430.337 411.609H430.328Z" fill="#E6D3B1"/>
<path d="M371.965 77.6157C368.022 77.8785 364.277 77.3529 360.561 74.5371C364.812 74.706 368.595 75.654 372.303 74.415C372.406 75.5038 372.443 76.5832 371.965 77.6063V77.6157Z" fill="#03050E"/>
<path d="M582.87 151.418C583.283 150.724 581.687 149.926 582.973 149.297C584.212 148.687 584.85 149.578 585.498 150.367C586.296 151.343 589.365 151.991 590.435 151.381C590.754 151.202 591.008 150.677 591.383 150.893C593.523 152.113 595.41 150.911 597.381 150.376C599.164 149.888 600.882 150.911 602.665 150.667C597.906 152.15 593.054 152.254 588.136 151.85C586.418 151.709 584.691 151.728 582.964 151.662C582.842 151.625 582.804 151.55 582.861 151.428L582.87 151.418Z" fill="#813686"/>
<path d="M154.707 430.428C153.637 432.07 151.882 432.981 150.53 434.323C150.042 434.811 149.301 434.933 148.813 434.389C148.268 433.778 148.475 433.037 149.047 432.511C150.08 431.573 151.3 430.841 152.135 429.677C153.065 429.677 153.919 429.94 154.707 430.418V430.428Z" fill="#647682"/>
<path d="M69.2739 431.985C70.053 433.008 71.0761 433.769 72.0897 434.548C72.8031 435.102 73.2818 435.918 72.5872 436.678C71.9677 437.364 71.1605 436.969 70.5786 436.378C69.3302 435.111 67.6783 434.276 66.7021 432.727C67.4906 432.248 68.3447 431.985 69.2739 431.985Z" fill="#647682"/>
<path d="M64.0193 433.703C65.0705 434.285 66.0467 434.97 66.9008 435.815C67.3326 436.237 67.6705 436.735 67.2387 437.307C66.7788 437.908 66.0936 437.927 65.5492 437.514C64.3478 436.622 62.9305 435.975 62.0576 434.67C62.7146 434.351 63.3623 434.022 64.0193 433.703Z" fill="#647682"/>
<path d="M159.344 432.372C158.462 433.667 157.054 434.315 155.852 435.206C155.308 435.61 154.623 435.6 154.163 435C153.731 434.427 154.078 433.93 154.51 433.507C155.374 432.663 156.34 431.977 157.392 431.396C157.654 431.452 157.908 431.508 158.171 431.564C158.565 431.837 158.959 432.099 159.353 432.372H159.344Z" fill="#647682"/>
<path d="M156.218 329.312C155.974 331.621 155.721 333.93 155.477 336.248C155.28 336.436 155.092 336.624 154.895 336.811C154.341 336.314 154.519 335.713 154.66 335.122C155.233 331.677 155.561 328.223 155.552 324.731C156.444 326.168 155.298 327.895 156.218 329.321V329.312Z" fill="#131F33"/>
<path d="M154.661 335.123C154.736 335.686 154.821 336.249 154.896 336.813C154.765 337.094 154.549 337 154.342 336.944C154.417 336.334 154.126 335.658 154.661 335.123Z" fill="#2170B7"/>
<path d="M278.208 174.357C277.701 173.681 276.809 173.681 276.199 173.183C279.175 166.332 282.15 159.489 285.135 152.637C285.285 152.29 285.416 151.924 285.595 151.586C285.998 150.835 286.599 150.347 287.462 150.751C288.27 151.126 288.223 151.887 287.941 152.581C287.134 154.524 286.299 156.458 285.463 158.391C283.342 163.319 281.211 168.237 279.081 173.155C278.884 173.615 278.771 174.15 278.208 174.357Z" fill="#E6D3B1"/>
<path d="M653.34 169.955C663.843 169.899 674.337 169.833 684.84 169.777C687.909 169.758 691.016 170.012 694.057 169.693C699.858 169.092 705.039 170.181 709.525 174.076C710.389 174.827 711.553 175.418 712.698 174.658C713.683 174.001 713.421 172.893 713.364 171.851C713.27 170.265 713.336 168.66 713.336 166.971C714.209 166.98 714.678 167.759 715.373 168.116C716.114 168.491 716.875 168.904 717.71 168.294C718.451 167.759 718.536 166.952 718.339 166.22C717.832 164.314 717.288 162.4 716.584 160.56C716.114 159.34 716.405 158.955 717.644 158.917C719.043 158.87 720.451 158.739 721.84 158.57C722.816 158.448 723.783 158.185 723.98 157.003C724.186 155.764 723.417 155.172 722.412 154.675C719.772 153.373 719.484 151.606 721.549 149.372C722.591 148.245 723.586 147.082 724.627 145.946C725.247 145.261 725.435 144.482 725.125 143.637C724.796 142.736 724.027 142.501 723.126 142.435C720.77 142.257 718.414 141.966 716.049 141.863C714.866 141.816 714.669 141.319 714.782 140.305C715.148 137.132 715.457 133.95 715.814 130.778C715.936 129.67 716.133 128.469 715.082 127.784C713.965 127.052 712.876 127.634 711.891 128.328C711.262 128.769 710.614 129.182 709.966 129.595C707.948 130.891 707.902 130.891 707.658 128.441C707.507 126.977 707.573 125.503 707.46 124.029C707.301 121.936 706.062 121.251 704.157 122.133C704.044 122.19 703.931 122.255 703.819 122.321C701.366 123.629 699.682 122.997 698.769 120.425C698.3 119.102 697.934 117.741 697.417 116.436C696.526 114.193 694.939 113.93 693.353 115.695C693.1 115.976 692.781 116.248 692.63 116.586C690.95 120.425 687.703 120.913 683.995 120.988C674.337 121.185 664.679 121.523 655.03 121.964C651.257 122.143 647.493 122.302 643.72 122.227C642.734 117.074 641.758 111.931 640.744 106.787C640.237 104.215 641.129 103.052 643.738 103.343C651.933 104.262 660.127 105.276 668.321 106.233C676.383 107.172 684.455 108.054 692.527 108.993C702.439 110.138 712.341 111.321 722.243 112.466C730.184 113.386 738.125 114.277 746.065 115.178C749.557 115.573 753.048 115.957 756.549 116.342C757.31 116.427 758.061 116.633 758.83 116.399C760.473 115.901 761.308 116.53 761.712 118.201C765.26 132.871 768.845 147.532 772.44 162.202C774.749 171.645 777.077 181.087 779.423 190.52C780.08 193.167 779.329 194.04 776.673 193.636C761.44 191.337 746.197 189.056 730.963 186.756C717.879 184.776 704.795 182.749 691.711 180.777C680.138 179.032 668.565 177.286 656.982 175.671C654.87 175.38 653.875 174.498 653.735 172.443C653.678 171.617 653.472 170.809 653.331 169.984L653.34 169.955Z" fill="#91CAD9"/>
<path d="M706.803 246.902C706.465 248.075 706.118 249.427 705.677 250.75C704.879 253.172 703.978 255.556 703.218 257.987C702.833 259.217 702.317 259.47 700.993 259.113C686.295 255.134 671.568 251.229 656.851 247.306C655.433 246.93 654.035 246.442 652.599 246.179C651.181 245.926 650.825 245.363 651.407 244.011C652.946 240.435 653.95 236.652 655.64 233.133C656.325 231.706 657.226 231.19 658.85 231.65C669.081 234.559 679.34 237.403 689.589 240.276C694.442 241.636 699.285 243.016 704.119 244.424C705.311 244.771 706.691 244.987 706.803 246.893V246.902Z" fill="#271E29"/>
<path d="M714.255 244.022C711.571 243.375 708.718 242.708 705.874 241.995C696.422 239.602 686.97 237.189 677.518 234.787C670.103 232.9 662.698 231.013 655.292 229.108C652.354 228.357 651.81 227.362 652.908 224.678C653.753 222.603 654.344 220.088 656.071 218.858C657.883 217.563 660.107 219.365 662.097 219.9C674.918 223.307 687.702 226.837 700.505 230.328C705.977 231.821 711.44 233.341 716.931 234.73C718.498 235.124 718.958 235.753 718.413 237.274C717.878 238.776 717.531 240.343 717.006 241.845C716.583 243.028 715.907 244.032 714.255 244.022Z" fill="#271E29"/>
<path d="M740.2 241.646C740.66 239.469 741.974 237.178 742.913 234.747C743.739 232.607 744.602 230.467 745.55 228.374C745.963 227.454 745.794 226.948 744.893 226.581C744.424 226.384 743.973 226.131 743.523 225.896C740.688 224.441 740.331 223.503 741.542 220.593C742.575 218.115 743.532 215.609 744.687 213.188C746.001 210.447 746.892 210.128 749.708 211.141C752.89 212.287 756.063 213.479 759.207 214.736C761.732 215.75 761.985 216.426 761.037 218.922C757.921 227.163 754.795 235.395 751.66 243.627C751.341 244.462 751.013 245.297 750.365 245.964C749.84 246.508 749.323 246.771 748.497 246.461C746.235 245.598 743.936 244.819 741.636 244.049C740.651 243.72 740.134 243.129 740.191 241.646H740.2Z" fill="#271E29"/>
<path d="M647.081 226.375C645.364 226.394 643.918 225.802 642.435 225.446C639.648 224.779 636.888 223.963 634.119 223.221C631.67 222.564 630.975 221.363 631.754 218.988C632.289 217.355 632.89 215.731 633.5 214.126C633.997 212.803 634.767 212.315 636.325 212.774C641.281 214.239 646.284 215.534 651.268 216.876C652.328 217.167 652.629 217.467 652.065 218.716C651.117 220.809 650.226 222.921 649.193 224.976C648.715 225.934 648.048 226.506 647.081 226.365V226.375Z" fill="#271E29"/>
<path d="M750.045 201.662C755.104 202.657 760.163 203.614 765.213 204.646C768.141 205.247 768.404 205.857 767.297 208.692C766.715 210.175 766.142 211.667 765.617 213.169C765.006 214.905 763.833 215.131 762.266 214.539C760.773 213.976 759.243 213.526 757.779 212.897C755.367 211.864 752.852 211.254 750.317 210.597C746.985 209.743 746.61 208.955 747.088 205.604C747.182 204.975 747.351 204.355 747.408 203.727C747.539 202.065 748.506 201.54 750.045 201.652V201.662Z" fill="#271E29"/>
<path d="M737.28 223.522C733.901 222.658 730.015 221.663 726.139 220.687C724.909 220.377 723.68 220.03 722.431 219.795C721.127 219.551 720.704 218.885 721.108 217.627C721.746 215.628 722.338 213.61 722.995 211.611C723.295 210.672 723.746 210.194 724.966 210.513C730.25 211.911 735.572 213.169 740.884 214.483C741.795 214.708 742.152 215.065 741.701 216.097C740.772 218.256 739.965 220.481 739.167 222.696C738.913 223.409 738.566 223.794 737.29 223.531L737.28 223.522Z" fill="#271E29"/>
<path d="M739.242 240.707C738.21 243.082 737.243 245.372 736.21 247.625C735.563 249.033 734.286 249.296 732.963 248.986C728.748 247.972 724.544 246.912 720.367 245.776C719.137 245.438 718.443 244.528 718.903 243.12C719.541 241.186 720.254 239.271 720.808 237.3C721.136 236.146 721.634 235.986 722.741 236.305C727.707 237.732 732.7 239.065 737.684 240.417C738.153 240.548 738.651 240.595 739.242 240.707Z" fill="#271E29"/>
<path d="M697.493 267.468C693.823 266.576 689.74 265.6 685.647 264.605C682.24 263.77 678.852 262.869 675.426 262.118C674.318 261.874 673.999 261.517 674.403 260.457C674.854 259.265 675.238 258.044 675.614 256.834C675.98 255.632 676.815 256.158 677.491 256.336C682.484 257.65 687.478 259.011 692.471 260.344C694.752 260.954 697.042 261.545 699.323 262.137C701.566 262.719 701.688 262.963 700.768 265.187C699.961 267.149 699.473 267.552 697.493 267.477V267.468Z" fill="#271E29"/>
<path d="M650.431 249.071C655.453 250.413 660.249 251.699 665.045 252.985C667.138 253.548 669.203 254.214 671.315 254.665C672.516 254.928 672.601 255.378 672.132 256.364C671.747 257.162 671.371 258.025 671.259 258.889C671.024 260.7 670.16 260.907 668.546 260.475C662.586 258.889 656.588 257.424 650.6 255.932C649.361 255.622 648.009 255.106 648.038 253.754C648.066 252.14 648.648 250.507 649.755 249.193C649.905 249.014 650.346 249.08 650.431 249.071Z" fill="#271E29"/>
<path d="M736.182 198.386C739.392 199.024 741.955 199.465 744.489 200.066C746.338 200.507 747.023 201.859 746.357 203.699C745.54 205.97 744.573 208.194 743.757 210.466C743.438 211.367 742.884 211.47 742.133 211.292C738.979 210.532 735.835 209.771 732.691 209.002C732.062 208.852 731.546 208.57 732.043 207.819C733.639 205.444 734.023 202.638 734.934 200.01C735.234 199.146 735.225 197.776 736.182 198.386Z" fill="#271E29"/>
<path d="M702.627 199.784C703.152 197.963 703.791 195.692 704.448 193.43C704.71 192.519 705.292 192.604 706.1 192.716C709.45 193.176 712.679 194.256 716.068 194.5C717.109 194.575 717.663 195.025 717.231 196.292C716.443 198.583 715.833 200.938 715.138 203.257C714.885 204.111 714.51 204.477 713.468 204.186C710.211 203.285 706.926 202.506 703.631 201.727C702.768 201.52 702.43 201.089 702.627 199.784Z" fill="#271E29"/>
<path d="M708.268 206.364C712.098 207.312 715.749 208.194 719.4 209.124C720.207 209.33 720.217 209.922 719.982 210.654C719.25 212.897 718.527 215.15 717.908 217.421C717.626 218.463 716.95 218.341 716.284 218.162C712.83 217.261 709.394 216.285 705.94 215.384C705.039 215.15 704.898 214.746 705.18 213.882C705.884 211.705 706.55 209.509 707.095 207.284C707.311 206.411 707.752 206.298 708.277 206.364H708.268Z" fill="#271E29"/>
<path d="M732.062 198.845C731.198 201.802 730.354 204.796 728.486 207.368C728.148 207.828 727.782 207.753 727.312 207.631C724.544 206.908 721.765 206.213 718.987 205.509C718.124 205.293 717.955 204.824 718.227 203.951C718.959 201.586 719.578 199.183 720.282 196.799C720.498 196.086 720.939 195.513 721.812 195.682C724.872 196.264 727.923 196.884 730.992 197.437C731.837 197.588 732.306 197.907 732.071 198.845H732.062Z" fill="#271E29"/>
<path d="M700.655 214.061C697.211 213.15 693.766 212.249 690.321 211.339C689.674 211.17 689.636 210.747 689.777 210.156C690.293 208.063 690.8 205.951 691.25 203.839C691.513 202.591 692.274 202.328 693.372 202.6C696.704 203.445 700.017 204.337 703.359 205.135C704.288 205.35 704.475 205.66 704.166 206.561C703.443 208.664 702.805 210.804 702.166 212.944C701.932 213.742 701.519 214.173 700.646 214.061H700.655Z" fill="#271E29"/>
<path d="M743.429 230.289C742.49 232.654 741.551 235.01 740.594 237.366C740.406 237.835 740.05 237.751 739.646 237.591C736.483 236.381 733.226 235.517 729.931 234.747C728.692 234.456 728.411 233.724 728.814 232.617C729.227 231.481 729.678 230.355 730.082 229.21C731.687 224.61 730.898 225.587 735.141 226.535C737.309 227.013 739.421 227.698 741.57 228.28C742.565 228.553 743.382 228.975 743.429 230.28V230.289Z" fill="#271E29"/>
<path d="M673.586 207.039C670.094 206.101 667.025 205.275 663.956 204.458C663.195 204.252 662.951 203.895 663.167 203.069C663.721 200.91 664.078 198.714 665.035 196.668C665.363 195.954 665.551 195.532 666.537 195.814C669.475 196.63 672.45 197.315 675.416 198.019C676.589 198.292 677.03 198.892 676.617 200.075C675.951 201.999 675.341 203.951 674.665 205.876C674.43 206.533 674.168 207.274 673.586 207.049V207.039Z" fill="#271E29"/>
<path d="M665.373 208.87C664.519 211.291 663.778 213.516 662.924 215.703C662.68 216.332 662.051 216.219 661.431 216.05C658.127 215.121 654.814 214.229 651.491 213.366C650.431 213.094 650.487 212.812 650.956 211.836C651.623 210.437 651.801 208.814 652.167 207.274C652.543 205.716 653.265 205.097 655.002 205.65C657.968 206.589 661.018 207.246 664.022 208.091C664.538 208.232 665.401 208.128 665.383 208.879L665.373 208.87Z" fill="#271E29"/>
<path d="M698.159 200.225C695.137 199.502 692.105 198.807 689.083 198.056C688.426 197.887 688.229 197.418 688.492 196.724C689.205 194.818 689.899 192.904 690.519 190.97C690.81 190.06 691.223 189.797 692.199 190.013C694.743 190.557 697.314 190.97 699.867 191.449C701.078 191.674 701.651 192.265 701.191 193.579C700.562 195.381 699.933 197.174 699.586 199.07C699.454 199.802 699.135 200.459 698.15 200.234L698.159 200.225Z" fill="#271E29"/>
<path d="M711.617 229.765C709.215 229.098 706.633 228.413 704.071 227.672C703.067 227.381 703.151 226.48 703.348 225.757C703.865 223.861 704.475 221.984 705.075 220.116C705.385 219.149 706.061 218.915 707.037 219.196C709.365 219.844 711.702 220.444 714.048 221.026C715.222 221.317 715.813 221.721 715.222 223.11C714.452 224.922 713.898 226.818 713.307 228.704C713.053 229.502 712.631 229.896 711.608 229.774L711.617 229.765Z" fill="#271E29"/>
<path d="M649.587 204.749C648.968 207.189 648.442 209.423 647.823 211.619C647.607 212.38 646.856 212.154 646.34 212.013C643.327 211.187 640.342 210.268 637.32 209.479C636.325 209.216 636.212 208.71 636.569 207.959C637.423 206.175 638.315 204.401 639.244 202.646C639.553 202.055 640.004 201.755 640.821 201.989C643.327 202.721 645.87 203.331 648.386 204.017C648.883 204.157 649.587 204.148 649.587 204.739V204.749Z" fill="#271E29"/>
<path d="M681.556 212.616C684.353 213.348 687.319 214.099 690.275 214.906C691.045 215.113 690.707 215.685 690.51 216.155C689.618 218.266 688.67 220.369 688.417 222.678C688.332 223.476 687.872 223.279 687.488 223.175C684.775 222.462 682.072 221.702 679.369 220.988C678.533 220.772 678.139 220.266 678.308 219.449C678.768 217.253 679.378 215.113 680.486 213.142C680.683 212.785 680.917 212.503 681.556 212.616Z" fill="#271E29"/>
<path d="M728.139 225.249C727.538 226.91 726.994 228.543 726.346 230.139C725.07 233.321 725.051 233.311 721.738 232.485C721.306 232.373 720.884 232.241 720.443 232.129C717.314 231.353 716.253 229.466 717.261 226.469C718.584 222.517 718.584 222.546 722.648 223.25C724.291 223.531 725.774 224.385 727.454 224.489C727.848 224.517 728.13 224.826 728.13 225.249H728.139Z" fill="#271E29"/>
<path d="M658.83 203.239C656.211 202.526 653.442 201.784 650.683 200.996C649.894 200.77 650.054 200.142 650.26 199.578C650.692 198.377 651.152 197.185 651.584 195.984C652.907 192.267 652.926 192.173 656.643 193.374C658.051 193.834 659.487 194.05 660.895 194.397C661.946 194.66 662.359 195.054 661.899 196.124C661.073 198.067 660.529 200.095 660.135 202.169C660.031 202.732 659.75 203.286 658.839 203.23L658.83 203.239Z" fill="#271E29"/>
<path d="M683.968 196.742C681.199 196.001 678.439 195.25 675.661 194.527C674.92 194.33 674.77 193.945 675.032 193.251C675.68 191.514 676.29 189.768 676.919 188.032C677.154 187.375 677.529 187.262 678.252 187.412C680.87 187.938 683.508 188.332 686.136 188.811C687.291 189.017 687.797 189.552 687.272 190.82C686.615 192.406 686.108 194.048 685.535 195.672C685.273 196.414 684.869 196.911 683.977 196.752L683.968 196.742Z" fill="#271E29"/>
<path d="M685.788 210.174C683.019 209.451 680.673 208.841 678.336 208.212C677.651 208.025 677.453 207.536 677.669 206.87C678.345 204.739 679.002 202.609 679.706 200.488C679.95 199.746 680.401 199.333 681.302 199.577C683.329 200.131 685.375 200.619 687.412 201.116C688.294 201.332 688.66 201.651 688.332 202.703C687.694 204.768 687.224 206.879 686.764 209.001C686.586 209.845 686.258 210.287 685.779 210.183L685.788 210.174Z" fill="#271E29"/>
<path d="M698.787 226.31C696.516 225.681 694.123 225.024 691.738 224.348C691.147 224.179 690.95 223.776 691.213 223.166C692.133 221.073 692.546 218.782 693.794 216.811C694.123 216.286 694.395 215.901 695.146 216.117C697.154 216.708 699.172 217.281 701.218 217.759C702.232 218.003 702.401 218.454 702.101 219.383C701.425 221.429 700.787 223.494 700.223 225.578C700.008 226.385 699.51 226.348 698.797 226.31H698.787Z" fill="#271E29"/>
<path d="M663.843 184.682C667.044 185.273 670.038 185.846 673.041 186.381C674.036 186.559 673.867 187.169 673.642 187.798C673.088 189.356 672.516 190.914 671.962 192.472C671.69 193.242 671.286 193.542 670.376 193.298C667.682 192.576 664.95 191.975 662.238 191.299C661.534 191.121 660.783 190.839 661.065 189.901C661.534 188.38 662.078 186.888 662.66 185.405C662.885 184.841 663.355 184.485 663.843 184.673V184.682Z" fill="#271E29"/>
<path d="M673.578 219.373C671.607 218.838 669.27 218.228 666.942 217.562C666.201 217.355 666.069 216.867 666.248 216.07C666.717 213.995 667.703 212.118 668.303 210.1C668.529 209.321 669.139 209.349 669.692 209.49C671.917 210.062 674.123 210.719 676.347 211.264C677.305 211.499 677.417 211.968 677.117 212.784C676.422 214.709 675.559 216.567 675.211 218.604C675.08 219.383 674.583 219.477 673.569 219.373H673.578Z" fill="#271E29"/>
<path d="M650.947 182.167C653.622 182.693 656.232 183.209 658.841 183.716C659.301 183.81 659.46 184.119 659.442 184.542C659.442 184.729 659.385 184.917 659.32 185.095C657.245 190.793 658.728 190.417 652.965 188.897C651.435 188.493 649.868 188.212 648.329 187.836C647.324 187.592 646.93 187.057 647.531 186.034C647.944 185.33 648.3 184.579 648.648 183.838C649.126 182.824 649.934 182.308 650.957 182.167H650.947Z" fill="#271E2A"/>
<path d="M645.71 199.766C645.645 199.757 645.579 199.747 645.523 199.728C640.201 198.227 641.027 199.325 643.054 194.96C643.298 194.444 643.561 193.928 643.824 193.421C645.748 189.789 645.11 190.596 648.536 191.328C649.662 191.572 649.878 191.966 649.427 193.017C648.601 194.942 647.86 196.903 647.156 198.884C646.884 199.635 646.442 199.879 645.71 199.775V199.766Z" fill="#281E2A"/>
<path d="M163.587 214.023C162.517 212.812 161.457 211.601 160.696 210.165C162.264 210.888 162.893 212.446 163.878 213.694C163.784 213.807 163.69 213.91 163.587 214.023Z" fill="#115A9B"/>
<path d="M521.851 152.188C518.744 151.738 516.679 150.039 515.487 147.12C514.896 145.665 516.341 144.191 515.693 143.197C515.046 142.192 513.535 141.714 512.915 140.437C512.371 139.32 512.361 138.137 513.018 137.152C513.732 136.091 513.901 135.247 513.422 133.961C512.53 131.577 514.464 129.925 515.459 128.066C515.693 127.625 516.106 127.278 516.444 126.893C518.5 124.565 518.444 124.706 521.419 125.898C523.24 126.621 525.127 127.766 527.276 126.827C530.411 125.466 531.03 122.266 528.59 119.91C528.271 119.6 527.924 119.318 527.586 119.018C528.083 117.92 528.825 118.314 529.575 118.68C530.026 118.699 530.477 118.718 530.927 118.746C533.03 120.06 533.001 122.153 532.936 124.274C534.531 124.321 535.432 122.435 537.112 122.829C537.019 123.777 536.577 124.575 536.033 125.325C535.479 126.489 534.278 126.733 533.283 127.268C528.843 129.652 524.094 130.957 519.063 131.173C518.678 131.192 518.293 131.211 517.927 131.342C517.299 131.577 516.745 131.933 516.688 132.656C516.623 133.473 517.308 133.735 517.909 133.923C520.218 134.636 522.602 134.486 524.929 134.177C529.069 133.623 533.039 132.459 536.615 130.178C537.066 129.896 537.554 129.427 538.164 129.925C538.229 131.577 537.31 132.75 536.286 133.886C535.986 134.674 535.32 135.049 534.588 135.331C529.35 137.368 524 138.682 518.312 137.79C517.439 137.649 516.36 137.424 516.097 138.626C515.844 139.789 516.923 140.071 517.73 140.399C520.546 141.554 523.512 141.451 526.422 141.122C529.407 140.794 532.326 140.052 534.991 138.55C535.836 138.081 536.793 137.396 537.676 138.56C536.99 140.578 535.01 141.244 533.574 142.493C533.396 143.469 532.551 143.572 531.838 143.741C528.29 144.586 524.732 145.365 521.044 144.839C520.189 144.717 519.326 144.68 518.866 145.581C518.387 146.491 518.988 147.157 519.551 147.786C520.264 148.593 521.325 149.063 521.804 150.105C522.038 150.799 522.395 151.494 521.823 152.198L521.851 152.188Z" fill="#010102"/>
<path d="M521.853 152.189L521.524 150.133C521.966 149.786 522.472 149.805 522.979 149.861C525.204 150.124 527.409 150.218 529.596 149.598C530.094 149.457 530.601 149.429 531.042 149.805C532.196 152.405 533.313 155.033 534.533 157.614C535.237 159.097 534.74 160.036 533.482 160.805C532.046 161.678 530.479 162.213 528.846 162.485C526.734 162.833 525.701 162.082 524.828 160.017C524.218 158.571 523.862 157.004 522.96 155.671C523.026 154.376 522.444 153.278 521.862 152.189H521.853Z" fill="#411F15"/>
<path d="M538.183 129.923C532.589 133.434 526.526 135.217 519.881 134.898C519.036 134.86 518.219 134.719 517.459 134.419C516.671 134.1 515.544 133.762 515.845 132.655C516.117 131.631 516.821 130.477 518.097 130.702C521.317 131.275 524.283 129.951 527.239 129.304C530.318 128.628 533.124 126.713 536.043 125.343C537.235 126.647 538.108 128.102 538.174 129.933L538.183 129.923Z" fill="#2E78BD"/>
<path d="M529.585 118.689C528.928 118.83 528.196 118.52 527.605 119.027C526.103 118.388 524.573 117.797 523.099 117.084C521.429 116.286 519.57 116.183 517.853 115.61C518.669 113.686 519.486 111.762 520.312 109.838C520.8 108.702 521.541 108.205 522.874 108.496C524.864 108.927 526.891 109.19 528.9 109.5C531.04 109.838 531.519 110.476 531.002 112.616C530.514 114.634 529.735 116.586 529.595 118.689H529.585Z" fill="#411F16"/>
<path d="M537.714 138.549C536.85 137.977 536.165 138.502 535.424 138.897C530.168 141.741 524.583 142.426 518.754 141.346C517.9 141.187 517.093 140.727 516.267 140.389C515.366 140.013 514.925 139.281 515.309 138.39C515.675 137.545 516.135 136.85 517.449 137.085C524.104 138.296 530.336 136.803 536.297 133.875C537.442 135.227 538.69 136.55 537.705 138.549H537.714Z" fill="#2E78BD"/>
<path d="M531.041 149.814C527.897 150.818 524.725 151.034 521.524 150.142C520.614 149.354 519.666 148.612 518.802 147.777C518.089 147.083 517.619 146.172 518.164 145.205C518.718 144.21 519.628 144.041 520.792 144.21C525.213 144.839 529.483 144.154 533.613 142.483C534.927 144.989 534.58 146.867 532.478 148.631C531.999 149.025 531.52 149.42 531.041 149.814Z" fill="#2E78BD"/>
<path d="M537.122 122.829C535.517 123.467 534.269 124.932 532.194 124.96C533.001 122.623 532.222 120.623 530.937 118.746C531.819 118.746 532.72 118.671 533.583 118.784C536.08 119.112 537 120.21 537.113 122.829H537.122Z" fill="#2E78BD"/>
<path d="M375.345 53.0808C375.495 56.1407 375.401 58.4872 373.956 60.5521C372.435 62.7297 369.535 62.8142 367.949 60.7117C367.498 60.111 367.236 59.4633 367.817 58.8063C368.418 58.1211 369.038 58.3839 369.695 58.7969C371.375 59.8669 371.844 59.7168 372.454 57.7457C373.083 55.7183 373.346 53.644 372.848 51.5227C372.736 51.0346 372.726 50.509 372.679 50.0022C372.614 49.195 372.905 48.5755 373.759 48.4629C374.529 48.369 374.838 48.904 375.092 49.5704C375.617 50.9502 375.261 52.3675 375.345 53.0808Z" fill="#010104"/>
<path d="M335.342 55.5951C335.436 55.2572 335.623 54.7785 335.708 54.281C335.811 53.6146 336.074 52.7887 334.788 53.1266C334.356 53.2392 333.934 52.967 333.727 52.4883C333.483 51.9251 333.756 51.4934 334.094 51.0992C335.182 49.8133 338.524 49.2313 339.969 50.0855C340.607 50.4703 341.105 50.9865 340.786 51.8125C340.551 52.432 340.044 52.7417 339.415 52.4226C338.439 51.9158 338.308 52.6479 338.176 53.2392C337.97 54.1684 337.857 55.1164 337.717 56.055C337.576 56.9279 337.332 57.7633 336.205 57.5943C335.051 57.4254 335.492 56.4492 335.351 55.5857L335.342 55.5951Z" fill="#010207"/>
<path d="M368.146 66.7657C366.24 66.8314 364.457 66.7375 362.777 67.526C362.054 67.8639 361.172 67.8732 360.834 66.9534C360.515 66.0993 361.059 65.4798 361.857 65.1794C364.964 63.9968 368.136 63.7715 371.374 64.56C372.116 64.7383 372.379 65.2733 372.304 66.0054C372.219 66.7563 371.675 66.9065 371.065 66.8877C370.051 66.8689 369.028 66.8032 368.146 66.7563V66.7657Z" fill="#010205"/>
<path d="M368.295 48.0875C365.873 46.9611 363.17 45.7316 360.504 44.4457C359.913 44.1547 359.847 43.4883 360.063 42.9251C360.345 42.2024 361.058 42.0522 361.668 42.3151C364.287 43.4414 366.887 44.6052 369.449 45.8348C370.022 46.107 370.407 46.6514 370.069 47.4304C369.768 48.125 369.186 48.0499 368.285 48.0969L368.295 48.0875Z" fill="#010206"/>
<path d="M380.375 41.8459C379.681 44.4646 377.531 45.9382 375.748 47.684C375.316 48.1064 374.744 47.8342 374.377 47.4587C373.936 46.9988 373.88 46.3512 374.274 45.8819C375.551 44.3895 376.884 42.9346 378.235 41.508C379.071 40.6351 379.699 41.5361 380.385 41.8646L380.375 41.8459Z" fill="#01020A"/>
<path d="M364.241 51.4565C363.396 51.3721 362.833 50.9028 362.814 50.1425C362.795 49.2977 363.283 48.7346 364.259 48.7627C365.17 48.7815 365.527 49.3634 365.536 50.1143C365.536 50.9027 365.02 51.3721 364.241 51.4659V51.4565Z" fill="#030714"/>
<path d="M377.963 48.0312C378.882 48.1063 379.324 48.5756 379.324 49.3828C379.324 50.0586 379.061 50.6406 378.272 50.6969C377.437 50.7532 376.986 50.3027 376.902 49.4861C376.817 48.6413 377.315 48.2377 377.963 48.0312Z" fill="#040714"/>
<path d="M619.213 133.021C619.213 133.021 619.27 133.021 619.336 133.021C620.959 133.125 622.658 133.209 623.221 135.143C623.569 136.344 622.114 137.733 620.115 138.268C619.439 138.447 618.735 138.559 618.05 138.681C616.98 138.869 616.154 138.616 615.816 137.442C615.731 137.142 615.553 136.86 615.403 136.579C614.352 134.508 615.027 133.384 617.43 133.209C618.003 133.162 618.575 133.097 619.213 133.021Z" fill="#803685"/>
<path d="M606.467 145.195C606.279 145.176 606.045 145.232 605.904 145.138C602.9 143.205 599.615 143.496 596.246 143.637C592.641 143.787 589.018 143.44 585.405 143.318C584.823 143.299 584.213 143.355 584.109 142.548C590.135 143.139 596.152 143.43 602.206 142.961C603.829 142.839 605.162 144.209 606.467 145.185V145.195Z" fill="#813686"/>
<path d="M595.345 135.613C593.111 132.356 594.387 127.747 596.396 125.701C596.762 125.325 597.137 125.269 597.588 125.297C597.137 126.424 596.771 127.587 596.218 128.667C595.073 130.891 594.35 133.144 595.345 135.622V135.613Z" fill="#733077"/>
<path d="M617.552 142.182C615.741 146.696 609.912 148.264 606.43 145.176C607.228 145.401 608.025 145.626 608.814 145.861C611.977 146.8 614.633 145.852 616.492 143.13C616.764 142.735 616.876 142.125 617.562 142.191L617.552 142.182Z" fill="#813686"/>
<path d="M620.659 147.625C620.781 147.334 620.874 147.025 621.034 146.762C622.799 143.918 621.935 142.303 618.565 142.134C620.771 141.111 621.794 141.768 622.686 143.739C623.38 145.269 622.545 146.715 620.649 147.625H620.659Z" fill="#813686"/>
<path d="M602.946 150.658C603.181 150.198 603.462 149.625 604.016 149.719C607.31 150.31 610.558 149.109 613.834 149.512C610.22 150.057 606.616 150.667 602.937 150.658H602.946Z" fill="#813686"/>
<path d="M617.176 149.082C618.096 147.983 619.513 148.077 620.696 147.599C619.729 148.575 618.546 149.044 617.176 149.082Z" fill="#813686"/>
<path d="M614.087 149.494C614.819 148.753 615.729 149.203 616.565 149.128C615.795 149.626 614.932 149.494 614.087 149.494Z" fill="#813686"/>
<path d="M583.847 142.51C583.134 142.566 582.43 142.594 582.261 141.646C582.786 141.937 583.321 142.219 583.847 142.51Z" fill="#813686"/>
<path d="M95.5009 230.326C96.7211 232.119 97.0121 233.996 96.0828 235.986C95.7543 236.69 95.1818 237.122 94.4215 237.047C93.5111 236.953 93.0042 236.258 92.6288 235.479C92.5631 235.348 92.6006 235.085 92.6945 234.991C93.023 234.653 93.2764 234.944 93.4735 235.179C93.8396 235.611 94.1587 236.239 94.8439 235.92C95.5103 235.62 95.4915 234.916 95.5854 234.268C95.7731 232.945 95.2662 231.668 95.5103 230.336L95.5009 230.326Z" fill="#0D172A"/>
<path d="M79.6942 233.049C77.0567 232.974 78.7462 234.673 78.5022 235.574C77.0661 235.367 77.7888 233.293 76.334 233.293C76.456 232.467 77.2163 232.457 77.7607 232.242C78.4646 231.96 78.8776 232.664 79.6942 233.049Z" fill="#0B1526"/>
<path d="M92.4307 241.532C93.4068 241.025 94.2891 241.307 95.1432 241.232C95.5374 241.194 95.9129 241.344 95.9129 241.832C95.9129 242.302 95.5844 242.508 95.162 242.48C94.2422 242.433 93.2566 242.536 92.4307 241.523V241.532Z" fill="#0D1321"/>
<path d="M93.3317 238.492C92.1773 238.765 91.2199 238.004 90.2344 238.408C89.9152 238.539 89.7369 238.239 89.8026 237.995C89.8589 237.798 90.0936 237.544 90.2907 237.488C91.4451 237.169 92.487 237.244 93.3411 238.492H93.3317Z" fill="#0D1A2E"/>
<path d="M91.1653 228.873C90.4613 229.765 89.7198 230.572 88.1523 230.741C89.0816 229.53 89.8888 228.817 91.1653 228.873Z" fill="#0F1A2E"/>
<path d="M91.5668 231.136C91.4918 231.464 91.2946 231.699 90.9567 231.727C90.5625 231.765 90.1871 231.708 90.1683 231.192C90.1589 230.835 90.3373 230.61 90.7033 230.573C91.1351 230.526 91.4073 230.751 91.5668 231.126V231.136Z" fill="#0B1423"/>
<path d="M98.5224 230.457C98.4192 230.776 98.2315 230.992 97.8654 230.954C97.5087 230.917 97.2928 230.663 97.3304 230.344C97.3585 230.025 97.612 229.781 97.9686 229.828C98.3065 229.875 98.4755 230.128 98.5224 230.457Z" fill="#11233D"/>
<path d="M97.0479 227.99C97.8457 227.69 98.2774 228 98.5778 228.535C98.6341 228.629 98.4558 228.995 98.4088 228.985C97.8269 228.938 97.3576 228.685 97.0479 227.99Z" fill="#0D1829"/>
<path d="M520.059 128.206C519.637 128.413 519.036 128.507 518.952 128.234C518.811 127.793 519.205 127.615 519.646 127.859C519.797 127.943 519.909 128.075 520.069 128.206H520.059Z" fill="#1A5E9F"/>
<defs>
<clipPath id="clip0_292_676">
<rect width="707" height="486" rx="12" fill="white"/>
</clipPath>
</defs>
</svg>
