<svg width="160" height="160" viewBox="0 0 160 160" fill="none" xmlns="http://www.w3.org/2000/svg">
<path d="M141.022 132.303L131.893 141.432C130.589 142.736 128.415 142.736 126.677 141.432L84.0754 98.831C82.7713 97.5269 82.7713 95.3533 84.0754 93.6145L93.2042 84.4857C94.5083 83.1815 96.6819 83.1815 98.4207 84.4857L141.022 127.087C142.326 128.391 142.326 130.999 141.022 132.303ZM115.374 49.7092C114.07 51.0133 113.635 53.1868 114.94 54.9256C120.156 62.3156 122.764 71.0098 122.764 80.5733C122.764 84.9204 122.33 89.7021 121.025 93.6145C120.591 94.9186 121.025 96.2227 121.895 97.0921L132.762 107.96C133.632 108.829 135.371 108.829 135.805 107.525C139.718 99.2657 141.891 90.1368 141.891 80.1386C141.891 65.7933 137.544 52.3174 128.85 41.4497C127.546 40.1456 125.372 39.7109 123.634 41.015L115.374 49.7092ZM44.0824 110.568C45.3865 109.264 45.3865 107.09 44.5171 105.352C39.3006 97.9616 37.1271 89.7021 37.1271 80.1386C37.1271 67.5321 41.0394 57.5339 49.2989 49.2744C57.5583 40.5803 67.9912 36.668 79.7283 36.668C89.2918 36.668 97.986 39.2762 105.376 44.9274C107.115 46.2315 109.288 45.7968 111.027 44.4927L119.287 36.2333C120.591 34.9291 120.591 32.7556 118.852 31.0168C107.984 22.3226 95.3777 17.9756 80.5977 17.9756C63.2095 17.9756 48.8642 24.4962 36.2577 36.2333C24.0859 48.405 18 63.1851 18 80.1386C18 94.4839 21.9124 107.525 30.6065 118.393C31.9106 120.132 34.0841 120.132 35.823 118.827L44.0824 110.568ZM97.1166 122.305C96.2472 121.436 94.943 121.001 93.6389 121.436C89.2918 122.74 84.5101 123.609 79.7283 123.609C70.1648 123.609 61.4706 121.001 54.0806 115.35C52.3418 114.046 50.603 114.48 48.4294 115.785L40.6047 124.479C39.3006 125.783 39.3006 127.956 41.0394 129.695C51.9071 137.955 64.5136 142.302 79.2936 142.302C89.7266 142.302 98.8554 140.563 107.115 136.216C108.419 135.781 108.854 134.042 107.55 133.173L97.1166 122.305Z" fill="white"/>
</svg>
