<svg width="521" height="531" viewBox="0 0 521 531" fill="none" xmlns="http://www.w3.org/2000/svg">
<g clip-path="url(#clip0_132_220)">
<path d="M154.682 281.723C154.641 283.163 154.613 284.604 154.572 286.044C154.613 292.299 154.654 298.553 154.696 304.863C148.221 306.056 141.992 307.044 135.847 308.347C129.015 309.801 122.334 311.845 116.037 314.945C113.088 316.399 110.207 318.003 108.259 320.788C107.641 321.679 107.161 322.777 109.178 323.408C112.594 319.128 117.505 316.838 122.608 314.917C132.458 311.227 142.761 309.376 153.118 307.881C154.147 307.73 155.231 307.977 156.52 308.059C159.099 316.015 163.462 322.749 168.963 328.771C170.307 330.17 171.46 331.843 173.037 332.913C175.918 334.861 178.963 336.631 182.091 338.167C194.026 344.01 206.03 343.955 218.02 338.222C219.968 337.289 221.93 336.384 224.07 335.382C230.38 340.54 237.802 342.789 245.388 343.338C255.581 344.065 265.979 344.518 275.431 339.127C276.872 338.304 278.312 338.249 279.808 339.045C280.96 339.662 282.14 340.265 283.333 340.787C293.018 344.998 302.923 348.207 313.692 347.522C314.995 347.439 316.326 347.494 317.629 347.522C324.338 347.576 330.552 345.67 336.478 342.721C337.384 342.268 338.097 341.445 339.112 340.608C338.248 339.25 337.768 337.975 336.876 337.152C333.68 334.175 330.291 331.432 327.095 328.469C319.097 321.048 309.961 315.74 299.26 313.285C298.835 313.189 298.3 313.175 298.026 312.901C297.6 312.476 296.983 311.749 297.106 311.351C297.326 310.638 297.902 309.828 298.561 309.527C299.301 309.17 300.275 309.266 301.14 309.28C306.353 309.362 310.88 311.735 315.201 314.19C324.351 319.389 332.5 325.959 339.949 333.421C341.321 334.793 342.953 335.917 344.476 337.152C352.556 331.857 356.932 323.97 359.827 315.082C360.431 313.23 360.897 311.337 361.501 309.156C366.124 311.063 369.499 314.163 372.832 317.208C376.042 320.143 378.896 323.476 381.886 326.659C384.959 329.923 386.468 334.367 390.597 338.578C390.241 336.288 390.351 335.149 389.884 334.34C388.252 331.514 386.592 328.675 384.644 326.069C379.499 319.183 373.161 313.532 366.165 308.566C364.587 307.442 363.023 306.303 361.281 305.028V293.725C361.514 286.935 358.551 280.941 356.26 274.851C355.149 271.888 354.23 269.035 354.696 265.949C355.561 260.161 356.096 254.386 359.004 248.982C365.644 236.65 371.09 223.757 376.399 210.781C380.967 199.657 385.33 188.45 389.13 177.052C394.384 161.319 398.787 145.312 401.613 128.961C402.834 121.897 403.767 114.71 403.314 107.44C403.04 102.996 401.997 98.7437 400.365 94.7384C397.854 88.6071 391.571 86.1518 385.206 88.0036C380.871 89.2792 377.277 91.7208 374.067 94.6836C368.922 99.4295 364.176 104.559 360.101 110.307C351.994 121.719 344.106 133.255 337.754 145.778C333.597 153.967 329.002 161.95 325.051 170.248C321.018 178.725 317.519 187.463 313.788 196.09C313.02 197.873 312.485 199.821 310.482 201.234C308.74 200.727 306.819 200.384 305.063 199.629C296.187 195.802 286.969 193.347 277.379 192.03C269.615 190.96 261.891 189.602 254.003 189.685C250.738 189.726 247.418 189.369 244.277 190.672C243.893 190.837 243.413 190.851 242.987 190.851C232.314 190.809 222.341 193.964 212.409 197.393C211.174 197.819 209.912 198.134 208.527 198.532C206.483 196.954 205.756 194.595 204.932 192.414C200.309 180.124 195.069 168.108 189.376 156.285C187.291 151.95 185.603 147.41 183.381 143.158C175.081 127.26 166.219 111.665 155.711 97.0977C151.499 91.2681 146.835 85.6992 141.361 80.9395C136.752 76.9343 131.539 74.5064 125.215 75.0688C123.349 75.2334 121.936 75.9467 120.523 77.0852C116.476 80.336 114.473 84.8213 114.185 89.6496C113.719 97.5092 113.568 105.465 114.267 113.297C114.898 120.416 116.641 127.48 118.273 134.475C122.677 153.432 128.576 171.977 135.188 190.261C139.043 200.932 143.419 211.453 148.028 221.836C152.816 232.631 158.166 243.193 163.256 253.851C163.818 255.031 164.6 256.183 164.888 257.431C165.588 260.462 165.725 263.288 163.393 266.031C160.581 269.323 157.7 272.739 157.261 277.389C162.241 277.937 167.207 278.486 172.187 279.048C180.253 279.981 187.976 282.231 195.522 285.125C196.921 285.66 198.183 286.606 199.404 287.498C200.282 288.142 201.078 289.199 200.254 290.227C199.87 290.707 198.704 290.694 197.909 290.639C197.305 290.598 196.715 290.131 196.125 289.857C182.942 284.055 169.086 281.668 154.764 281.696L154.682 281.723ZM283.539 272.519C285.72 273.04 286.53 274.782 287.078 276.662C287.531 278.184 286.653 280.269 285.336 281.202C283.333 282.628 279.437 282.697 277.448 281.119C276.666 280.502 275.994 279.501 275.692 278.554C275.171 276.895 275.102 275.153 276.625 273.822C276.309 273.356 276.035 272.519 275.678 272.478C274.005 272.272 272.304 272.3 270.753 272.245C269.848 270.146 270.328 268.953 272.235 268.459C279.382 266.594 286.543 264.728 293.704 262.904C295.021 262.575 296.366 262.479 297.01 264.056C297.518 265.304 296.503 266.498 294.349 267.074C291.839 267.76 289.26 268.253 286.749 268.953C285.171 269.392 283.662 270.064 281.961 270.695C282.675 271.532 283.1 272.025 283.525 272.519H283.539ZM133.418 139.564C134.077 136.3 134.461 133.008 135.435 129.908C137.575 123.173 144.571 120.471 150.827 123.914C153.296 125.272 155.628 127 157.741 128.865C163.544 133.954 168.291 139.989 172.42 146.464C182.681 162.594 191.008 179.685 197.511 197.668C198.101 199.286 198.677 201.097 199.802 202.29C202.106 204.732 201.928 207.146 201.187 210.164C200.378 213.428 199.13 216.295 197.278 219.093C194.575 223.194 191.104 226.541 187.373 229.545C183.6 232.604 179.252 234.675 174.107 234.387C171.967 234.264 170.362 233.633 169.196 231.726C166.109 226.692 162.611 221.878 159.84 216.679C149.908 198.093 141.265 178.958 136.628 158.274C135.243 152.115 134.461 145.819 133.405 139.537L133.418 139.564ZM379.458 130.429C379.568 130.47 381.392 130.717 382.737 131.636C385.343 133.419 387.113 136.067 387.332 139.262C387.566 142.746 387.703 146.313 387.223 149.742C385.919 159.042 383.464 168.108 380.514 177.011C377.359 186.557 373.436 195.789 369.43 205.02C365.671 213.661 361.35 221.974 356.713 230.149C355.533 232.234 354.271 234.318 352.748 236.157C351.623 237.514 350.005 238.31 348.057 237.583C344.586 236.294 341.047 235.128 337.644 233.688C336.3 233.111 334.997 232.096 334.05 230.972C330.922 227.296 328.453 223.208 326.478 218.764C324.694 214.745 324.543 210.973 326.313 206.844C331.649 194.403 336.725 181.866 343.283 169.988C347.618 162.128 352.241 154.488 357.152 146.985C360.554 141.786 365.109 137.713 369.485 133.447C371.762 131.225 374.588 130.1 379.458 130.443V130.429ZM250.34 284.137C256.322 284.165 260.986 285.344 263.606 287.141C267.571 289.857 268.01 294.452 264.457 297.607C262.852 299.033 260.917 300.117 259.134 301.351C255.814 303.642 252.522 303.162 249.421 300.995C247.46 299.623 245.745 297.936 243.81 296.523C240.353 293.999 240.12 287.621 245.429 285.317C247.364 284.48 249.586 284.315 250.34 284.137ZM258.119 318.566C256.02 318.415 254.264 318.346 252.535 318.154C249.709 317.839 246.87 317.619 244.085 317.057C240.244 316.275 236.402 315.37 233.151 312.942C231.217 311.502 228.953 310.103 228.514 307.647C227.897 304.246 227.458 300.721 228.61 297.278C228.899 296.413 230.805 296.002 231.436 296.674C232.026 297.291 232.671 297.963 232.959 298.732C234.345 302.421 237.143 304.794 240.257 306.893C245.018 310.089 250.176 312.38 255.814 313.477C257.748 313.847 259.669 314.204 261.603 314.533C262.769 314.739 263.661 315.219 263.771 316.536C263.867 317.784 262.906 318.497 261.027 318.566C259.93 318.607 258.846 318.566 258.105 318.566H258.119ZM241.218 271.696C239.736 271.271 238.817 271.216 238.117 270.777C232.15 267.129 226.237 263.411 220.297 259.708C219.94 259.475 219.447 259.214 219.337 258.857C219.104 258.089 218.733 257.088 219.035 256.512C219.323 255.977 220.407 255.675 221.148 255.634C221.724 255.593 222.355 256.073 222.904 256.416C228.679 259.955 234.468 263.494 240.202 267.074C240.916 267.513 241.492 268.226 242 268.912C242.192 269.186 242.123 269.762 242 270.132C241.794 270.722 241.423 271.271 241.204 271.696H241.218ZM231.148 280.571C230.257 280.489 229.379 280.502 228.528 280.31C225.318 279.597 223.466 276.62 224.179 273.411C224.769 270.791 227.047 269.392 230.188 269.721C232.74 269.982 234.688 271.298 236.114 273.315C237.87 275.797 236.595 279.323 233.7 280.159C232.877 280.393 231.999 280.434 231.148 280.557V280.571Z" fill="#D9D9D9"/>
<path d="M344.477 337.151C342.968 335.917 341.322 334.792 339.95 333.42C332.515 325.959 324.366 319.375 315.202 314.19C310.881 311.734 306.354 309.361 301.141 309.279C300.276 309.265 299.302 309.183 298.561 309.526C297.917 309.828 297.327 310.637 297.107 311.35C296.984 311.748 297.601 312.475 298.026 312.9C298.301 313.175 298.836 313.188 299.261 313.284C309.961 315.753 319.098 321.048 327.096 328.469C330.292 331.431 333.694 334.189 336.877 337.151C337.769 337.974 338.249 339.25 339.113 340.608C338.098 341.445 337.371 342.268 336.479 342.72C330.553 345.669 324.338 347.576 317.63 347.521C316.313 347.521 314.996 347.452 313.693 347.521C302.924 348.207 293.019 344.997 283.334 340.786C282.127 340.265 280.961 339.661 279.808 339.044C278.327 338.249 276.886 338.303 275.432 339.126C265.994 344.517 255.582 344.064 245.389 343.337C237.789 342.789 230.381 340.539 224.07 335.382C221.93 336.383 219.969 337.288 218.021 338.221C206.031 343.955 194.041 344.01 182.092 338.166C178.964 336.63 175.919 334.861 173.038 332.913C171.46 331.843 170.308 330.17 168.964 328.77C160.376 340.114 153.681 352.5 148.839 365.874C145.272 375.695 142.432 385.708 141.897 396.242C144.27 396.064 146.657 395.927 149.031 395.68C151.185 395.461 153.325 394.884 155.451 394.926C165.205 395.063 174.492 397.436 182.751 402.511C189.651 406.763 195.276 412.469 198.17 420.493C199.638 424.567 199.158 428.668 199.515 432.756C207.115 433.305 214.769 433.442 222.287 434.525C229.242 435.527 236.239 435.005 243.139 435.828C260.122 437.831 277.133 436.72 294.13 437.036C293.856 435.554 293.472 434.073 293.321 432.578C293.115 430.644 292.731 428.641 293.047 426.776C294.076 420.644 296.709 415.281 301.182 410.837C307.204 404.856 314.447 401.043 322.569 398.958C326.533 397.943 330.69 397.779 334.696 396.887C338.386 396.064 341.939 396.037 345.629 396.887C351.103 398.149 356.631 399.123 362.133 400.206C361.255 388.163 358.703 376.463 354.999 364.982C354.272 362.733 353.874 360.36 353.325 358.042C353.037 357.795 352.722 357.562 352.489 357.274C352.406 357.164 352.516 356.889 352.543 356.697C352.831 356.821 353.325 356.889 353.367 357.082C353.449 357.397 353.257 357.781 353.174 358.138C354.244 357.575 354.78 358.316 355.191 359.057C358.25 364.612 361.255 370.208 364.341 375.736C365.027 376.984 365.055 378.877 367.14 379.014C368.608 377.615 367.606 376.216 367.03 374.899C363.779 367.451 359.828 360.36 355.122 353.748C351.94 349.29 348.524 345.011 345.094 340.731C344.148 339.552 343.901 338.468 344.463 337.138L344.477 337.151Z" fill="#C6C6C7"/>
<path d="M353.339 358.042C353.888 360.36 354.286 362.719 355.013 364.969C358.717 376.449 361.255 388.15 362.146 400.193C365.686 402.319 369.362 404.253 372.751 406.599C379.912 411.55 384.562 418.203 385.632 427.064C385.756 428.12 385.975 429.162 386.195 430.534H391.517C402.876 428.298 414.276 426.282 425.58 423.785C440.945 420.397 455.966 415.761 470.343 409.273C478.739 405.487 486.737 401.016 493.829 395.049C497.547 391.922 500.839 388.438 503.405 384.309C509.07 375.188 509.509 365.819 504.653 356.217C502.664 352.267 500.016 348.797 496.984 345.615C491.662 340.018 485.53 335.478 478.986 331.418C464.801 322.598 449.45 316.316 433.715 311.008C412.795 303.957 391.408 298.649 369.664 294.808C366.893 294.314 364.067 294.068 361.268 293.711V305.013C363.024 306.275 364.574 307.428 366.152 308.552C373.135 313.504 379.486 319.169 384.631 326.055C386.579 328.661 388.239 331.5 389.871 334.326C390.338 335.135 390.228 336.274 390.584 338.564C386.455 334.353 384.946 329.909 381.873 326.644C378.883 323.462 376.029 320.143 372.819 317.194C369.499 314.149 366.111 311.049 361.488 309.142C360.87 311.323 360.418 313.216 359.814 315.068C356.92 323.97 352.543 331.843 344.463 337.138C343.901 338.468 344.148 339.552 345.094 340.731C348.51 345.011 351.94 349.291 355.122 353.748C359.842 360.36 363.792 367.451 367.03 374.899C367.606 376.203 368.594 377.615 367.14 379.014C365.068 378.877 365.041 376.984 364.341 375.736C361.255 370.195 358.264 364.598 355.191 359.057C354.779 358.316 354.244 357.575 353.174 358.138L353.312 358.042H353.339Z" fill="#3F5B3C"/>
<path d="M141.91 396.243C142.445 385.709 145.285 375.696 148.852 365.875C153.694 352.501 160.389 340.115 168.977 328.771C163.475 322.75 159.113 316.015 156.534 308.059C155.244 307.977 154.161 307.73 153.132 307.881C142.774 309.376 132.472 311.228 122.622 314.917C117.505 316.838 112.594 319.115 109.192 323.408C107.189 322.777 107.655 321.68 108.273 320.788C110.221 318.004 113.101 316.412 116.051 314.945C122.348 311.831 129.029 309.801 135.86 308.347C142.006 307.044 148.234 306.043 154.709 304.863C154.668 298.553 154.627 292.299 154.586 286.044C142.034 287.745 129.413 289.089 116.929 291.229C101.002 293.958 85.2668 297.689 69.9433 302.874C59.7917 306.303 49.791 310.158 40.6134 315.768C35.9628 318.607 31.5318 321.844 27.2242 325.191C23.5614 328.017 20.6257 331.61 18.2524 335.588C13.0668 344.339 12.5592 353.338 17.1 362.528C19.1578 366.684 21.8878 370.374 25.0842 373.707C30.1188 378.96 35.8668 383.295 41.9989 387.163C56.321 396.202 71.7816 402.745 87.8047 407.998C98.1621 411.4 108.698 414.294 119.151 417.421C119.906 416.736 121.058 416.173 121.346 415.337C124.09 407.161 130.071 402.278 137.603 398.822C139.125 398.122 140.483 397.107 141.924 396.229L141.91 396.243Z" fill="#3F5B3C"/>
<path d="M391.517 430.548H386.194C385.961 429.162 385.755 428.134 385.631 427.078C384.575 418.217 379.925 411.564 372.75 406.612C369.361 404.267 365.685 402.333 362.145 400.207C356.644 399.109 351.102 398.136 345.642 396.887C341.952 396.037 338.399 396.064 334.709 396.887C330.717 397.779 326.546 397.944 322.582 398.959C314.46 401.043 307.217 404.857 301.195 410.837C296.722 415.281 294.088 420.658 293.06 426.776C292.744 428.641 293.128 430.644 293.334 432.578C293.499 434.073 293.869 435.554 294.143 437.036C294.719 438.188 295.296 439.354 295.872 440.506C300.495 449.737 308.246 455.032 317.876 457.967C318.782 453.743 319.646 449.518 320.606 445.307C321.429 441.727 322.335 438.161 323.268 434.594C323.734 432.852 325.023 431.865 326.505 431.92C328.192 431.974 329.509 433.387 329.592 435.486C329.647 436.995 329.619 438.545 329.304 440.012C328.124 445.499 326.821 450.972 325.558 456.445C325.092 458.434 323.693 459.257 321.772 459.394C322.101 459.668 322.403 460.135 322.76 460.203C331.732 461.753 340.621 462.96 349.799 461.012C354.669 459.984 359.553 459.394 363.929 456.815C363.174 456.445 362.036 456.266 361.734 455.663C360.966 454.127 360.376 452.44 360.06 450.752C359.1 445.636 358.291 440.492 357.468 435.362C357.33 434.512 357.358 433.62 357.399 432.756C357.481 431.398 358.675 430.493 360.101 430.534C361.528 430.575 362.79 431.083 363.298 432.4C364.08 434.416 364.532 436.556 365.164 438.627C366.865 444.155 366.439 449.847 366.549 455.512C374.808 451.891 380.748 445.952 384.438 437.735C384.795 436.954 384.891 436.076 385.192 435.253C385.892 433.319 386.907 431.823 389.281 431.7C390.049 431.659 390.776 430.959 391.517 430.575V430.548Z" fill="#DADADA"/>
<path d="M141.911 396.243C140.47 397.12 139.112 398.135 137.59 398.835C130.072 402.292 124.091 407.175 121.333 415.35C121.045 416.2 119.893 416.749 119.138 417.435C120.318 419.108 120.551 421.001 120.483 422.976C120.222 429.45 123.268 434.58 127.397 439.148C129.084 441.014 130.621 443.304 133.474 443.716C135.751 438.997 137.987 434.251 140.32 429.56C140.882 428.408 141.595 427.283 142.46 426.351C143.639 425.061 145.354 424.965 146.616 425.87C147.892 426.776 148.4 428.312 147.604 429.944C145.231 434.869 142.734 439.724 140.292 444.621C139.428 446.349 137.823 446.157 136.314 446.185C141.047 450.053 146.959 450.931 152.57 452.59C154.655 453.208 156.823 453.578 158.977 453.825C163.353 454.346 167.715 454.223 171.913 452.59C171.652 449.134 171.968 445.691 170.816 442.248C169.869 439.409 169.636 436.309 169.293 433.305C169.128 431.823 169.252 430.246 169.567 428.792C169.869 427.407 171.076 426.501 172.476 426.693C173.422 426.831 174.369 427.585 175.123 428.271C175.535 428.641 175.617 429.45 175.727 430.081C176.975 437.104 178.8 444.072 178.32 451.315C180.72 450.355 183.244 449.6 185.522 448.407C190.433 445.828 194.109 441.946 196.757 437.049C197.566 435.554 198.609 434.169 199.556 432.742C199.199 428.655 199.679 424.554 198.211 420.48C195.317 412.469 189.692 406.749 182.792 402.497C174.533 397.422 165.232 395.049 155.492 394.912C153.352 394.885 151.212 395.461 149.072 395.666C146.699 395.9 144.312 396.037 141.938 396.229L141.911 396.243Z" fill="#DADADA"/>
<path d="M154.682 281.723C169.018 281.696 182.86 284.096 196.043 289.884C196.647 290.145 197.223 290.625 197.826 290.666C198.622 290.721 199.802 290.721 200.172 290.255C200.995 289.212 200.2 288.17 199.322 287.525C198.101 286.62 196.825 285.687 195.439 285.152C187.894 282.244 180.171 279.995 172.104 279.076C167.138 278.5 162.159 277.965 157.179 277.416C149.332 277.553 141.457 277.402 133.638 277.937C128.247 278.321 122.883 279.515 117.574 280.667C115.269 281.161 113.115 282.395 110.961 283.424C109.946 283.918 109.329 284.85 109.603 286.099C109.85 287.237 111.277 287.772 112.882 287.1C126.326 281.476 140.456 281.174 154.682 281.737V281.723Z" fill="#A7A1A1"/>
<path d="M321.772 459.38C323.693 459.243 325.106 458.433 325.559 456.431C326.821 450.958 328.124 445.499 329.304 439.998C329.619 438.531 329.66 436.981 329.592 435.472C329.509 433.373 328.179 431.974 326.505 431.905C325.037 431.851 323.734 432.838 323.268 434.58C322.335 438.133 321.429 441.699 320.606 445.293C319.646 449.504 318.782 453.729 317.876 457.953C319.179 458.42 320.469 458.9 321.772 459.366V459.38Z" fill="#BFC2C9"/>
<path d="M366.55 455.484C366.44 449.833 366.865 444.127 365.164 438.599C364.533 436.528 364.067 434.388 363.298 432.372C362.791 431.069 361.529 430.547 360.102 430.506C358.662 430.465 357.468 431.37 357.4 432.728C357.345 433.592 357.331 434.484 357.468 435.334C358.291 440.478 359.114 445.608 360.061 450.725C360.376 452.412 360.966 454.099 361.735 455.635C362.036 456.239 363.175 456.417 363.93 456.787C364.808 456.348 365.685 455.909 366.563 455.47L366.55 455.484Z" fill="#BFC2C9"/>
<path d="M178.305 451.329C178.785 444.086 176.961 437.132 175.712 430.095C175.603 429.464 175.52 428.655 175.109 428.285C174.354 427.599 173.408 426.844 172.461 426.707C171.062 426.515 169.855 427.421 169.553 428.806C169.237 430.274 169.114 431.837 169.278 433.319C169.621 436.323 169.855 439.423 170.801 442.262C171.954 445.691 171.638 449.148 171.899 452.604C172.735 452.604 173.559 452.577 174.395 452.577C175.287 452.22 176.193 451.863 177.084 451.507C177.496 451.493 177.907 451.425 178.305 451.329Z" fill="#BFC2C9"/>
<path d="M136.313 446.199C137.836 446.157 139.427 446.363 140.291 444.635C142.733 439.752 145.23 434.882 147.603 429.958C148.399 428.312 147.878 426.79 146.615 425.884C145.353 424.979 143.639 425.075 142.459 426.364C141.595 427.297 140.881 428.422 140.319 429.574C138 434.265 135.75 439.011 133.473 443.73C134.42 444.553 135.366 445.389 136.313 446.212V446.199Z" fill="#BEC1C8"/>
<path d="M133.418 139.564C134.488 145.846 135.257 152.142 136.642 158.3C141.279 178.985 149.922 198.12 159.854 216.706C162.625 221.904 166.137 226.719 169.21 231.753C170.376 233.659 171.995 234.29 174.121 234.414C179.265 234.702 183.6 232.617 187.387 229.572C191.118 226.554 194.589 223.207 197.291 219.12C199.13 216.322 200.392 213.455 201.201 210.19C201.942 207.173 202.12 204.772 199.816 202.317C198.691 201.11 198.114 199.313 197.525 197.695C191.022 179.712 182.695 162.621 172.434 146.49C168.304 140.003 163.558 133.981 157.755 128.892C155.628 127.027 153.31 125.298 150.841 123.94C144.585 120.484 137.575 123.2 135.449 129.935C134.461 133.034 134.091 136.313 133.432 139.591L133.418 139.564Z" fill="#F0ACAE"/>
<path d="M379.459 130.429C374.589 130.086 371.763 131.211 369.486 133.433C365.109 137.699 360.555 141.772 357.153 146.971C352.241 154.474 347.618 162.114 343.283 169.974C336.712 181.866 331.636 194.389 326.314 206.83C324.544 210.959 324.695 214.745 326.478 218.75C328.454 223.18 330.923 227.282 334.051 230.958C335.011 232.083 336.301 233.111 337.645 233.674C341.047 235.128 344.587 236.28 348.057 237.569C350.005 238.296 351.638 237.487 352.749 236.143C354.272 234.305 355.534 232.22 356.714 230.135C361.35 221.96 365.672 213.647 369.431 205.006C373.436 195.788 377.36 186.543 380.515 176.997C383.465 168.095 385.934 159.028 387.223 149.728C387.704 146.299 387.566 142.733 387.333 139.249C387.114 136.053 385.344 133.405 382.738 131.622C381.379 130.703 379.569 130.456 379.459 130.415V130.429Z" fill="#F0ACAE"/>
<path d="M250.341 284.137C249.6 284.301 247.364 284.48 245.43 285.316C240.121 287.621 240.341 293.999 243.811 296.523C245.746 297.936 247.46 299.623 249.422 300.994C252.536 303.162 255.815 303.642 259.135 301.351C260.918 300.117 262.852 299.047 264.458 297.606C268.011 294.438 267.572 289.857 263.607 287.141C260.987 285.344 256.309 284.164 250.341 284.137Z" fill="#111113"/>
<path d="M258.119 318.565C258.86 318.565 259.943 318.593 261.041 318.565C262.92 318.51 263.88 317.783 263.784 316.535C263.675 315.218 262.783 314.738 261.617 314.532C259.683 314.19 257.748 313.847 255.828 313.476C250.176 312.379 245.018 310.102 240.271 306.892C237.157 304.794 234.358 302.421 232.973 298.731C232.685 297.963 232.026 297.291 231.45 296.673C230.819 296.001 228.912 296.413 228.624 297.277C227.486 300.72 227.911 304.231 228.528 307.647C228.981 310.102 231.231 311.501 233.165 312.941C236.416 315.369 240.257 316.274 244.099 317.056C246.87 317.619 249.723 317.838 252.549 318.154C254.291 318.346 256.034 318.414 258.132 318.565H258.119Z" fill="#1D1E20"/>
<path d="M283.539 272.519C283.114 272.025 282.689 271.531 281.975 270.695C283.676 270.064 285.186 269.392 286.763 268.953C289.274 268.253 291.839 267.759 294.363 267.073C296.517 266.484 297.518 265.29 297.025 264.056C296.393 262.478 295.035 262.561 293.718 262.904C286.557 264.742 279.41 266.593 272.249 268.459C270.356 268.953 269.862 270.16 270.767 272.245C272.318 272.3 274.019 272.272 275.692 272.478C276.063 272.519 276.323 273.356 276.639 273.822C278.848 272.876 281.097 272.231 283.539 272.519Z" fill="#2C2B2C"/>
<path d="M241.218 271.696C241.438 271.271 241.808 270.736 242.014 270.132C242.151 269.762 242.219 269.172 242.014 268.912C241.506 268.226 240.93 267.526 240.217 267.074C234.469 263.48 228.693 259.941 222.918 256.416C222.369 256.073 221.724 255.607 221.162 255.634C220.407 255.675 219.337 255.977 219.049 256.512C218.747 257.088 219.104 258.089 219.351 258.857C219.461 259.214 219.941 259.475 220.311 259.708C226.238 263.411 232.164 267.128 238.131 270.777C238.831 271.202 239.75 271.271 241.232 271.696H241.218Z" fill="#2C2B2C"/>
<path d="M231.149 280.571C231.986 280.448 232.877 280.42 233.701 280.173C236.581 279.337 237.857 275.811 236.115 273.329C234.688 271.312 232.74 269.996 230.189 269.735C227.047 269.406 224.77 270.805 224.18 273.425C223.467 276.634 225.319 279.611 228.529 280.324C229.365 280.516 230.257 280.503 231.149 280.585V280.571Z" fill="#19181A"/>
<path d="M283.54 272.518C281.098 272.23 278.848 272.875 276.639 273.822C275.117 275.152 275.171 276.894 275.706 278.554C276.008 279.514 276.68 280.502 277.462 281.119C279.452 282.682 283.348 282.628 285.351 281.201C286.654 280.268 287.532 278.183 287.093 276.661C286.544 274.782 285.735 273.04 283.553 272.518H283.54Z" fill="#1A1C1E"/>
<path d="M353.202 358.138C353.284 357.781 353.476 357.397 353.394 357.081C353.339 356.889 352.859 356.821 352.571 356.697C352.543 356.889 352.434 357.164 352.516 357.273C352.749 357.561 353.065 357.795 353.353 358.042L353.216 358.138H353.202Z" fill="#070608"/>
</g>
<defs>
<clipPath id="clip0_132_220">
<rect width="494" height="387" fill="white" transform="matrix(-1 0 0 1 508 75)"/>
</clipPath>
</defs>
</svg>
