<svg width="521" height="531" viewBox="0 0 521 531" fill="none" xmlns="http://www.w3.org/2000/svg">
<g clip-path="url(#clip0_132_220)">
<path d="M367.318 262.723C367.359 264.163 367.387 265.604 367.428 267.044C367.387 273.299 367.346 279.553 367.304 285.863C373.779 287.056 380.008 288.044 386.153 289.347C392.985 290.801 399.666 292.845 405.963 295.945C408.912 297.399 411.793 299.003 413.741 301.788C414.359 302.679 414.839 303.777 412.822 304.408C409.406 300.128 404.495 297.838 399.392 295.917C389.542 292.227 379.239 290.376 368.882 288.881C367.853 288.73 366.769 288.977 365.48 289.059C362.901 297.015 358.538 303.749 353.037 309.771C351.693 311.17 350.54 312.843 348.963 313.913C346.082 315.861 343.037 317.631 339.909 319.167C327.974 325.01 315.97 324.955 303.98 319.222C302.032 318.289 300.07 317.384 297.93 316.382C291.62 321.54 284.198 323.789 276.612 324.338C266.419 325.065 256.021 325.518 246.569 320.127C245.128 319.304 243.688 319.249 242.192 320.045C241.04 320.662 239.86 321.265 238.667 321.787C228.982 325.998 219.077 329.207 208.308 328.522C207.005 328.439 205.674 328.494 204.371 328.522C197.662 328.576 191.448 326.67 185.522 323.721C184.616 323.268 183.903 322.445 182.888 321.608C183.752 320.25 184.232 318.975 185.124 318.152C188.32 315.175 191.709 312.432 194.905 309.469C202.903 302.048 212.039 296.74 222.74 294.285C223.165 294.189 223.7 294.175 223.974 293.901C224.4 293.476 225.017 292.749 224.894 292.351C224.674 291.638 224.098 290.828 223.439 290.527C222.699 290.17 221.725 290.266 220.86 290.28C215.647 290.362 211.12 292.735 206.799 295.19C197.649 300.389 189.5 306.959 182.051 314.421C180.679 315.793 179.047 316.917 177.524 318.152C169.444 312.857 165.068 304.97 162.173 296.082C161.569 294.23 161.103 292.337 160.499 290.156C155.876 292.063 152.501 295.163 149.168 298.208C145.958 301.143 143.104 304.476 140.114 307.659C137.041 310.923 135.532 315.367 131.403 319.578C131.759 317.288 131.649 316.149 132.116 315.34C133.748 312.514 135.408 309.675 137.356 307.069C142.501 300.183 148.839 294.532 155.835 289.566C157.413 288.442 158.977 287.303 160.719 286.028V274.725C160.486 267.935 163.449 261.941 165.74 255.851C166.851 252.888 167.77 250.035 167.304 246.949C166.439 241.161 165.904 235.386 162.996 229.982C156.356 217.65 150.91 204.757 145.601 191.781C141.033 180.657 136.67 169.45 132.87 158.052C127.616 142.319 123.213 126.312 120.387 109.961C119.166 102.897 118.233 95.7098 118.686 88.44C118.96 83.9958 120.003 79.7437 121.635 75.7384C124.146 69.6071 130.429 67.1518 136.794 69.0036C141.129 70.2792 144.723 72.7208 147.933 75.6836C153.078 80.4295 157.824 85.5595 161.899 91.3068C170.006 102.719 177.894 114.255 184.246 126.778C188.403 134.967 192.998 142.95 196.949 151.248C200.982 159.725 204.481 168.463 208.212 177.09C208.98 178.873 209.515 180.821 211.518 182.234C213.26 181.727 215.181 181.384 216.937 180.629C225.813 176.802 235.031 174.347 244.621 173.03C252.385 171.96 260.109 170.602 267.997 170.685C271.262 170.726 274.582 170.369 277.723 171.672C278.107 171.837 278.587 171.851 279.013 171.851C289.686 171.809 299.659 174.964 309.591 178.393C310.826 178.819 312.088 179.134 313.473 179.532C315.517 177.954 316.244 175.595 317.068 173.414C321.691 161.124 326.931 149.108 332.624 137.285C334.709 132.95 336.397 128.41 338.619 124.158C346.919 108.26 355.781 92.6647 366.289 78.0977C370.501 72.2681 375.165 66.6992 380.639 61.9395C385.248 57.9343 390.461 55.5064 396.785 56.0688C398.651 56.2334 400.064 56.9467 401.477 58.0852C405.524 61.336 407.527 65.8213 407.815 70.6496C408.281 78.5092 408.432 86.4648 407.733 94.297C407.102 101.416 405.359 108.48 403.727 115.475C399.323 134.432 393.424 152.977 386.812 171.261C382.957 181.932 378.581 192.453 373.972 202.836C369.184 213.631 363.834 224.193 358.744 234.851C358.182 236.031 357.4 237.183 357.112 238.431C356.412 241.462 356.275 244.288 358.607 247.031C361.419 250.323 364.3 253.739 364.739 258.389C359.759 258.937 354.793 259.486 349.813 260.048C341.747 260.981 334.024 263.231 326.478 266.125C325.079 266.66 323.817 267.606 322.596 268.498C321.718 269.142 320.922 270.199 321.746 271.227C322.13 271.707 323.296 271.694 324.091 271.639C324.695 271.598 325.285 271.131 325.875 270.857C339.058 265.055 352.914 262.668 367.236 262.696L367.318 262.723ZM238.461 253.519C236.28 254.04 235.47 255.782 234.922 257.662C234.469 259.184 235.347 261.269 236.664 262.202C238.667 263.628 242.563 263.697 244.552 262.119C245.334 261.502 246.006 260.501 246.308 259.554C246.829 257.895 246.898 256.153 245.375 254.822C245.691 254.356 245.965 253.519 246.322 253.478C247.995 253.272 249.696 253.3 251.247 253.245C252.152 251.146 251.672 249.953 249.765 249.459C242.618 247.594 235.457 245.728 228.296 243.904C226.979 243.575 225.634 243.479 224.99 245.056C224.482 246.304 225.497 247.498 227.651 248.074C230.161 248.76 232.74 249.253 235.251 249.953C236.829 250.392 238.338 251.064 240.039 251.695C239.325 252.532 238.9 253.025 238.475 253.519H238.461ZM388.582 120.564C387.923 117.3 387.539 114.008 386.565 110.908C384.425 104.173 377.429 101.471 371.173 104.914C368.704 106.272 366.372 108 364.259 109.865C358.456 114.954 353.709 120.989 349.58 127.464C339.319 143.594 330.992 160.685 324.489 178.668C323.899 180.286 323.323 182.097 322.198 183.29C319.894 185.732 320.072 188.146 320.813 191.164C321.622 194.428 322.87 197.295 324.722 200.093C327.425 204.194 330.896 207.541 334.627 210.545C338.4 213.604 342.748 215.675 347.893 215.387C350.033 215.264 351.638 214.633 352.804 212.726C355.891 207.692 359.389 202.878 362.16 197.679C372.092 179.093 380.735 159.958 385.372 139.274C386.757 133.115 387.539 126.819 388.595 120.537L388.582 120.564ZM142.542 111.429C142.432 111.47 140.608 111.717 139.263 112.636C136.657 114.419 134.887 117.067 134.668 120.262C134.434 123.746 134.297 127.313 134.777 130.742C136.081 140.042 138.536 149.108 141.486 158.011C144.641 167.557 148.564 176.789 152.57 186.02C156.329 194.661 160.65 202.974 165.287 211.149C166.467 213.234 167.729 215.318 169.252 217.157C170.377 218.514 171.995 219.31 173.943 218.583C177.414 217.294 180.953 216.128 184.356 214.688C185.7 214.111 187.003 213.096 187.95 211.972C191.078 208.296 193.547 204.208 195.522 199.764C197.306 195.745 197.457 191.973 195.687 187.844C190.351 175.403 185.275 162.866 178.717 150.988C174.382 143.128 169.759 135.488 164.848 127.985C161.446 122.786 156.891 118.713 152.515 114.447C150.238 112.225 147.412 111.1 142.542 111.443V111.429ZM271.66 265.137C265.678 265.165 261.014 266.344 258.394 268.141C254.429 270.857 253.99 275.452 257.543 278.607C259.148 280.033 261.083 281.117 262.866 282.351C266.186 284.642 269.478 284.162 272.579 281.995C274.54 280.623 276.255 278.936 278.19 277.523C281.647 274.999 281.88 268.621 276.571 266.317C274.637 265.48 272.414 265.315 271.66 265.137ZM263.881 299.566C265.98 299.415 267.736 299.346 269.465 299.154C272.291 298.839 275.13 298.619 277.915 298.057C281.756 297.275 285.598 296.37 288.849 293.942C290.783 292.502 293.047 291.103 293.486 288.647C294.103 285.246 294.542 281.721 293.39 278.278C293.101 277.413 291.195 277.002 290.564 277.674C289.974 278.291 289.329 278.963 289.041 279.732C287.655 283.421 284.857 285.794 281.743 287.893C276.982 291.089 271.824 293.38 266.186 294.477C264.252 294.847 262.331 295.204 260.397 295.533C259.231 295.739 258.339 296.219 258.229 297.536C258.133 298.784 259.094 299.497 260.973 299.566C262.07 299.607 263.154 299.566 263.895 299.566H263.881ZM280.782 252.696C282.264 252.271 283.183 252.216 283.883 251.777C289.85 248.129 295.763 244.411 301.703 240.708C302.06 240.475 302.553 240.214 302.663 239.857C302.896 239.089 303.267 238.088 302.965 237.512C302.677 236.977 301.593 236.675 300.852 236.634C300.276 236.593 299.645 237.073 299.096 237.416C293.321 240.955 287.532 244.494 281.798 248.074C281.084 248.513 280.508 249.226 280 249.912C279.808 250.186 279.877 250.762 280 251.132C280.206 251.722 280.577 252.271 280.796 252.696H280.782ZM290.852 261.571C291.743 261.489 292.621 261.502 293.472 261.31C296.682 260.597 298.534 257.62 297.821 254.411C297.231 251.791 294.953 250.392 291.812 250.721C289.26 250.982 287.312 252.298 285.886 254.315C284.13 256.797 285.405 260.323 288.3 261.159C289.123 261.393 290.001 261.434 290.852 261.557V261.571Z" fill="#D9D9D9"/>
<path d="M177.523 318.151C179.032 316.917 180.678 315.792 182.05 314.42C189.485 306.959 197.634 300.375 206.798 295.19C211.119 292.734 215.646 290.361 220.859 290.279C221.724 290.265 222.698 290.183 223.439 290.526C224.083 290.828 224.673 291.637 224.893 292.35C225.016 292.748 224.399 293.475 223.974 293.9C223.699 294.175 223.164 294.188 222.739 294.284C212.039 296.753 202.902 302.048 194.904 309.469C191.708 312.431 188.306 315.189 185.123 318.151C184.231 318.974 183.751 320.25 182.887 321.608C183.902 322.445 184.629 323.268 185.521 323.72C191.447 326.669 197.662 328.576 204.37 328.521C205.687 328.521 207.004 328.452 208.307 328.521C219.076 329.207 228.981 325.997 238.666 321.786C239.873 321.265 241.039 320.661 242.192 320.044C243.673 319.249 245.114 319.303 246.568 320.126C256.006 325.517 266.418 325.064 276.611 324.337C284.211 323.789 291.619 321.539 297.93 316.382C300.07 317.383 302.031 318.288 303.979 319.221C315.969 324.955 327.959 325.01 339.908 319.166C343.036 317.63 346.081 315.861 348.962 313.913C350.54 312.843 351.692 311.17 353.036 309.77C361.624 321.114 368.319 333.5 373.161 346.874C376.728 356.695 379.568 366.708 380.103 377.242C377.73 377.064 375.343 376.927 372.969 376.68C370.815 376.461 368.675 375.884 366.549 375.926C356.795 376.063 347.508 378.436 339.249 383.511C332.349 387.763 326.724 393.469 323.83 401.493C322.362 405.567 322.842 409.668 322.485 413.756C314.885 414.305 307.231 414.442 299.713 415.525C292.758 416.527 285.761 416.005 278.861 416.828C261.878 418.831 244.867 417.72 227.87 418.036C228.144 416.554 228.528 415.073 228.679 413.578C228.885 411.644 229.269 409.641 228.953 407.776C227.924 401.644 225.291 396.281 220.818 391.837C214.796 385.856 207.553 382.043 199.431 379.958C195.467 378.943 191.31 378.779 187.304 377.887C183.614 377.064 180.061 377.037 176.371 377.887C170.897 379.149 165.369 380.123 159.867 381.206C160.745 369.163 163.297 357.463 167.001 345.982C167.728 343.733 168.126 341.36 168.675 339.042C168.963 338.795 169.278 338.562 169.511 338.274C169.594 338.164 169.484 337.889 169.457 337.697C169.169 337.821 168.675 337.889 168.633 338.082C168.551 338.397 168.743 338.781 168.826 339.138C167.756 338.575 167.22 339.316 166.809 340.057C163.75 345.612 160.745 351.208 157.659 356.736C156.973 357.984 156.945 359.877 154.86 360.014C153.392 358.615 154.394 357.216 154.97 355.899C158.221 348.451 162.172 341.36 166.878 334.748C170.06 330.29 173.476 326.011 176.906 321.731C177.852 320.552 178.099 319.468 177.537 318.138L177.523 318.151Z" fill="#C6C6C7"/>
<path d="M168.661 339.042C168.112 341.36 167.714 343.719 166.987 345.969C163.283 357.449 160.745 369.15 159.854 381.193C156.314 383.319 152.638 385.253 149.249 387.599C142.088 392.55 137.438 399.203 136.368 408.064C136.244 409.12 136.025 410.162 135.805 411.534H130.483C119.124 409.298 107.724 407.282 96.4199 404.785C81.0552 401.397 66.0336 396.761 51.6567 390.273C43.261 386.487 35.2632 382.016 28.1708 376.049C24.4531 372.922 21.1607 369.438 18.5953 365.309C12.9296 356.188 12.4906 346.819 17.3469 337.217C19.3361 333.267 21.9838 329.797 25.0155 326.615C30.3383 321.018 36.4704 316.478 43.0141 312.418C57.1989 303.598 72.5498 297.316 88.2848 292.008C109.205 284.957 130.592 279.649 152.336 275.808C155.107 275.314 157.933 275.068 160.732 274.711V286.013C158.976 287.275 157.426 288.428 155.848 289.552C148.865 294.504 142.514 300.169 137.369 307.055C135.421 309.661 133.761 312.5 132.129 315.326C131.662 316.135 131.772 317.274 131.416 319.564C135.545 315.353 137.054 310.909 140.127 307.644C143.117 304.462 145.971 301.143 149.181 298.194C152.501 295.149 155.889 292.049 160.512 290.142C161.13 292.323 161.582 294.216 162.186 296.068C165.08 304.97 169.457 312.843 177.537 318.138C178.099 319.468 177.852 320.552 176.906 321.731C173.49 326.011 170.06 330.291 166.878 334.748C162.158 341.36 158.208 348.451 154.97 355.899C154.394 357.203 153.406 358.615 154.86 360.014C156.932 359.877 156.959 357.984 157.659 356.736C160.745 351.195 163.736 345.598 166.809 340.057C167.221 339.316 167.756 338.575 168.826 339.138L168.688 339.042H168.661Z" fill="#3F5B3C"/>
<path d="M380.09 377.243C379.555 366.709 376.715 356.696 373.148 346.875C368.306 333.501 361.611 321.115 353.023 309.771C358.525 303.75 362.887 297.015 365.466 289.059C366.756 288.977 367.839 288.73 368.868 288.881C379.226 290.376 389.528 292.228 399.378 295.917C404.495 297.838 409.406 300.115 412.808 304.408C414.811 303.777 414.345 302.68 413.727 301.788C411.779 299.004 408.899 297.412 405.949 295.945C399.652 292.831 392.971 290.801 386.14 289.347C379.994 288.044 373.766 287.043 367.291 285.863C367.332 279.553 367.373 273.299 367.414 267.044C379.966 268.745 392.587 270.089 405.071 272.229C420.998 274.958 436.733 278.689 452.057 283.874C462.208 287.303 472.209 291.158 481.387 296.768C486.037 299.607 490.468 302.844 494.776 306.191C498.439 309.017 501.374 312.61 503.748 316.588C508.933 325.339 509.441 334.338 504.9 343.528C502.842 347.684 500.112 351.374 496.916 354.707C491.881 359.96 486.133 364.295 480.001 368.163C465.679 377.202 450.218 383.745 434.195 388.998C423.838 392.4 413.302 395.294 402.849 398.421C402.094 397.736 400.942 397.173 400.654 396.337C397.91 388.161 391.929 383.278 384.397 379.822C382.875 379.122 381.517 378.107 380.076 377.229L380.09 377.243Z" fill="#3F5B3C"/>
<path d="M130.483 411.548H135.806C136.039 410.162 136.245 409.134 136.369 408.078C137.425 399.217 142.075 392.564 149.25 387.612C152.639 385.267 156.315 383.333 159.855 381.207C165.356 380.109 170.898 379.136 176.358 377.887C180.048 377.037 183.601 377.064 187.291 377.887C191.283 378.779 195.454 378.944 199.418 379.959C207.54 382.043 214.783 385.857 220.805 391.837C225.278 396.281 227.912 401.658 228.94 407.776C229.256 409.641 228.872 411.644 228.666 413.578C228.501 415.073 228.131 416.554 227.857 418.036C227.281 419.188 226.704 420.354 226.128 421.506C221.505 430.737 213.754 436.032 204.124 438.967C203.218 434.743 202.354 430.518 201.394 426.307C200.571 422.727 199.665 419.161 198.732 415.594C198.266 413.852 196.977 412.865 195.495 412.92C193.808 412.974 192.491 414.387 192.408 416.486C192.353 417.995 192.381 419.545 192.696 421.012C193.876 426.499 195.179 431.972 196.442 437.445C196.908 439.434 198.307 440.257 200.228 440.394C199.899 440.668 199.597 441.135 199.24 441.203C190.268 442.753 181.379 443.96 172.201 442.012C167.331 440.984 162.447 440.394 158.071 437.815C158.826 437.445 159.964 437.266 160.266 436.663C161.034 435.127 161.624 433.44 161.94 431.752C162.9 426.636 163.709 421.492 164.532 416.362C164.67 415.512 164.642 414.62 164.601 413.756C164.519 412.398 163.325 411.493 161.899 411.534C160.472 411.575 159.21 412.083 158.702 413.4C157.92 415.416 157.468 417.556 156.836 419.627C155.135 425.155 155.561 430.847 155.451 436.512C147.192 432.891 141.252 426.952 137.562 418.735C137.205 417.954 137.109 417.076 136.808 416.253C136.108 414.319 135.093 412.823 132.719 412.7C131.951 412.659 131.224 411.959 130.483 411.575V411.548Z" fill="#DADADA"/>
<path d="M380.089 377.243C381.53 378.12 382.888 379.135 384.41 379.835C391.928 383.292 397.909 388.175 400.667 396.35C400.955 397.2 402.107 397.749 402.862 398.435C401.682 400.108 401.449 402.001 401.517 403.976C401.778 410.45 398.732 415.58 394.603 420.148C392.916 422.014 391.379 424.304 388.526 424.716C386.249 419.997 384.013 415.251 381.68 410.56C381.118 409.408 380.405 408.283 379.54 407.351C378.361 406.061 376.646 405.965 375.384 406.87C374.108 407.776 373.6 409.312 374.396 410.944C376.769 415.869 379.266 420.724 381.708 425.621C382.572 427.349 384.177 427.157 385.686 427.185C380.953 431.053 375.041 431.931 369.43 433.59C367.345 434.208 365.177 434.578 363.023 434.825C358.647 435.346 354.285 435.223 350.087 433.59C350.348 430.134 350.032 426.691 351.184 423.248C352.131 420.409 352.364 417.309 352.707 414.305C352.872 412.823 352.748 411.246 352.433 409.792C352.131 408.407 350.924 407.501 349.524 407.693C348.578 407.831 347.631 408.585 346.877 409.271C346.465 409.641 346.383 410.45 346.273 411.081C345.025 418.104 343.2 425.072 343.68 432.315C341.28 431.355 338.756 430.6 336.478 429.407C331.567 426.828 327.891 422.946 325.243 418.049C324.434 416.554 323.391 415.169 322.444 413.742C322.801 409.655 322.321 405.554 323.789 401.48C326.683 393.469 332.308 387.749 339.208 383.497C347.467 378.422 356.768 376.049 366.508 375.912C368.648 375.885 370.788 376.461 372.928 376.666C375.301 376.9 377.688 377.037 380.062 377.229L380.089 377.243Z" fill="#DADADA"/>
<path d="M367.318 262.723C352.982 262.696 339.14 265.096 325.957 270.884C325.353 271.145 324.777 271.625 324.174 271.666C323.378 271.721 322.198 271.721 321.828 271.255C321.005 270.212 321.8 269.17 322.678 268.525C323.899 267.62 325.175 266.687 326.561 266.152C334.106 263.244 341.829 260.995 349.896 260.076C354.862 259.5 359.841 258.965 364.821 258.416C372.668 258.553 380.543 258.402 388.362 258.937C393.753 259.321 399.117 260.515 404.426 261.667C406.731 262.161 408.885 263.395 411.039 264.424C412.054 264.918 412.671 265.85 412.397 267.099C412.15 268.237 410.723 268.772 409.118 268.1C395.674 262.476 381.544 262.174 367.318 262.737V262.723Z" fill="#A7A1A1"/>
<path d="M200.228 440.38C198.307 440.243 196.894 439.433 196.441 437.431C195.179 431.958 193.876 426.499 192.696 420.998C192.381 419.531 192.34 417.981 192.408 416.472C192.491 414.373 193.821 412.974 195.495 412.905C196.963 412.851 198.266 413.838 198.732 415.58C199.665 419.133 200.571 422.699 201.394 426.293C202.354 430.504 203.218 434.729 204.124 438.953C202.821 439.42 201.531 439.9 200.228 440.366V440.38Z" fill="#BFC2C9"/>
<path d="M155.45 436.484C155.56 430.833 155.135 425.127 156.836 419.599C157.467 417.528 157.933 415.388 158.702 413.372C159.209 412.069 160.471 411.547 161.898 411.506C163.338 411.465 164.532 412.37 164.6 413.728C164.655 414.592 164.669 415.484 164.532 416.334C163.709 421.478 162.886 426.608 161.939 431.725C161.624 433.412 161.034 435.099 160.265 436.635C159.964 437.239 158.825 437.417 158.07 437.787C157.192 437.348 156.315 436.909 155.437 436.47L155.45 436.484Z" fill="#BFC2C9"/>
<path d="M343.695 432.329C343.215 425.086 345.039 418.132 346.288 411.095C346.397 410.464 346.48 409.655 346.891 409.285C347.646 408.599 348.592 407.844 349.539 407.707C350.938 407.515 352.145 408.421 352.447 409.806C352.763 411.274 352.886 412.837 352.722 414.319C352.379 417.323 352.145 420.423 351.199 423.262C350.046 426.691 350.362 430.148 350.101 433.604C349.265 433.604 348.441 433.577 347.605 433.577C346.713 433.22 345.807 432.863 344.916 432.507C344.504 432.493 344.093 432.425 343.695 432.329Z" fill="#BFC2C9"/>
<path d="M385.687 427.199C384.164 427.157 382.573 427.363 381.709 425.635C379.267 420.752 376.77 415.882 374.397 410.958C373.601 409.312 374.122 407.79 375.385 406.884C376.647 405.979 378.361 406.075 379.541 407.364C380.405 408.297 381.119 409.422 381.681 410.574C384 415.265 386.25 420.011 388.527 424.73C387.58 425.553 386.634 426.389 385.687 427.212V427.199Z" fill="#BEC1C8"/>
<path d="M388.582 120.564C387.512 126.846 386.743 133.142 385.358 139.3C380.721 159.985 372.078 179.12 362.146 197.706C359.375 202.904 355.863 207.719 352.79 212.753C351.624 214.659 350.005 215.29 347.879 215.414C342.735 215.702 338.4 213.617 334.613 210.572C330.882 207.554 327.411 204.207 324.709 200.12C322.87 197.322 321.608 194.455 320.799 191.19C320.058 188.173 319.88 185.772 322.184 183.317C323.309 182.11 323.886 180.313 324.475 178.695C330.978 160.712 339.305 143.621 349.566 127.49C353.696 121.003 358.442 114.981 364.245 109.892C366.372 108.027 368.69 106.298 371.159 104.94C377.415 101.484 384.425 104.2 386.551 110.935C387.539 114.034 387.909 117.313 388.568 120.591L388.582 120.564Z" fill="#F0ACAE"/>
<path d="M142.541 111.429C147.411 111.086 150.237 112.211 152.514 114.433C156.891 118.699 161.445 122.772 164.847 127.971C169.759 135.474 174.382 143.114 178.717 150.974C185.288 162.866 190.364 175.389 195.686 187.83C197.456 191.959 197.305 195.745 195.522 199.75C193.546 204.18 191.077 208.282 187.949 211.958C186.989 213.083 185.699 214.111 184.355 214.674C180.953 216.128 177.413 217.28 173.943 218.569C171.995 219.296 170.362 218.487 169.251 217.143C167.728 215.305 166.466 213.22 165.286 211.135C160.65 202.96 156.328 194.647 152.569 186.006C148.564 176.788 144.64 167.543 141.485 157.997C138.535 149.095 136.066 140.028 134.777 130.728C134.296 127.299 134.434 123.733 134.667 120.249C134.886 117.053 136.656 114.405 139.262 112.622C140.621 111.703 142.431 111.456 142.541 111.415V111.429Z" fill="#F0ACAE"/>
<path d="M271.659 265.137C272.4 265.301 274.636 265.48 276.57 266.316C281.879 268.621 281.659 274.999 278.189 277.523C276.254 278.936 274.54 280.623 272.578 281.994C269.464 284.162 266.185 284.642 262.865 282.351C261.082 281.117 259.148 280.047 257.542 278.606C253.989 275.438 254.428 270.857 258.393 268.141C261.013 266.344 265.691 265.164 271.659 265.137Z" fill="#111113"/>
<path d="M263.881 299.565C263.14 299.565 262.057 299.593 260.959 299.565C259.08 299.51 258.12 298.783 258.216 297.535C258.325 296.218 259.217 295.738 260.383 295.532C262.317 295.19 264.252 294.847 266.172 294.476C271.824 293.379 276.982 291.102 281.729 287.892C284.843 285.794 287.642 283.421 289.027 279.731C289.315 278.963 289.974 278.291 290.55 277.673C291.181 277.001 293.088 277.413 293.376 278.277C294.514 281.72 294.089 285.231 293.472 288.647C293.019 291.102 290.769 292.501 288.835 293.941C285.584 296.369 281.743 297.274 277.901 298.056C275.13 298.619 272.277 298.838 269.451 299.154C267.709 299.346 265.966 299.414 263.868 299.565H263.881Z" fill="#1D1E20"/>
<path d="M238.461 253.519C238.886 253.025 239.311 252.531 240.025 251.695C238.324 251.064 236.814 250.392 235.237 249.953C232.726 249.253 230.161 248.759 227.637 248.073C225.483 247.484 224.482 246.29 224.975 245.056C225.607 243.478 226.965 243.561 228.282 243.904C235.443 245.742 242.59 247.593 249.751 249.459C251.644 249.953 252.138 251.16 251.233 253.245C249.682 253.3 247.981 253.272 246.308 253.478C245.937 253.519 245.677 254.356 245.361 254.822C243.152 253.876 240.903 253.231 238.461 253.519Z" fill="#2C2B2C"/>
<path d="M280.782 252.696C280.562 252.271 280.192 251.736 279.986 251.132C279.849 250.762 279.781 250.172 279.986 249.912C280.494 249.226 281.07 248.526 281.783 248.074C287.531 244.48 293.307 240.941 299.082 237.416C299.631 237.073 300.276 236.607 300.838 236.634C301.593 236.675 302.663 236.977 302.951 237.512C303.253 238.088 302.896 239.089 302.649 239.857C302.539 240.214 302.059 240.475 301.689 240.708C295.762 244.411 289.836 248.128 283.869 251.777C283.169 252.202 282.25 252.271 280.768 252.696H280.782Z" fill="#2C2B2C"/>
<path d="M290.851 261.571C290.014 261.448 289.123 261.42 288.299 261.173C285.419 260.337 284.143 256.811 285.885 254.329C287.312 252.312 289.26 250.996 291.811 250.735C294.953 250.406 297.23 251.805 297.82 254.425C298.533 257.634 296.681 260.611 293.471 261.324C292.635 261.516 291.743 261.503 290.851 261.585V261.571Z" fill="#19181A"/>
<path d="M238.46 253.518C240.902 253.23 243.152 253.875 245.361 254.822C246.883 256.152 246.829 257.894 246.294 259.554C245.992 260.514 245.32 261.502 244.538 262.119C242.548 263.682 238.652 263.628 236.649 262.201C235.346 261.268 234.468 259.183 234.907 257.661C235.456 255.782 236.265 254.04 238.447 253.518H238.46Z" fill="#1A1C1E"/>
<path d="M168.798 339.138C168.716 338.781 168.524 338.397 168.606 338.081C168.661 337.889 169.141 337.821 169.429 337.697C169.457 337.889 169.566 338.164 169.484 338.273C169.251 338.561 168.935 338.795 168.647 339.042L168.784 339.138H168.798Z" fill="#070608"/>
</g>
<defs>
<clipPath id="clip0_132_220">
<rect width="494" height="387" fill="white" transform="translate(14 56)"/>
</clipPath>
</defs>
</svg>
