<svg width="521" height="531" viewBox="0 0 521 531" fill="none" xmlns="http://www.w3.org/2000/svg">
<circle cx="262.5" cy="279.5" r="229.5" fill="#F1F1F1"/>
<g clip-path="url(#clip0_142_1948)">
<path d="M258.298 41.269C264.204 39.3058 266.263 48.3923 269.068 52.7444C300.457 101.4 388.422 116.689 439.466 95.7358C447.466 92.4522 448.942 86.9621 454.631 97.2647C479.124 141.672 458.948 230.001 441.768 275.615C414.696 347.508 347.462 452.958 271.292 478.619C258.368 482.972 254.894 480.895 242.769 475.883C168.379 445.149 104.585 345.38 77.8947 272.271C61.3491 226.96 44.5864 150.185 63.1122 104.518C64.0589 102.182 68.6014 92.5564 70.1908 91.5661C72.7617 89.9591 80.4743 95.3797 83.5402 96.5698C134.775 116.454 221.446 100.792 252.262 51.9105C253.521 49.9212 257.369 41.5817 258.307 41.269H258.298Z" fill="#0F9AD7"/>
<path d="M318.6 227.064C317.914 236.342 300.066 235.499 299.423 227.064C297.721 226.282 297.46 224.189 298.624 220.792C297.894 202.072 298.25 183.682 299.692 165.648C300.465 159.107 296.548 155.919 291.832 152.235C272.411 137.094 251.723 133.793 231.252 150.55C229.749 151.784 222.002 159.107 221.967 159.758C221.072 180.277 222.002 200.786 223.079 220.966C223.513 223.659 222.844 225.7 221.055 227.073C219.952 236.637 201.852 235.126 201.878 227.073C201.878 226.5 202.746 224.962 202.746 223.381C202.729 214.972 201.982 206.624 201.834 198.345C201.721 191.717 200.801 159.967 202.321 156.231C205.152 149.273 216.46 138.414 222.792 134.184C257.403 111.051 295.923 122.031 318.131 155.397L318.583 227.064H318.6Z" fill="#919DA2"/>
<path d="M299.432 227.065C294.586 226.891 289.67 227.299 284.815 227.099C283.721 227.056 282.652 226.239 282.348 226.239H239C238.696 226.239 237.619 227.056 236.533 227.099C231.4 227.308 226.206 226.891 221.082 227.065C222.194 217.379 220.335 207.085 220.213 197.503C220.048 184.786 220.231 172.033 220.448 159.324C234.214 141.759 255.528 131.952 277.233 141.316C283.008 143.81 298.182 153.261 300.483 158.916C302.611 164.154 300.344 173.623 300.249 179.096C299.997 193.003 300.535 206.937 300.318 220.845C300.284 222.964 299.293 224.936 299.45 227.065H299.432Z" fill="#0F9AD7"/>
<path d="M299.432 227.064C303.723 232.216 313.346 234.995 316.855 227.62L318.61 227.064C323.395 227.898 331.985 224.389 332.723 230.869C334.217 270.864 331.203 311.032 331.907 350.905C331.959 354.101 334.148 361.19 331.75 363.587C329.796 365.542 303.983 364.474 298.989 364.586C275.209 365.134 251.211 365.942 227.3 365.49C217.408 365.299 202.365 365.716 193.141 364.639C192.02 364.508 188.572 363.561 188.572 362.536V229.14C188.572 226.03 199.646 227.247 201.913 227.056C202.686 226.934 203.129 227.325 203.65 227.803C207.993 231.825 209.86 233.388 216.305 231.043C217.92 229.245 219.518 227.916 221.09 227.056C223.878 225.249 234.353 224.458 237.497 225.066C238.157 225.197 238.626 225.709 239.017 226.222L239.781 224.554H281.375L282.365 226.222C282.652 225.605 283.086 225.188 283.729 224.988C284.372 224.788 295.107 225.153 296.809 225.344L299.458 227.056L299.432 227.064Z" fill="#53788A"/>
<path d="M257.543 268.97C268.391 267.476 278.205 275.251 276.85 286.596C276.39 290.453 273.61 292.928 272.864 296.473C276.051 304.421 281.94 312.552 284.815 320.457C285.388 322.038 287.134 325.496 285.292 326.738C283.451 327.98 261.538 326.929 257.291 327.98C253.712 326.112 236.941 328.258 235.603 326.338C234.726 325.079 235.256 322.707 235.629 321.256C237.132 315.506 248.362 299.8 247.598 295.23C247.25 293.154 244.862 290.887 244.454 288.298C242.934 278.76 247.572 270.351 257.534 268.979L257.543 268.97Z" fill="#292F31"/>
</g>
<defs>
<clipPath id="clip0_142_1948">
<rect width="411" height="440" fill="white" transform="translate(55 41)"/>
</clipPath>
</defs>
</svg>
