<svg width="521" height="531" viewBox="0 0 521 531" fill="none" xmlns="http://www.w3.org/2000/svg">
<g clip-path="url(#clip0_132_355)">
<path d="M258.609 76.2314C263.682 74.5448 265.449 82.3509 267.859 86.0898C294.818 127.889 370.37 141.024 414.211 123.023C421.081 120.202 422.349 115.486 427.235 124.337C448.272 162.487 430.943 238.369 416.187 277.556C392.936 339.319 335.19 429.91 269.769 451.955C258.669 455.694 255.685 453.91 245.271 449.604C181.379 423.201 126.587 337.49 103.664 274.683C89.453 235.757 75.0558 169.8 90.9673 130.568C91.7804 128.561 95.6818 120.292 97.047 119.441C99.255 118.061 105.879 122.717 108.513 123.74C152.517 140.822 226.957 127.367 253.424 85.3734C254.506 83.6644 257.811 76.5 258.616 76.2314H258.609Z" fill="#0F9AD7"/>
<path d="M310.402 235.847C309.812 243.817 294.483 243.093 293.931 235.847C292.469 235.175 292.245 233.376 293.245 230.458C292.618 214.376 292.924 198.577 294.162 183.084C294.826 177.465 291.462 174.726 287.411 171.562C270.731 158.554 252.962 155.718 235.38 170.114C234.089 171.174 227.435 177.465 227.405 178.024C226.637 195.652 227.435 213.271 228.36 230.608C228.733 232.921 228.159 234.675 226.622 235.854C225.675 244.071 210.129 242.772 210.151 235.854C210.151 235.361 210.897 234.041 210.897 232.682C210.882 225.458 210.241 218.286 210.114 211.174C210.017 205.48 209.226 178.204 210.531 174.995C212.963 169.017 222.676 159.688 228.114 156.054C257.841 136.18 290.925 145.613 309.999 174.278L310.387 235.847H310.402Z" fill="#919DA2"/>
<path d="M293.938 235.846C289.776 235.697 285.554 236.048 281.384 235.876C280.444 235.839 279.526 235.137 279.265 235.137H242.034C241.773 235.137 240.848 235.839 239.915 235.876C235.507 236.055 231.046 235.697 226.645 235.846C227.599 227.525 226.003 218.682 225.899 210.45C225.757 199.525 225.914 188.569 226.1 177.651C237.924 162.561 256.23 154.136 274.871 162.181C279.832 164.322 292.864 172.442 294.841 177.3C296.669 181.8 294.722 189.935 294.64 194.636C294.423 206.584 294.886 218.555 294.699 230.503C294.669 232.324 293.819 234.018 293.953 235.846H293.938Z" fill="#0F9AD7"/>
<path d="M293.938 235.846C297.623 240.272 305.889 242.66 308.902 236.324L310.409 235.846C314.519 236.563 321.897 233.548 322.531 239.115C323.814 273.474 321.226 307.982 321.83 342.236C321.875 344.983 323.755 351.072 321.696 353.132C320.017 354.811 297.847 353.893 293.558 353.99C273.133 354.46 252.522 355.155 231.985 354.766C223.489 354.602 210.569 354.96 202.646 354.035C201.684 353.923 198.723 353.11 198.723 352.229V237.63C198.723 234.958 208.234 236.003 210.181 235.839C210.845 235.734 211.225 236.07 211.673 236.481C215.403 239.936 217.006 241.279 222.541 239.264C223.929 237.719 225.302 236.578 226.652 235.839C229.046 234.286 238.043 233.607 240.743 234.13C241.31 234.242 241.713 234.682 242.049 235.122L242.705 233.689H278.429L279.28 235.122C279.526 234.592 279.899 234.234 280.451 234.063C281.003 233.891 290.223 234.204 291.685 234.369L293.961 235.839L293.938 235.846Z" fill="#53788A"/>
<path d="M257.96 271.847C267.277 270.564 275.707 277.243 274.543 286.989C274.148 290.303 271.761 292.43 271.119 295.475C273.857 302.303 278.914 309.288 281.384 316.08C281.876 317.438 283.375 320.408 281.794 321.475C280.212 322.542 261.392 321.639 257.744 322.542C254.67 320.938 240.266 322.781 239.117 321.132C238.364 320.05 238.819 318.012 239.139 316.766C240.43 311.826 250.075 298.333 249.419 294.407C249.12 292.624 247.069 290.676 246.718 288.452C245.413 280.258 249.396 273.034 257.953 271.855L257.96 271.847Z" fill="#292F31"/>
</g>
<defs>
<clipPath id="clip0_132_355">
<rect width="353" height="378" fill="white" transform="translate(84 76)"/>
</clipPath>
</defs>
</svg>
