<svg width="521" height="531" viewBox="0 0 521 531" fill="none" xmlns="http://www.w3.org/2000/svg">
<g clip-path="url(#clip0_148_207)">
<g clip-path="url(#clip1_148_207)">
<path d="M337.244 361.628C337.84 379.665 338.656 397.692 338.959 415.737C339.143 426.22 339.812 436.676 339.876 447.15C339.95 459.135 340.812 471.082 340.894 483.049C340.968 493.532 341.555 503.987 341.848 514.461C342.032 521.026 342.078 527.59 342.234 534.155C342.307 537.231 343.243 538.009 346.389 538.092C348.544 538.147 350.7 538.33 352.855 538.458C355.616 540.042 358.698 539.428 361.624 539.593C371.649 540.152 381.674 540.637 391.699 541.14C397.083 541.406 402.468 541.736 407.861 541.937C408.613 541.964 409.365 541.974 409.97 541.406C412.539 541.443 415.116 541.461 417.684 541.534C419.831 541.598 420.629 540.573 420.574 538.476C420.408 532.745 420.381 527.013 420.262 521.282C420.069 512.063 419.711 502.843 419.665 493.614C419.61 481.401 419.28 469.196 419.097 456.983C418.913 444.852 418.693 432.73 418.51 420.599C418.336 408.468 418.106 396.346 417.923 384.215C417.748 372.001 417.519 359.797 417.336 347.584C417.152 335.535 416.978 323.496 416.776 311.456C416.685 305.89 416.721 300.323 416.428 294.766C403.458 294.628 390.516 293.74 377.556 293.264C366.834 292.87 356.111 292.367 345.389 291.946C334.997 291.534 324.614 291.03 314.231 290.563C303.509 290.087 292.795 289.547 282.064 289.291C279.89 289.236 277.643 288.21 275.497 289.501C274.919 295.095 274.313 300.689 273.763 306.292C272.754 316.51 271.745 326.737 270.773 336.963C269.81 347.108 268.893 357.252 267.929 367.396C266.957 377.623 265.921 387.84 264.939 398.067C263.967 408.212 263.041 418.356 262.068 428.5C260.986 439.88 259.867 451.252 258.785 462.632C257.923 471.705 257.079 480.778 256.217 489.851C255.244 499.996 254.245 510.131 253.281 520.266C252.97 523.562 252.685 526.867 252.483 530.172C252.364 532.095 253.3 533.065 255.327 533.084C257.152 533.102 258.968 533.34 260.794 533.477C261.564 534.219 262.536 534.338 263.545 534.402C278.679 535.473 293.814 536.508 308.938 537.561C310.021 537.634 311.094 537.817 312.057 537.13C314.534 537.295 317.019 537.442 319.496 537.625C321.238 537.753 322.394 537.561 322.834 535.354C323.981 529.559 323.981 523.672 324.531 517.831C325.375 508.931 326.008 500.014 326.723 491.106C327.411 482.444 328.063 473.774 328.75 465.113C329.475 456.04 330.236 446.967 330.943 437.885C331.631 429.049 332.263 420.214 332.961 411.379C333.639 402.718 334.41 394.057 335.07 385.396C335.675 377.476 336.207 369.548 336.767 361.628C337.308 359.239 337.308 356.886 336.409 354.56C336.079 353.7 335.941 352.775 336.006 351.859C336.189 349.168 335.052 347.437 332.722 345.991C328.209 343.18 323.834 340.131 319.404 337.174C318.56 336.606 317.01 335.874 317.652 334.858C318.514 333.475 319.716 334.839 320.587 335.425C325.549 338.785 330.548 342.072 335.575 345.341C337.391 346.522 338.088 347.968 338.134 350.074C338.207 353.507 336.785 356.758 337.015 360.2C337.051 360.685 336.868 361.189 337.226 361.619L337.244 361.628Z" fill="#BB7FB6"/>
<path d="M275.506 289.519C279.615 290.178 283.77 290.078 287.907 290.288C299.005 290.856 310.103 291.314 321.211 291.781C329.915 292.147 338.62 292.412 347.324 292.788C355.937 293.154 364.55 293.621 373.162 293.996C379.794 294.289 386.425 294.482 393.057 294.784C399.844 295.095 406.623 295.479 413.401 295.818C414.538 295.873 415.712 295.965 416.437 294.784C417.859 293.621 417.703 291.945 417.684 290.416C417.556 279.119 416.382 267.894 415.254 256.66C415.089 255.04 414.511 253.456 414.125 251.853C414.19 247.431 412.988 243.174 412.465 238.834C412.053 235.383 411.466 231.949 410.86 228.525C410.778 228.04 410.713 227.536 410.75 227.042C410.814 226.273 410.429 225.064 411.456 224.945C412.41 224.836 412.529 226.017 412.649 226.822C413.713 233.863 414.933 240.885 414.254 248.063C414.144 249.235 413.749 250.791 415.538 251.341L417.758 250.169C419.941 249.748 421.665 248.374 423.49 247.276C437.441 238.908 451.411 230.558 465.426 222.281C466.132 221.86 466.921 221.512 467.159 220.606C469.244 219.147 469.639 217.343 468.342 215.195C459.959 201.388 448.851 189.99 436.552 179.708C421.61 167.211 405.522 156.563 387.04 149.925C380.583 147.609 373.96 146.126 367.035 146.455C365.439 146.162 364.32 146.986 363.348 148.085C357.386 154.86 349.599 157.195 340.94 156.81C335.96 156.59 331.438 154.988 329.2 149.834C328.879 149.092 328.429 148.305 327.347 148.552C307.031 147.087 287.622 150.896 268.929 158.696C246.962 167.879 228.287 181.548 213.08 199.905C211.722 201.544 211.135 203.146 212.135 205.124C213.025 207.999 215.29 209.958 217.051 212.219C226.434 224.305 235.964 236.289 245.32 248.393C245.99 249.262 246.714 250.032 247.714 250.517C250.368 253.715 253.56 254.39 257.29 252.54C264.325 249.034 271.351 245.5 278.367 241.956C279.092 241.59 279.753 241.077 280.44 240.638C281.66 237.745 281.587 234.632 281.715 231.601C281.899 226.941 282.412 222.327 283.045 217.722C283.174 216.788 283.155 215.259 284.32 215.369C285.522 215.479 285.182 216.953 285.072 217.887C284.21 224.808 283.339 231.739 281.358 238.459C281.092 239.356 281.101 240.244 281 241.142C278.679 256.092 276.368 271.034 274.047 285.985C273.818 287.468 273.846 288.833 275.524 289.51L275.506 289.519Z" fill="#E19800"/>
<path d="M247.715 250.535C235.855 235.401 224.005 220.267 212.145 205.133C206.917 208.676 201.239 211.413 195.736 214.481C179.446 223.572 163.101 232.572 146.811 241.663C145.069 242.634 143.399 243.137 141.381 242.707C137.639 241.901 133.796 242.011 129.989 241.718C129.045 241.645 128.192 241.462 127.449 240.885C125.431 240.601 123.413 240.235 121.349 240.382C118.671 240.565 116.039 240.83 114.553 243.549C114.03 248.274 116.378 251.185 121.487 251.029C124.954 250.92 127.238 252.21 129.558 254.435C132.402 257.173 135.63 259.315 139.831 259.59C141.886 259.727 145.142 263.27 145.573 265.312C145.885 266.814 144.913 267.372 143.839 267.958C138.272 270.961 132.622 273.808 126.963 276.628C124.725 277.745 122.597 279.045 120.322 280.098C119.744 280.364 119.056 280.647 119.175 281.517C130.448 283.238 140.987 281.572 150.379 274.724C151.049 274.239 151.728 273.689 152.186 273.021C153.966 270.384 156.36 269.661 159.469 269.954C167.476 270.723 175.401 269.478 183.271 268.278C199.973 265.742 216.318 261.677 232.306 256.221C237.488 254.454 242.578 252.439 247.706 250.535H247.715Z" fill="#2E78BD"/>
<path d="M467.168 220.615C458.188 225.916 449.2 231.199 440.238 236.518C433.258 240.666 426.315 244.85 419.362 249.034C418.803 249.373 418.298 249.794 417.766 250.178C421.518 257.777 425.948 264.955 431.268 271.575C438.046 279.998 445.888 287.414 453.511 295.04C456.455 297.988 459.821 300.378 463.398 302.548C467.306 304.91 469.718 308.636 471.534 312.756C474.139 313.132 476.735 312.582 479.349 312.756C479.991 312.802 480.413 312.024 480.862 311.539C482.431 309.854 484.274 309.488 486.274 310.614C487.659 311.392 488.567 311.282 489.209 309.735C490.19 307.364 492.08 306.43 494.575 306.457C495.391 306.457 496.418 306.512 496.84 305.716C497.363 304.727 496.437 304.013 495.877 303.363C494.419 301.66 492.924 299.984 491.328 298.4C489.933 297.018 489.025 295.361 488.512 293.484C488.337 292.852 488.09 292.047 488.924 291.772C489.576 291.552 489.998 292.184 490.181 292.742C491.493 296.826 494.978 299.243 497.537 302.365C497.849 302.749 498.216 303.152 498.684 303.308C501.344 304.168 501.49 306.201 501.298 308.517C501.105 310.751 500.986 313.004 501.298 315.237C501.5 316.693 502.004 318.14 503.618 318.442C505.159 318.735 506.251 317.664 507.14 316.501C507.498 316.034 507.728 315.494 507.865 314.926C509.672 307.538 510.149 300.03 509.773 292.449C507.92 288.494 504.526 286.846 500.445 286.315C497.748 285.967 496.363 285.098 495.455 281.957C491.768 269.094 486.613 256.78 480.248 244.969C475.882 236.857 471.837 228.571 467.186 220.615H467.168Z" fill="#2E78BD"/>
<path d="M389.793 106.867C396.351 107.81 400.946 102.481 398.396 94.3604C397.644 91.9525 396.121 89.9475 394.113 88.3727C393.498 87.8875 393.058 87.6861 393.691 86.6881C397.103 81.2314 397.158 76.2417 393.828 71.9386C389.958 66.9488 384.775 65.1269 378.602 66.3812C376.988 66.7108 376.218 66.903 375.53 64.8064C372.907 56.7954 366.66 52.8768 358.735 51.4394C351.792 50.1759 345.335 51.5218 339.804 56.1178C338.731 57.0059 337.988 56.3925 337.107 56.0538C329.88 53.2613 322.478 52.419 314.874 54.2501C302.794 57.1616 300.694 68.8623 305.105 77.1298C307.417 81.4512 310.71 84.9119 314.947 87.448C315.608 88.7664 316.864 89.2333 318.139 89.6545C326.339 92.3554 334.668 93.3442 343.216 91.6321C345.775 91.1194 348.132 90.1031 350.37 88.7847C350.948 88.446 351.655 87.6586 352.177 88.8488C354.92 95.0563 360.497 97.1071 366.477 98.4896C369.861 99.2678 373.127 99.1396 376.493 97.8121C382.574 95.4225 387.655 98.4529 388.949 104.88C389.095 105.603 389.077 106.391 389.793 106.876V106.867Z" fill="#010101"/>
<path d="M389.791 106.867C389.69 102.316 388.25 98.5352 383.609 96.8231C381.279 95.9717 378.784 95.99 376.574 97.052C373.565 98.5077 370.529 98.5993 367.392 97.9767C362.449 96.9971 357.78 95.4773 354.432 91.3298C353.368 90.0023 352.772 88.4825 352.24 87.0908C339.867 94.1223 327.429 92.7032 314.937 87.4479C313.322 95.3857 312.607 103.378 313.295 111.463C313.772 117.121 314.79 122.66 317.138 127.879C318.789 131.532 320.954 134.754 325.219 135.716C326.154 135.926 326.099 136.531 326.154 137.19C326.246 138.252 326.365 139.323 326.466 140.385C326.787 140.239 326.98 139.982 327.062 139.643C327.824 136.631 327.824 136.549 330.905 136.741C335.473 137.034 340.013 137.236 344.508 136.055C345.049 135.917 345.755 135.752 346.085 136.384C346.489 137.171 345.801 137.593 345.278 137.968C344.113 138.783 342.802 139.305 341.463 139.762C337.546 141.118 333.63 142.482 329.594 143.48C328.722 143.699 327.787 143.864 327.255 144.734C327.292 145.997 327.328 147.27 327.356 148.533C327.851 148.845 328.319 149.147 328.539 149.751C330.63 155.611 335.556 157.268 340.976 157.497C350.195 157.89 358.339 155.162 364.503 147.893C365.219 147.041 366.301 147.087 367.053 146.446C367.053 143.058 367.108 139.662 367.026 136.274C366.998 135.139 367.631 134.672 368.401 134.15C373.309 130.845 376.537 126.432 377.289 120.444C377.381 119.739 377.491 119.227 378.362 119.053C384.847 117.762 388.278 113.532 389.58 107.297C389.617 107.141 389.718 106.995 389.791 106.848V106.867Z" fill="#2E78BD"/>
<path d="M121.32 241.022C123.356 240.574 125.429 242.075 127.447 240.876C124.861 237.58 122.329 234.238 119.642 231.025C118.458 229.615 117.55 228.186 117.376 226.337C116.22 228.562 114.074 229.349 111.937 230.265C94.1062 237.909 76.3212 245.628 58.5088 253.318C57.133 253.913 55.5737 253.932 54.3446 254.875C53.51 256.504 54.6565 257.557 55.5095 258.638C64.535 270.036 73.5787 281.435 82.6409 292.806C86.8234 298.052 86.8601 298.025 92.767 295.012C101.572 290.517 110.378 286.013 119.183 281.517C127.658 277.113 136.133 272.71 144.608 268.315C146.718 267.216 147.204 265.889 145.837 263.984C143.93 261.338 142.251 258.702 138.142 258.601C134.372 258.509 131.538 255.616 128.961 253.034C127.007 251.075 125.053 250.187 122.173 250.425C117.294 250.828 115.138 248.612 114.927 243.796C115.578 240.638 118.89 239.21 121.32 241.032V241.022Z" fill="#693F8A"/>
<path d="M54.3364 254.875C55.6114 255.113 56.7762 254.811 57.9594 254.298C76.9184 246.104 95.8866 237.928 114.864 229.771C116.441 229.093 117.643 228.288 117.377 226.337C114.717 212.229 112.048 198.12 109.397 184.002C108.856 181.155 107.554 180.276 104.811 181.1C84.5956 187.198 64.3891 193.332 44.1644 199.42C42.3667 199.96 42.4492 201.196 42.7244 202.579C44.623 211.853 46.5309 221.119 48.4295 230.393C49.8512 237.306 51.2362 244.227 52.6946 251.131C52.9789 252.458 52.9422 253.996 54.3272 254.866L54.3364 254.875Z" fill="#3E2750"/>
<path d="M509.755 292.449C508.498 296.138 509.388 299.993 508.966 303.756C508.544 307.528 507.957 311.263 507.132 314.953C506.994 315.576 506.682 316.226 506.26 316.693C505.545 317.489 504.573 318.258 503.509 317.974C502.39 317.672 501.94 316.509 501.931 315.392C501.903 312.27 501.931 309.139 502.023 306.017C502.069 304.47 501.573 303.353 499.968 303.17C498.381 302.996 497.84 301.696 496.996 300.734C494.566 297.97 491.438 295.717 490.622 291.762C490.429 290.847 489.521 290.196 488.466 290.691C487.494 291.139 487.448 291.954 487.641 292.998C488.365 296.962 491.401 299.306 493.823 302.08C494.795 303.188 495.831 304.241 497.143 305.642C492.85 305.587 488.98 305.816 488.191 311.034C486.65 310.128 485.412 309.112 483.623 309.222C481.679 309.341 480.587 310.394 479.817 311.959C479.514 312.573 479 312.591 478.569 312.417C476.157 311.419 473.864 312.234 471.543 312.747C469.966 314.321 470.883 316.107 471.103 317.837C477.606 313.873 479.376 315.942 480.395 321.838C481.018 325.418 482.651 328.769 483.788 332.239C484.045 333.035 484.302 333.841 485.228 334.125C486.246 333.868 487.265 333.612 488.283 333.346C488.934 332.358 488.42 331.424 488.136 330.49C487.265 327.624 486.1 324.868 485.109 322.049C484.522 320.401 484.063 318.707 483.788 316.995C483.605 315.841 482.862 314.147 484.21 313.644C485.421 313.186 486.356 314.752 486.944 315.786C488.989 319.32 489.787 323.394 491.649 327.02C492.814 329.281 493.245 331.936 495.272 333.731C496.483 333.658 497.271 332.687 498.326 332.284C498.858 331.14 498.262 330.188 497.794 329.226C495.914 325.335 494.235 321.362 492.731 317.306C492.107 315.631 491.869 313.928 492.025 312.17C492.181 310.384 493.217 309.515 495.015 309.524C496.813 309.533 497.519 310.558 497.565 312.225C497.62 314.23 497.822 316.207 498.601 318.075C499.225 319.558 499.977 321.051 501.592 321.563C503.398 322.14 504.059 323.477 504.857 325.006C505.71 326.663 505.728 328.979 507.994 329.721C508.755 328.988 509.599 328.439 510.727 328.54C511.195 326.718 509.828 325.473 509.204 324.026C508.351 322.049 507.865 320.282 509.7 318.606C510.058 318.276 510.333 317.81 510.452 317.333C512.085 311.08 513.589 304.8 512.259 298.263C511.672 296.221 510.755 294.316 509.755 292.449Z" fill="#010103"/>
<path d="M22.1782 162.432C23.233 165.325 24.2603 168.017 25.1958 170.754C25.9204 172.878 27.0394 173.748 29.3142 172.714C31.5063 171.725 33.8361 171.047 36.0466 170.086C37.5875 169.418 38.5598 169.207 38.9175 171.349C39.2202 173.135 39.9907 174.838 40.486 176.596C41.0088 178.482 42.1278 179.141 44.0356 178.628C45.5582 178.216 47.1908 178.125 48.6492 177.557C51.1532 176.596 52.1805 177.529 52.7217 179.937C53.1711 181.952 53.9966 183.883 54.6478 185.852C55.0239 186.996 55.6843 187.848 57.0143 187.472C58.3993 187.079 58.4085 185.989 58.0416 184.854C56.9776 181.53 55.9228 178.207 54.7946 174.911C54.2534 173.318 53.1161 172.787 51.4467 173.245C49.4472 173.794 47.4018 174.179 45.3931 174.728C44.1732 175.067 43.5953 174.783 43.2743 173.492C42.7606 171.404 42.0361 169.354 41.394 167.303C40.807 165.444 39.7155 164.803 37.7801 165.618C35.1752 166.717 32.4877 167.596 29.8828 168.685C28.7822 169.143 28.3327 169.061 27.9383 167.834C27.0853 165.151 26.0947 162.496 25.0674 159.878C24.2144 157.717 23.1138 157.387 21.2243 158.687C18.5552 160.528 15.9411 162.441 13.3087 164.327C12.263 165.078 11.0615 165.929 12.0429 167.339C13.1252 168.887 14.4001 167.916 15.5008 167.156C17.6838 165.646 19.8301 164.098 22.1598 162.441L22.1782 162.432Z" fill="#E30C15"/>
<path d="M512.251 298.272C512.306 304.04 511.636 309.735 510.407 315.366C510.104 316.776 509.682 318.204 508.527 319.019C507.013 320.09 507.169 321.225 507.83 322.59C508.793 324.576 509.756 326.563 510.719 328.55C513.681 328.861 516.507 328.321 519.176 327.067C521.67 325.895 522.377 324.347 521.826 321.619C521.698 320.969 521.606 320.291 521.359 319.696C518.341 312.546 515.296 305.414 512.26 298.272H512.251Z" fill="#2F78BD"/>
<path d="M-0.000488229 237.699C0.0362006 239.1 0.237996 239.915 1.21025 240.162C2.30174 240.437 2.98962 239.814 3.29231 238.853C3.86098 237.031 4.40217 235.2 4.80574 233.341C5.07174 232.096 5.56705 232.105 6.48428 232.664C7.62163 233.35 8.78647 234 9.95134 234.623C12.3086 235.877 13.4001 235.657 14.1247 233.195C14.8034 230.878 15.7849 230.997 17.39 232.114C17.9954 232.545 18.72 232.81 19.3437 233.213C21.1873 234.421 22.6274 234.202 24.0582 232.398C25.7459 230.274 27.0576 226.841 29.4148 226.529C31.5795 226.236 34.1018 228.635 36.4683 229.844C37.5047 230.375 38.5228 230.933 39.596 231.382C40.5223 231.776 41.4304 231.656 41.9807 230.695C42.5494 229.697 42.1 228.809 41.2469 228.351C37.3671 226.282 33.4506 224.268 29.5065 222.318C28.3416 221.741 27.4428 222.51 26.7182 223.398C25.1956 225.266 23.6547 227.115 22.1963 229.029C21.5084 229.926 20.8938 230.1 19.9124 229.468C18.7291 228.708 17.4726 228.058 16.216 227.408C13.8404 226.172 13.0607 226.392 12.0977 228.956C11.4281 230.741 10.7126 231.29 9.01576 230.045C7.88758 229.212 6.57598 228.635 5.31939 227.985C4.09948 227.363 2.83372 227.482 2.40263 228.827C1.4212 231.904 0.696591 235.053 -0.0096694 237.69L-0.000488229 237.699Z" fill="#E30D15"/>
<path d="M98.629 162.707C100.72 162.615 102.555 162.579 104.371 162.45C106.765 162.276 107.333 161.416 106.361 159.209C104.49 154.952 102.591 150.704 100.546 146.529C99.7113 144.826 99.7297 144.029 101.793 143.526C105.343 142.665 108.828 141.521 112.351 140.532C113.653 140.166 114.864 139.662 114.442 138.042C114.02 136.403 112.773 136.559 111.433 136.971C106.902 138.371 102.353 139.699 97.8218 141.091C95.2903 141.869 94.9326 142.638 95.9966 145.11C96.978 147.399 98.042 149.651 99.0693 151.921C100.097 154.174 101.133 156.426 102.27 158.898C100.262 158.99 98.4731 159.072 96.6845 159.136C94.8775 159.209 94.0062 160.097 94.5382 161.892C95.4095 164.84 96.3818 167.751 97.3449 170.672C97.6934 171.716 98.4089 172.439 99.6013 172.137C101.069 171.771 100.94 170.562 100.656 169.509C100.06 167.294 99.3352 165.105 98.6106 162.725L98.629 162.707Z" fill="#E30D15"/>
<path d="M507.984 329.73C506.526 327.707 505.682 325.39 504.756 323.111C504.361 322.131 503.976 321.618 502.765 321.344C499.408 320.584 498.95 317.608 498.399 314.834C498.225 313.946 498.234 313.021 498.179 312.106C498.014 309.267 497.409 308.663 494.804 308.755C492.236 308.837 491.282 309.826 491.236 312.444C491.153 317.077 493.437 320.996 495.134 325.079C496.143 327.505 497.244 329.895 498.308 332.303C501.912 332.898 505.214 332.33 507.975 329.739L507.984 329.73Z" fill="#2E78BD"/>
<path d="M133.74 190.146C130.961 189.441 128.402 188.8 125.852 188.132C123.926 187.619 122.798 188.205 122.55 190.283C122.256 192.673 121.88 195.044 121.541 197.424C121.376 198.615 121.734 199.549 122.834 200.144C123.531 200.528 124.247 200.675 124.935 200.162C125.852 199.484 125.54 198.578 125.384 197.663C125.1 195.905 125.137 193.79 125.99 192.59C126.971 191.217 128.888 192.847 130.411 193.076C131.796 193.277 133.144 193.771 134.52 194.055C136.519 194.467 137.473 193.707 137.409 191.565C137.281 187.042 137.326 187.042 141.784 187.866C142.518 188.003 143.261 188.123 143.985 188.26C145.884 188.635 147.031 187.894 147.425 185.989C147.526 185.504 147.774 185.046 147.829 184.561C148.104 182.043 149.049 181.1 151.516 182.666C152.534 183.316 153.864 183.38 154.478 181.961C155.056 180.642 154.075 180.002 153.057 179.48C152.91 179.406 152.754 179.342 152.607 179.269C146.948 176.77 146.168 175.68 144.646 182.702C144.334 184.122 143.866 184.891 142.142 184.35C140.491 183.838 138.721 183.682 136.996 183.453C134.134 183.078 133.456 183.755 133.584 186.722C133.63 187.784 133.676 188.846 133.731 190.146H133.74Z" fill="#E30D15"/>
<path d="M485.219 334.143C483.376 328.604 480.963 323.239 479.982 317.444C479.799 316.372 479.294 315.869 478.359 315.53C475.359 314.431 472.892 315.201 471.094 317.856C471.846 321.408 473.13 324.805 474.314 328.22C476.194 333.658 479.652 335.535 485.229 334.152L485.219 334.143Z" fill="#2F78BD"/>
<path d="M495.264 333.741C492.613 327.57 490.017 321.381 487.275 315.256C486.605 313.773 485.238 311.832 483.642 312.509C481.799 313.297 482.817 315.659 483.101 317.206C484.019 322.15 486.229 326.709 487.697 331.498C487.889 332.12 488.073 332.743 488.265 333.375C490.567 334.043 492.851 335.004 495.254 333.741H495.264Z" fill="#2E78BD"/>
<path d="M327.247 144.753C332.732 143.617 337.969 141.667 343.243 139.845C344.39 139.452 345.463 138.765 346.481 138.087C347.16 137.639 347.829 136.97 347.27 136.009C346.811 135.231 346.087 134.855 345.16 135.139C339.565 136.806 333.897 136.366 328.228 135.716C326.834 135.551 326.229 135.954 326.44 137.446C326.577 138.417 326.476 139.424 326.476 140.404C326.953 141.814 326.522 143.388 327.256 144.762L327.247 144.753Z" fill="#010102"/>
<path d="M337.243 361.628C337.445 357.426 339.059 353.406 338.775 349.131C338.665 347.409 338.206 346.311 336.647 345.313C331.08 341.751 325.65 337.961 320.165 334.271C319.541 333.85 318.89 333.493 318.101 333.475C317.349 333.466 316.854 333.868 316.459 334.436C315.936 335.214 316.514 335.663 317 336.112C319.376 338.336 322.302 339.774 324.925 341.632C327.888 343.738 330.96 345.697 334.024 347.657C334.712 348.096 335.271 348.526 335.216 349.378C334.923 353.571 337.087 357.444 336.776 361.628L337.005 361.601L337.234 361.619L337.243 361.628Z" fill="#D2ACD0"/>
<path d="M415.547 251.35C414.354 250.453 414.905 249.153 415.033 248.137C415.996 240.592 414.208 233.268 413.318 225.879C413.18 224.753 412.841 223.407 411.254 223.554C409.539 223.71 409.75 225.12 409.906 226.237C410.704 232.069 411.502 237.901 412.456 243.696C412.905 246.434 412.823 249.29 414.125 251.854C414.648 251.817 415.217 251.909 415.547 251.341V251.35Z" fill="#E6D3B1"/>
<path d="M280.991 241.151C283.66 235.31 284.137 228.965 285.173 222.757C285.512 220.725 285.76 218.665 285.916 216.614C285.999 215.515 286.21 214.087 284.503 213.941C282.908 213.803 282.605 215.122 282.467 216.257C281.944 220.606 281.458 224.955 281.091 229.322C280.78 233.094 280.651 236.884 280.431 240.666C280.614 240.83 280.798 240.995 280.981 241.16L280.991 241.151Z" fill="#E6D3B1"/>
<path d="M407.833 524.413C409.429 524.34 410.594 524.312 411.759 524.239C412.768 524.166 413.621 523.681 413.621 522.618C413.621 521.593 412.768 521.071 411.805 520.851C411.484 520.778 411.135 520.76 410.814 520.797C405.761 521.346 400.688 520.833 395.634 520.87C384.866 520.934 374.098 520.678 363.321 520.723C360.349 520.732 357.359 520.723 354.378 520.742C353.433 520.742 352.47 520.824 352.314 522.051C352.149 523.351 353.103 523.763 354.093 524.074C354.479 524.193 354.91 524.193 355.322 524.184C360.386 524.138 365.439 523.992 370.503 524.056C381.106 524.193 391.709 524.349 402.321 524.257C404.284 524.239 406.283 524.45 407.833 524.413Z" fill="#D3ACD1"/>
<path d="M262.188 516.723C261.298 516.714 260.225 517.162 260.161 518.426C260.087 519.735 261.142 520.138 262.362 520.239C271.819 520.98 281.284 521.722 290.741 522.537C298.877 523.242 307.003 524.038 315.13 524.789C316.322 524.899 317.414 524.487 317.625 523.278C317.836 522.079 316.808 521.502 315.763 521.383C312.323 520.998 308.874 520.678 305.426 520.367C299.344 519.817 293.263 519.277 287.182 518.774C281.339 518.288 275.497 517.876 269.654 517.409C267.269 517.217 264.894 516.979 262.188 516.732V516.723Z" fill="#D3ACD0"/>
<path d="M121.321 241.023C121.403 239.659 120.798 238.862 119.404 239.21C117.799 239.613 116.285 240.364 115.019 241.463C114.249 242.131 114.02 242.973 114.918 243.788C116.459 241.508 118.853 241.197 121.312 241.023H121.321Z" fill="#3F2852"/>
<path d="M323.385 111.39C323.312 113.624 323.706 115.611 325.146 117.268C326.385 118.687 327.962 119.346 329.788 118.998C330.852 118.797 332.237 118.614 332.163 116.993C332.081 115.18 330.714 115.602 329.586 115.602C327.577 115.602 326.458 113.954 326.614 111.152C326.733 109.01 327.054 106.904 327.834 104.88C328.256 103.791 328.659 102.436 327.247 101.868C325.678 101.246 325 102.555 324.633 103.773C323.881 106.29 322.963 108.799 323.376 111.39H323.385Z" fill="#010205"/>
<path d="M341.306 120.591C337.637 121.131 334.611 122.074 332.143 124.381C331.153 125.306 330.327 126.432 331.382 127.567C332.418 128.675 333.427 127.75 334.335 126.917C337.316 124.198 340.765 123.356 344.654 124.619C345.746 124.976 346.901 125.306 347.397 123.969C347.901 122.614 347.039 121.735 345.755 121.433C344.159 121.058 342.526 120.82 341.306 120.591Z" fill="#010205"/>
<path d="M383.462 109.248C383.499 108.717 383.123 107.737 382.619 106.94C381.665 105.411 381.178 104.011 381.931 102.198C382.307 101.282 381.94 100.147 380.647 99.9548C379.537 99.79 379.124 100.358 378.931 101.502C378.583 103.553 377.702 105.384 375.914 106.693C375.143 107.261 374.208 108.057 375.088 109.147C375.849 110.09 377.051 109.889 377.757 109.174C379.757 107.142 380.105 108.433 380.509 110.282C380.702 111.179 381.013 112.425 382.362 112.15C383.646 111.894 383.536 110.749 383.462 109.248Z" fill="#010206"/>
<path d="M338.52 101.438C341.106 100.989 343.39 101.648 345.371 103.388C346.087 104.019 346.885 104.193 347.591 103.534C348.316 102.866 348.105 102.06 347.591 101.3C346.105 99.0937 340.299 97.4091 337.832 98.4986C336.979 98.874 336.098 99.3775 336.483 100.522C336.786 101.428 337.584 101.676 338.52 101.447V101.438Z" fill="#010208"/>
<path d="M319.175 97.5741C317.726 97.7572 316.185 98.6178 314.947 100.009C314.351 100.678 314.14 101.465 314.864 102.216C315.589 102.967 316.369 102.784 317.066 102.207C318.01 101.419 318.919 100.632 320.248 100.513C321.349 100.421 322.202 99.8447 321.991 98.6087C321.753 97.2079 320.579 97.5375 319.185 97.5741H319.175Z" fill="#02030C"/>
<path d="M339.602 105.219C339.685 106.803 340.152 107.563 341.409 107.617C342.647 107.672 343.234 107.132 343.198 105.832C343.161 104.569 342.583 103.992 341.354 104.038C340.336 104.083 339.547 104.413 339.602 105.219Z" fill="#010206"/>
<path d="M317.561 106.299C317.635 107.453 318.002 108.139 319.212 108.121C320.432 108.103 321.166 107.517 321.074 106.345C320.983 105.283 320.304 104.541 319.093 104.587C317.91 104.633 317.58 105.402 317.571 106.299H317.561Z" fill="#02030A"/>
<path d="M106.526 280.685C107.388 280.74 108.021 280.309 108.672 279.961C113.919 277.105 119.165 274.239 124.394 271.364C126.934 269.973 127.237 269.112 125.861 266.603C121.422 258.473 122.66 259.691 115.515 263.014C110.929 265.148 106.389 267.382 101.839 269.597C99.2801 270.842 99.0232 271.822 100.61 274.23C101.747 275.96 102.912 277.672 104.095 279.375C104.682 280.227 105.407 280.895 106.517 280.703L106.526 280.685Z" fill="#3E2750"/>
<path d="M77.8452 273.341C79.8172 273.195 80.8996 271.877 80.5143 270.119C80.3217 269.24 79.9365 268.397 79.6063 267.555C79.1201 266.328 78.3038 265.056 80.3492 264.415C80.5602 264.351 80.7528 264.104 80.8628 263.893C82.2937 261.046 79.7163 259.489 78.6524 257.53C77.9002 256.147 76.3776 255.616 74.7633 256.504C73.5251 257.182 72.3052 257.887 71.0669 258.555C68.3611 260.02 68.0676 260.716 69.26 263.453C70.7 266.74 73.2041 269.359 75.0385 272.408C75.6164 273.369 76.9371 273.277 77.8635 273.351L77.8452 273.341Z" fill="#3E2750"/>
<path d="M117.213 255.195C115.892 255.681 114.278 255.983 112.993 256.798C109.471 259.05 105.536 260.414 101.895 262.382C100.813 262.968 99.3086 263.509 100.033 265.083C100.758 266.649 102.069 266.255 103.409 265.559C108.187 263.097 113.021 260.734 117.836 258.326C118.744 257.869 119.267 257.191 118.965 256.12C118.735 255.323 118.093 255.204 117.222 255.195H117.213Z" fill="#3E2750"/>
<path d="M85.1553 275.915C87.0448 274.66 89.3011 273.287 91.3832 271.694C91.9977 271.227 91.7868 270.11 91.1723 269.423C90.5302 268.7 89.8606 269.039 89.1819 269.478C87.3749 270.641 85.513 271.731 83.7336 272.939C83.0273 273.415 82.5595 274.184 83.1099 275.091C83.4676 275.686 83.9996 276.07 85.1553 275.915Z" fill="#3F2851"/>
<path d="M106.591 249.226C108.361 248.558 110.434 247.56 112.36 246.297C112.947 245.912 113.121 245.189 112.681 244.53C112.241 243.87 111.58 243.367 110.782 243.724C108.829 244.612 106.902 245.564 105.004 246.571C104.408 246.892 104.096 247.578 104.325 248.292C104.609 249.171 105.362 249.254 106.581 249.217L106.591 249.226Z" fill="#3F2851"/>
<path d="M109.443 255.14C110.966 254.563 112.755 253.904 114.323 252.815C115.048 252.311 115.46 251.505 115.02 250.645C114.561 249.738 113.626 249.711 112.837 250.04C111.232 250.709 109.663 251.469 108.141 252.302C107.306 252.751 107.159 253.62 107.471 254.481C107.765 255.277 108.489 255.195 109.453 255.149L109.443 255.14Z" fill="#3F2851"/>
<path d="M93.6029 247.652C93.7404 248.659 94.2449 249.318 95.0888 249.126C97.0241 248.686 98.9778 248.036 100.189 246.379C100.931 245.363 100.574 243.925 99.1612 244.09C97.1433 244.328 95.3089 245.409 93.8047 246.855C93.612 247.038 93.6487 247.469 93.6029 247.652Z" fill="#3F2851"/>
<path d="M102.379 243.028C102.499 243.247 102.572 243.65 102.801 243.806C104.782 245.051 106.149 243.238 107.8 242.771C108.892 242.46 109.506 241.819 109.359 240.611C109.286 240.061 108.992 239.723 108.506 239.503C107.461 239.045 102.838 241.105 102.489 242.195C102.416 242.423 102.425 242.68 102.388 243.019L102.379 243.028Z" fill="#3F2851"/>
<path d="M100.565 249.455C99.253 249.94 97.6937 250.481 96.4555 251.625C95.7767 252.248 95.575 253.044 96.0794 253.85C96.6481 254.765 97.4461 254.564 98.2441 254.161C99.4915 253.529 100.757 252.925 101.968 252.238C102.693 251.826 102.904 251.085 102.638 250.307C102.344 249.437 101.592 249.364 100.555 249.464L100.565 249.455Z" fill="#3F2851"/>
<path d="M86.2834 251.808C86.3568 251.972 86.421 252.357 86.6412 252.54C88.0262 253.666 89.136 252.604 90.2275 251.963C91.374 251.286 92.9975 250.855 92.5847 248.951C92.5205 248.658 92.2821 248.319 92.0253 248.173C90.8696 247.541 89.934 248.237 89.081 248.869C88.017 249.638 86.2651 249.775 86.2834 251.808Z" fill="#3F2851"/>
<path d="M85.3011 267.134C86.4843 266.85 87.8234 266.246 89.0617 265.431C89.7221 265.001 90.0523 264.278 89.5937 263.5C89.1901 262.822 88.548 262.328 87.7409 262.63C86.4384 263.124 85.1635 263.701 83.9436 264.351C83.2832 264.699 82.7604 265.321 83.0172 266.182C83.3199 267.18 84.1637 267.217 85.3011 267.134Z" fill="#3F2851"/>
<path d="M92.9692 268.389C92.9417 269.286 93.4278 270.046 94.2166 269.927C96.2162 269.634 97.7663 268.361 99.1696 266.997C99.6924 266.485 99.4815 265.67 98.8119 265.303C97.6837 264.699 96.5372 265.01 95.5374 265.661C94.4734 266.356 93.0884 266.796 92.9692 268.38V268.389Z" fill="#3F2851"/>
<path d="M104.041 254.289C101.941 254.408 99.464 256.138 99.5191 257.466C99.5557 258.473 100.088 258.958 101.115 258.912C102.61 258.839 105.995 256.587 105.949 255.671C105.885 254.444 105.059 254.224 104.05 254.298L104.041 254.289Z" fill="#3F2851"/>
<path d="M120.973 254.655C121.055 255.525 121.532 256.001 122.266 256.001C124.293 255.983 125.871 254.902 127.137 253.474C127.714 252.824 127.072 252.055 126.403 251.643C125.165 250.892 124.22 251.753 123.238 252.33C122.248 252.906 121.175 253.419 120.973 254.655Z" fill="#3F2851"/>
<path d="M96.052 258.152C94.3276 258.171 91.6952 260.048 91.7044 261.256C91.7136 262.263 92.218 262.776 93.2545 262.748C94.7771 262.712 97.6205 260.698 97.6113 259.617C97.6113 258.592 97.0701 258.107 96.052 258.152Z" fill="#3F2851"/>
<path d="M115.771 235.896C114.432 236.674 112.258 236.555 111.891 238.688C111.717 239.695 112.744 240.592 113.652 240.208C115.12 239.576 117.33 239.759 117.679 237.534C117.853 236.381 116.899 236.024 115.771 235.896Z" fill="#402853"/>
<path d="M81.3302 256.33C82.4859 255.451 84.9073 255.744 84.7698 253.281C84.6964 252.064 83.559 251.917 82.6693 252.247C81.1651 252.796 79.2389 253.144 79.1013 255.186C79.028 256.358 80.1928 256.431 81.3302 256.33Z" fill="#3F2852"/>
<path d="M88.9423 256.303C88.9881 257.292 89.4101 257.924 90.2998 257.851C92.015 257.704 93.4917 256.972 94.308 255.397C94.6566 254.729 94.464 253.895 93.6752 253.483C92.813 253.035 92.0884 253.429 91.428 253.996C90.5474 254.756 88.979 254.811 88.9423 256.313V256.303Z" fill="#3F2851"/>
<path d="M86.1184 257.265C84.4215 257.402 82.0734 259.297 82.2844 260.222C82.4953 261.128 83.1099 261.632 84.0729 261.595C85.7698 261.531 87.7419 259.901 87.5584 258.72C87.4117 257.741 86.7604 257.347 86.1184 257.265Z" fill="#3F2852"/>
<path d="M113.332 224.149C111.919 217.502 110.525 210.846 109.094 204.199C107.994 199.099 106.875 194 105.691 188.918C104.967 185.796 103.71 185.11 100.683 186.053C84.5402 191.116 68.3971 196.188 52.254 201.269C49.0621 202.276 48.8511 202.688 49.6399 205.893C52.2448 216.513 54.8773 227.134 57.3996 237.772C57.9499 240.098 58.0875 242.515 58.3994 244.895C58.8855 248.622 59.7844 248.988 63.1873 247.559C72.5154 243.641 81.917 239.887 91.291 236.06C97.739 233.433 104.16 230.732 110.654 228.205C112.662 227.426 113.873 226.483 113.332 224.149Z" fill="#E30A14"/>
<path d="M70.1029 230.658C68.3693 227.957 66.1496 226.419 64.4711 224.35C63.6731 223.352 62.5633 222.464 61.3067 223.682C60.1694 224.78 60.949 225.797 61.7745 226.703C64.1776 229.349 66.6816 231.894 68.9197 234.687C70.4973 236.655 72.2583 236.115 73.0655 233.615C73.4507 232.434 73.8268 231.253 74.2212 230.072C74.2671 229.926 74.4138 229.807 74.5606 229.633C76.0556 230.374 77.3673 231.372 78.5963 232.498C80.174 233.945 81.5131 233.56 82.412 231.803C83.2008 230.255 83.742 228.598 84.3932 226.978C84.8335 225.879 85.3838 225.577 86.3927 226.502C87.3099 227.344 88.3372 228.067 89.3737 228.754C90.9697 229.816 92.1437 229.541 92.85 227.628C93.5562 225.696 93.8681 223.022 95.2898 222.098C96.7482 221.146 99.0962 222.903 101.096 223.297C103.215 223.718 104.673 223.251 105.214 220.944C105.764 218.609 106.462 216.311 107.03 213.977C107.269 212.979 107.351 211.871 106.067 211.496C104.783 211.12 104.242 212.091 103.939 213.07C103.371 214.883 102.839 216.714 102.435 218.573C102.169 219.763 101.738 220.084 100.545 219.635C98.922 219.022 97.1976 218.664 95.5649 218.088C93.7397 217.438 92.6941 218.188 92.0245 219.791C91.9328 220.019 91.9144 220.276 91.8227 220.514C90.3184 224.67 90.2909 224.707 86.7505 222.327C84.9894 221.146 83.5769 221.493 82.5037 223.141C81.6966 224.387 81.0087 225.732 80.4858 227.124C79.9997 228.424 79.4402 228.708 78.3762 227.774C77.5599 227.069 76.7161 226.401 75.9272 225.668C74.1754 224.048 72.6069 224.258 71.598 226.419C71.0385 227.6 70.7358 228.891 70.1304 230.649L70.1029 230.658Z" fill="#190F0F"/>
<path d="M59.2802 209.656C59.271 210.626 59.9498 211.139 60.6377 211.606C64.2424 214.105 67.8654 216.596 71.4701 219.095C72.4698 219.782 73.5155 220.038 74.3318 218.958C75.1848 217.841 74.5611 216.916 73.5888 216.23C69.7915 213.574 66.0034 210.883 62.1419 208.328C60.7111 207.376 59.2527 208.163 59.2894 209.656H59.2802Z" fill="#1B0F0F"/>
<path d="M99.0231 196.079C98.0508 196.079 97.5555 196.719 97.1336 197.461C95.2717 200.675 93.4097 203.879 91.5477 207.093C90.9332 208.155 90.4104 209.317 91.7587 210.105C93.0153 210.837 93.9142 210.077 94.5746 208.951C96.5007 205.683 98.4911 202.451 100.353 199.146C101.27 197.516 100.546 196.051 99.0139 196.079H99.0231Z" fill="#1D0F0F"/>
</g>
</g>
<defs>
<clipPath id="clip0_148_207">
<rect width="521" height="531" fill="white"/>
</clipPath>
<clipPath id="clip1_148_207">
<rect width="522" height="563" fill="white" transform="matrix(-1 0 0 1 522 51)"/>
</clipPath>
</defs>
</svg>
