<svg width="38" height="39" viewBox="0 0 38 39" fill="none" xmlns="http://www.w3.org/2000/svg">
<path d="M32 20C32 12.8203 26.1797 7 19 7C11.8203 7 6 12.8203 6 20C6 27.1797 11.8203 33 19 33C26.1797 33 32 27.1797 32 20ZM17.5 11.2998C17.5001 10.4715 18.1716 9.7998 19 9.7998C19.8284 9.7998 20.4999 10.4715 20.5 11.2998V18.5H24.2197L24.373 18.5078C25.1296 18.5845 25.7197 19.2232 25.7197 20C25.7197 20.7768 25.1296 21.4155 24.373 21.4922L24.2197 21.5H17.5V11.2998ZM35 20C35 28.8366 27.8366 36 19 36C10.1634 36 3 28.8366 3 20C3 11.1634 10.1634 4 19 4C27.8366 4 35 11.1634 35 20Z" fill="#171426"/>
</svg>
