<svg width="24" height="24" viewBox="0 0 24 24" fill="none" xmlns="http://www.w3.org/2000/svg">
<path fill-rule="evenodd" clip-rule="evenodd" d="M11.3271 2.26473C11.7085 1.91176 12.2915 1.91176 12.6729 2.26473L23 11.8207H20V20.9821C20 21.5443 19.5523 22 19 22H5C4.44772 22 4 21.5443 4 20.9821V11.8207H1L11.3271 2.26473ZM7.5 14.3655C7.5 16.8954 9.5 18.9462 12 18.9462C14.5 18.9462 16.5 16.8954 16.5 14.3655H7.5ZM9 10.599C8.17165 10.599 7.50013 11.2827 7.5 12.1259V12.4311L10.5 12.3297V12.1259C10.4999 11.2827 9.82835 10.599 9 10.599ZM15 10.599C14.1717 10.599 13.5001 11.2827 13.5 12.1259V12.3297L16.5 12.4311V12.1259C16.4999 11.2827 15.8283 10.599 15 10.599Z" fill="white"/>
</svg>
