<svg width="256" height="55" viewBox="0 0 256 55" fill="none" xmlns="http://www.w3.org/2000/svg">
<path fill-rule="evenodd" clip-rule="evenodd" d="M87.8914 17.9283C88.0611 17.9413 88.2778 18.0217 88.5402 18.229C88.9852 18.5807 89.1047 19.1143 88.9997 19.8699C88.8931 20.6382 88.5704 21.5088 88.2593 22.4096L88.1767 22.6442C87.9973 23.138 87.9114 23.2758 87.8397 23.3828C87.7928 23.4524 87.724 23.5465 87.6447 23.6873C87.565 23.8293 87.4742 24.0178 87.3563 24.3076C87.2739 24.5104 87.3634 24.7457 87.5559 24.8327C87.5994 24.8521 87.6445 24.8621 87.6893 24.864C87.7462 25.6569 87.8044 26.4603 87.8619 27.2635L88.7721 39.9933C88.8045 40.4499 88.4976 40.847 88.0706 40.9169L87.984 40.9265L82.7736 41.2229L83.0396 45.5607C83.0721 46.0893 82.6912 46.5456 82.1892 46.5798L81.6787 46.6144C81.6798 46.6799 81.6814 46.7454 81.6811 46.8111C81.6783 47.5317 81.5863 48.2952 81.2144 49.071L81.1362 49.2265C79.9962 51.3877 78.3255 52.6337 75.9476 52.9756L75.7151 53.0058C74.2893 53.1728 72.8474 53.3309 71.3774 53.3309C70.5551 53.3309 69.6916 53.1366 68.8811 52.9088C68.4734 52.7941 68.0669 52.6674 67.6803 52.5483C67.2903 52.4281 66.9202 52.3156 66.5694 52.2232C65.4176 51.9198 64.4541 51.3365 63.5741 50.7223C63.2675 50.5083 62.9773 50.2957 62.693 50.088C62.6859 50.2498 62.6804 50.3869 62.6804 50.5137C62.6804 53.5382 59.7529 55.545 57.1371 54.8686L57.0126 54.8342C56.2456 54.6096 55.228 54.3722 54.4392 53.9056C54.0291 53.6628 53.6434 53.3401 53.3623 52.8905C53.0774 52.4351 52.9242 51.8887 52.9242 51.2453C52.9242 50.8479 52.9036 50.4302 52.9828 50.0688C53.0768 49.641 53.2926 49.307 53.6357 48.9454C53.7476 48.8278 53.8748 48.6738 54.0307 48.4846C54.1806 48.3024 54.3524 48.0936 54.5336 47.8952C54.8727 47.5236 55.3485 47.0677 55.9163 46.9348L56.0109 46.9145C56.4837 46.8221 56.9453 46.8642 57.3408 46.9201C58.1778 47.0389 59.0419 47.0604 59.8721 47.2122C59.8013 47.1474 59.7325 47.0845 59.6667 47.0244C59.2655 46.6577 58.9313 46.3751 58.5596 46.2203L58.485 46.1908C56.2747 45.385 53.9516 45.6192 51.4298 45.6192C48.5287 45.6192 46.3116 46.7636 43.8109 48.3452L43.3066 48.6673C42.8778 48.9433 42.4735 49.2352 42.0669 49.5339C41.6643 49.8295 41.2533 50.1366 40.8325 50.4253C40.0369 50.9712 39.1745 51.4738 38.1226 51.8006L37.9095 51.8635C36.7415 52.1914 35.3781 52.5277 34.0924 52.5277C33.5284 52.5277 32.9389 52.5897 32.2334 52.6199C31.5708 52.6482 30.8478 52.6438 30.1997 52.473C29.7822 52.3631 29.4216 52.0878 29.1263 51.7973C28.8248 51.5002 28.5432 51.1382 28.2901 50.7829C28.0374 50.4281 27.7936 50.0522 27.5831 49.7367C27.3908 49.4483 27.2302 49.2167 27.0945 49.0516L27.0379 48.9852C26.6325 48.5253 26.3536 47.8042 26.1511 47.1757C25.9987 46.7026 25.8597 46.1763 25.7489 45.7693L25.6481 45.4087C25.4034 44.5709 25.1638 43.6217 25.1638 42.6499C25.1636 42.2536 25.0715 41.8563 24.9544 41.3798C24.8445 40.9326 24.7062 40.3926 24.7062 39.8382C24.7062 39.485 24.9782 39.1985 25.3135 39.1985C26.0862 39.1985 26.0017 40.5375 26.13 41.0596C26.2417 41.5148 26.3782 42.0658 26.3782 42.6499C26.3782 43.418 26.5694 44.2121 26.809 45.0326L26.9211 45.4321C27.0333 45.8446 27.1494 46.294 27.3008 46.7646C27.5038 47.3944 27.7165 47.8753 27.9277 48.1148L28.0076 48.2084C28.195 48.436 28.3891 48.7202 28.5767 49.0011C28.8003 49.3362 29.0237 49.6815 29.2613 50.0148C29.4982 50.3476 29.7303 50.6409 29.9557 50.8629C30.1872 51.0909 30.3671 51.1985 30.4941 51.232C30.964 51.3557 31.5404 51.369 32.1841 51.3417C32.7848 51.3159 33.5089 51.2486 34.0924 51.2486C35.2053 51.2486 36.4342 50.9541 37.5966 50.6276L37.778 50.5738C38.6749 50.2954 39.4269 49.863 40.1699 49.3533C40.5696 49.0792 40.958 48.7889 41.3719 48.4849C41.7818 48.1838 42.2112 47.873 42.6731 47.5757L43.1833 47.2497C45.7276 45.6393 48.1877 44.3398 51.4298 44.3398C53.7878 44.3398 56.4204 44.0844 58.8822 44.982L59.0026 45.0291C59.5975 45.2765 60.0724 45.7015 60.4626 46.0582C60.9104 46.4675 61.2473 46.7849 61.6334 46.9657L61.706 47.002C62.3224 47.3282 62.5574 47.957 62.65 48.5075C63.2066 48.8967 63.7402 49.3035 64.2449 49.6557C65.0856 50.2426 65.9123 50.7314 66.8638 50.9822C67.2408 51.0813 67.6325 51.2008 68.0213 51.3206C68.4139 51.4415 68.8038 51.5632 69.1942 51.6728C69.98 51.8936 70.7188 52.0518 71.3774 52.0518C72.7721 52.0518 74.1528 51.9016 75.581 51.7344L75.7766 51.7091C77.7768 51.4238 79.1185 50.4175 80.0744 48.6051L80.129 48.4973C80.3884 47.9574 80.4643 47.4094 80.4668 46.8062C80.4668 46.7697 80.4659 46.7335 80.4654 46.697L80.0684 46.7241C79.5666 46.7582 79.1331 46.3571 79.1007 45.8283L78.832 41.4474L73.5652 41.7477C73.1138 41.7732 72.7199 41.4046 72.6881 40.9233L72.5909 39.4142C72.1832 32.9463 71.9996 28.2735 71.9207 24.7903C72.8569 24.7309 73.8019 24.671 74.7481 24.6107C77.3094 24.4479 79.8794 24.2837 82.3067 24.1293C82.2947 24.269 82.298 24.4084 82.3235 24.5433L82.3515 24.6746C82.3806 24.7976 82.4135 24.8975 82.4421 24.9735C82.4614 25.0238 82.479 25.0638 82.493 25.0932C82.4998 25.108 82.506 25.1204 82.5109 25.1299C82.5134 25.1346 82.5156 25.1391 82.5176 25.1423L82.5212 25.1487L82.522 25.1505C82.6297 25.3398 82.8629 25.401 83.0425 25.2876C83.2206 25.1751 83.2797 24.933 83.176 24.7445C83.176 24.7445 83.1742 24.7407 83.172 24.7361C83.1669 24.7255 83.1578 24.7057 83.1467 24.6764C83.13 24.6325 83.1083 24.5672 83.0876 24.4807L83.0678 24.3866C83.0474 24.2786 83.0585 24.1127 83.1254 23.8971C83.1906 23.6866 83.3014 23.455 83.4462 23.2307C83.7249 22.7989 84.0902 22.4533 84.4201 22.3116L84.4856 22.286C84.9621 22.1187 85.4453 21.8944 85.8483 21.4699C86.2551 21.0413 86.5485 20.4432 86.7112 19.5867C86.8553 18.8275 87.1307 18.3055 87.4351 18.0723C87.5779 17.963 87.7278 17.9158 87.8914 17.9283ZM56.2896 48.1619L56.1799 48.1834C55.9996 48.2257 55.744 48.4152 55.4092 48.7819C55.2533 48.9526 55.1021 49.136 54.9484 49.3227C54.8005 49.5023 54.6431 49.6939 54.4948 49.8503C54.2414 50.1172 54.1901 50.2475 54.1661 50.3565C54.1277 50.5319 54.1386 50.7237 54.1386 51.2453C54.1386 51.6642 54.2352 51.9608 54.3764 52.1867C54.5214 52.4185 54.7388 52.6157 55.0341 52.7904C55.6561 53.1583 56.4603 53.3447 57.3377 53.6016L57.4305 53.627C59.385 54.1323 61.4658 52.593 61.4658 50.5137C61.4658 50.2835 61.4838 49.9801 61.4926 49.7257C61.4982 49.5622 61.5 49.4013 61.4966 49.2462C61.3927 49.1786 61.2875 49.1119 61.1807 49.0469L61.0155 48.9482C60.0624 48.3908 57.481 47.9734 56.2896 48.1619Z" fill="white"/>
<path d="M79.6525 9.19324C80.411 9.13921 80.8749 9.4527 81.1691 9.85442C81.4777 10.2763 81.6103 10.8158 81.6332 11.183C81.6332 11.1852 81.6336 11.1876 81.6336 11.1898L81.634 11.1958C81.6518 11.6737 81.7164 12.5644 81.7791 13.4804C81.8423 14.4105 81.9038 15.3707 81.9163 15.9982C81.9267 16.5244 81.7202 17.0276 81.3503 17.3586C81.0099 17.663 80.5051 17.8443 79.8423 17.7281L79.7076 17.7009C79.0923 17.56 78.7798 17.2136 78.6055 16.8433C78.4239 16.4574 78.3848 16.0268 78.373 15.7209C78.3757 15.6434 78.3733 15.5648 78.3655 15.4857L78.1736 11.6867C78.1672 11.5112 78.1588 11.3008 78.1397 11.0777C78.1543 10.6492 78.2505 10.1935 78.4756 9.84317C78.6786 9.52783 79.0017 9.27073 79.5417 9.20416L79.6525 9.19324Z" fill="white"/>
<path d="M75.8008 9.35281C76.467 9.29707 76.8067 9.5275 77.0103 9.82284C77.2355 10.1493 77.3354 10.6157 77.3803 11.1021C77.3752 11.3354 77.3896 11.5546 77.4162 11.7442L77.6079 15.5341C77.6088 15.5581 77.609 15.5865 77.6099 15.6222C77.6108 15.6505 77.6121 15.6824 77.6132 15.7168C77.5954 15.9929 77.4387 16.2376 77.1436 16.3961C76.8582 16.5492 76.4468 16.615 75.9612 16.5079L75.863 16.4844C75.3314 16.3442 75.001 15.9576 74.7936 15.5041C74.6093 15.1012 74.5361 14.671 74.5158 14.3957L74.5101 14.2876L74.5087 14.2617L74.2403 11.2623C74.2418 10.9313 74.2933 10.4783 74.5047 10.1014C74.6926 9.76652 75.0252 9.45544 75.6678 9.3675L75.8008 9.35281Z" fill="white"/>
<path d="M83.796 9.03239C84.6664 8.94071 85.224 9.51036 85.4649 9.93247L85.4849 9.97462C85.5033 10.0212 85.5169 10.0819 85.5238 10.1608L85.7871 13.2442C85.8217 14.2244 85.6139 14.8927 85.3177 15.3402C85.0206 15.7886 84.6129 16.0485 84.193 16.1728C83.7678 16.2986 83.3428 16.2808 83.037 16.1865C82.8834 16.1391 82.7783 16.0784 82.7195 16.0257C82.6891 15.9985 82.6784 15.9804 82.6751 15.9732C82.6617 15.3215 82.5987 14.3443 82.5359 13.4232C82.4723 12.489 82.4088 11.6152 82.3922 11.1567L82.3915 11.1486C82.3913 11.144 82.3913 11.1391 82.3909 11.1346L82.3824 10.9078C82.3731 10.3929 82.4428 9.97871 82.6151 9.67731C82.785 9.38029 83.0883 9.13533 83.6752 9.04799L83.796 9.03239Z" fill="white"/>
<path d="M71.9721 9.98962C72.6249 9.89001 72.9489 10.0869 73.1347 10.3172C73.3448 10.578 73.4405 10.9584 73.4838 11.3235L73.7474 14.2717C73.6879 14.5367 73.5839 14.8499 73.3928 15.0694C73.2953 15.181 73.1767 15.267 73.025 15.3136C72.8912 15.3547 72.7137 15.3704 72.4793 15.3267L72.3749 15.3042C71.8 15.1638 71.4121 14.6996 71.1514 14.0584C70.8905 13.4162 70.7855 12.658 70.7508 12.0687C70.7175 11.5003 70.7917 11.0095 70.982 10.6536C71.1503 10.3387 71.4247 10.0994 71.8788 10.0065L71.9721 9.98962Z" fill="white"/>
<path d="M97.1047 10.455C97.7362 10.4469 98.1672 10.603 98.457 10.8135C98.7661 11.038 98.9466 11.3476 99.0341 11.6689C99.1232 11.996 99.1116 12.3455 99.049 12.5762C99.0172 12.6921 98.9784 12.7646 98.9504 12.7998C98.9491 12.8014 98.9464 12.8042 98.9464 12.8042C98.469 12.8191 97.7704 12.8728 97.1141 12.9263C96.4317 12.9818 95.847 13.0509 95.4451 13.1098C95.2377 13.1403 95.0938 13.2483 95.103 13.4687C95.1121 13.6892 95.2913 13.8212 95.5006 13.8115C95.8497 13.7954 96.4441 13.7608 97.1141 13.7063C97.7924 13.6511 98.5485 13.6147 99.0033 13.6021C99.3619 13.5921 99.704 13.7232 99.9285 13.9988C100.133 14.2502 100.262 14.6299 100.184 15.1421L100.165 15.2465C100.071 15.7148 99.8388 15.8766 99.5915 16.0077C99.3254 16.1485 99.0534 16.1793 98.8032 16.191C98.5527 16.2027 95.8735 16.4428 95.8735 16.4428C95.6643 16.4558 95.4993 16.5713 95.5115 16.7916C95.5231 16.998 95.6814 17.0773 95.8735 17.0861C95.8735 17.0861 98.3768 16.9817 98.5427 16.9925C98.8771 17.0143 99.128 17.1736 99.2331 17.3877C99.335 17.596 99.3843 17.9069 99.3117 18.2828L99.295 18.359C99.2031 18.7546 98.9462 19.0049 98.632 19.1666C98.3111 19.3317 97.9623 19.3852 97.7818 19.3918L97.7571 19.3933L95.5553 19.6248C95.3468 19.6467 95.1913 19.7785 95.212 19.998C95.2329 20.2175 95.4043 20.2963 95.6126 20.2745L97.5546 20.1618C97.8581 20.1618 98.0875 20.3606 98.1874 20.4892C98.2874 20.6179 98.3917 20.9257 98.3096 21.3079C98.2274 21.69 98.0815 21.92 97.6783 22.1142C97.2606 22.3152 96.7264 22.4035 96.1768 22.4424C95.8908 22.4627 93.017 22.6463 88.8925 22.9093L88.9728 22.6826C89.2691 21.8247 89.6299 20.8563 89.7509 19.9858C89.8735 19.1026 89.7647 18.1968 88.9953 17.5891C88.6509 17.317 88.2985 17.1576 87.9463 17.1306C87.5884 17.1032 87.2633 17.2157 86.9886 17.4261C86.4584 17.8324 86.1264 18.59 85.967 19.4296C85.826 20.1718 85.5879 20.6133 85.3117 20.9043C85.0317 21.1992 84.68 21.3748 84.2456 21.5273L84.1406 21.5683C83.6177 21.7902 83.1445 22.2762 82.8185 22.7813C82.7082 22.9523 82.61 23.1323 82.5296 23.3144C80.0245 23.474 77.3592 23.644 74.7029 23.8129C70.9063 24.0543 67.1285 24.2942 63.8631 24.5017L63.3947 24.5314C63.1435 24.5474 62.9136 24.3917 62.8369 24.1537L59.3765 13.4127C59.2675 13.0744 59.5085 12.7248 59.8657 12.7031C63.0871 12.508 66.5375 12.2978 69.9912 12.0871C69.9918 12.0974 69.9925 12.1078 69.9932 12.118C70.03 12.7487 70.144 13.6104 70.4539 14.3729C70.7641 15.1364 71.2995 15.8624 72.2037 16.0831L72.3476 16.1141C72.6782 16.1755 72.9744 16.1618 73.2371 16.0813C73.5384 15.9888 73.7729 15.8153 73.9517 15.6103C73.9652 15.5945 73.9785 15.5781 73.9916 15.562L73.9927 15.5606C74.0272 15.6571 74.0658 15.7544 74.11 15.8508C74.3815 16.4447 74.8629 17.0448 75.6785 17.2599L75.8047 17.2902C76.4317 17.4286 77.0239 17.3578 77.4885 17.1085C77.6019 17.0476 77.7076 16.9752 77.804 16.8933C77.838 16.9948 77.8777 17.0975 77.9254 17.1987C78.1932 17.7675 78.6864 18.2851 79.5464 18.482L79.7205 18.5173C80.582 18.6673 81.3153 18.4386 81.8413 17.9683C82.1779 17.6672 82.4184 17.2762 82.5523 16.8471C82.6389 16.8891 82.7299 16.925 82.8236 16.9539C83.2693 17.0913 83.8395 17.108 84.3986 16.9426C84.9631 16.7756 85.5291 16.4186 85.9403 15.7977C86.3258 15.2156 86.5561 14.4303 86.5496 13.4129L86.5452 13.2064L86.5441 13.1858L86.3649 11.0893C91.9847 10.7475 96.1144 10.4989 96.9757 10.459L97.1047 10.455Z" fill="white"/>
<path d="M29.1656 26.7838L29.1465 28.1231V35.5186L29.1845 39.0364V40.0358L29.2034 40.9752C29.1276 41.0818 28.8177 41.1352 28.2736 41.1352H27.7803L21.822 41.2151C19.2919 41.2151 17.407 41.2084 16.1672 41.195C15.9775 40.982 15.288 39.0432 14.0989 35.3785L10.4745 25.2448L9.79142 25.3447L9.77243 27.3835V32.8003L9.84835 38.2168V40.4557C9.84835 41.0552 9.72185 41.3684 9.46882 41.395C8.21644 41.355 7.02098 41.3351 5.88244 41.3351H5.29419L2.42889 41.4149H2.04937L0.683121 41.4549L0.626195 41.4149C0.208731 41.0018 0 40.702 0 40.5156V40.1558L0.0189757 39.7561L0.113854 31.9606C0.113854 23.4059 0.189756 16.9364 0.341561 12.5524L0.379513 10.8934C0.379513 10.7735 4.73758 10.6669 13.4537 10.5736C13.5296 10.6269 13.6435 10.9201 13.7953 11.4531V11.3931L13.9091 11.7929C14.8453 14.6178 15.9838 17.8626 17.3247 21.527C18.6657 25.1781 19.3488 27.0437 19.3741 27.1237L20.0193 27.0837L20.0952 10.7935C20.0952 10.6869 21.0187 10.6336 22.8656 10.6336L27.6286 10.7335H29.0326C29.1212 15.1442 29.1656 20.4943 29.1656 26.7838Z" fill="white"/>
<path d="M63.2837 40.9953C63.271 41.1684 62.9231 41.2552 62.2401 41.2552H60.4943L59.3177 41.275H58.1603L56.3196 41.2952C54.4852 41.2952 52.9608 41.2484 51.7465 41.1553C51.7085 41.142 51.6643 41.062 51.6137 40.9153L51.5189 40.4955C51.4049 39.123 51.1076 37.7972 50.6269 36.5181L42.5054 36.5978C42.4548 36.8245 42.2903 37.4974 42.012 38.6166C41.7336 39.736 41.5249 40.5822 41.3859 41.1553C41.2593 41.2884 40.6584 41.355 39.583 41.355L39.1087 41.3351H38.008L33.0746 41.4549H32.5052L31.9739 41.475H30.6456C30.557 41.3817 30.4621 41.2617 30.3609 41.1153C31.6259 36.5047 33.3401 30.7881 35.5033 23.9656L35.9399 22.5464H35.9208L36.4333 20.8874C36.5976 20.3544 37.0657 18.8753 37.8373 16.4501C38.6218 14.0249 39.1087 12.4592 39.2984 11.7529C39.5009 11.0467 39.621 10.6802 39.659 10.6536H42.809L49.5453 10.5536L51.367 10.6536L52.866 10.5536C53.625 10.5536 54.0045 10.7135 54.0045 11.0333C55.2697 14.7511 56.9584 20.1012 59.071 27.0837C61.1838 34.0661 62.3728 37.9904 62.6384 38.8566L62.9042 39.856C62.9928 40.2157 63.1192 40.5956 63.2837 40.9953ZM44.4979 30.0817L45.2757 30.1019L49.8111 30.0817C49.6212 28.4962 49.4758 27.3302 49.3745 26.5841L48.6535 23.166C47.8943 19.6348 47.5022 17.8359 47.4769 17.7693C47.4516 17.7026 47.4263 17.6427 47.4012 17.5894C47.3885 17.5228 47.3759 17.4828 47.3632 17.4695C47.3505 17.4428 47.3315 17.4028 47.3061 17.3495C47.2935 17.2962 47.2746 17.2629 47.2493 17.2496C47.2366 17.223 47.2175 17.1896 47.1924 17.1496C47.1038 16.9898 46.9204 16.8498 46.642 16.7299C46.3005 16.8098 45.2822 20.8208 43.587 28.7626L43.3783 30.0817H44.4979ZM51.6516 0.0599637L54.8774 0C55.6492 0 56.054 0.0533012 56.092 0.159903C56.1552 2.18535 56.1994 4.46396 56.2247 6.99579C56.1868 7.07573 56.1299 7.12637 56.1299 7.17967L56.0349 7.17567L49.716 7.45551L49.2226 6.87584C49.2226 5.74321 49.2606 4.35738 49.3366 2.71835C49.4125 1.06602 49.5264 0.159903 49.6781 0C50.374 0.039976 51.0317 0.0599637 51.6516 0.0599637ZM45.3328 1.43913L45.3708 3.39796V4.01757C45.3708 5.47004 45.377 6.5094 45.3896 7.1357C45.2631 7.28228 44.7508 7.35556 43.8526 7.35556L43.4542 7.33557H42.4863L38.938 7.47548L38.4826 6.7759C38.4826 2.59177 38.6218 0.333132 38.9 0C39.3554 0.0133253 40.3169 0.0266505 41.7842 0.039976C43.2644 0.039976 44.4093 0.0533012 45.2189 0.0799517C45.3075 0.106602 45.3517 0.273169 45.3517 0.579651L45.3328 0.799517V1.43913Z" fill="white"/>
<path d="M101.975 32.5203L112.013 32.3405C112.266 32.3405 112.475 32.5671 112.639 33.0202C112.816 33.4732 112.987 33.833 113.152 34.0994C113.544 34.7391 114.189 35.0588 115.087 35.0588C115.998 35.0588 116.732 34.8389 117.288 34.3992C117.845 33.9462 118.123 33.3666 118.123 32.6602C118.123 31.9541 117.952 31.4744 117.611 31.221C117.269 30.9546 116.896 30.7016 116.491 30.4616C116.087 30.2085 115.485 30.0153 114.689 29.882C113.904 29.7487 113.474 29.6687 113.398 29.642H113.436L112.355 29.3424C111.659 29.2091 111.077 29.0624 110.609 28.9024C107.585 28.0497 105.397 26.977 104.043 25.6845C102.702 24.392 102.032 22.653 102.032 20.4676C102.032 18.882 102.31 17.4561 102.867 16.1902C103.423 14.9243 104.151 13.8916 105.049 13.0921C107.642 10.7868 111.222 9.6342 115.789 9.6342C119.42 9.6342 122.272 10.3271 124.347 11.7129H124.328C125.656 12.7257 126.567 13.7251 127.061 14.7111C127.554 15.6839 127.864 16.8898 127.99 18.329L127.497 18.8486C124.17 18.9819 121.223 19.0485 118.655 19.0485C117.883 19.0485 117.421 18.8086 117.269 18.329C117.206 18.1291 117.136 17.9292 117.06 17.7293C116.884 17.2496 116.314 17.0097 115.353 17.0097H115.277C114.53 17.0097 113.892 17.1963 113.36 17.5694C112.829 17.9292 112.557 18.2823 112.544 18.6288C112.544 18.9752 112.614 19.2617 112.753 19.4883C112.905 19.7148 113.063 19.8947 113.227 20.0279C113.392 20.1612 113.645 20.3011 113.986 20.4477C114.328 20.5809 114.581 20.6742 114.746 20.7275C114.923 20.7675 115.195 20.8408 115.561 20.9474L116.226 21.1273C116.491 21.2072 117.263 21.4071 118.541 21.7269C119.831 22.0467 120.906 22.3532 121.767 22.6463V22.6264C124.461 23.5858 126.295 24.785 127.269 26.2241C128.256 27.6499 128.75 29.3157 128.75 31.221C128.75 36.2982 125.872 39.5894 120.116 41.0952C118.446 41.5349 116.662 41.8481 114.764 42.0347C112.437 42.0347 110.135 41.6748 107.857 40.9553C105.58 40.2356 104.056 39.0631 103.284 37.4375C102.766 36.6512 102.418 35.9317 102.241 35.2787C102.064 34.6125 101.918 33.6863 101.804 32.5005C101.842 32.5138 101.899 32.5203 101.975 32.5203Z" fill="white"/>
<path d="M140.932 23.5858C140.78 27.3569 140.704 31.2344 140.704 35.2188V41.1752H139.319L138.845 41.1553L132.108 41.2152C131.678 41.2152 131.45 41.2217 131.425 41.235C131.425 41.2217 131.45 41.1085 131.501 40.8954V40.7754L131.52 40.6954C131.457 39.736 131.425 38.57 131.425 37.1975L131.501 14.871L131.482 13.8317V12.8323L131.444 10.9534C131.444 10.8201 131.514 10.6802 131.653 10.5336H134.252L135.771 10.5137C139.338 10.5137 141.887 10.5669 143.418 10.6736C144.961 10.7802 146.068 10.8335 146.739 10.8335C147.105 13.1254 147.649 16.1636 148.37 19.948L149.718 27.1036H150.382L152.811 14.0315C152.849 13.8317 152.937 13.252 153.076 12.2926C153.215 11.3198 153.323 10.7802 153.399 10.6736H153.475L165.828 10.5536L166.568 10.5736H168.693C168.807 10.6269 168.87 10.8734 168.883 11.3132L169.073 18.8686C169.225 25.1316 169.332 30.0085 169.395 33.4999C169.395 36.1916 169.357 38.7167 169.281 41.0753C169.243 41.235 168.99 41.3284 168.522 41.355L167.669 41.395C166.985 41.4217 166.479 41.435 166.151 41.435H165.164C163.937 41.4484 162.128 41.4549 159.737 41.4549C159.294 41.0418 159.073 39.2563 159.073 36.0982L159.111 29.8221V28.2031C159.111 26.7773 159.104 25.7245 159.092 25.0448L158.371 24.9049C157.953 26.5174 157.15 30.1084 155.961 35.6784L155.79 36.4781C155.701 36.8911 155.549 37.6307 155.334 38.6966C155.132 39.7493 154.968 40.5488 154.841 41.0952C154.689 41.2818 154.019 41.3751 152.83 41.3751H152.583L150.458 41.315L149.3 41.3351H148.408L146.909 41.355H146.378C145.796 41.355 145.474 41.2152 145.41 40.9352L145.429 40.9553L143.702 33.0202C143.652 32.8202 143.538 32.387 143.361 31.7209C143.184 31.0412 143.082 30.4749 143.057 30.0219L141.634 23.5458L140.932 23.5858Z" fill="white"/>
<path d="M202.792 40.9953C202.78 41.1684 202.432 41.2552 201.749 41.2552H200.003L198.827 41.275H197.669L195.828 41.2952C193.994 41.2952 192.47 41.2484 191.255 41.1553C191.217 41.142 191.173 41.062 191.122 40.9153L191.028 40.4955C190.914 39.123 190.616 37.7972 190.136 36.5181L182.014 36.5978C181.964 36.8245 181.799 37.4974 181.521 38.6166C181.243 39.736 181.034 40.5822 180.895 41.1553C180.768 41.2884 180.167 41.355 179.092 41.355L178.617 41.3351H177.517L172.583 41.4549H172.014L171.483 41.475H170.154C170.066 41.3817 169.971 41.2617 169.87 41.1153C171.135 36.5047 172.849 30.7881 175.012 23.9656L175.449 22.5464H175.429L175.942 20.8874C176.106 20.3544 176.574 18.8753 177.346 16.4501C178.13 14.0249 178.617 12.4592 178.807 11.7529C179.01 11.0467 179.13 10.6802 179.168 10.6536H182.318L189.054 10.5536L190.876 10.6536L192.375 10.5536C193.134 10.5536 193.513 10.7135 193.513 11.0333C194.778 14.7511 196.467 20.1012 198.58 27.0837C200.692 34.0661 201.882 37.9904 202.147 38.8566L202.413 39.856C202.502 40.2157 202.628 40.5956 202.792 40.9953ZM184.007 30.0817L184.785 30.1019L189.32 30.0817C189.13 28.4962 188.984 27.3302 188.883 26.5841L188.162 23.166C187.403 19.6348 187.011 17.8359 186.986 17.7693C186.96 17.7026 186.935 17.6427 186.91 17.5894C186.897 17.5228 186.885 17.4828 186.872 17.4695C186.859 17.4428 186.84 17.4028 186.815 17.3495C186.802 17.2962 186.783 17.2629 186.758 17.2496C186.745 17.223 186.726 17.1896 186.701 17.1496C186.613 16.9898 186.429 16.8498 186.151 16.7299C185.809 16.8098 184.791 20.8208 183.096 28.7626L182.887 30.0817H184.007Z" fill="white"/>
<path d="M212.318 10.7135L218.409 10.6536C219.7 10.6536 220.87 10.6802 221.92 10.7335C224.74 10.8135 226.885 11.5131 228.353 12.8323C229.832 14.1515 230.573 16.0104 230.573 18.4089C230.573 20.0746 230.111 21.5004 229.188 22.6863C228.264 23.859 226.916 24.8916 225.146 25.7844C227.953 26.7172 229.656 28.9824 230.251 32.5805C230.389 33.3666 230.498 34.2659 230.573 35.2787C230.662 36.2914 230.731 36.9711 230.782 37.3175L230.971 38.3368C231.173 39.5363 231.35 40.4024 231.504 40.9352L231.426 40.9953C229.276 41.142 227.309 41.2152 225.526 41.2152C223.754 41.2152 222.186 41.1817 220.819 41.1153H220.705C220.313 41.1153 219.896 39.1496 219.453 35.2188L219.358 34.3592C219.308 32.8934 219.061 31.9075 218.618 31.4012C218.188 30.8948 217.435 30.6415 216.36 30.6415L216.113 30.6616H215.108V36.7379L215.127 37.3774V41.0353C215.089 41.1684 214.994 41.2484 214.842 41.275C213.45 41.3284 211.483 41.355 208.94 41.355C206.41 41.355 204.741 41.3618 203.931 41.3751L203.817 41.3352L203.779 41.355C203.754 41.355 203.716 41.3352 203.665 41.2952L203.703 39.4963L203.684 38.8966L203.76 30.6015V29.1424L203.779 27.6434L203.798 22.4664L203.817 21.7869L203.76 17.2496C203.76 17.2496 203.785 15.1242 203.836 10.8735C203.836 10.7668 204.197 10.7135 204.918 10.7135L206.132 10.7335H207.29L209.699 10.7535L212.318 10.7135ZM231.617 40.8753L231.521 40.9352V40.8954C231.521 40.8821 231.552 40.8753 231.617 40.8753ZM231.521 40.9352V40.9553C231.508 40.9553 231.504 40.9485 231.504 40.9352H231.521ZM219.339 17.2296C218.58 16.8832 217.568 16.7099 216.303 16.7099H215.203C215.063 16.9231 214.994 18.0491 214.994 20.0879C214.994 22.1133 215.025 23.4726 215.089 24.1654C219.048 24.072 221.028 22.633 221.028 19.848C221.028 18.6621 220.465 17.7893 219.339 17.2296Z" fill="white"/>
<path d="M256 18.0891C256 18.5288 255.956 18.7487 255.867 18.7487C255.867 18.7487 253.577 18.7287 248.999 18.6887C248.972 19.9813 248.961 22.0001 248.961 24.745C248.961 27.4902 248.965 29.3955 248.979 30.4616L249.054 41.0552C248.992 41.2418 248.866 41.3417 248.675 41.355L244.671 41.2952L244.653 41.315L243.401 41.2952H239.928C238.991 41.2952 238.289 41.3017 237.821 41.315L237.499 41.0152C237.486 41.0019 237.403 40.8954 237.252 40.6955C237.252 39.5229 237.297 36.9178 237.386 32.8801L237.594 22.2466L237.557 21.7469C237.468 20.4277 237.379 19.6482 237.29 19.4083C237.215 19.1551 237.057 19.0219 236.815 19.0085C236.575 18.9819 236.398 18.9686 236.284 18.9686L235.525 19.0085L230.82 18.9286C230.655 18.5821 230.573 17.8026 230.573 16.59L230.611 14.8311V14.2914C230.598 12.1593 230.58 11.02 230.553 10.8735C230.58 10.8735 230.629 10.8868 230.706 10.9134L254.861 10.6936C255.354 10.6936 255.665 10.7335 255.791 10.8135C255.918 10.8801 255.98 11.0134 255.98 11.2133V16.4901L256 18.0891Z" fill="white"/>
</svg>
